<svg width="1920" height="1268" viewBox="0 0 1920 1268" fill="none" xmlns="http://www.w3.org/2000/svg">
<rect width="7.33186" height="8.13415" rx="2" transform="matrix(-1 0 0 1 7.33203 1177.68)" fill="#FF0000"/>
<rect width="7.33186" height="8.13415" rx="2" transform="matrix(-1 0 0 1 7.33203 1218.35)" fill="#FF0000"/>
<rect width="7.33186" height="8.13415" rx="2" transform="matrix(-1 0 0 1 7.33203 1198.01)" fill="#FF0000"/>
<rect width="7.33186" height="8.13415" rx="2" transform="matrix(-1 0 0 1 7.33203 1238.68)" fill="#FF0000"/>
<rect width="7.33186" height="8.13415" rx="2" transform="matrix(-1 0 0 1 7.33203 1259.02)" fill="#FF0000"/>
<rect x="62.3203" y="1165.48" width="7.33186" height="8.13415" rx="2" transform="rotate(180 62.3203 1165.48)" fill="#FF0000"/>
<rect x="62.3203" y="1124.8" width="7.33186" height="8.13415" rx="2" transform="rotate(180 62.3203 1124.8)" fill="#FF0000"/>
<rect x="62.3203" y="1145.14" width="7.33186" height="8.13415" rx="2" transform="rotate(180 62.3203 1145.14)" fill="#FF0000"/>
<rect x="62.3203" y="1104.47" width="7.33186" height="8.13415" rx="2" transform="rotate(180 62.3203 1104.47)" fill="#FF0000"/>
<rect x="62.3203" y="1084.13" width="7.33186" height="8.13415" rx="2" transform="rotate(180 62.3203 1084.13)" fill="#FF0000"/>
<rect width="7.33186" height="8.13415" rx="2" transform="matrix(-1 0 0 1 25.6621 1177.68)" fill="#FF0000"/>
<rect width="7.33186" height="8.13415" rx="2" transform="matrix(-1 0 0 1 25.6621 1218.35)" fill="#FF0000"/>
<rect width="7.33186" height="8.13415" rx="2" transform="matrix(-1 0 0 1 25.6621 1198.01)" fill="#FF0000"/>
<rect width="7.33186" height="8.13415" rx="2" transform="matrix(-1 0 0 1 25.6621 1238.68)" fill="#FF0000"/>
<rect width="7.33186" height="8.13415" rx="2" transform="matrix(-1 0 0 1 25.6621 1259.02)" fill="#FF0000"/>
<rect x="80.6504" y="1165.48" width="7.33186" height="8.13415" rx="2" transform="rotate(180 80.6504 1165.48)" fill="#FF0000"/>
<rect x="80.6504" y="1124.8" width="7.33186" height="8.13415" rx="2" transform="rotate(180 80.6504 1124.8)" fill="#FF0000"/>
<rect x="80.6504" y="1145.14" width="7.33186" height="8.13415" rx="2" transform="rotate(180 80.6504 1145.14)" fill="#FF0000"/>
<rect x="80.6504" y="1104.47" width="7.33186" height="8.13415" rx="2" transform="rotate(180 80.6504 1104.47)" fill="#FF0000"/>
<rect x="80.6504" y="1084.13" width="7.33186" height="8.13415" rx="2" transform="rotate(180 80.6504 1084.13)" fill="#FF0000"/>
<rect width="7.33186" height="8.13415" rx="2" transform="matrix(-1 0 0 1 43.9922 1076)" fill="#0DB760"/>
<rect width="7.33186" height="8.13415" rx="2" transform="matrix(-1 0 0 1 43.9922 1116.67)" fill="#0DB760"/>
<rect width="7.33186" height="8.13415" rx="2" transform="matrix(-1 0 0 1 43.9922 1096.33)" fill="#0DB760"/>
<rect width="7.33186" height="8.13415" rx="2" transform="matrix(-1 0 0 1 43.9922 1137.01)" fill="#0DB760"/>
<rect width="7.33186" height="8.13415" rx="2" transform="matrix(-1 0 0 1 43.9922 1157.34)" fill="#0DB760"/>
<rect width="7.33186" height="8.13415" rx="2" transform="matrix(-1 0 0 1 7.33203 1076)" fill="#0DB760"/>
<rect width="7.33186" height="8.13415" rx="2" transform="matrix(-1 0 0 1 7.33203 1116.67)" fill="#0DB760"/>
<rect width="7.33186" height="8.13415" rx="2" transform="matrix(-1 0 0 1 7.33203 1096.33)" fill="#0DB760"/>
<rect width="7.33186" height="8.13415" rx="2" transform="matrix(-1 0 0 1 7.33203 1137.01)" fill="#0DB760"/>
<rect width="7.33186" height="8.13415" rx="2" transform="matrix(-1 0 0 1 7.33203 1157.34)" fill="#0DB760"/>
<rect x="62.3203" y="1267.15" width="7.33186" height="8.13415" rx="2" transform="rotate(180 62.3203 1267.15)" fill="#0DB760"/>
<rect x="62.3203" y="1226.48" width="7.33186" height="8.13415" rx="2" transform="rotate(180 62.3203 1226.48)" fill="#0DB760"/>
<rect x="62.3203" y="1246.82" width="7.33186" height="8.13415" rx="2" transform="rotate(180 62.3203 1246.82)" fill="#0DB760"/>
<rect x="62.3203" y="1206.15" width="7.33186" height="8.13415" rx="2" transform="rotate(180 62.3203 1206.15)" fill="#0DB760"/>
<rect x="62.3203" y="1185.81" width="7.33186" height="8.13415" rx="2" transform="rotate(180 62.3203 1185.81)" fill="#0DB760"/>
<rect width="7.33186" height="8.13415" rx="2" transform="matrix(-1 0 0 1 25.6621 1076)" fill="#0DB760"/>
<rect width="7.33186" height="8.13415" rx="2" transform="matrix(-1 0 0 1 25.6621 1116.67)" fill="#0DB760"/>
<rect width="7.33186" height="8.13415" rx="2" transform="matrix(-1 0 0 1 25.6621 1096.33)" fill="#0DB760"/>
<rect width="7.33186" height="8.13415" rx="2" transform="matrix(-1 0 0 1 25.6621 1137.01)" fill="#0DB760"/>
<rect width="7.33186" height="8.13415" rx="2" transform="matrix(-1 0 0 1 25.6621 1157.34)" fill="#0DB760"/>
<rect x="80.6504" y="1267.15" width="7.33186" height="8.13415" rx="2" transform="rotate(180 80.6504 1267.15)" fill="#0DB760"/>
<rect x="80.6504" y="1226.48" width="7.33186" height="8.13415" rx="2" transform="rotate(180 80.6504 1226.48)" fill="#0DB760"/>
<rect x="80.6504" y="1246.82" width="7.33186" height="8.13415" rx="2" transform="rotate(180 80.6504 1246.82)" fill="#0DB760"/>
<rect x="80.6504" y="1206.15" width="7.33186" height="8.13415" rx="2" transform="rotate(180 80.6504 1206.15)" fill="#0DB760"/>
<rect x="80.6504" y="1185.81" width="7.33186" height="8.13415" rx="2" transform="rotate(180 80.6504 1185.81)" fill="#0DB760"/>
<rect width="7.33186" height="8.13415" rx="2" transform="matrix(-1 0 0 1 43.9922 1177.68)" fill="#0DB760"/>
<rect width="7.33186" height="8.13415" rx="2" transform="matrix(-1 0 0 1 43.9922 1218.35)" fill="#0DB760"/>
<rect width="7.33186" height="8.13415" rx="2" transform="matrix(-1 0 0 1 43.9922 1198.01)" fill="#0DB760"/>
<rect width="7.33186" height="8.13415" rx="2" transform="matrix(-1 0 0 1 43.9922 1238.68)" fill="#0DB760"/>
<rect width="7.33186" height="8.13415" rx="2" transform="matrix(-1 0 0 1 43.9922 1259.02)" fill="#0DB760"/>
<rect x="1912.67" y="101.678" width="7.33186" height="8.13415" rx="2" fill="#FF0000"/>
<rect x="1912.67" y="142.349" width="7.33186" height="8.13415" rx="2" fill="#FF0000"/>
<rect x="1912.67" y="122.012" width="7.33186" height="8.13415" rx="2" fill="#FF0000"/>
<rect x="1912.67" y="162.685" width="7.33186" height="8.13415" rx="2" fill="#FF0000"/>
<rect x="1912.67" y="183.019" width="7.33186" height="8.13415" rx="2" fill="#FF0000"/>
<rect width="7.33186" height="8.13415" rx="2" transform="matrix(1 0 0 -1 1857.68 89.4766)" fill="#FF0000"/>
<rect width="7.33186" height="8.13415" rx="2" transform="matrix(1 0 0 -1 1857.68 48.8052)" fill="#FF0000"/>
<rect width="7.33186" height="8.13415" rx="2" transform="matrix(1 0 0 -1 1857.68 69.1401)" fill="#FF0000"/>
<rect width="7.33186" height="8.13415" rx="2" transform="matrix(1 0 0 -1 1857.68 28.4707)" fill="#FF0000"/>
<rect width="7.33186" height="8.13415" rx="2" transform="matrix(1 0 0 -1 1857.68 8.13428)" fill="#FF0000"/>
<rect x="1894.34" y="101.678" width="7.33186" height="8.13415" rx="2" fill="#FF0000"/>
<rect x="1894.34" y="142.349" width="7.33186" height="8.13415" rx="2" fill="#FF0000"/>
<rect x="1894.34" y="122.012" width="7.33186" height="8.13415" rx="2" fill="#FF0000"/>
<rect x="1894.34" y="162.685" width="7.33186" height="8.13415" rx="2" fill="#FF0000"/>
<rect x="1894.34" y="183.019" width="7.33186" height="8.13415" rx="2" fill="#FF0000"/>
<rect width="7.33186" height="8.13415" rx="2" transform="matrix(1 0 0 -1 1839.35 89.4766)" fill="#FF0000"/>
<rect width="7.33186" height="8.13415" rx="2" transform="matrix(1 0 0 -1 1839.35 48.8052)" fill="#FF0000"/>
<rect width="7.33186" height="8.13415" rx="2" transform="matrix(1 0 0 -1 1839.35 69.1411)" fill="#FF0000"/>
<rect width="7.33186" height="8.13415" rx="2" transform="matrix(1 0 0 -1 1839.35 28.4707)" fill="#FF0000"/>
<rect width="7.33186" height="8.13415" rx="2" transform="matrix(1 0 0 -1 1839.35 8.13428)" fill="#FF0000"/>
<rect x="1876.01" y="0.000488281" width="7.33186" height="8.13415" rx="2" fill="#0DB760"/>
<rect x="1876.01" y="40.6719" width="7.33186" height="8.13415" rx="2" fill="#0DB760"/>
<rect x="1876.01" y="20.3359" width="7.33186" height="8.13415" rx="2" fill="#0DB760"/>
<rect x="1876.01" y="61.0078" width="7.33186" height="8.13415" rx="2" fill="#0DB760"/>
<rect x="1876.01" y="81.3442" width="7.33186" height="8.13415" rx="2" fill="#0DB760"/>
<rect x="1912.67" y="0.000488281" width="7.33186" height="8.13415" rx="2" fill="#0DB760"/>
<rect x="1912.67" y="40.6719" width="7.33186" height="8.13415" rx="2" fill="#0DB760"/>
<rect x="1912.67" y="20.3359" width="7.33186" height="8.13415" rx="2" fill="#0DB760"/>
<rect x="1912.67" y="61.0078" width="7.33186" height="8.13415" rx="2" fill="#0DB760"/>
<rect x="1912.67" y="81.3442" width="7.33186" height="8.13415" rx="2" fill="#0DB760"/>
<rect width="7.33186" height="8.13415" rx="2" transform="matrix(1 0 0 -1 1857.68 191.153)" fill="#0DB760"/>
<rect width="7.33186" height="8.13415" rx="2" transform="matrix(1 0 0 -1 1857.68 150.482)" fill="#0DB760"/>
<rect width="7.33186" height="8.13415" rx="2" transform="matrix(1 0 0 -1 1857.68 170.818)" fill="#0DB760"/>
<rect width="7.33186" height="8.13415" rx="2" transform="matrix(1 0 0 -1 1857.68 130.147)" fill="#0DB760"/>
<rect width="7.33186" height="8.13415" rx="2" transform="matrix(1 0 0 -1 1857.68 109.812)" fill="#0DB760"/>
<rect x="1894.34" y="0.000488281" width="7.33186" height="8.13415" rx="2" fill="#0DB760"/>
<rect x="1894.34" y="40.6719" width="7.33186" height="8.13415" rx="2" fill="#0DB760"/>
<rect x="1894.34" y="20.3359" width="7.33186" height="8.13415" rx="2" fill="#0DB760"/>
<rect x="1894.34" y="61.0078" width="7.33186" height="8.13415" rx="2" fill="#0DB760"/>
<rect x="1894.34" y="81.3442" width="7.33186" height="8.13415" rx="2" fill="#0DB760"/>
<rect width="7.33186" height="8.13415" rx="2" transform="matrix(1 0 0 -1 1839.35 191.153)" fill="#0DB760"/>
<rect width="7.33186" height="8.13415" rx="2" transform="matrix(1 0 0 -1 1839.35 150.482)" fill="#0DB760"/>
<rect width="7.33186" height="8.13415" rx="2" transform="matrix(1 0 0 -1 1839.35 170.818)" fill="#0DB760"/>
<rect width="7.33186" height="8.13415" rx="2" transform="matrix(1 0 0 -1 1839.35 130.147)" fill="#0DB760"/>
<rect width="7.33186" height="8.13415" rx="2" transform="matrix(1 0 0 -1 1839.35 109.812)" fill="#0DB760"/>
<rect x="1876.01" y="101.678" width="7.33186" height="8.13415" rx="2" fill="#0DB760"/>
<rect x="1876.01" y="142.349" width="7.33186" height="8.13415" rx="2" fill="#0DB760"/>
<rect x="1876.01" y="122.012" width="7.33186" height="8.13415" rx="2" fill="#0DB760"/>
<rect x="1876.01" y="162.685" width="7.33186" height="8.13415" rx="2" fill="#0DB760"/>
<rect x="1876.01" y="183.019" width="7.33186" height="8.13415" rx="2" fill="#0DB760"/>
<ellipse cx="1819.84" cy="601.324" rx="3.90244" ry="3.85654" fill="#24FF00"/>
<ellipse cx="1791.22" cy="735.016" rx="9.10569" ry="8.99859" fill="#FF0000"/>
<ellipse cx="1866.67" cy="839.143" rx="3.90244" ry="3.85654" fill="#0047FF"/>
</svg>
