<svg width="66" height="328" viewBox="0 0 66 328" fill="none" xmlns="http://www.w3.org/2000/svg">
<path d="M7.06694 3.11976C6.0967 2.15038 5.1227 1.17726 4.15245 0.207881C3.87524 -0.0690836 3.39948 -0.0690836 3.12226 0.207881C2.15201 1.17726 1.18177 2.14664 0.211517 3.11976C-0.0656973 3.39672 -0.0656973 3.87205 0.211517 4.14902C1.18177 5.11839 2.15576 6.09151 3.12601 7.06089C3.40322 7.33786 3.87898 7.33786 4.1562 7.06089C5.12645 6.09151 6.10044 5.11839 7.07069 4.14902C7.22054 3.99931 7.28047 3.82714 7.28047 3.66246C7.28047 3.65123 7.28047 3.64374 7.28047 3.63251C7.28047 3.62503 7.28047 3.6138 7.28047 3.60632C7.28047 3.44163 7.22054 3.26947 7.06694 3.11976ZM3.63923 5.51513C3.00988 4.88634 2.38427 4.2613 1.75492 3.63251C2.38427 3.00373 3.00988 2.37869 3.63923 1.7499C4.26858 2.37869 4.89419 3.00373 5.52354 3.63251C4.89419 4.2613 4.26858 4.88634 3.63923 5.51513Z" fill="url(#paint0_linear_54_3239)"/>
<path d="M36.2045 3.1196C35.2343 2.15022 34.2603 1.1771 33.29 0.207724C33.0128 -0.0692412 32.5371 -0.0692412 32.2598 0.207724C31.2896 1.1771 30.3156 2.15022 29.3454 3.1196C29.0681 3.39656 29.0681 3.87189 29.3454 4.14886C30.3156 5.11824 31.2896 6.09136 32.2598 7.06073C32.5371 7.3377 33.0128 7.3377 33.29 7.06073C34.2603 6.09136 35.2343 5.11824 36.2045 4.14886C36.3544 3.99915 36.4143 3.82698 36.4143 3.6623C36.4143 3.65107 36.4143 3.64359 36.4143 3.63236C36.4143 3.62487 36.4143 3.61364 36.4143 3.60616C36.4181 3.44148 36.3581 3.26931 36.2045 3.1196ZM32.7768 5.51497C32.1475 4.88618 31.5219 4.26114 30.8925 3.63236C31.5219 3.00357 32.1475 2.37853 32.7768 1.74974C33.4062 2.37853 34.0318 3.00357 34.6611 3.63236C34.0318 4.26114 33.4062 4.88618 32.7768 5.51497Z" fill="url(#paint1_linear_54_3239)"/>
<path d="M65.3457 3.1196C64.3754 2.15022 63.4014 1.1771 62.4312 0.207724C62.154 -0.0692412 61.6782 -0.0692412 61.401 0.207724C60.4308 1.1771 59.4568 2.15022 58.4865 3.1196C58.2093 3.39656 58.2093 3.87189 58.4865 4.14886C59.4568 5.11824 60.4308 6.09136 61.401 7.06073C61.6782 7.3377 62.154 7.3377 62.4312 7.06073C63.4014 6.09136 64.3754 5.11824 65.3457 4.14886C65.4955 3.99915 65.5555 3.82698 65.5555 3.6623C65.5555 3.65107 65.5555 3.64359 65.5555 3.63236C65.5555 3.62487 65.5555 3.61364 65.5555 3.60616C65.5555 3.44148 65.4955 3.26931 65.3457 3.1196ZM61.9142 5.51497C61.2849 4.88618 60.6593 4.26114 60.0299 3.63236C60.6593 3.00357 61.2849 2.37853 61.9142 1.74974C62.5436 2.37853 63.1692 3.00357 63.7985 3.63236C63.1692 4.26114 62.5436 4.88618 61.9142 5.51497Z" fill="url(#paint2_linear_54_3239)"/>
<path d="M21.6358 17.6754C20.6656 16.706 19.6916 15.7329 18.7213 14.7635C18.4441 14.4866 17.9684 14.4866 17.6911 14.7635C16.7209 15.7329 15.7469 16.706 14.7766 17.6754C14.4994 17.9524 14.4994 18.4277 14.7766 18.7047C15.7469 19.674 16.7209 20.6472 17.6911 21.6165C17.9684 21.8935 18.4441 21.8935 18.7213 21.6165C19.6916 20.6472 20.6656 19.674 21.6358 18.7047C21.7857 18.555 21.8456 18.3828 21.8456 18.2181C21.8456 18.2069 21.8456 18.1994 21.8456 18.1882C21.8456 18.1807 21.8456 18.1695 21.8456 18.162C21.8493 17.9973 21.7894 17.8251 21.6358 17.6754ZM18.2081 20.0708C17.5788 19.442 16.9532 18.817 16.3238 18.1882C16.9532 17.5594 17.5788 16.9343 18.2081 16.3056C18.8375 16.9343 19.4631 17.5594 20.0924 18.1882C19.4631 18.817 18.8375 19.442 18.2081 20.0708Z" fill="url(#paint3_linear_54_3239)"/>
<path d="M50.777 17.6754C49.8067 16.706 48.8328 15.7329 47.8625 14.7635C47.5853 14.4866 47.1095 14.4866 46.8323 14.7635C45.8621 15.7329 44.8881 16.706 43.9178 17.6754C43.6406 17.9524 43.6406 18.4277 43.9178 18.7047C44.8881 19.674 45.8621 20.6472 46.8323 21.6165C47.1095 21.8935 47.5853 21.8935 47.8625 21.6165C48.8328 20.6472 49.8067 19.674 50.777 18.7047C50.9268 18.555 50.9868 18.3828 50.9868 18.2181C50.9868 18.2069 50.9868 18.1994 50.9868 18.1882C50.9868 18.1807 50.9868 18.1695 50.9868 18.162C50.9868 17.9973 50.9268 17.8251 50.777 17.6754ZM47.3455 20.0708C46.7162 19.442 46.0906 18.817 45.4612 18.1882C46.0906 17.5594 46.7162 16.9343 47.3455 16.3056C47.9749 16.9343 48.6005 17.5594 49.2298 18.1882C48.6005 18.817 47.9749 19.442 47.3455 20.0708Z" fill="url(#paint4_linear_54_3239)"/>
<path d="M7.06708 32.231C6.09684 31.2616 5.12284 30.2885 4.15259 29.3191C3.87538 29.0421 3.39962 29.0421 3.1224 29.3191C2.15215 30.2885 1.17816 31.2616 0.20791 32.231C-0.0693035 32.5079 -0.0693035 32.9833 0.20791 33.2602C1.17816 34.2296 2.15215 35.2027 3.1224 36.1721C3.39962 36.4491 3.87538 36.4491 4.15259 36.1721C5.12284 35.2027 6.09684 34.2296 7.06708 33.2602C7.21693 33.1105 7.27687 32.9384 7.27687 32.7737C7.27687 32.7624 7.27687 32.755 7.27687 32.7437C7.27687 32.7362 7.27687 32.725 7.27687 32.7175C7.28061 32.5529 7.22068 32.3807 7.06708 32.231ZM3.63937 34.6263C3.01002 33.9976 2.38441 33.3725 1.75506 32.7437C2.38441 32.1149 3.01002 31.4899 3.63937 30.8611C4.26872 31.4899 4.89433 32.1149 5.52368 32.7437C4.89433 33.3725 4.26872 33.9976 3.63937 34.6263Z" fill="url(#paint5_linear_54_3239)"/>
<path d="M36.2045 32.231C35.2343 31.2616 34.2603 30.2885 33.29 29.3191C33.0128 29.0421 32.5371 29.0421 32.2598 29.3191C31.2896 30.2885 30.3156 31.2616 29.3454 32.231C29.0681 32.5079 29.0681 32.9833 29.3454 33.2602C30.3156 34.2296 31.2896 35.2027 32.2598 36.1721C32.5371 36.4491 33.0128 36.4491 33.29 36.1721C34.2603 35.2027 35.2343 34.2296 36.2045 33.2602C36.3544 33.1105 36.4143 32.9384 36.4143 32.7737C36.4143 32.7624 36.4143 32.755 36.4143 32.7437C36.4143 32.7362 36.4143 32.725 36.4143 32.7175C36.4181 32.5529 36.3581 32.3807 36.2045 32.231ZM32.7768 34.6263C32.1475 33.9976 31.5219 33.3725 30.8925 32.7437C31.5219 32.1149 32.1475 31.4899 32.7768 30.8611C33.4062 31.4899 34.0318 32.1149 34.6611 32.7437C34.0318 33.3725 33.4062 33.9976 32.7768 34.6263Z" fill="url(#paint6_linear_54_3239)"/>
<path d="M65.3457 32.231C64.3754 31.2616 63.4014 30.2885 62.4312 29.3191C62.154 29.0421 61.6782 29.0421 61.401 29.3191C60.4308 30.2885 59.4568 31.2616 58.4865 32.231C58.2093 32.5079 58.2093 32.9833 58.4865 33.2602C59.4568 34.2296 60.4308 35.2027 61.401 36.1721C61.6782 36.4491 62.154 36.4491 62.4312 36.1721C63.4014 35.2027 64.3754 34.2296 65.3457 33.2602C65.4955 33.1105 65.5555 32.9384 65.5555 32.7737C65.5555 32.7624 65.5555 32.755 65.5555 32.7437C65.5555 32.7362 65.5555 32.725 65.5555 32.7175C65.5555 32.5529 65.4955 32.3807 65.3457 32.231ZM61.9142 34.6263C61.2849 33.9976 60.6593 33.3725 60.0299 32.7437C60.6593 32.1149 61.2849 31.4899 61.9142 30.8611C62.5436 31.4899 63.1692 32.1149 63.7985 32.7437C63.1692 33.3725 62.5436 33.9976 61.9142 34.6263Z" fill="url(#paint7_linear_54_3239)"/>
<path d="M21.6358 46.7865C20.6656 45.8172 19.6916 44.844 18.7213 43.8747C18.4441 43.5977 17.9684 43.5977 17.6911 43.8747C16.7209 44.844 15.7469 45.8172 14.7766 46.7865C14.4994 47.0635 14.4994 47.5388 14.7766 47.8158C15.7469 48.7852 16.7209 49.7583 17.6911 50.7277C17.9684 51.0046 18.4441 51.0046 18.7213 50.7277C19.6916 49.7583 20.6656 48.7852 21.6358 47.8158C21.7857 47.6661 21.8456 47.4939 21.8456 47.3292C21.8456 47.318 21.8456 47.3105 21.8456 47.2993C21.8456 47.2918 21.8456 47.2806 21.8456 47.2731C21.8493 47.1084 21.7894 46.9362 21.6358 46.7865ZM18.2081 49.1819C17.5788 48.5531 16.9532 47.9281 16.3238 47.2993C16.9532 46.6705 17.5788 46.0455 18.2081 45.4167C18.8375 46.0455 19.4631 46.6705 20.0924 47.2993C19.4631 47.9281 18.8375 48.5531 18.2081 49.1819Z" fill="url(#paint8_linear_54_3239)"/>
<path d="M50.777 46.7865C49.8067 45.8172 48.8328 44.844 47.8625 43.8747C47.5853 43.5977 47.1095 43.5977 46.8323 43.8747C45.8621 44.844 44.8881 45.8172 43.9178 46.7865C43.6406 47.0635 43.6406 47.5388 43.9178 47.8158C44.8881 48.7852 45.8621 49.7583 46.8323 50.7277C47.1095 51.0046 47.5853 51.0046 47.8625 50.7277C48.8328 49.7583 49.8067 48.7852 50.777 47.8158C50.9268 47.6661 50.9868 47.4939 50.9868 47.3292C50.9868 47.318 50.9868 47.3105 50.9868 47.2993C50.9868 47.2918 50.9868 47.2806 50.9868 47.2731C50.9868 47.1084 50.9268 46.9362 50.777 46.7865ZM47.3455 49.1819C46.7162 48.5531 46.0906 47.9281 45.4612 47.2993C46.0906 46.6705 46.7162 46.0455 47.3455 45.4167C47.9749 46.0455 48.6005 46.6705 49.2298 47.2993C48.6005 47.9281 47.9749 48.5531 47.3455 49.1819Z" fill="url(#paint9_linear_54_3239)"/>
<path d="M7.06708 61.3421C6.09684 60.3727 5.12284 59.3996 4.15259 58.4302C3.87538 58.1533 3.39962 58.1533 3.1224 58.4302C2.15215 59.3996 1.17816 60.3727 0.20791 61.3421C-0.0693035 61.6191 -0.0693035 62.0944 0.20791 62.3714C1.17816 63.3407 2.15215 64.3138 3.1224 65.2832C3.39962 65.5602 3.87538 65.5602 4.15259 65.2832C5.12284 64.3138 6.09684 63.3407 7.06708 62.3714C7.21693 62.2216 7.27687 62.0495 7.27687 61.8848C7.27687 61.8736 7.27687 61.8661 7.27687 61.8549C7.27687 61.8474 7.27687 61.8361 7.27687 61.8287C7.28061 61.664 7.22068 61.4918 7.06708 61.3421ZM3.63937 63.7375C3.01002 63.1087 2.38441 62.4836 1.75506 61.8549C2.38441 61.2261 3.01002 60.601 3.63937 59.9722C4.26872 60.601 4.89433 61.2261 5.52368 61.8549C4.89433 62.4836 4.26872 63.1087 3.63937 63.7375Z" fill="url(#paint10_linear_54_3239)"/>
<path d="M36.2045 61.3421C35.2343 60.3727 34.2603 59.3996 33.29 58.4302C33.0128 58.1533 32.5371 58.1533 32.2598 58.4302C31.2896 59.3996 30.3156 60.3727 29.3454 61.3421C29.0681 61.6191 29.0681 62.0944 29.3454 62.3714C30.3156 63.3407 31.2896 64.3138 32.2598 65.2832C32.5371 65.5602 33.0128 65.5602 33.29 65.2832C34.2603 64.3138 35.2343 63.3407 36.2045 62.3714C36.3544 62.2216 36.4143 62.0495 36.4143 61.8848C36.4143 61.8736 36.4143 61.8661 36.4143 61.8549C36.4143 61.8474 36.4143 61.8361 36.4143 61.8287C36.4181 61.664 36.3581 61.4918 36.2045 61.3421ZM32.7768 63.7375C32.1475 63.1087 31.5219 62.4836 30.8925 61.8549C31.5219 61.2261 32.1475 60.601 32.7768 59.9722C33.4062 60.601 34.0318 61.2261 34.6611 61.8549C34.0318 62.4836 33.4062 63.1087 32.7768 63.7375Z" fill="url(#paint11_linear_54_3239)"/>
<path d="M65.3457 61.3421C64.3754 60.3727 63.4014 59.3996 62.4312 58.4302C62.154 58.1533 61.6782 58.1533 61.401 58.4302C60.4308 59.3996 59.4568 60.3727 58.4865 61.3421C58.2093 61.6191 58.2093 62.0944 58.4865 62.3714C59.4568 63.3407 60.4308 64.3138 61.401 65.2832C61.6782 65.5602 62.154 65.5602 62.4312 65.2832C63.4014 64.3138 64.3754 63.3407 65.3457 62.3714C65.4955 62.2216 65.5555 62.0495 65.5555 61.8848C65.5555 61.8736 65.5555 61.8661 65.5555 61.8549C65.5555 61.8474 65.5555 61.8361 65.5555 61.8287C65.5555 61.664 65.4955 61.4918 65.3457 61.3421ZM61.9142 63.7375C61.2849 63.1087 60.6593 62.4836 60.0299 61.8549C60.6593 61.2261 61.2849 60.601 61.9142 59.9722C62.5436 60.601 63.1692 61.2261 63.7985 61.8549C63.1692 62.4836 62.5436 63.1087 61.9142 63.7375Z" fill="url(#paint12_linear_54_3239)"/>
<path d="M21.6358 75.8979C20.6656 74.9285 19.6916 73.9554 18.7213 72.986C18.4441 72.7091 17.9684 72.7091 17.6911 72.986C16.7209 73.9554 15.7469 74.9285 14.7766 75.8979C14.4994 76.1749 14.4994 76.6502 14.7766 76.9272C15.7469 77.8965 16.7209 78.8697 17.6911 79.839C17.9684 80.116 18.4441 80.116 18.7213 79.839C19.6916 78.8697 20.6656 77.8965 21.6358 76.9272C21.7857 76.7775 21.8456 76.6053 21.8456 76.4406C21.8456 76.4294 21.8456 76.4219 21.8456 76.4107C21.8456 76.4032 21.8456 76.392 21.8456 76.3845C21.8493 76.2198 21.7894 76.0476 21.6358 75.8979ZM18.2081 78.2933C17.5788 77.6645 16.9532 77.0395 16.3238 76.4107C16.9532 75.7819 17.5788 75.1568 18.2081 74.5281C18.8375 75.1568 19.4631 75.7819 20.0924 76.4107C19.4631 77.0395 18.8375 77.6682 18.2081 78.2933Z" fill="url(#paint13_linear_54_3239)"/>
<path d="M50.777 75.8979C49.8067 74.9285 48.8328 73.9554 47.8625 72.986C47.5853 72.7091 47.1095 72.7091 46.8323 72.986C45.8621 73.9554 44.8881 74.9285 43.9178 75.8979C43.6406 76.1749 43.6406 76.6502 43.9178 76.9272C44.8881 77.8965 45.8621 78.8697 46.8323 79.839C47.1095 80.116 47.5853 80.116 47.8625 79.839C48.8328 78.8697 49.8067 77.8965 50.777 76.9272C50.9268 76.7775 50.9868 76.6053 50.9868 76.4406C50.9868 76.4294 50.9868 76.4219 50.9868 76.4107C50.9868 76.4032 50.9868 76.392 50.9868 76.3845C50.9868 76.2198 50.9268 76.0476 50.777 75.8979ZM47.3455 78.2933C46.7162 77.6645 46.0906 77.0395 45.4612 76.4107C46.0906 75.7819 46.7162 75.1568 47.3455 74.5281C47.9749 75.1568 48.6005 75.7819 49.2298 76.4107C48.6005 77.0395 47.9749 77.6682 47.3455 78.2933Z" fill="url(#paint14_linear_54_3239)"/>
<path d="M7.06708 90.4535C6.09684 89.4841 5.12284 88.511 4.15259 87.5416C3.87538 87.2646 3.39962 87.2646 3.1224 87.5416C2.15215 88.511 1.17816 89.4841 0.20791 90.4535C-0.0693035 90.7304 -0.0693035 91.2058 0.20791 91.4827C1.17816 92.4521 2.15215 93.4252 3.1224 94.3946C3.39962 94.6716 3.87538 94.6716 4.15259 94.3946C5.12284 93.4252 6.09684 92.4521 7.06708 91.4827C7.21693 91.333 7.27687 91.1609 7.27687 90.9962C7.27687 90.9849 7.27687 90.9775 7.27687 90.9662C7.27687 90.9587 7.27687 90.9475 7.27687 90.94C7.28061 90.7754 7.22068 90.6032 7.06708 90.4535ZM3.63937 92.8488C3.01002 92.2201 2.38441 91.595 1.75506 90.9662C2.38441 90.3374 3.01002 89.7124 3.63937 89.0836C4.26872 89.7124 4.89433 90.3374 5.52368 90.9662C4.89433 91.595 4.26872 92.2238 3.63937 92.8488Z" fill="url(#paint15_linear_54_3239)"/>
<path d="M36.2045 90.4535C35.2343 89.4841 34.2603 88.511 33.29 87.5416C33.0128 87.2646 32.5371 87.2646 32.2598 87.5416C31.2896 88.511 30.3156 89.4841 29.3454 90.4535C29.0681 90.7304 29.0681 91.2058 29.3454 91.4827C30.3156 92.4521 31.2896 93.4252 32.2598 94.3946C32.5371 94.6716 33.0128 94.6716 33.29 94.3946C34.2603 93.4252 35.2343 92.4521 36.2045 91.4827C36.3544 91.333 36.4143 91.1609 36.4143 90.9962C36.4143 90.9849 36.4143 90.9775 36.4143 90.9662C36.4143 90.9587 36.4143 90.9475 36.4143 90.94C36.4181 90.7754 36.3581 90.6032 36.2045 90.4535ZM32.7768 92.8488C32.1475 92.2201 31.5219 91.595 30.8925 90.9662C31.5219 90.3374 32.1475 89.7124 32.7768 89.0836C33.4062 89.7124 34.0318 90.3374 34.6611 90.9662C34.0318 91.595 33.4062 92.2238 32.7768 92.8488Z" fill="url(#paint16_linear_54_3239)"/>
<path d="M65.3457 90.4535C64.3754 89.4841 63.4014 88.511 62.4312 87.5416C62.154 87.2646 61.6782 87.2646 61.401 87.5416C60.4308 88.511 59.4568 89.4841 58.4865 90.4535C58.2093 90.7304 58.2093 91.2058 58.4865 91.4827C59.4568 92.4521 60.4308 93.4252 61.401 94.3946C61.6782 94.6716 62.154 94.6716 62.4312 94.3946C63.4014 93.4252 64.3754 92.4521 65.3457 91.4827C65.4955 91.333 65.5555 91.1609 65.5555 90.9962C65.5555 90.9849 65.5555 90.9775 65.5555 90.9662C65.5555 90.9587 65.5555 90.9475 65.5555 90.94C65.5555 90.7754 65.4955 90.6032 65.3457 90.4535ZM61.9142 92.8488C61.2849 92.2201 60.6593 91.595 60.0299 90.9662C60.6593 90.3374 61.2849 89.7124 61.9142 89.0836C62.5436 89.7124 63.1692 90.3374 63.7985 90.9662C63.1692 91.595 62.5436 92.2238 61.9142 92.8488Z" fill="url(#paint17_linear_54_3239)"/>
<path d="M21.6358 105.009C20.6656 104.04 19.6916 103.067 18.7213 102.097C18.4441 101.82 17.9684 101.82 17.6911 102.097C16.7209 103.067 15.7469 104.04 14.7766 105.009C14.4994 105.286 14.4994 105.761 14.7766 106.038C15.7469 107.008 16.7209 107.981 17.6911 108.95C17.9684 109.227 18.4441 109.227 18.7213 108.95C19.6916 107.981 20.6656 107.008 21.6358 106.038C21.7857 105.889 21.8456 105.716 21.8456 105.552C21.8456 105.54 21.8456 105.533 21.8456 105.522C21.8456 105.514 21.8456 105.503 21.8456 105.496C21.8493 105.331 21.7894 105.159 21.6358 105.009ZM18.2081 107.404C17.5788 106.776 16.9532 106.151 16.3238 105.522C16.9532 104.893 17.5788 104.268 18.2081 103.639C18.8375 104.268 19.4631 104.893 20.0924 105.522C19.4631 106.151 18.8375 106.779 18.2081 107.404Z" fill="url(#paint18_linear_54_3239)"/>
<path d="M50.777 105.009C49.8067 104.04 48.8328 103.067 47.8625 102.097C47.5853 101.82 47.1095 101.82 46.8323 102.097C45.8621 103.067 44.8881 104.04 43.9178 105.009C43.6406 105.286 43.6406 105.761 43.9178 106.038C44.8881 107.008 45.8621 107.981 46.8323 108.95C47.1095 109.227 47.5853 109.227 47.8625 108.95C48.8328 107.981 49.8067 107.008 50.777 106.038C50.9268 105.889 50.9868 105.716 50.9868 105.552C50.9868 105.54 50.9868 105.533 50.9868 105.522C50.9868 105.514 50.9868 105.503 50.9868 105.496C50.9868 105.331 50.9268 105.159 50.777 105.009ZM47.3455 107.404C46.7162 106.776 46.0906 106.151 45.4612 105.522C46.0906 104.893 46.7162 104.268 47.3455 103.639C47.9749 104.268 48.6005 104.893 49.2298 105.522C48.6005 106.151 47.9749 106.779 47.3455 107.404Z" fill="url(#paint19_linear_54_3239)"/>
<path d="M7.06708 119.565C6.09684 118.595 5.12284 117.622 4.15259 116.653C3.87538 116.376 3.39962 116.376 3.1224 116.653C2.15215 117.622 1.17816 118.595 0.20791 119.565C-0.0693035 119.842 -0.0693035 120.317 0.20791 120.594C1.17816 121.563 2.15215 122.536 3.1224 123.506C3.39962 123.783 3.87538 123.783 4.15259 123.506C5.12284 122.536 6.09684 121.563 7.06708 120.594C7.21693 120.444 7.27687 120.272 7.27687 120.107C7.27687 120.096 7.27687 120.089 7.27687 120.077C7.27687 120.07 7.27687 120.059 7.27687 120.051C7.28061 119.886 7.22068 119.718 7.06708 119.565ZM3.63937 121.96C3.01002 121.331 2.38441 120.706 1.75506 120.077C2.38441 119.449 3.01002 118.824 3.63937 118.195C4.26872 118.824 4.89433 119.449 5.52368 120.077C4.89433 120.706 4.26872 121.335 3.63937 121.96Z" fill="url(#paint20_linear_54_3239)"/>
<path d="M36.2045 119.565C35.2343 118.595 34.2603 117.622 33.29 116.653C33.0128 116.376 32.5371 116.376 32.2598 116.653C31.2896 117.622 30.3156 118.595 29.3454 119.565C29.0681 119.842 29.0681 120.317 29.3454 120.594C30.3156 121.563 31.2896 122.536 32.2598 123.506C32.5371 123.783 33.0128 123.783 33.29 123.506C34.2603 122.536 35.2343 121.563 36.2045 120.594C36.3544 120.444 36.4143 120.272 36.4143 120.107C36.4143 120.096 36.4143 120.089 36.4143 120.077C36.4143 120.07 36.4143 120.059 36.4143 120.051C36.4181 119.886 36.3581 119.718 36.2045 119.565ZM32.7768 121.96C32.1475 121.331 31.5219 120.706 30.8925 120.077C31.5219 119.449 32.1475 118.824 32.7768 118.195C33.4062 118.824 34.0318 119.449 34.6611 120.077C34.0318 120.706 33.4062 121.335 32.7768 121.96Z" fill="url(#paint21_linear_54_3239)"/>
<path d="M65.3457 119.565C64.3754 118.595 63.4014 117.622 62.4312 116.653C62.154 116.376 61.6782 116.376 61.401 116.653C60.4308 117.622 59.4568 118.595 58.4865 119.565C58.2093 119.842 58.2093 120.317 58.4865 120.594C59.4568 121.563 60.4308 122.536 61.401 123.506C61.6782 123.783 62.154 123.783 62.4312 123.506C63.4014 122.536 64.3754 121.563 65.3457 120.594C65.4955 120.444 65.5555 120.272 65.5555 120.107C65.5555 120.096 65.5555 120.089 65.5555 120.077C65.5555 120.07 65.5555 120.059 65.5555 120.051C65.5555 119.886 65.4955 119.718 65.3457 119.565ZM61.9142 121.96C61.2849 121.331 60.6593 120.706 60.0299 120.077C60.6593 119.449 61.2849 118.824 61.9142 118.195C62.5436 118.824 63.1692 119.449 63.7985 120.077C63.1692 120.706 62.5436 121.335 61.9142 121.96Z" fill="url(#paint22_linear_54_3239)"/>
<path d="M21.6358 134.12C20.6656 133.151 19.6916 132.178 18.7213 131.209C18.4441 130.932 17.9684 130.932 17.6911 131.209C16.7209 132.178 15.7469 133.151 14.7766 134.12C14.4994 134.397 14.4994 134.873 14.7766 135.15C15.7469 136.119 16.7209 137.092 17.6911 138.062C17.9684 138.338 18.4441 138.338 18.7213 138.062C19.6916 137.092 20.6656 136.119 21.6358 135.15C21.7857 135 21.8456 134.828 21.8456 134.663C21.8456 134.652 21.8456 134.644 21.8456 134.633C21.8456 134.626 21.8456 134.614 21.8456 134.607C21.8493 134.442 21.7894 134.274 21.6358 134.12ZM18.2081 136.516C17.5788 135.887 16.9532 135.262 16.3238 134.633C16.9532 134.004 17.5788 133.379 18.2081 132.751C18.8375 133.379 19.4631 134.004 20.0924 134.633C19.4631 135.262 18.8375 135.891 18.2081 136.516Z" fill="url(#paint23_linear_54_3239)"/>
<path d="M50.777 134.12C49.8067 133.151 48.8328 132.178 47.8625 131.209C47.5853 130.932 47.1095 130.932 46.8323 131.209C45.8621 132.178 44.8881 133.151 43.9178 134.12C43.6406 134.397 43.6406 134.873 43.9178 135.15C44.8881 136.119 45.8621 137.092 46.8323 138.062C47.1095 138.338 47.5853 138.338 47.8625 138.062C48.8328 137.092 49.8067 136.119 50.777 135.15C50.9268 135 50.9868 134.828 50.9868 134.663C50.9868 134.652 50.9868 134.644 50.9868 134.633C50.9868 134.626 50.9868 134.614 50.9868 134.607C50.9868 134.442 50.9268 134.274 50.777 134.12ZM47.3455 136.516C46.7162 135.887 46.0906 135.262 45.4612 134.633C46.0906 134.004 46.7162 133.379 47.3455 132.751C47.9749 133.379 48.6005 134.004 49.2298 134.633C48.6005 135.262 47.9749 135.891 47.3455 136.516Z" fill="url(#paint24_linear_54_3239)"/>
<path d="M7.06708 148.676C6.09684 147.707 5.12284 146.733 4.15259 145.764C3.87538 145.487 3.39962 145.487 3.1224 145.764C2.15215 146.733 1.17816 147.707 0.20791 148.676C-0.0693035 148.953 -0.0693035 149.428 0.20791 149.705C1.17816 150.675 2.15215 151.648 3.1224 152.617C3.39962 152.894 3.87538 152.894 4.15259 152.617C5.12284 151.648 6.09684 150.675 7.06708 149.705C7.21693 149.556 7.27687 149.383 7.27687 149.219C7.27687 149.207 7.27687 149.2 7.27687 149.189C7.27687 149.181 7.27687 149.17 7.27687 149.163C7.28061 148.998 7.22068 148.829 7.06708 148.676ZM3.63937 151.071C3.01002 150.443 2.38441 149.818 1.75506 149.189C2.38441 148.56 3.01002 147.935 3.63937 147.306C4.26872 147.935 4.89433 148.56 5.52368 149.189C4.89433 149.818 4.26872 150.446 3.63937 151.071Z" fill="url(#paint25_linear_54_3239)"/>
<path d="M36.2045 148.676C35.2343 147.707 34.2603 146.733 33.29 145.764C33.0128 145.487 32.5371 145.487 32.2598 145.764C31.2896 146.733 30.3156 147.707 29.3454 148.676C29.0681 148.953 29.0681 149.428 29.3454 149.705C30.3156 150.675 31.2896 151.648 32.2598 152.617C32.5371 152.894 33.0128 152.894 33.29 152.617C34.2603 151.648 35.2343 150.675 36.2045 149.705C36.3544 149.556 36.4143 149.383 36.4143 149.219C36.4143 149.207 36.4143 149.2 36.4143 149.189C36.4143 149.181 36.4143 149.17 36.4143 149.163C36.4181 148.998 36.3581 148.829 36.2045 148.676ZM32.7768 151.071C32.1475 150.443 31.5219 149.818 30.8925 149.189C31.5219 148.56 32.1475 147.935 32.7768 147.306C33.4062 147.935 34.0318 148.56 34.6611 149.189C34.0318 149.818 33.4062 150.446 32.7768 151.071Z" fill="url(#paint26_linear_54_3239)"/>
<path d="M65.3457 148.676C64.3754 147.707 63.4014 146.733 62.4312 145.764C62.154 145.487 61.6782 145.487 61.401 145.764C60.4308 146.733 59.4568 147.707 58.4865 148.676C58.2093 148.953 58.2093 149.428 58.4865 149.705C59.4568 150.675 60.4308 151.648 61.401 152.617C61.6782 152.894 62.154 152.894 62.4312 152.617C63.4014 151.648 64.3754 150.675 65.3457 149.705C65.4955 149.556 65.5555 149.383 65.5555 149.219C65.5555 149.207 65.5555 149.2 65.5555 149.189C65.5555 149.181 65.5555 149.17 65.5555 149.163C65.5555 148.998 65.4955 148.829 65.3457 148.676ZM61.9142 151.071C61.2849 150.443 60.6593 149.818 60.0299 149.189C60.6593 148.56 61.2849 147.935 61.9142 147.306C62.5436 147.935 63.1692 148.56 63.7985 149.189C63.1692 149.818 62.5436 150.446 61.9142 151.071Z" fill="url(#paint27_linear_54_3239)"/>
<path d="M21.662 163.261C21.6545 163.25 21.647 163.243 21.6395 163.232C20.6693 162.262 19.6953 161.289 18.7251 160.32C18.4478 160.043 17.9721 160.043 17.6949 160.32C16.7246 161.289 15.7506 162.262 14.7804 163.232C14.7729 163.239 14.7654 163.25 14.7579 163.261C14.5069 163.542 14.5107 163.991 14.7804 164.261C15.7506 165.23 16.7246 166.203 17.6949 167.173C17.9721 167.45 18.4478 167.45 18.7251 167.173C19.6953 166.203 20.6693 165.23 21.6395 164.261C21.7894 164.111 21.8493 163.939 21.8493 163.774C21.8493 163.763 21.8493 163.756 21.8493 163.744C21.8493 163.737 21.8493 163.726 21.8493 163.718C21.8493 163.565 21.7931 163.404 21.662 163.261ZM18.2081 165.627C17.5787 164.998 16.9531 164.373 16.3238 163.744C16.4849 163.583 16.6497 163.419 16.8108 163.258C17.2753 162.794 17.7436 162.326 18.2081 161.862C18.6726 162.326 19.1409 162.794 19.6054 163.258C19.7665 163.419 19.9313 163.583 20.0924 163.744C19.463 164.373 18.8374 165.002 18.2081 165.627Z" fill="url(#paint28_linear_54_3239)"/>
<path d="M50.7995 163.261C50.792 163.25 50.7845 163.243 50.777 163.232C49.8067 162.262 48.8327 161.289 47.8625 160.32C47.5853 160.043 47.1095 160.043 46.8323 160.32C45.862 161.289 44.888 162.262 43.9178 163.232C43.9103 163.239 43.9028 163.25 43.8953 163.261C43.6443 163.542 43.6481 163.991 43.9178 164.261C44.888 165.23 45.862 166.203 46.8323 167.173C47.1095 167.45 47.5853 167.45 47.8625 167.173C48.8327 166.203 49.8067 165.23 50.777 164.261C50.9268 164.111 50.9868 163.939 50.9868 163.774C50.9868 163.763 50.9868 163.756 50.9868 163.744C50.9868 163.737 50.9868 163.726 50.9868 163.718C50.9868 163.565 50.9306 163.404 50.7995 163.261ZM47.3455 165.627C46.7162 164.998 46.0906 164.373 45.4612 163.744C45.6223 163.583 45.7871 163.419 45.9482 163.258C46.4127 162.794 46.881 162.326 47.3455 161.862C47.81 162.326 48.2783 162.794 48.7428 163.258C48.9039 163.419 49.0687 163.583 49.2298 163.744C48.6005 164.373 47.9749 165.002 47.3455 165.627Z" fill="url(#paint29_linear_54_3239)"/>
<path d="M7.06708 177.787C6.09684 176.818 5.12284 175.845 4.15259 174.875C3.87538 174.599 3.39962 174.599 3.1224 174.875C2.15215 175.845 1.17816 176.818 0.20791 177.787C-0.0693035 178.064 -0.0693035 178.54 0.20791 178.817C1.17816 179.786 2.15215 180.759 3.1224 181.728C3.39962 182.005 3.87538 182.005 4.15259 181.728C5.12284 180.759 6.09684 179.786 7.06708 178.817C7.21693 178.667 7.27687 178.495 7.27687 178.33C7.27687 178.319 7.27687 178.311 7.27687 178.3C7.27687 178.293 7.27687 178.281 7.27687 178.274C7.28061 178.109 7.22068 177.941 7.06708 177.787ZM3.63937 180.183C3.01002 179.554 2.38441 178.929 1.75506 178.3C2.38441 177.671 3.01002 177.046 3.63937 176.417C4.26872 177.046 4.89433 177.671 5.52368 178.3C4.89433 178.929 4.26872 179.558 3.63937 180.183Z" fill="url(#paint30_linear_54_3239)"/>
<path d="M36.2045 177.787C35.2343 176.818 34.2603 175.845 33.29 174.875C33.0128 174.599 32.5371 174.599 32.2598 174.875C31.2896 175.845 30.3156 176.818 29.3454 177.787C29.0681 178.064 29.0681 178.54 29.3454 178.817C30.3156 179.786 31.2896 180.759 32.2598 181.728C32.5371 182.005 33.0128 182.005 33.29 181.728C34.2603 180.759 35.2343 179.786 36.2045 178.817C36.3544 178.667 36.4143 178.495 36.4143 178.33C36.4143 178.319 36.4143 178.311 36.4143 178.3C36.4143 178.293 36.4143 178.281 36.4143 178.274C36.4181 178.109 36.3581 177.941 36.2045 177.787ZM32.7768 180.183C32.1475 179.554 31.5219 178.929 30.8925 178.3C31.5219 177.671 32.1475 177.046 32.7768 176.417C33.4062 177.046 34.0318 177.671 34.6611 178.3C34.0318 178.929 33.4062 179.558 32.7768 180.183Z" fill="url(#paint31_linear_54_3239)"/>
<path d="M65.3457 177.787C64.3754 176.818 63.4014 175.845 62.4312 174.875C62.154 174.599 61.6782 174.599 61.401 174.875C60.4308 175.845 59.4568 176.818 58.4865 177.787C58.2093 178.064 58.2093 178.54 58.4865 178.817C59.4568 179.786 60.4308 180.759 61.401 181.728C61.6782 182.005 62.154 182.005 62.4312 181.728C63.4014 180.759 64.3754 179.786 65.3457 178.817C65.4955 178.667 65.5555 178.495 65.5555 178.33C65.5555 178.319 65.5555 178.311 65.5555 178.3C65.5555 178.293 65.5555 178.281 65.5555 178.274C65.5555 178.109 65.4955 177.941 65.3457 177.787ZM61.9142 180.183C61.2849 179.554 60.6593 178.929 60.0299 178.3C60.6593 177.671 61.2849 177.046 61.9142 176.417C62.5436 177.046 63.1692 177.671 63.7985 178.3C63.1692 178.929 62.5436 179.558 61.9142 180.183Z" fill="url(#paint32_linear_54_3239)"/>
<path d="M21.6358 192.343C20.6656 191.374 19.6916 190.4 18.7213 189.431C18.4441 189.154 17.9684 189.154 17.6911 189.431C16.7209 190.4 15.7469 191.374 14.7766 192.343C14.4994 192.62 14.4994 193.095 14.7766 193.372C15.7469 194.342 16.7209 195.315 17.6911 196.284C17.9684 196.561 18.4441 196.561 18.7213 196.284C19.6916 195.315 20.6656 194.342 21.6358 193.372C21.7857 193.222 21.8456 193.05 21.8456 192.886C21.8456 192.874 21.8456 192.867 21.8456 192.856C21.8456 192.848 21.8456 192.837 21.8456 192.829C21.8493 192.665 21.7894 192.496 21.6358 192.343ZM18.2081 194.742C17.5788 194.113 16.9532 193.488 16.3238 192.859C16.9532 192.231 17.5788 191.606 18.2081 190.977C18.8375 191.606 19.4631 192.231 20.0924 192.859C19.4631 193.484 18.8375 194.113 18.2081 194.742Z" fill="url(#paint33_linear_54_3239)"/>
<path d="M50.777 192.343C49.8067 191.374 48.8328 190.4 47.8625 189.431C47.5853 189.154 47.1095 189.154 46.8323 189.431C45.8621 190.4 44.8881 191.374 43.9178 192.343C43.6406 192.62 43.6406 193.095 43.9178 193.372C44.8881 194.342 45.8621 195.315 46.8323 196.284C47.1095 196.561 47.5853 196.561 47.8625 196.284C48.8328 195.315 49.8067 194.342 50.777 193.372C50.9268 193.222 50.9868 193.05 50.9868 192.886C50.9868 192.874 50.9868 192.867 50.9868 192.856C50.9868 192.848 50.9868 192.837 50.9868 192.829C50.9868 192.665 50.9268 192.496 50.777 192.343ZM47.3455 194.742C46.7162 194.113 46.0906 193.488 45.4612 192.859C46.0906 192.231 46.7162 191.606 47.3455 190.977C47.9749 191.606 48.6005 192.231 49.2298 192.859C48.6005 193.484 47.9749 194.113 47.3455 194.742Z" fill="url(#paint34_linear_54_3239)"/>
<path d="M7.06708 206.898C6.09684 205.929 5.12284 204.956 4.15259 203.987C3.87538 203.71 3.39962 203.71 3.1224 203.987C2.15215 204.956 1.17816 205.929 0.20791 206.898C-0.0693035 207.175 -0.0693035 207.651 0.20791 207.928C1.17816 208.897 2.15215 209.87 3.1224 210.84C3.39962 211.117 3.87538 211.117 4.15259 210.84C5.12284 209.87 6.09684 208.897 7.06708 207.928C7.21693 207.778 7.27687 207.606 7.27687 207.441C7.27687 207.43 7.27687 207.422 7.27687 207.411C7.27687 207.404 7.27687 207.392 7.27687 207.385C7.28061 207.22 7.22068 207.052 7.06708 206.898ZM3.63937 209.298C3.01002 208.669 2.38441 208.044 1.75506 207.415C2.38441 206.786 3.01002 206.161 3.63937 205.532C4.26872 206.161 4.89433 206.786 5.52368 207.415C4.89433 208.04 4.26872 208.669 3.63937 209.298Z" fill="url(#paint35_linear_54_3239)"/>
<path d="M36.2045 206.898C35.2343 205.929 34.2603 204.956 33.29 203.987C33.0128 203.71 32.5371 203.71 32.2598 203.987C31.2896 204.956 30.3156 205.929 29.3454 206.898C29.0681 207.175 29.0681 207.651 29.3454 207.928C30.3156 208.897 31.2896 209.87 32.2598 210.84C32.5371 211.117 33.0128 211.117 33.29 210.84C34.2603 209.87 35.2343 208.897 36.2045 207.928C36.3544 207.778 36.4143 207.606 36.4143 207.441C36.4143 207.43 36.4143 207.422 36.4143 207.411C36.4143 207.404 36.4143 207.392 36.4143 207.385C36.4181 207.22 36.3581 207.052 36.2045 206.898ZM32.7768 209.298C32.1475 208.669 31.5219 208.044 30.8925 207.415C31.5219 206.786 32.1475 206.161 32.7768 205.532C33.4062 206.161 34.0318 206.786 34.6611 207.415C34.0318 208.04 33.4062 208.669 32.7768 209.298Z" fill="url(#paint36_linear_54_3239)"/>
<path d="M65.3457 206.898C64.3754 205.929 63.4014 204.956 62.4312 203.987C62.154 203.71 61.6782 203.71 61.401 203.987C60.4308 204.956 59.4568 205.929 58.4865 206.898C58.2093 207.175 58.2093 207.651 58.4865 207.928C59.4568 208.897 60.4308 209.87 61.401 210.84C61.6782 211.117 62.154 211.117 62.4312 210.84C63.4014 209.87 64.3754 208.897 65.3457 207.928C65.4955 207.778 65.5555 207.606 65.5555 207.441C65.5555 207.43 65.5555 207.422 65.5555 207.411C65.5555 207.404 65.5555 207.392 65.5555 207.385C65.5555 207.22 65.4955 207.052 65.3457 206.898ZM61.9142 209.298C61.2849 208.669 60.6593 208.044 60.0299 207.415C60.6593 206.786 61.2849 206.161 61.9142 205.532C62.5436 206.161 63.1692 206.786 63.7985 207.415C63.1692 208.04 62.5436 208.669 61.9142 209.298Z" fill="url(#paint37_linear_54_3239)"/>
<path d="M21.6358 221.454C20.6656 220.485 19.6916 219.512 18.7213 218.542C18.4441 218.265 17.9684 218.265 17.6911 218.542C16.7209 219.512 15.7469 220.485 14.7766 221.454C14.4994 221.731 14.4994 222.206 14.7766 222.483C15.7469 223.453 16.7209 224.426 17.6911 225.395C17.9684 225.672 18.4441 225.672 18.7213 225.395C19.6916 224.426 20.6656 223.453 21.6358 222.483C21.7857 222.334 21.8456 222.161 21.8456 221.997C21.8456 221.986 21.8456 221.978 21.8456 221.967C21.8456 221.959 21.8456 221.948 21.8456 221.941C21.8493 221.776 21.7894 221.607 21.6358 221.454ZM18.2081 223.853C17.5788 223.224 16.9532 222.599 16.3238 221.971C16.9532 221.342 17.5788 220.717 18.2081 220.088C18.8375 220.717 19.4631 221.342 20.0924 221.971C19.4631 222.596 18.8375 223.224 18.2081 223.853Z" fill="url(#paint38_linear_54_3239)"/>
<path d="M50.777 221.454C49.8067 220.485 48.8328 219.512 47.8625 218.542C47.5853 218.265 47.1095 218.265 46.8323 218.542C45.8621 219.512 44.8881 220.485 43.9178 221.454C43.6406 221.731 43.6406 222.206 43.9178 222.483C44.8881 223.453 45.8621 224.426 46.8323 225.395C47.1095 225.672 47.5853 225.672 47.8625 225.395C48.8328 224.426 49.8067 223.453 50.777 222.483C50.9268 222.334 50.9868 222.161 50.9868 221.997C50.9868 221.986 50.9868 221.978 50.9868 221.967C50.9868 221.959 50.9868 221.948 50.9868 221.941C50.9868 221.776 50.9268 221.607 50.777 221.454ZM47.3455 223.853C46.7162 223.224 46.0906 222.599 45.4612 221.971C46.0906 221.342 46.7162 220.717 47.3455 220.088C47.9749 220.717 48.6005 221.342 49.2298 221.971C48.6005 222.596 47.9749 223.224 47.3455 223.853Z" fill="url(#paint39_linear_54_3239)"/>
<path d="M7.06708 236.01C6.09684 235.04 5.12284 234.067 4.15259 233.098C3.87538 232.821 3.39962 232.821 3.1224 233.098C2.15215 234.067 1.17816 235.04 0.20791 236.01C-0.0693035 236.287 -0.0693035 236.762 0.20791 237.039C1.17816 238.008 2.15215 238.982 3.1224 239.951C3.39962 240.228 3.87538 240.228 4.15259 239.951C5.12284 238.982 6.09684 238.008 7.06708 237.039C7.21693 236.889 7.27687 236.717 7.27687 236.553C7.27687 236.541 7.27687 236.534 7.27687 236.523C7.27687 236.515 7.27687 236.504 7.27687 236.496C7.28061 236.335 7.22068 236.163 7.06708 236.01ZM3.63937 238.409C3.01002 237.78 2.38441 237.155 1.75506 236.526C2.38441 235.898 3.01002 235.273 3.63937 234.644C4.26872 235.273 4.89433 235.898 5.52368 236.526C4.89433 237.151 4.26872 237.78 3.63937 238.409Z" fill="url(#paint40_linear_54_3239)"/>
<path d="M36.2045 236.01C35.2343 235.04 34.2603 234.067 33.29 233.098C33.0128 232.821 32.5371 232.821 32.2598 233.098C31.2896 234.067 30.3156 235.04 29.3454 236.01C29.0681 236.287 29.0681 236.762 29.3454 237.039C30.3156 238.008 31.2896 238.982 32.2598 239.951C32.5371 240.228 33.0128 240.228 33.29 239.951C34.2603 238.982 35.2343 238.008 36.2045 237.039C36.3544 236.889 36.4143 236.717 36.4143 236.553C36.4143 236.541 36.4143 236.534 36.4143 236.523C36.4143 236.515 36.4143 236.504 36.4143 236.496C36.4181 236.335 36.3581 236.163 36.2045 236.01ZM32.7768 238.409C32.1475 237.78 31.5219 237.155 30.8925 236.526C31.5219 235.898 32.1475 235.273 32.7768 234.644C33.4062 235.273 34.0318 235.898 34.6611 236.526C34.0318 237.151 33.4062 237.78 32.7768 238.409Z" fill="url(#paint41_linear_54_3239)"/>
<path d="M65.3457 236.01C64.3754 235.04 63.4014 234.067 62.4312 233.098C62.154 232.821 61.6782 232.821 61.401 233.098C60.4308 234.067 59.4568 235.04 58.4865 236.01C58.2093 236.287 58.2093 236.762 58.4865 237.039C59.4568 238.008 60.4308 238.982 61.401 239.951C61.6782 240.228 62.154 240.228 62.4312 239.951C63.4014 238.982 64.3754 238.008 65.3457 237.039C65.4955 236.889 65.5555 236.717 65.5555 236.553C65.5555 236.541 65.5555 236.534 65.5555 236.523C65.5555 236.515 65.5555 236.504 65.5555 236.496C65.5555 236.335 65.4955 236.163 65.3457 236.01ZM61.9142 238.409C61.2849 237.78 60.6593 237.155 60.0299 236.526C60.6593 235.898 61.2849 235.273 61.9142 234.644C62.5436 235.273 63.1692 235.898 63.7985 236.526C63.1692 237.151 62.5436 237.78 61.9142 238.409Z" fill="url(#paint42_linear_54_3239)"/>
<path d="M21.6358 250.565C20.6656 249.596 19.6916 248.623 18.7213 247.654C18.4441 247.377 17.9684 247.377 17.6911 247.654C16.7209 248.623 15.7469 249.596 14.7766 250.565C14.4994 250.842 14.4994 251.318 14.7766 251.595C15.7469 252.564 16.7209 253.537 17.6911 254.507C17.9684 254.783 18.4441 254.783 18.7213 254.507C19.6916 253.537 20.6656 252.564 21.6358 251.595C21.7857 251.445 21.8456 251.273 21.8456 251.108C21.8456 251.097 21.8456 251.089 21.8456 251.078C21.8456 251.071 21.8456 251.059 21.8456 251.052C21.8493 250.891 21.7894 250.719 21.6358 250.565ZM18.2081 252.965C17.5788 252.336 16.9532 251.711 16.3238 251.082C16.9532 250.453 17.5788 249.828 18.2081 249.199C18.8375 249.828 19.4631 250.453 20.0924 251.082C19.4631 251.711 18.8375 252.336 18.2081 252.965Z" fill="url(#paint43_linear_54_3239)"/>
<path d="M50.777 250.565C49.8067 249.596 48.8328 248.623 47.8625 247.654C47.5853 247.377 47.1095 247.377 46.8323 247.654C45.8621 248.623 44.8881 249.596 43.9178 250.565C43.6406 250.842 43.6406 251.318 43.9178 251.595C44.8881 252.564 45.8621 253.537 46.8323 254.507C47.1095 254.783 47.5853 254.783 47.8625 254.507C48.8328 253.537 49.8067 252.564 50.777 251.595C50.9268 251.445 50.9868 251.273 50.9868 251.108C50.9868 251.097 50.9868 251.089 50.9868 251.078C50.9868 251.071 50.9868 251.059 50.9868 251.052C50.9868 250.891 50.9268 250.719 50.777 250.565ZM47.3455 252.965C46.7162 252.336 46.0906 251.711 45.4612 251.082C46.0906 250.453 46.7162 249.828 47.3455 249.199C47.9749 249.828 48.6005 250.453 49.2298 251.082C48.6005 251.711 47.9749 252.336 47.3455 252.965Z" fill="url(#paint44_linear_54_3239)"/>
<path d="M7.06708 265.121C6.09684 264.152 5.12284 263.178 4.15259 262.209C3.87538 261.932 3.39962 261.932 3.1224 262.209C2.15215 263.178 1.17816 264.152 0.20791 265.121C-0.0693035 265.398 -0.0693035 265.873 0.20791 266.15C1.17816 267.12 2.15215 268.093 3.1224 269.062C3.39962 269.339 3.87538 269.339 4.15259 269.062C5.12284 268.093 6.09684 267.12 7.06708 266.15C7.21693 266 7.27687 265.828 7.27687 265.664C7.27687 265.652 7.27687 265.645 7.27687 265.634C7.27687 265.626 7.27687 265.615 7.27687 265.607C7.28061 265.447 7.22068 265.274 7.06708 265.121ZM3.63937 267.52C3.01002 266.891 2.38441 266.266 1.75506 265.637C2.38441 265.009 3.01002 264.384 3.63937 263.755C4.26872 264.384 4.89433 265.009 5.52368 265.637C4.89433 266.266 4.26872 266.891 3.63937 267.52Z" fill="url(#paint45_linear_54_3239)"/>
<path d="M36.2045 265.121C35.2343 264.152 34.2603 263.178 33.29 262.209C33.0128 261.932 32.5371 261.932 32.2598 262.209C31.2896 263.178 30.3156 264.152 29.3454 265.121C29.0681 265.398 29.0681 265.873 29.3454 266.15C30.3156 267.12 31.2896 268.093 32.2598 269.062C32.5371 269.339 33.0128 269.339 33.29 269.062C34.2603 268.093 35.2343 267.12 36.2045 266.15C36.3544 266 36.4143 265.828 36.4143 265.664C36.4143 265.652 36.4143 265.645 36.4143 265.634C36.4143 265.626 36.4143 265.615 36.4143 265.607C36.4181 265.447 36.3581 265.274 36.2045 265.121ZM32.7768 267.52C32.1475 266.891 31.5219 266.266 30.8925 265.637C31.5219 265.009 32.1475 264.384 32.7768 263.755C33.4062 264.384 34.0318 265.009 34.6611 265.637C34.0318 266.266 33.4062 266.891 32.7768 267.52Z" fill="url(#paint46_linear_54_3239)"/>
<path d="M65.3457 265.121C64.3754 264.152 63.4014 263.178 62.4312 262.209C62.154 261.932 61.6782 261.932 61.401 262.209C60.4308 263.178 59.4568 264.152 58.4865 265.121C58.2093 265.398 58.2093 265.873 58.4865 266.15C59.4568 267.12 60.4308 268.093 61.401 269.062C61.6782 269.339 62.154 269.339 62.4312 269.062C63.4014 268.093 64.3754 267.12 65.3457 266.15C65.4955 266 65.5555 265.828 65.5555 265.664C65.5555 265.652 65.5555 265.645 65.5555 265.634C65.5555 265.626 65.5555 265.615 65.5555 265.607C65.5555 265.447 65.4955 265.274 65.3457 265.121ZM61.9142 267.52C61.2849 266.891 60.6593 266.266 60.0299 265.637C60.6593 265.009 61.2849 264.384 61.9142 263.755C62.5436 264.384 63.1692 265.009 63.7985 265.637C63.1692 266.266 62.5436 266.891 61.9142 267.52Z" fill="url(#paint47_linear_54_3239)"/>
<path d="M21.6358 279.68C20.6656 278.711 19.6916 277.738 18.7213 276.768C18.4441 276.491 17.9684 276.491 17.6911 276.768C16.7209 277.738 15.7469 278.711 14.7766 279.68C14.4994 279.957 14.4994 280.433 14.7766 280.71C15.7469 281.679 16.7209 282.652 17.6911 283.621C17.9684 283.898 18.4441 283.898 18.7213 283.621C19.6916 282.652 20.6656 281.679 21.6358 280.71C21.7857 280.56 21.8456 280.388 21.8456 280.223C21.8456 280.212 21.8456 280.204 21.8456 280.193C21.8456 280.186 21.8456 280.174 21.8456 280.167C21.8493 280.002 21.7894 279.83 21.6358 279.68ZM18.2081 282.076C17.5788 281.447 16.9532 280.822 16.3238 280.193C16.9532 279.564 17.5788 278.939 18.2081 278.31C18.8375 278.939 19.4631 279.564 20.0924 280.193C19.4631 280.822 18.8375 281.447 18.2081 282.076Z" fill="url(#paint48_linear_54_3239)"/>
<path d="M50.777 279.68C49.8067 278.711 48.8328 277.738 47.8625 276.768C47.5853 276.491 47.1095 276.491 46.8323 276.768C45.8621 277.738 44.8881 278.711 43.9178 279.68C43.6406 279.957 43.6406 280.433 43.9178 280.71C44.8881 281.679 45.8621 282.652 46.8323 283.621C47.1095 283.898 47.5853 283.898 47.8625 283.621C48.8328 282.652 49.8067 281.679 50.777 280.71C50.9268 280.56 50.9868 280.388 50.9868 280.223C50.9868 280.212 50.9868 280.204 50.9868 280.193C50.9868 280.186 50.9868 280.174 50.9868 280.167C50.9868 280.002 50.9268 279.83 50.777 279.68ZM47.3455 282.076C46.7162 281.447 46.0906 280.822 45.4612 280.193C46.0906 279.564 46.7162 278.939 47.3455 278.31C47.9749 278.939 48.6005 279.564 49.2298 280.193C48.6005 280.822 47.9749 281.447 47.3455 282.076Z" fill="url(#paint49_linear_54_3239)"/>
<path d="M7.06708 294.236C6.09684 293.267 5.12284 292.294 4.15259 291.324C3.87538 291.047 3.39962 291.047 3.1224 291.324C2.15215 292.294 1.17816 293.267 0.20791 294.236C-0.0693035 294.513 -0.0693035 294.988 0.20791 295.265C1.17816 296.235 2.15215 297.208 3.1224 298.177C3.39962 298.454 3.87538 298.454 4.15259 298.177C5.12284 297.208 6.09684 296.235 7.06708 295.265C7.21693 295.116 7.27687 294.943 7.27687 294.779C7.27687 294.768 7.27687 294.76 7.27687 294.749C7.27687 294.741 7.27687 294.73 7.27687 294.723C7.28061 294.558 7.22068 294.386 7.06708 294.236ZM3.63937 296.631C3.01002 296.003 2.38441 295.378 1.75506 294.749C2.38441 294.12 3.01002 293.495 3.63937 292.866C4.26872 293.495 4.89433 294.12 5.52368 294.749C4.89433 295.378 4.26872 296.003 3.63937 296.631Z" fill="url(#paint50_linear_54_3239)"/>
<path d="M36.2045 294.236C35.2343 293.267 34.2603 292.294 33.29 291.324C33.0128 291.047 32.5371 291.047 32.2598 291.324C31.2896 292.294 30.3156 293.267 29.3454 294.236C29.0681 294.513 29.0681 294.988 29.3454 295.265C30.3156 296.235 31.2896 297.208 32.2598 298.177C32.5371 298.454 33.0128 298.454 33.29 298.177C34.2603 297.208 35.2343 296.235 36.2045 295.265C36.3544 295.116 36.4143 294.943 36.4143 294.779C36.4143 294.768 36.4143 294.76 36.4143 294.749C36.4143 294.741 36.4143 294.73 36.4143 294.723C36.4181 294.558 36.3581 294.386 36.2045 294.236ZM32.7768 296.631C32.1475 296.003 31.5219 295.378 30.8925 294.749C31.5219 294.12 32.1475 293.495 32.7768 292.866C33.4062 293.495 34.0318 294.12 34.6611 294.749C34.0318 295.378 33.4062 296.003 32.7768 296.631Z" fill="url(#paint51_linear_54_3239)"/>
<path d="M65.3457 294.236C64.3754 293.267 63.4014 292.294 62.4312 291.324C62.154 291.047 61.6782 291.047 61.401 291.324C60.4308 292.294 59.4568 293.267 58.4865 294.236C58.2093 294.513 58.2093 294.988 58.4865 295.265C59.4568 296.235 60.4308 297.208 61.401 298.177C61.6782 298.454 62.154 298.454 62.4312 298.177C63.4014 297.208 64.3754 296.235 65.3457 295.265C65.4955 295.116 65.5555 294.943 65.5555 294.779C65.5555 294.768 65.5555 294.76 65.5555 294.749C65.5555 294.741 65.5555 294.73 65.5555 294.723C65.5555 294.558 65.4955 294.386 65.3457 294.236ZM61.9142 296.631C61.2849 296.003 60.6593 295.378 60.0299 294.749C60.6593 294.12 61.2849 293.495 61.9142 292.866C62.5436 293.495 63.1692 294.12 63.7985 294.749C63.1692 295.378 62.5436 296.003 61.9142 296.631Z" fill="url(#paint52_linear_54_3239)"/>
<path d="M21.6358 308.792C20.6656 307.822 19.6916 306.849 18.7213 305.88C18.4441 305.603 17.9684 305.603 17.6911 305.88C16.7209 306.849 15.7469 307.822 14.7766 308.792C14.4994 309.069 14.4994 309.544 14.7766 309.821C15.7469 310.79 16.7209 311.763 17.6911 312.733C17.9684 313.01 18.4441 313.01 18.7213 312.733C19.6916 311.763 20.6656 310.79 21.6358 309.821C21.7857 309.671 21.8456 309.499 21.8456 309.334C21.8456 309.323 21.8456 309.316 21.8456 309.304C21.8456 309.297 21.8456 309.286 21.8456 309.278C21.8493 309.114 21.7894 308.941 21.6358 308.792ZM18.2081 311.187C17.5788 310.558 16.9532 309.933 16.3238 309.304C16.9532 308.676 17.5788 308.051 18.2081 307.422C18.8375 308.051 19.4631 308.676 20.0924 309.304C19.4631 309.933 18.8375 310.558 18.2081 311.187Z" fill="url(#paint53_linear_54_3239)"/>
<path d="M50.777 308.792C49.8067 307.822 48.8328 306.849 47.8625 305.88C47.5853 305.603 47.1095 305.603 46.8323 305.88C45.8621 306.849 44.8881 307.822 43.9178 308.792C43.6406 309.069 43.6406 309.544 43.9178 309.821C44.8881 310.79 45.8621 311.763 46.8323 312.733C47.1095 313.01 47.5853 313.01 47.8625 312.733C48.8328 311.763 49.8067 310.79 50.777 309.821C50.9268 309.671 50.9868 309.499 50.9868 309.334C50.9868 309.323 50.9868 309.316 50.9868 309.304C50.9868 309.297 50.9868 309.286 50.9868 309.278C50.9868 309.114 50.9268 308.941 50.777 308.792ZM47.3455 311.187C46.7162 310.558 46.0906 309.933 45.4612 309.304C46.0906 308.676 46.7162 308.051 47.3455 307.422C47.9749 308.051 48.6005 308.676 49.2298 309.304C48.6005 309.933 47.9749 310.558 47.3455 311.187Z" fill="url(#paint54_linear_54_3239)"/>
<path d="M7.06708 323.347C6.09684 322.378 5.12284 321.405 4.15259 320.435C3.87538 320.158 3.39962 320.158 3.1224 320.435C2.15215 321.405 1.17816 322.378 0.20791 323.347C-0.0693035 323.624 -0.0693035 324.1 0.20791 324.376C1.17816 325.346 2.15215 326.319 3.1224 327.288C3.39962 327.565 3.87538 327.565 4.15259 327.288C5.12284 326.319 6.09684 325.346 7.06708 324.376C7.21693 324.227 7.27687 324.055 7.27687 323.89C7.27687 323.879 7.27687 323.871 7.27687 323.86C7.27687 323.852 7.27687 323.841 7.27687 323.834C7.28061 323.669 7.22068 323.497 7.06708 323.347ZM3.63937 325.743C3.01002 325.114 2.38441 324.489 1.75506 323.86C2.38441 323.231 3.01002 322.606 3.63937 321.977C4.26872 322.606 4.89433 323.231 5.52368 323.86C4.89433 324.489 4.26872 325.114 3.63937 325.743Z" fill="url(#paint55_linear_54_3239)"/>
<path d="M36.2045 323.347C35.2343 322.378 34.2603 321.405 33.29 320.435C33.0128 320.158 32.5371 320.158 32.2598 320.435C31.2896 321.405 30.3156 322.378 29.3454 323.347C29.0681 323.624 29.0681 324.1 29.3454 324.376C30.3156 325.346 31.2896 326.319 32.2598 327.288C32.5371 327.565 33.0128 327.565 33.29 327.288C34.2603 326.319 35.2343 325.346 36.2045 324.376C36.3544 324.227 36.4143 324.055 36.4143 323.89C36.4143 323.879 36.4143 323.871 36.4143 323.86C36.4143 323.852 36.4143 323.841 36.4143 323.834C36.4181 323.669 36.3581 323.497 36.2045 323.347ZM32.7768 325.743C32.1475 325.114 31.5219 324.489 30.8925 323.86C31.5219 323.231 32.1475 322.606 32.7768 321.977C33.4062 322.606 34.0318 323.231 34.6611 323.86C34.0318 324.489 33.4062 325.114 32.7768 325.743Z" fill="url(#paint56_linear_54_3239)"/>
<path d="M65.3457 323.347C64.3754 322.378 63.4014 321.405 62.4312 320.435C62.154 320.158 61.6782 320.158 61.401 320.435C60.4308 321.405 59.4568 322.378 58.4865 323.347C58.2093 323.624 58.2093 324.1 58.4865 324.376C59.4568 325.346 60.4308 326.319 61.401 327.288C61.6782 327.565 62.154 327.565 62.4312 327.288C63.4014 326.319 64.3754 325.346 65.3457 324.376C65.4955 324.227 65.5555 324.055 65.5555 323.89C65.5555 323.879 65.5555 323.871 65.5555 323.86C65.5555 323.852 65.5555 323.841 65.5555 323.834C65.5555 323.669 65.4955 323.497 65.3457 323.347ZM61.9142 325.743C61.2849 325.114 60.6593 324.489 60.0299 323.86C60.6593 323.231 61.2849 322.606 61.9142 321.977C62.5436 322.606 63.1692 323.231 63.7985 323.86C63.1692 324.489 62.5436 325.114 61.9142 325.743Z" fill="url(#paint57_linear_54_3239)"/>
<defs>
<linearGradient id="paint0_linear_54_3239" x1="-80.899" y1="-395.731" x2="5893.66" y2="781.964" gradientUnits="userSpaceOnUse">
<stop stop-color="#BE965D"/>
<stop offset="0.2784" stop-color="#976F40"/>
<stop offset="0.4259" stop-color="#C99B61"/>
<stop offset="0.5584" stop-color="#F0BE7B"/>
<stop offset="0.6275" stop-color="#FFCB85"/>
<stop offset="0.7085" stop-color="#EEBC79"/>
<stop offset="0.8693" stop-color="#C0935B"/>
<stop offset="1" stop-color="#976F40"/>
</linearGradient>
<linearGradient id="paint1_linear_54_3239" x1="-214.088" y1="-1051.5" x2="5760.35" y2="126.145" gradientUnits="userSpaceOnUse">
<stop stop-color="#BE965D"/>
<stop offset="0.2784" stop-color="#976F40"/>
<stop offset="0.4259" stop-color="#C99B61"/>
<stop offset="0.5584" stop-color="#F0BE7B"/>
<stop offset="0.6275" stop-color="#FFCB85"/>
<stop offset="0.7085" stop-color="#EEBC79"/>
<stop offset="0.8693" stop-color="#C0935B"/>
<stop offset="1" stop-color="#976F40"/>
</linearGradient>
<linearGradient id="paint2_linear_54_3239" x1="-347.356" y1="-1707.27" x2="5627.21" y2="-529.579" gradientUnits="userSpaceOnUse">
<stop stop-color="#BE965D"/>
<stop offset="0.2784" stop-color="#976F40"/>
<stop offset="0.4259" stop-color="#C99B61"/>
<stop offset="0.5584" stop-color="#F0BE7B"/>
<stop offset="0.6275" stop-color="#FFCB85"/>
<stop offset="0.7085" stop-color="#EEBC79"/>
<stop offset="0.8693" stop-color="#C0935B"/>
<stop offset="1" stop-color="#976F40"/>
</linearGradient>
<linearGradient id="paint3_linear_54_3239" x1="-213.09" y1="-1046.57" x2="5761.35" y2="131.072" gradientUnits="userSpaceOnUse">
<stop stop-color="#BE965D"/>
<stop offset="0.2784" stop-color="#976F40"/>
<stop offset="0.4259" stop-color="#C99B61"/>
<stop offset="0.5584" stop-color="#F0BE7B"/>
<stop offset="0.6275" stop-color="#FFCB85"/>
<stop offset="0.7085" stop-color="#EEBC79"/>
<stop offset="0.8693" stop-color="#C0935B"/>
<stop offset="1" stop-color="#976F40"/>
</linearGradient>
<linearGradient id="paint4_linear_54_3239" x1="-346.359" y1="-1702.35" x2="5628.21" y2="-524.655" gradientUnits="userSpaceOnUse">
<stop stop-color="#BE965D"/>
<stop offset="0.2784" stop-color="#976F40"/>
<stop offset="0.4259" stop-color="#C99B61"/>
<stop offset="0.5584" stop-color="#F0BE7B"/>
<stop offset="0.6275" stop-color="#FFCB85"/>
<stop offset="0.7085" stop-color="#EEBC79"/>
<stop offset="0.8693" stop-color="#C0935B"/>
<stop offset="1" stop-color="#976F40"/>
</linearGradient>
<linearGradient id="paint5_linear_54_3239" x1="-212.093" y1="-1041.64" x2="5762.34" y2="135.998" gradientUnits="userSpaceOnUse">
<stop stop-color="#BE965D"/>
<stop offset="0.2784" stop-color="#976F40"/>
<stop offset="0.4259" stop-color="#C99B61"/>
<stop offset="0.5584" stop-color="#F0BE7B"/>
<stop offset="0.6275" stop-color="#FFCB85"/>
<stop offset="0.7085" stop-color="#EEBC79"/>
<stop offset="0.8693" stop-color="#C0935B"/>
<stop offset="1" stop-color="#976F40"/>
</linearGradient>
<linearGradient id="paint6_linear_54_3239" x1="-345.316" y1="-1697.4" x2="5629.12" y2="-519.762" gradientUnits="userSpaceOnUse">
<stop stop-color="#BE965D"/>
<stop offset="0.2784" stop-color="#976F40"/>
<stop offset="0.4259" stop-color="#C99B61"/>
<stop offset="0.5584" stop-color="#F0BE7B"/>
<stop offset="0.6275" stop-color="#FFCB85"/>
<stop offset="0.7085" stop-color="#EEBC79"/>
<stop offset="0.8693" stop-color="#C0935B"/>
<stop offset="1" stop-color="#976F40"/>
</linearGradient>
<linearGradient id="paint7_linear_54_3239" x1="-478.586" y1="-2353.18" x2="5495.97" y2="-1175.48" gradientUnits="userSpaceOnUse">
<stop stop-color="#BE965D"/>
<stop offset="0.2784" stop-color="#976F40"/>
<stop offset="0.4259" stop-color="#C99B61"/>
<stop offset="0.5584" stop-color="#F0BE7B"/>
<stop offset="0.6275" stop-color="#FFCB85"/>
<stop offset="0.7085" stop-color="#EEBC79"/>
<stop offset="0.8693" stop-color="#C0935B"/>
<stop offset="1" stop-color="#976F40"/>
</linearGradient>
<linearGradient id="paint8_linear_54_3239" x1="-344.32" y1="-1692.49" x2="5630.12" y2="-514.843" gradientUnits="userSpaceOnUse">
<stop stop-color="#BE965D"/>
<stop offset="0.2784" stop-color="#976F40"/>
<stop offset="0.4259" stop-color="#C99B61"/>
<stop offset="0.5584" stop-color="#F0BE7B"/>
<stop offset="0.6275" stop-color="#FFCB85"/>
<stop offset="0.7085" stop-color="#EEBC79"/>
<stop offset="0.8693" stop-color="#C0935B"/>
<stop offset="1" stop-color="#976F40"/>
</linearGradient>
<linearGradient id="paint9_linear_54_3239" x1="-477.589" y1="-2348.25" x2="5496.98" y2="-1170.56" gradientUnits="userSpaceOnUse">
<stop stop-color="#BE965D"/>
<stop offset="0.2784" stop-color="#976F40"/>
<stop offset="0.4259" stop-color="#C99B61"/>
<stop offset="0.5584" stop-color="#F0BE7B"/>
<stop offset="0.6275" stop-color="#FFCB85"/>
<stop offset="0.7085" stop-color="#EEBC79"/>
<stop offset="0.8693" stop-color="#C0935B"/>
<stop offset="1" stop-color="#976F40"/>
</linearGradient>
<linearGradient id="paint10_linear_54_3239" x1="-343.323" y1="-1687.56" x2="5631.11" y2="-509.916" gradientUnits="userSpaceOnUse">
<stop stop-color="#BE965D"/>
<stop offset="0.2784" stop-color="#976F40"/>
<stop offset="0.4259" stop-color="#C99B61"/>
<stop offset="0.5584" stop-color="#F0BE7B"/>
<stop offset="0.6275" stop-color="#FFCB85"/>
<stop offset="0.7085" stop-color="#EEBC79"/>
<stop offset="0.8693" stop-color="#C0935B"/>
<stop offset="1" stop-color="#976F40"/>
</linearGradient>
<linearGradient id="paint11_linear_54_3239" x1="-476.547" y1="-2343.33" x2="5497.89" y2="-1165.68" gradientUnits="userSpaceOnUse">
<stop stop-color="#BE965D"/>
<stop offset="0.2784" stop-color="#976F40"/>
<stop offset="0.4259" stop-color="#C99B61"/>
<stop offset="0.5584" stop-color="#F0BE7B"/>
<stop offset="0.6275" stop-color="#FFCB85"/>
<stop offset="0.7085" stop-color="#EEBC79"/>
<stop offset="0.8693" stop-color="#C0935B"/>
<stop offset="1" stop-color="#976F40"/>
</linearGradient>
<linearGradient id="paint12_linear_54_3239" x1="-609.82" y1="-2999.1" x2="5364.74" y2="-1821.4" gradientUnits="userSpaceOnUse">
<stop stop-color="#BE965D"/>
<stop offset="0.2784" stop-color="#976F40"/>
<stop offset="0.4259" stop-color="#C99B61"/>
<stop offset="0.5584" stop-color="#F0BE7B"/>
<stop offset="0.6275" stop-color="#FFCB85"/>
<stop offset="0.7085" stop-color="#EEBC79"/>
<stop offset="0.8693" stop-color="#C0935B"/>
<stop offset="1" stop-color="#976F40"/>
</linearGradient>
<linearGradient id="paint13_linear_54_3239" x1="-475.55" y1="-2338.4" x2="5498.89" y2="-1160.76" gradientUnits="userSpaceOnUse">
<stop stop-color="#BE965D"/>
<stop offset="0.2784" stop-color="#976F40"/>
<stop offset="0.4259" stop-color="#C99B61"/>
<stop offset="0.5584" stop-color="#F0BE7B"/>
<stop offset="0.6275" stop-color="#FFCB85"/>
<stop offset="0.7085" stop-color="#EEBC79"/>
<stop offset="0.8693" stop-color="#C0935B"/>
<stop offset="1" stop-color="#976F40"/>
</linearGradient>
<linearGradient id="paint14_linear_54_3239" x1="-608.823" y1="-2994.17" x2="5365.74" y2="-1816.48" gradientUnits="userSpaceOnUse">
<stop stop-color="#BE965D"/>
<stop offset="0.2784" stop-color="#976F40"/>
<stop offset="0.4259" stop-color="#C99B61"/>
<stop offset="0.5584" stop-color="#F0BE7B"/>
<stop offset="0.6275" stop-color="#FFCB85"/>
<stop offset="0.7085" stop-color="#EEBC79"/>
<stop offset="0.8693" stop-color="#C0935B"/>
<stop offset="1" stop-color="#976F40"/>
</linearGradient>
<linearGradient id="paint15_linear_54_3239" x1="-474.552" y1="-2333.48" x2="5499.88" y2="-1155.83" gradientUnits="userSpaceOnUse">
<stop stop-color="#BE965D"/>
<stop offset="0.2784" stop-color="#976F40"/>
<stop offset="0.4259" stop-color="#C99B61"/>
<stop offset="0.5584" stop-color="#F0BE7B"/>
<stop offset="0.6275" stop-color="#FFCB85"/>
<stop offset="0.7085" stop-color="#EEBC79"/>
<stop offset="0.8693" stop-color="#C0935B"/>
<stop offset="1" stop-color="#976F40"/>
</linearGradient>
<linearGradient id="paint16_linear_54_3239" x1="-607.778" y1="-2989.25" x2="5366.66" y2="-1811.6" gradientUnits="userSpaceOnUse">
<stop stop-color="#BE965D"/>
<stop offset="0.2784" stop-color="#976F40"/>
<stop offset="0.4259" stop-color="#C99B61"/>
<stop offset="0.5584" stop-color="#F0BE7B"/>
<stop offset="0.6275" stop-color="#FFCB85"/>
<stop offset="0.7085" stop-color="#EEBC79"/>
<stop offset="0.8693" stop-color="#C0935B"/>
<stop offset="1" stop-color="#976F40"/>
</linearGradient>
<linearGradient id="paint17_linear_54_3239" x1="-741.054" y1="-3645.02" x2="5233.51" y2="-2467.32" gradientUnits="userSpaceOnUse">
<stop stop-color="#BE965D"/>
<stop offset="0.2784" stop-color="#976F40"/>
<stop offset="0.4259" stop-color="#C99B61"/>
<stop offset="0.5584" stop-color="#F0BE7B"/>
<stop offset="0.6275" stop-color="#FFCB85"/>
<stop offset="0.7085" stop-color="#EEBC79"/>
<stop offset="0.8693" stop-color="#C0935B"/>
<stop offset="1" stop-color="#976F40"/>
</linearGradient>
<linearGradient id="paint18_linear_54_3239" x1="-606.781" y1="-2984.32" x2="5367.66" y2="-1806.68" gradientUnits="userSpaceOnUse">
<stop stop-color="#BE965D"/>
<stop offset="0.2784" stop-color="#976F40"/>
<stop offset="0.4259" stop-color="#C99B61"/>
<stop offset="0.5584" stop-color="#F0BE7B"/>
<stop offset="0.6275" stop-color="#FFCB85"/>
<stop offset="0.7085" stop-color="#EEBC79"/>
<stop offset="0.8693" stop-color="#C0935B"/>
<stop offset="1" stop-color="#976F40"/>
</linearGradient>
<linearGradient id="paint19_linear_54_3239" x1="-740.056" y1="-3640.09" x2="5234.51" y2="-2462.39" gradientUnits="userSpaceOnUse">
<stop stop-color="#BE965D"/>
<stop offset="0.2784" stop-color="#976F40"/>
<stop offset="0.4259" stop-color="#C99B61"/>
<stop offset="0.5584" stop-color="#F0BE7B"/>
<stop offset="0.6275" stop-color="#FFCB85"/>
<stop offset="0.7085" stop-color="#EEBC79"/>
<stop offset="0.8693" stop-color="#C0935B"/>
<stop offset="1" stop-color="#976F40"/>
</linearGradient>
<linearGradient id="paint20_linear_54_3239" x1="-605.784" y1="-2979.4" x2="5368.65" y2="-1801.75" gradientUnits="userSpaceOnUse">
<stop stop-color="#BE965D"/>
<stop offset="0.2784" stop-color="#976F40"/>
<stop offset="0.4259" stop-color="#C99B61"/>
<stop offset="0.5584" stop-color="#F0BE7B"/>
<stop offset="0.6275" stop-color="#FFCB85"/>
<stop offset="0.7085" stop-color="#EEBC79"/>
<stop offset="0.8693" stop-color="#C0935B"/>
<stop offset="1" stop-color="#976F40"/>
</linearGradient>
<linearGradient id="paint21_linear_54_3239" x1="-739.006" y1="-3635.15" x2="5235.43" y2="-2457.51" gradientUnits="userSpaceOnUse">
<stop stop-color="#BE965D"/>
<stop offset="0.2784" stop-color="#976F40"/>
<stop offset="0.4259" stop-color="#C99B61"/>
<stop offset="0.5584" stop-color="#F0BE7B"/>
<stop offset="0.6275" stop-color="#FFCB85"/>
<stop offset="0.7085" stop-color="#EEBC79"/>
<stop offset="0.8693" stop-color="#C0935B"/>
<stop offset="1" stop-color="#976F40"/>
</linearGradient>
<linearGradient id="paint22_linear_54_3239" x1="-872.284" y1="-4290.92" x2="5102.28" y2="-3113.23" gradientUnits="userSpaceOnUse">
<stop stop-color="#BE965D"/>
<stop offset="0.2784" stop-color="#976F40"/>
<stop offset="0.4259" stop-color="#C99B61"/>
<stop offset="0.5584" stop-color="#F0BE7B"/>
<stop offset="0.6275" stop-color="#FFCB85"/>
<stop offset="0.7085" stop-color="#EEBC79"/>
<stop offset="0.8693" stop-color="#C0935B"/>
<stop offset="1" stop-color="#976F40"/>
</linearGradient>
<linearGradient id="paint23_linear_54_3239" x1="-738.011" y1="-3630.24" x2="5236.43" y2="-2452.6" gradientUnits="userSpaceOnUse">
<stop stop-color="#BE965D"/>
<stop offset="0.2784" stop-color="#976F40"/>
<stop offset="0.4259" stop-color="#C99B61"/>
<stop offset="0.5584" stop-color="#F0BE7B"/>
<stop offset="0.6275" stop-color="#FFCB85"/>
<stop offset="0.7085" stop-color="#EEBC79"/>
<stop offset="0.8693" stop-color="#C0935B"/>
<stop offset="1" stop-color="#976F40"/>
</linearGradient>
<linearGradient id="paint24_linear_54_3239" x1="-871.289" y1="-4286.01" x2="5103.28" y2="-3108.31" gradientUnits="userSpaceOnUse">
<stop stop-color="#BE965D"/>
<stop offset="0.2784" stop-color="#976F40"/>
<stop offset="0.4259" stop-color="#C99B61"/>
<stop offset="0.5584" stop-color="#F0BE7B"/>
<stop offset="0.6275" stop-color="#FFCB85"/>
<stop offset="0.7085" stop-color="#EEBC79"/>
<stop offset="0.8693" stop-color="#C0935B"/>
<stop offset="1" stop-color="#976F40"/>
</linearGradient>
<linearGradient id="paint25_linear_54_3239" x1="-737.011" y1="-3625.3" x2="5237.42" y2="-2447.66" gradientUnits="userSpaceOnUse">
<stop stop-color="#BE965D"/>
<stop offset="0.2784" stop-color="#976F40"/>
<stop offset="0.4259" stop-color="#C99B61"/>
<stop offset="0.5584" stop-color="#F0BE7B"/>
<stop offset="0.6275" stop-color="#FFCB85"/>
<stop offset="0.7085" stop-color="#EEBC79"/>
<stop offset="0.8693" stop-color="#C0935B"/>
<stop offset="1" stop-color="#976F40"/>
</linearGradient>
<linearGradient id="paint26_linear_54_3239" x1="-870.237" y1="-4281.07" x2="5104.2" y2="-3103.43" gradientUnits="userSpaceOnUse">
<stop stop-color="#BE965D"/>
<stop offset="0.2784" stop-color="#976F40"/>
<stop offset="0.4259" stop-color="#C99B61"/>
<stop offset="0.5584" stop-color="#F0BE7B"/>
<stop offset="0.6275" stop-color="#FFCB85"/>
<stop offset="0.7085" stop-color="#EEBC79"/>
<stop offset="0.8693" stop-color="#C0935B"/>
<stop offset="1" stop-color="#976F40"/>
</linearGradient>
<linearGradient id="paint27_linear_54_3239" x1="-1003.52" y1="-4936.84" x2="4971.04" y2="-3759.15" gradientUnits="userSpaceOnUse">
<stop stop-color="#BE965D"/>
<stop offset="0.2784" stop-color="#976F40"/>
<stop offset="0.4259" stop-color="#C99B61"/>
<stop offset="0.5584" stop-color="#F0BE7B"/>
<stop offset="0.6275" stop-color="#FFCB85"/>
<stop offset="0.7085" stop-color="#EEBC79"/>
<stop offset="0.8693" stop-color="#C0935B"/>
<stop offset="1" stop-color="#976F40"/>
</linearGradient>
<linearGradient id="paint28_linear_54_3239" x1="-869.457" y1="-4276.14" x2="5106.09" y2="-3098.05" gradientUnits="userSpaceOnUse">
<stop stop-color="#BE965D"/>
<stop offset="0.2784" stop-color="#976F40"/>
<stop offset="0.4259" stop-color="#C99B61"/>
<stop offset="0.5584" stop-color="#F0BE7B"/>
<stop offset="0.6275" stop-color="#FFCB85"/>
<stop offset="0.7085" stop-color="#EEBC79"/>
<stop offset="0.8693" stop-color="#C0935B"/>
<stop offset="1" stop-color="#976F40"/>
</linearGradient>
<linearGradient id="paint29_linear_54_3239" x1="-1002.71" y1="-4931.91" x2="4972.83" y2="-3753.82" gradientUnits="userSpaceOnUse">
<stop stop-color="#BE965D"/>
<stop offset="0.2784" stop-color="#976F40"/>
<stop offset="0.4259" stop-color="#C99B61"/>
<stop offset="0.5584" stop-color="#F0BE7B"/>
<stop offset="0.6275" stop-color="#FFCB85"/>
<stop offset="0.7085" stop-color="#EEBC79"/>
<stop offset="0.8693" stop-color="#C0935B"/>
<stop offset="1" stop-color="#976F40"/>
</linearGradient>
<linearGradient id="paint30_linear_54_3239" x1="-868.242" y1="-4271.22" x2="5106.19" y2="-3093.58" gradientUnits="userSpaceOnUse">
<stop stop-color="#BE965D"/>
<stop offset="0.2784" stop-color="#976F40"/>
<stop offset="0.4259" stop-color="#C99B61"/>
<stop offset="0.5584" stop-color="#F0BE7B"/>
<stop offset="0.6275" stop-color="#FFCB85"/>
<stop offset="0.7085" stop-color="#EEBC79"/>
<stop offset="0.8693" stop-color="#C0935B"/>
<stop offset="1" stop-color="#976F40"/>
</linearGradient>
<linearGradient id="paint31_linear_54_3239" x1="-1001.47" y1="-4926.99" x2="4972.97" y2="-3749.35" gradientUnits="userSpaceOnUse">
<stop stop-color="#BE965D"/>
<stop offset="0.2784" stop-color="#976F40"/>
<stop offset="0.4259" stop-color="#C99B61"/>
<stop offset="0.5584" stop-color="#F0BE7B"/>
<stop offset="0.6275" stop-color="#FFCB85"/>
<stop offset="0.7085" stop-color="#EEBC79"/>
<stop offset="0.8693" stop-color="#C0935B"/>
<stop offset="1" stop-color="#976F40"/>
</linearGradient>
<linearGradient id="paint32_linear_54_3239" x1="-1134.75" y1="-5582.75" x2="4839.81" y2="-4405.05" gradientUnits="userSpaceOnUse">
<stop stop-color="#BE965D"/>
<stop offset="0.2784" stop-color="#976F40"/>
<stop offset="0.4259" stop-color="#C99B61"/>
<stop offset="0.5584" stop-color="#F0BE7B"/>
<stop offset="0.6275" stop-color="#FFCB85"/>
<stop offset="0.7085" stop-color="#EEBC79"/>
<stop offset="0.8693" stop-color="#C0935B"/>
<stop offset="1" stop-color="#976F40"/>
</linearGradient>
<linearGradient id="paint33_linear_54_3239" x1="-1000.47" y1="-4922.06" x2="4973.97" y2="-3744.42" gradientUnits="userSpaceOnUse">
<stop stop-color="#BE965D"/>
<stop offset="0.2784" stop-color="#976F40"/>
<stop offset="0.4259" stop-color="#C99B61"/>
<stop offset="0.5584" stop-color="#F0BE7B"/>
<stop offset="0.6275" stop-color="#FFCB85"/>
<stop offset="0.7085" stop-color="#EEBC79"/>
<stop offset="0.8693" stop-color="#C0935B"/>
<stop offset="1" stop-color="#976F40"/>
</linearGradient>
<linearGradient id="paint34_linear_54_3239" x1="-1133.75" y1="-5577.83" x2="4840.81" y2="-4400.13" gradientUnits="userSpaceOnUse">
<stop stop-color="#BE965D"/>
<stop offset="0.2784" stop-color="#976F40"/>
<stop offset="0.4259" stop-color="#C99B61"/>
<stop offset="0.5584" stop-color="#F0BE7B"/>
<stop offset="0.6275" stop-color="#FFCB85"/>
<stop offset="0.7085" stop-color="#EEBC79"/>
<stop offset="0.8693" stop-color="#C0935B"/>
<stop offset="1" stop-color="#976F40"/>
</linearGradient>
<linearGradient id="paint35_linear_54_3239" x1="-999.47" y1="-4917.13" x2="4974.97" y2="-3739.48" gradientUnits="userSpaceOnUse">
<stop stop-color="#BE965D"/>
<stop offset="0.2784" stop-color="#976F40"/>
<stop offset="0.4259" stop-color="#C99B61"/>
<stop offset="0.5584" stop-color="#F0BE7B"/>
<stop offset="0.6275" stop-color="#FFCB85"/>
<stop offset="0.7085" stop-color="#EEBC79"/>
<stop offset="0.8693" stop-color="#C0935B"/>
<stop offset="1" stop-color="#976F40"/>
</linearGradient>
<linearGradient id="paint36_linear_54_3239" x1="-1132.7" y1="-5572.9" x2="4841.74" y2="-4395.25" gradientUnits="userSpaceOnUse">
<stop stop-color="#BE965D"/>
<stop offset="0.2784" stop-color="#976F40"/>
<stop offset="0.4259" stop-color="#C99B61"/>
<stop offset="0.5584" stop-color="#F0BE7B"/>
<stop offset="0.6275" stop-color="#FFCB85"/>
<stop offset="0.7085" stop-color="#EEBC79"/>
<stop offset="0.8693" stop-color="#C0935B"/>
<stop offset="1" stop-color="#976F40"/>
</linearGradient>
<linearGradient id="paint37_linear_54_3239" x1="-1265.98" y1="-6228.67" x2="4708.58" y2="-5050.97" gradientUnits="userSpaceOnUse">
<stop stop-color="#BE965D"/>
<stop offset="0.2784" stop-color="#976F40"/>
<stop offset="0.4259" stop-color="#C99B61"/>
<stop offset="0.5584" stop-color="#F0BE7B"/>
<stop offset="0.6275" stop-color="#FFCB85"/>
<stop offset="0.7085" stop-color="#EEBC79"/>
<stop offset="0.8693" stop-color="#C0935B"/>
<stop offset="1" stop-color="#976F40"/>
</linearGradient>
<linearGradient id="paint38_linear_54_3239" x1="-1131.7" y1="-5567.98" x2="4842.74" y2="-4390.33" gradientUnits="userSpaceOnUse">
<stop stop-color="#BE965D"/>
<stop offset="0.2784" stop-color="#976F40"/>
<stop offset="0.4259" stop-color="#C99B61"/>
<stop offset="0.5584" stop-color="#F0BE7B"/>
<stop offset="0.6275" stop-color="#FFCB85"/>
<stop offset="0.7085" stop-color="#EEBC79"/>
<stop offset="0.8693" stop-color="#C0935B"/>
<stop offset="1" stop-color="#976F40"/>
</linearGradient>
<linearGradient id="paint39_linear_54_3239" x1="-1264.99" y1="-6223.75" x2="4709.58" y2="-5046.05" gradientUnits="userSpaceOnUse">
<stop stop-color="#BE965D"/>
<stop offset="0.2784" stop-color="#976F40"/>
<stop offset="0.4259" stop-color="#C99B61"/>
<stop offset="0.5584" stop-color="#F0BE7B"/>
<stop offset="0.6275" stop-color="#FFCB85"/>
<stop offset="0.7085" stop-color="#EEBC79"/>
<stop offset="0.8693" stop-color="#C0935B"/>
<stop offset="1" stop-color="#976F40"/>
</linearGradient>
<linearGradient id="paint40_linear_54_3239" x1="-1130.7" y1="-5563.05" x2="4843.74" y2="-4385.4" gradientUnits="userSpaceOnUse">
<stop stop-color="#BE965D"/>
<stop offset="0.2784" stop-color="#976F40"/>
<stop offset="0.4259" stop-color="#C99B61"/>
<stop offset="0.5584" stop-color="#F0BE7B"/>
<stop offset="0.6275" stop-color="#FFCB85"/>
<stop offset="0.7085" stop-color="#EEBC79"/>
<stop offset="0.8693" stop-color="#C0935B"/>
<stop offset="1" stop-color="#976F40"/>
</linearGradient>
<linearGradient id="paint41_linear_54_3239" x1="-1263.93" y1="-6218.82" x2="4710.51" y2="-5041.18" gradientUnits="userSpaceOnUse">
<stop stop-color="#BE965D"/>
<stop offset="0.2784" stop-color="#976F40"/>
<stop offset="0.4259" stop-color="#C99B61"/>
<stop offset="0.5584" stop-color="#F0BE7B"/>
<stop offset="0.6275" stop-color="#FFCB85"/>
<stop offset="0.7085" stop-color="#EEBC79"/>
<stop offset="0.8693" stop-color="#C0935B"/>
<stop offset="1" stop-color="#976F40"/>
</linearGradient>
<linearGradient id="paint42_linear_54_3239" x1="-1397.22" y1="-6874.59" x2="4577.34" y2="-5696.9" gradientUnits="userSpaceOnUse">
<stop stop-color="#BE965D"/>
<stop offset="0.2784" stop-color="#976F40"/>
<stop offset="0.4259" stop-color="#C99B61"/>
<stop offset="0.5584" stop-color="#F0BE7B"/>
<stop offset="0.6275" stop-color="#FFCB85"/>
<stop offset="0.7085" stop-color="#EEBC79"/>
<stop offset="0.8693" stop-color="#C0935B"/>
<stop offset="1" stop-color="#976F40"/>
</linearGradient>
<linearGradient id="paint43_linear_54_3239" x1="-1262.93" y1="-6213.9" x2="4711.51" y2="-5036.25" gradientUnits="userSpaceOnUse">
<stop stop-color="#BE965D"/>
<stop offset="0.2784" stop-color="#976F40"/>
<stop offset="0.4259" stop-color="#C99B61"/>
<stop offset="0.5584" stop-color="#F0BE7B"/>
<stop offset="0.6275" stop-color="#FFCB85"/>
<stop offset="0.7085" stop-color="#EEBC79"/>
<stop offset="0.8693" stop-color="#C0935B"/>
<stop offset="1" stop-color="#976F40"/>
</linearGradient>
<linearGradient id="paint44_linear_54_3239" x1="-1396.22" y1="-6869.67" x2="4578.35" y2="-5691.97" gradientUnits="userSpaceOnUse">
<stop stop-color="#BE965D"/>
<stop offset="0.2784" stop-color="#976F40"/>
<stop offset="0.4259" stop-color="#C99B61"/>
<stop offset="0.5584" stop-color="#F0BE7B"/>
<stop offset="0.6275" stop-color="#FFCB85"/>
<stop offset="0.7085" stop-color="#EEBC79"/>
<stop offset="0.8693" stop-color="#C0935B"/>
<stop offset="1" stop-color="#976F40"/>
</linearGradient>
<linearGradient id="paint45_linear_54_3239" x1="-1261.93" y1="-6208.97" x2="4712.5" y2="-5031.33" gradientUnits="userSpaceOnUse">
<stop stop-color="#BE965D"/>
<stop offset="0.2784" stop-color="#976F40"/>
<stop offset="0.4259" stop-color="#C99B61"/>
<stop offset="0.5584" stop-color="#F0BE7B"/>
<stop offset="0.6275" stop-color="#FFCB85"/>
<stop offset="0.7085" stop-color="#EEBC79"/>
<stop offset="0.8693" stop-color="#C0935B"/>
<stop offset="1" stop-color="#976F40"/>
</linearGradient>
<linearGradient id="paint46_linear_54_3239" x1="-1395.15" y1="-6864.72" x2="4579.28" y2="-5687.08" gradientUnits="userSpaceOnUse">
<stop stop-color="#BE965D"/>
<stop offset="0.2784" stop-color="#976F40"/>
<stop offset="0.4259" stop-color="#C99B61"/>
<stop offset="0.5584" stop-color="#F0BE7B"/>
<stop offset="0.6275" stop-color="#FFCB85"/>
<stop offset="0.7085" stop-color="#EEBC79"/>
<stop offset="0.8693" stop-color="#C0935B"/>
<stop offset="1" stop-color="#976F40"/>
</linearGradient>
<linearGradient id="paint47_linear_54_3239" x1="-1528.45" y1="-7520.49" x2="4446.11" y2="-6342.8" gradientUnits="userSpaceOnUse">
<stop stop-color="#BE965D"/>
<stop offset="0.2784" stop-color="#976F40"/>
<stop offset="0.4259" stop-color="#C99B61"/>
<stop offset="0.5584" stop-color="#F0BE7B"/>
<stop offset="0.6275" stop-color="#FFCB85"/>
<stop offset="0.7085" stop-color="#EEBC79"/>
<stop offset="0.8693" stop-color="#C0935B"/>
<stop offset="1" stop-color="#976F40"/>
</linearGradient>
<linearGradient id="paint48_linear_54_3239" x1="-1394.16" y1="-6859.99" x2="4580.28" y2="-5682.34" gradientUnits="userSpaceOnUse">
<stop stop-color="#BE965D"/>
<stop offset="0.2784" stop-color="#976F40"/>
<stop offset="0.4259" stop-color="#C99B61"/>
<stop offset="0.5584" stop-color="#F0BE7B"/>
<stop offset="0.6275" stop-color="#FFCB85"/>
<stop offset="0.7085" stop-color="#EEBC79"/>
<stop offset="0.8693" stop-color="#C0935B"/>
<stop offset="1" stop-color="#976F40"/>
</linearGradient>
<linearGradient id="paint49_linear_54_3239" x1="-1527.45" y1="-7515.76" x2="4447.11" y2="-6338.06" gradientUnits="userSpaceOnUse">
<stop stop-color="#BE965D"/>
<stop offset="0.2784" stop-color="#976F40"/>
<stop offset="0.4259" stop-color="#C99B61"/>
<stop offset="0.5584" stop-color="#F0BE7B"/>
<stop offset="0.6275" stop-color="#FFCB85"/>
<stop offset="0.7085" stop-color="#EEBC79"/>
<stop offset="0.8693" stop-color="#C0935B"/>
<stop offset="1" stop-color="#976F40"/>
</linearGradient>
<linearGradient id="paint50_linear_54_3239" x1="-1393.16" y1="-6855.05" x2="4581.29" y2="-5677.4" gradientUnits="userSpaceOnUse">
<stop stop-color="#BE965D"/>
<stop offset="0.2784" stop-color="#976F40"/>
<stop offset="0.4259" stop-color="#C99B61"/>
<stop offset="0.5584" stop-color="#F0BE7B"/>
<stop offset="0.6275" stop-color="#FFCB85"/>
<stop offset="0.7085" stop-color="#EEBC79"/>
<stop offset="0.8693" stop-color="#C0935B"/>
<stop offset="1" stop-color="#976F40"/>
</linearGradient>
<linearGradient id="paint51_linear_54_3239" x1="-1526.39" y1="-7510.82" x2="4448.06" y2="-6333.18" gradientUnits="userSpaceOnUse">
<stop stop-color="#BE965D"/>
<stop offset="0.2784" stop-color="#976F40"/>
<stop offset="0.4259" stop-color="#C99B61"/>
<stop offset="0.5584" stop-color="#F0BE7B"/>
<stop offset="0.6275" stop-color="#FFCB85"/>
<stop offset="0.7085" stop-color="#EEBC79"/>
<stop offset="0.8693" stop-color="#C0935B"/>
<stop offset="1" stop-color="#976F40"/>
</linearGradient>
<linearGradient id="paint52_linear_54_3239" x1="-1659.68" y1="-8166.6" x2="4314.89" y2="-6988.9" gradientUnits="userSpaceOnUse">
<stop stop-color="#BE965D"/>
<stop offset="0.2784" stop-color="#976F40"/>
<stop offset="0.4259" stop-color="#C99B61"/>
<stop offset="0.5584" stop-color="#F0BE7B"/>
<stop offset="0.6275" stop-color="#FFCB85"/>
<stop offset="0.7085" stop-color="#EEBC79"/>
<stop offset="0.8693" stop-color="#C0935B"/>
<stop offset="1" stop-color="#976F40"/>
</linearGradient>
<linearGradient id="paint53_linear_54_3239" x1="-1525.39" y1="-7505.9" x2="4449.06" y2="-6328.25" gradientUnits="userSpaceOnUse">
<stop stop-color="#BE965D"/>
<stop offset="0.2784" stop-color="#976F40"/>
<stop offset="0.4259" stop-color="#C99B61"/>
<stop offset="0.5584" stop-color="#F0BE7B"/>
<stop offset="0.6275" stop-color="#FFCB85"/>
<stop offset="0.7085" stop-color="#EEBC79"/>
<stop offset="0.8693" stop-color="#C0935B"/>
<stop offset="1" stop-color="#976F40"/>
</linearGradient>
<linearGradient id="paint54_linear_54_3239" x1="-1658.69" y1="-8161.67" x2="4315.89" y2="-6983.97" gradientUnits="userSpaceOnUse">
<stop stop-color="#BE965D"/>
<stop offset="0.2784" stop-color="#976F40"/>
<stop offset="0.4259" stop-color="#C99B61"/>
<stop offset="0.5584" stop-color="#F0BE7B"/>
<stop offset="0.6275" stop-color="#FFCB85"/>
<stop offset="0.7085" stop-color="#EEBC79"/>
<stop offset="0.8693" stop-color="#C0935B"/>
<stop offset="1" stop-color="#976F40"/>
</linearGradient>
<linearGradient id="paint55_linear_54_3239" x1="-1524.39" y1="-7500.97" x2="4450.06" y2="-6323.33" gradientUnits="userSpaceOnUse">
<stop stop-color="#BE965D"/>
<stop offset="0.2784" stop-color="#976F40"/>
<stop offset="0.4259" stop-color="#C99B61"/>
<stop offset="0.5584" stop-color="#F0BE7B"/>
<stop offset="0.6275" stop-color="#FFCB85"/>
<stop offset="0.7085" stop-color="#EEBC79"/>
<stop offset="0.8693" stop-color="#C0935B"/>
<stop offset="1" stop-color="#976F40"/>
</linearGradient>
<linearGradient id="paint56_linear_54_3239" x1="-1657.62" y1="-8156.75" x2="4316.83" y2="-6979.1" gradientUnits="userSpaceOnUse">
<stop stop-color="#BE965D"/>
<stop offset="0.2784" stop-color="#976F40"/>
<stop offset="0.4259" stop-color="#C99B61"/>
<stop offset="0.5584" stop-color="#F0BE7B"/>
<stop offset="0.6275" stop-color="#FFCB85"/>
<stop offset="0.7085" stop-color="#EEBC79"/>
<stop offset="0.8693" stop-color="#C0935B"/>
<stop offset="1" stop-color="#976F40"/>
</linearGradient>
<linearGradient id="paint57_linear_54_3239" x1="-1790.91" y1="-8812.5" x2="4183.66" y2="-7634.81" gradientUnits="userSpaceOnUse">
<stop stop-color="#BE965D"/>
<stop offset="0.2784" stop-color="#976F40"/>
<stop offset="0.4259" stop-color="#C99B61"/>
<stop offset="0.5584" stop-color="#F0BE7B"/>
<stop offset="0.6275" stop-color="#FFCB85"/>
<stop offset="0.7085" stop-color="#EEBC79"/>
<stop offset="0.8693" stop-color="#C0935B"/>
<stop offset="1" stop-color="#976F40"/>
</linearGradient>
</defs>
</svg>
