<svg width="15" height="15" viewBox="0 0 15 15" fill="none" xmlns="http://www.w3.org/2000/svg">
<path d="M12.9512 0.360352C14.0449 0.360352 14.9512 1.2666 14.9512 2.36035V12.3604C14.9512 13.4854 14.0449 14.3604 12.9512 14.3604H2.95117C1.82617 14.3604 0.951172 13.4854 0.951172 12.3604V2.36035C0.951172 1.2666 1.82617 0.360352 2.95117 0.360352H12.9512ZM11.5449 5.98535C11.8887 5.6416 11.8887 5.11035 11.5449 4.7666C11.2012 4.42285 10.6699 4.42285 10.3262 4.7666L6.95117 8.1416L5.54492 6.7666C5.20117 6.42285 4.66992 6.42285 4.32617 6.7666C3.98242 7.11035 3.98242 7.6416 4.32617 7.98535L6.32617 9.98535C6.66992 10.3291 7.20117 10.3291 7.54492 9.98535L11.5449 5.98535Z" fill="#F2E401"/>
</svg>
