<svg width="40" height="40" viewBox="0 0 40 40" fill="none" xmlns="http://www.w3.org/2000/svg">
<path d="M19.2103 1.01659C19.6106 0.501223 20.3894 0.501224 20.7897 1.0166L22.4694 3.17882C22.7799 3.57849 23.34 3.6832 23.7739 3.42267L26.1212 2.01322C26.6807 1.67728 27.4068 1.95859 27.594 2.58378L28.3792 5.20676C28.5243 5.6916 29.0088 5.99158 29.5075 5.90538L32.2054 5.43907C32.8485 5.32792 33.424 5.85254 33.3727 6.50312L33.1573 9.23261C33.1175 9.73714 33.4609 10.1919 33.957 10.2917L36.6412 10.8314C37.281 10.9601 37.6282 11.6572 37.3453 12.2453L36.1584 14.7127C35.939 15.1687 36.095 15.7168 36.5216 15.9891L38.8296 17.4621C39.3797 17.8132 39.4515 18.5886 38.9753 19.0348L36.9773 20.9068C36.608 21.2528 36.5554 21.8202 36.8548 22.2282L38.4749 24.4355C38.861 24.9616 38.6479 25.7106 38.0426 25.9546L35.5033 26.9785C35.0339 27.1677 34.7799 27.6778 34.9117 28.1664L35.625 30.8099C35.795 31.4399 35.3257 32.0614 34.6732 32.0703L31.9355 32.1076C31.4294 32.1145 31.0083 32.4984 30.9547 33.0017L30.6649 35.7243C30.5958 36.3732 29.9337 36.7832 29.3221 36.5557L26.7557 35.6016C26.2813 35.4253 25.75 35.6311 25.5182 36.081L24.2645 38.5151C23.9656 39.0952 23.2002 39.2383 22.7119 38.8053L20.6635 36.9885C20.2849 36.6527 19.7151 36.6527 19.3365 36.9885L17.2881 38.8053C16.7998 39.2383 16.0344 39.0952 15.7355 38.5151L14.4818 36.081C14.25 35.6311 13.7187 35.4253 13.2443 35.6016L10.678 36.5557C10.0663 36.7832 9.40418 36.3732 9.3351 35.7243L9.04528 33.0017C8.99171 32.4984 8.5706 32.1145 8.06455 32.1076L5.32683 32.0703C4.67428 32.0614 4.205 31.4399 4.37501 30.8098L5.08827 28.1664C5.22011 27.6778 4.96612 27.1677 4.49674 26.9785L1.95739 25.9546C1.35213 25.7106 1.13902 24.9616 1.52516 24.4355L3.14518 22.2282C3.44463 21.8202 3.39205 21.2528 3.02273 20.9068L1.02471 19.0348C0.548475 18.5886 0.620328 17.8132 1.17044 17.4621L3.47842 15.9891C3.90504 15.7168 4.06098 15.1687 3.8416 14.7127L2.65475 12.2453C2.37186 11.6572 2.71897 10.9601 3.35876 10.8314L6.043 10.2916C6.53916 10.1919 6.88256 9.73714 6.84275 9.23261L6.62736 6.50313C6.57602 5.85255 7.1515 5.32792 7.79457 5.43907L10.4925 5.90538C10.9912 5.99158 11.4757 5.6916 11.6209 5.20676L12.406 2.58378C12.5932 1.95859 13.3193 1.67728 13.8788 2.01322L16.2261 3.42267C16.66 3.6832 17.2201 3.57849 17.5306 3.17882L19.2103 1.01659Z" fill="#F2E401"/>
<path d="M13.75 19.9999H26.25M19.9999 13.75V26.25" stroke="black" stroke-width="2" stroke-linecap="round" stroke-linejoin="round"/>
</svg>
