<svg width="45" height="45" viewBox="0 0 45 45" fill="none" xmlns="http://www.w3.org/2000/svg">
<path d="M28.2169 19.7127L27.9906 19.8959L28.0649 20.1774L30.3324 28.7616L22.7866 22.5281L22.5 22.2913L22.2134 22.5281L14.6764 28.7543L16.9345 20.367L17.0094 20.0888L16.7881 19.9043L9.79102 14.0734L18.775 13.5743L19.0613 13.5584L19.1678 13.2921L22.5 4.96166L25.8322 13.2921L25.9387 13.5584L26.225 13.5743L35.1847 14.0721L28.2169 19.7127ZM23.925 35.625V36.075H24.375H26.25C27.1252 36.075 27.9646 36.4227 28.5835 37.0415C29.2023 37.6604 29.55 38.4998 29.55 39.375V40.8H15.45V39.375C15.45 37.561 16.936 36.075 18.75 36.075H20.625H21.075V35.625V30.1864L22.5 28.7614L23.925 30.1864V35.625Z" stroke="black" stroke-width="0.9"/>
</svg>
