<svg width="166" height="47" viewBox="0 0 166 47" fill="none" xmlns="http://www.w3.org/2000/svg">
<path d="M162.857 24.9113C162.273 22.7532 160.381 21.3794 158.183 21.3794C156.18 21.3794 154.26 22.9489 153.843 24.9113H162.857ZM165.444 29.3397C164.275 32.1983 161.522 34.1321 158.434 34.1321C154.093 34.1321 150.616 30.7127 150.616 26.3121C150.616 21.8837 153.927 18.3243 158.35 18.3243C160.409 18.3243 162.467 19.2492 163.914 20.7348C165.389 22.3042 166.001 24.2102 166.001 26.34L165.889 27.5454H153.871C154.316 29.6197 156.208 31.1326 158.322 31.1326C159.797 31.1326 161.076 30.5724 161.911 29.3392H165.443M134.844 21.9676H132.924V18.7726H138.238V20.9026C139.128 19.249 140.797 18.436 142.633 18.436C144.247 18.436 145.832 19.1089 146.918 20.286C148.141 21.6595 148.169 22.9768 148.169 24.6863V30.5443H150.089V33.7393H142.856V30.5443H144.775V25.6953C144.775 24.7703 144.775 23.8175 144.191 23.0044C143.579 22.1919 142.578 21.7997 141.576 21.7997C140.547 21.7997 139.49 22.22 138.878 23.0606C138.238 23.9011 138.238 25.1906 138.238 26.2V30.5443H140.157V33.7394H132.924V30.5443H134.844V21.9675M129.976 17.3432H126.582V13.7275H129.976V17.3432ZM129.976 30.5443H131.895V33.7394H124.634V30.5443H126.582V21.9675H124.662V18.7725H129.976V30.544M99.3186 21.9672H97.3994V18.7721H102.407V21.0143C103.353 19.4448 104.799 18.4077 106.691 18.4077C108.749 18.4077 110.474 19.6688 111.309 21.5469C112.116 19.641 114.119 18.4077 116.177 18.4077C117.791 18.4077 119.377 19.0802 120.461 20.3136C121.63 21.6871 121.63 23.1725 121.63 24.8819V30.544H123.549V33.739H116.316V30.544H118.236V25.7231C118.236 24.7419 118.236 23.8731 117.791 23.0041C117.235 22.1916 116.316 21.7709 115.371 21.7709C114.453 21.7709 113.451 22.1635 112.867 22.8918C112.171 23.7891 112.171 24.6299 112.171 25.7231V30.544H114.091V33.739H106.858V30.544H108.778V25.9475C108.778 25.0504 108.778 23.9294 108.333 23.1446C107.86 22.2479 106.886 21.7712 105.884 21.7712C104.938 21.7712 104.132 22.1076 103.52 22.8646C102.768 23.7893 102.713 24.7702 102.713 25.9194V30.544H104.632V33.7391H97.3994V30.544H99.3186V21.9672M88.2268 29.3957C88.3381 30.7411 89.2283 31.6376 90.6193 31.6376C91.6487 31.6376 92.6499 30.9094 92.6499 29.7883C92.6499 28.3026 91.2591 28.0504 90.1184 27.7422C87.5311 27.0696 84.6936 26.2565 84.6936 22.9775C84.6936 20.1185 87.0861 18.4651 89.7292 18.4651C91.0641 18.4651 92.2603 18.7456 93.0949 19.8102V18.7734H95.5988V22.8374H92.3158C92.2603 21.772 91.4536 21.0715 90.3966 21.0715C89.4786 21.0715 88.505 21.604 88.505 22.641C88.505 24.0424 89.8681 24.3506 90.953 24.6027C93.6234 25.2194 96.4889 26.0606 96.4889 29.4239C96.4889 32.4508 93.9575 34.1323 91.1757 34.1323C89.673 34.1323 88.3099 33.656 87.3364 32.5068V33.7398H84.7494V29.3955H88.2268M78.4881 26.1729C78.4881 23.7061 76.4572 21.7161 74.0092 21.7161C71.4777 21.7161 69.5303 23.8184 69.5303 26.3407C69.5303 28.7794 71.5612 30.7972 73.9537 30.7972C76.5127 30.7972 78.4881 28.7233 78.4881 26.1729ZM78.4326 31.7221C77.3474 33.3757 75.595 34.1326 73.6476 34.1326C69.391 34.1326 66.0253 30.5731 66.0253 26.3407C66.0253 21.9963 69.4748 18.381 73.8144 18.381C75.7339 18.381 77.4032 19.2777 78.4326 20.9034V18.7733H83.7461V21.9684H81.8821V30.5452H83.7461V33.7403H78.4326V31.7223M55.5087 28.107C55.5366 29.3404 56.2878 30.6012 57.6788 30.6012C58.5134 30.6012 59.1254 30.209 59.5428 29.5084C59.9321 28.8075 59.9321 27.7706 59.9321 26.9859V16.9242H57.7622V13.7288H65.8575V16.9242H63.7156V27.4624C63.7156 29.2563 63.6039 30.6574 62.3525 32.1151C61.2397 33.4044 59.4315 34.1331 57.7064 34.1331C54.1456 34.1331 51.419 31.7508 51.5586 28.1073H55.5087" fill="black"/>
<path d="M21.6012 19.6278H25.0688L25.9302 18.4332V9.07471H20.74V18.434L21.6011 19.6279" fill="black"/>
<path d="M22.5705 37.8767H24.0087V30.7623H22.5705V37.8767ZM9.74807 28.425L9.30387 27.0469L16.0192 24.8493L16.4632 26.2274L9.74826 28.425M18.413 17.5961L14.2632 11.8405L15.4272 10.9887L19.5769 16.7446L18.413 17.5961M28.3274 17.6489L27.1637 16.7972L31.3138 11.0413L32.4778 11.8928L28.3273 17.6491M36.8923 28.5115L30.1766 26.3127L30.6209 24.9344L37.3362 27.1331L36.8923 28.5115M26.2309 20.4779L27.3028 23.8007L28.6967 24.2563L37.5311 21.3648L35.9275 16.3922L27.0924 19.2846L26.2306 20.4781M26.8618 25.1785L24.0562 27.2317L24.0566 28.7079L29.5165 36.2796L33.7155 33.2067L28.2545 25.6346L26.8618 25.1785ZM22.6181 27.2325L19.8133 25.1785L18.4192 25.6356L12.9593 33.2068L17.1576 36.2797L22.6182 28.7081V27.2325M19.3685 23.8007L20.4398 20.4786L19.5782 19.2838L10.7438 16.3918L9.14004 21.3644L17.9759 24.2567L19.3687 23.8006M23.3389 0.950195C10.9959 0.950195 0.953857 11.0655 0.953857 23.4988C0.953857 35.9368 10.9959 46.0551 23.3389 46.0551C35.6806 46.0551 45.7212 35.9368 45.7212 23.4988C45.7212 11.0655 35.6806 0.950195 23.3389 0.950195ZM23.3389 5.51589C33.1952 5.51589 41.189 13.566 41.189 23.4988C41.189 33.4351 33.1952 41.4887 23.3389 41.4887C13.4787 41.4887 5.48641 33.4351 5.48641 23.4988C5.48641 13.566 13.4787 5.51589 23.3389 5.51589Z" fill="black"/>
</svg>
