<svg width="166" height="43" viewBox="0 0 166 43" fill="none" xmlns="http://www.w3.org/2000/svg">
<path d="M59.3701 13.4561L58.6875 16.137L57.1667 20.732H61.5765L60.0557 16.137C59.7652 15.218 59.3731 13.4561 59.3731 13.4561H59.3701ZM62.3333 23.2607H56.4216L54.9763 27.6274H51.7837L57.7898 10.5469H60.9824L66.913 27.6274H63.7204L62.3333 23.2607ZM73.7413 25.3285C75.339 25.3285 76.7828 24.1797 76.7828 21.4212C76.7828 19.5188 75.7951 17.6677 73.7413 17.6677C72.068 17.6677 70.6997 19.0462 70.6997 21.4973C70.6997 23.7948 72.007 25.327 73.7413 25.327M73.2097 15.0629C75.8707 15.0629 76.7073 16.6726 76.7073 16.6726V10.5454H79.7489V27.626H76.8438V25.864C76.8438 25.864 75.7792 27.9318 73.0426 27.9318C69.7745 27.9318 67.6451 25.327 67.6451 21.4973C67.6451 17.5901 69.9255 15.0629 73.1937 15.0629M86.8182 25.5582C88.416 25.5582 89.5548 23.7963 89.5548 22.3417V22.049H89.0231C87.4254 22.049 84.9183 22.2788 84.9183 23.9514C84.9939 24.7168 85.601 25.5611 86.8066 25.5611M89.1597 19.8891H89.6158V19.7354C89.6158 18.1257 88.6281 17.5901 87.2583 17.5901C85.5095 17.5901 83.9132 18.7389 83.9132 18.7389L82.773 16.5175C82.773 16.5175 84.6612 14.9853 87.5634 14.9853C90.756 14.9853 92.5818 16.7472 92.5818 19.8876V27.5469H89.7857V25.7133C89.7857 25.7133 88.8735 27.8586 86.06 27.8586C83.8551 27.8586 81.9552 26.4801 81.9552 24.029C81.9552 20.1993 87.2017 19.8935 89.1786 19.8935M100.809 25.3285C102.482 25.3285 103.85 23.9499 103.85 21.4988C103.85 19.2013 102.635 17.6691 100.809 17.6691C99.211 17.6691 97.7672 18.8179 97.7672 21.5763C97.8428 23.4787 98.8319 25.3299 100.809 25.3299V25.3285ZM94.8782 15.3702H97.6147V17.1321C97.6147 17.1321 98.6794 15.0643 101.493 15.0643C104.761 15.0643 106.89 17.6691 106.89 21.4988C106.89 25.406 104.533 27.9333 101.342 27.9333C98.9089 27.9333 97.8442 26.2474 97.8442 26.2474C97.8429 26.6064 97.8682 26.9649 97.9198 27.3201V32.4522H94.8782V15.3702Z" fill="black"/>
<path d="M109.855 17.9725H108.257V15.5214H109.855V11.9844H112.819V15.5082H115.555V17.9593H112.819V22.708C112.819 24.7758 114.417 25.0055 115.252 25.0055H115.783V27.6864C115.783 27.6864 115.403 27.7625 114.871 27.7625C113.198 27.7625 109.852 27.303 109.852 23.1675L109.855 17.9725Z" fill="black"/>
<path d="M122.098 25.5582C123.696 25.5582 124.834 23.7963 124.834 22.3417V22.049H124.303C122.705 22.049 120.198 22.2788 120.198 23.9514C120.273 24.7168 120.808 25.5611 122.086 25.5611M124.444 19.8935H124.824V19.7398C124.824 18.1301 123.836 17.5945 122.467 17.5945C120.718 17.5945 119.122 18.7433 119.122 18.7433L118.01 16.5233C118.01 16.5233 119.899 14.9912 122.801 14.9912C125.994 14.9912 127.819 16.7531 127.819 19.8935V27.5528H125.006V25.7133C125.006 25.7133 124.094 27.8586 121.28 27.8586C119.075 27.8586 117.175 26.4801 117.175 24.029C117.175 20.1993 122.422 19.8935 124.474 19.8935M128.498 15.357H131.69L134.199 22.9402C134.427 23.628 134.58 24.7782 134.655 24.7782L135.111 22.9402L137.62 15.357H140.812L136.478 27.6128H132.829L128.498 15.357ZM142.413 15.3716H145.455V27.6274H142.413V15.3716ZM142.413 10.5454H145.376V13.2263H142.413V10.5454ZM148.342 23.9499C148.342 23.9499 149.711 25.3285 151.688 25.3285C152.524 25.3285 153.285 24.945 153.285 24.1797C153.285 22.3417 147.355 22.57 147.355 18.6628C147.355 16.3653 149.407 15.0629 151.993 15.0629C154.729 15.0629 156.098 16.4414 156.098 16.4414L154.957 18.7389C154.957 18.7389 153.817 17.6662 151.994 17.6662C151.234 17.6662 150.396 17.9589 150.396 18.815C150.396 20.5769 156.327 20.3471 156.327 24.2529C156.327 26.3206 154.578 27.9289 151.689 27.9289C148.647 27.9289 146.976 26.0909 146.976 26.0909L148.342 23.9499Z" fill="black"/>
<path d="M159.122 17.9725H157.524V15.5214H159.122V11.9844H162.085V15.5082H164.822V17.9593H162.085V22.708C162.085 24.7758 163.683 25.0055 164.518 25.0055H165.05V27.6864C165.05 27.6864 164.669 27.7625 164.138 27.7625C162.464 27.7625 159.119 27.303 159.119 23.1675L159.122 17.9725Z" fill="black"/>
<path d="M26.7974 32.997C26.7974 27.5723 31.104 23.2334 36.4885 23.2334C41.873 23.2334 46.1796 27.5723 46.1796 32.997C46.1796 38.4218 41.873 42.7607 36.4885 42.7607C31.104 42.869 26.7974 38.4218 26.7974 32.997ZM28.1961 1.53733C25.2882 -0.198232 21.6279 -0.414813 18.505 1.32075C16.9187 2.19489 15.612 3.5057 14.7375 5.1001C13.863 6.69449 13.4568 8.50665 13.5664 10.3249C13.4638 13.1452 12.6881 15.8989 11.3049 18.353C9.88152 20.7633 7.88284 22.7769 5.49049 24.2109C2.26011 25.8382 0.106033 29.0927 0 32.8887C0.00601379 34.6168 0.455331 36.3139 1.30435 37.8154C2.15336 39.3169 3.37323 40.5718 4.84557 41.4583C6.32042 42.3461 7.99884 42.8328 9.71649 42.8708C11.4341 42.9088 13.1321 42.4967 14.6442 41.6749C16.2305 40.8007 17.5372 39.4899 18.4117 37.8955C19.2862 36.3011 19.6923 34.489 19.5827 32.6707C19.6853 29.8504 20.4611 27.0967 21.8443 24.6426C23.2677 22.2324 25.2663 20.2187 27.6587 18.7847C30.8891 17.1574 33.0431 13.9029 33.1492 10.1069C33.1492 6.52745 31.2115 3.2729 28.3036 1.64562L28.1961 1.53733Z" fill="black"/>
</svg>
