<svg width="166" height="53" viewBox="0 0 166 53" fill="none" xmlns="http://www.w3.org/2000/svg">
<path d="M132.64 20.3856H128.82V22.3056C127.493 20.8287 125.694 19.9868 123.642 19.9868C119.158 19.9868 115.905 23.7339 115.905 28.9077C115.905 33.8924 119.157 37.5449 123.609 37.5449C125.691 37.5449 127.271 36.8463 128.82 35.1641V37.4829C128.82 40.9434 127.462 42.6582 124.621 42.6582C123.105 42.6582 121.589 41.896 120.926 40.7233C120.548 40.0587 120.421 39.4236 120.296 37.991H116.572C116.605 42.9757 119.666 46.0877 124.591 46.0877C127.402 46.0877 129.865 44.9445 131.222 42.8827C132.328 41.2949 132.644 39.8342 132.644 36.5952L132.64 20.3856ZM124.336 23.3691C127.084 23.3691 128.978 25.5284 128.978 28.6861C128.978 31.9251 127.145 34.0844 124.399 34.0844C121.621 34.0844 119.821 31.9871 119.821 28.7496C119.789 25.5106 121.589 23.3838 124.336 23.3838V23.3691Z" fill="black"/>
<path d="M59.1382 20.3858V36.9928H62.9263V28.4205C62.9263 24.8965 63.8733 23.3722 66.0049 23.3722C67.7098 23.3722 68.5308 24.8005 68.5308 27.7854V36.9942H72.3189V28.4205C72.3189 24.864 73.2659 23.3722 75.3975 23.3722C77.23 23.3722 77.9234 24.6099 77.9234 27.7544V36.9942H81.7115V26.7367C81.7115 22.3059 79.8175 19.9427 76.1408 19.9427C74.1206 19.9427 72.4465 20.7994 71.2781 22.3871C70.2519 20.7994 68.7199 19.9427 66.8889 19.9427C65.247 19.9427 64.3967 20.3858 62.9747 21.9115V20.3858H59.1382ZM95.9522 20.3858V22.3059C94.3103 20.6221 92.8736 19.925 90.8212 19.925C86.4012 19.925 83.0221 23.6396 83.0221 28.5623C83.0221 33.77 86.3059 37.4831 90.915 37.4831C92.9044 37.4831 94.1988 36.8805 95.9668 35.2293V36.975H99.7872V20.3858H95.9522ZM91.4692 23.3693C94.2472 23.3693 96.1603 25.5921 96.1603 28.7041C96.1603 31.9091 94.234 34.0699 91.4692 34.0699C88.7864 34.0699 86.8909 31.816 86.8909 28.7041C86.8909 25.6246 88.848 23.3693 91.4692 23.3693ZM106.592 20.3858H102.772V36.9928H106.592V20.3858ZM104.731 11.146C103.309 11.146 102.205 12.2566 102.205 13.6228C102.205 14.989 103.341 16.1617 104.669 16.1617C106.059 16.1617 107.195 15.0185 107.195 13.6213C107.195 12.2241 106.09 11.1445 104.732 11.1445L104.731 11.146ZM110.096 6.9248H113.916V36.9957H110.096V6.9248Z" fill="black"/>
<path d="M138.733 20.3878H134.911V30.0087C134.911 32.6126 135.385 34.0408 136.648 35.407C137.975 36.7717 139.774 37.5043 141.952 37.5043C144.163 37.5043 145.962 36.8057 147.289 35.407C148.549 34.0423 149.026 32.6126 149.026 30.0087V20.3878H145.205V29.9437C145.205 32.7691 144.179 34.0718 141.954 34.0718C139.743 34.0718 138.733 32.7721 138.733 29.9437V20.3878ZM151.55 20.3878V36.9947H155.37V28.9925C155.37 24.8969 156.318 23.4037 158.889 23.4037C161.256 23.4037 161.967 24.4819 161.967 27.7534V37.0257H165.788V26.8347C165.788 22.1675 163.861 19.9757 159.821 19.9757C158.021 19.9757 156.885 20.4838 155.401 21.9445V20.4203H151.549L151.55 20.3878ZM26.407 16.7884C23.8351 16.7907 21.369 17.82 19.5489 19.6507C17.7287 21.4815 16.703 23.9644 16.6964 26.5555C16.703 29.1467 17.7287 31.6296 19.5489 33.4604C21.369 35.2911 23.8351 36.3203 26.407 36.3227C28.979 36.3203 31.4451 35.2911 33.2652 33.4604C35.0854 31.6296 36.1111 29.1467 36.1177 26.5555C36.1111 23.9644 35.0854 21.4815 33.2652 19.6507C31.4451 17.82 28.979 16.7907 26.407 16.7884ZM11.2899 26.5555C11.2961 22.5206 12.8916 18.653 15.7261 15.8023C18.5605 12.9517 22.4021 11.3509 26.407 11.3517C34.7514 11.3517 41.5242 18.1457 41.5242 26.5555C41.5242 27.136 41.4714 27.6633 41.4187 28.192C41.3131 29.669 42.3642 30.7767 43.8331 30.7767C46.3004 30.7767 46.5628 27.5569 46.5628 26.5009C46.5628 15.2568 37.5323 6.17793 26.3528 6.17793C15.1733 6.17793 6.14431 15.2583 6.14431 26.5024C6.14431 37.7465 15.1747 46.8253 26.3543 46.8253C32.2856 46.8253 37.5881 44.2407 41.3146 40.1731L45.4633 43.6587C40.7912 48.9374 33.9671 52.2635 26.3557 52.2635C12.1827 52.2635 0.739258 40.7019 0.739258 26.5009C0.739258 12.2482 12.2354 0.738281 26.3557 0.738281C40.5288 0.738281 51.9722 12.2999 51.9722 26.5009C51.9722 32.202 49.2426 36.8485 43.836 36.8485C41.4216 36.8485 40.004 35.7408 39.164 34.5252C36.4871 38.8527 31.7608 41.7033 26.303 41.7033C18.0612 41.7564 11.2914 34.9462 11.2914 26.5526L11.2899 26.5555ZM26.407 22.0685C28.8743 22.0685 30.8695 24.0743 30.8695 26.5024C30.8695 27.6946 30.3994 28.8379 29.5627 29.6809C28.7259 30.5239 27.5911 30.9975 26.4078 30.9975C25.2245 30.9975 24.0896 30.5239 23.2529 29.6809C22.4161 28.8379 21.9461 27.6946 21.9461 26.5024C21.9989 24.0743 23.9398 22.0685 26.4085 22.0685H26.407Z" fill="black"/>
</svg>
