<svg width="166" height="41" viewBox="0 0 166 41" fill="none" xmlns="http://www.w3.org/2000/svg">
<path d="M25.0954 33.2684C25.0954 33.2684 17.3511 22.1543 23.4668 11.162C28.1541 3.23503 37.4412 -0.662808 46.3312 1.56544C50.4782 2.89727 48.8512 10.0783 48.8512 11.8423C48.7876 12.601 48.8512 13.363 49.0355 14.1025C49.2659 14.7493 49.8935 15.1654 50.5719 15.1238C51.2754 15.0157 51.9728 14.8709 52.6614 14.69C52.5655 19.3199 50.8581 23.7686 47.8374 27.2591C42.9214 32.4616 39.6021 29.8604 35.2374 33.6061C30.8727 37.3519 27.1864 42.0901 28.5386 34.9988C32.8715 12.3689 44.8249 4.04021 40.8304 6.73428C29.2472 14.9381 25.097 33.2652 25.097 33.2652L25.0954 33.2684Z" fill="black"/>
<path d="M14.6452 19.2466C13.2412 15.057 10.7728 11.3108 7.48556 8.38064C11.4515 10.7145 14.696 14.1113 16.8601 18.1933L17.7499 19.8645C18.0075 16.6102 18.939 13.4463 20.4844 10.5769C18.1094 8.37254 15.28 6.72434 12.1989 5.75024C9.11776 4.77614 5.86099 4.50022 2.66164 4.94222C3.57209 6.12678 3.94071 7.6475 3.67537 9.12019C3.15103 11.4733 -2.90271 18.7167 3.15103 26.0562C6.97552 30.463 11.2703 34.4281 15.9656 37.8825C16.944 31.6499 16.4917 25.2742 14.6436 19.245L14.6452 19.2466Z" fill="black"/>
<path d="M22.1552 8.15928C19.9414 6.52329 17.4225 5.35434 14.7496 4.72246C17.7458 3.00195 21.1343 2.09512 24.583 2.09082C24.3685 3.29779 24.7371 3.94769 26.6421 4.56719C25.0596 5.64948 23.5598 6.84967 22.1552 8.15768V8.15928ZM16.1176 40.0463C16.1176 40.0463 3.33371 32.2138 0.753418 26.147C2.07534 31.4102 1.79888 37.1057 16.1176 40.0479V40.0463ZM33.6013 38.6536C33.6013 38.6536 37.4114 34.5045 39.0098 34.5045C40.6081 34.5045 45.1554 33.1727 45.1554 33.1727C45.1554 33.1727 42.6053 38.2182 33.6013 38.652V38.6536ZM71.6273 28.6569L65.9487 19.4446L63.6767 22.7309V28.6569H60.0541V7.02274H63.6767V17.3732L70.6088 7.02274H74.7335L68.3495 16.504L75.9569 28.6697L71.6273 28.6569ZM85.1325 27.0594C84.7377 27.671 84.1609 28.1411 83.4848 28.4024C82.7093 28.7483 81.8703 28.926 81.0221 28.9243C79.6609 28.9932 78.3251 28.5351 77.2883 27.6437C76.8179 27.1726 76.4516 26.6066 76.2137 25.9828C75.9757 25.359 75.8714 24.6916 75.9076 24.0244C75.8709 23.204 76.0281 22.3866 76.3661 21.6393C76.7043 20.8921 77.2136 20.2365 77.8524 19.7263C79.4627 18.5861 81.4089 18.0292 83.3736 18.1464C83.8614 18.1576 84.3476 18.2328 84.8163 18.3673C84.8163 16.5029 83.7078 15.5708 81.4908 15.5708C80.3534 15.5313 79.2234 15.7696 78.1972 16.2655L77.4472 13.453C78.7833 12.8128 80.2502 12.4985 81.7292 12.5357C83.5405 12.3757 85.347 12.9279 86.7341 14.1157C87.7795 15.169 88.3022 17.25 88.3022 20.3586V23.741C88.3022 25.8428 88.6947 27.1698 89.4939 27.7077C89.3034 28.1402 88.9635 28.4883 88.5374 28.6874C88.1482 28.8179 87.74 28.8817 87.3299 28.8762C86.8183 28.8698 86.3289 28.6521 85.9793 28.276C85.6059 27.9467 85.3202 27.5285 85.1484 27.0594H85.1325ZM84.8195 21.1958C84.3826 21.0886 83.9361 21.0261 83.4848 21.0069C80.7351 21.0069 79.3602 21.9604 79.3602 23.8675C79.3602 25.2793 80.1334 25.9906 81.6799 26.0013C83.7708 26.0013 84.8163 24.8952 84.8163 22.6829L84.8195 21.1958ZM93.9331 27.7877L93.1482 28.9563H91.2035V6.95871L94.699 6.0895V13.453C95.5887 12.8671 96.631 12.5566 97.6955 12.5517C98.6793 12.5126 99.6598 12.6887 100.57 13.0678C101.479 13.447 102.297 14.0202 102.966 14.748C104.336 16.2824 105.057 18.296 104.974 20.3586C105.108 22.6469 104.386 24.9026 102.951 26.6816C102.267 27.452 101.42 28.0587 100.473 28.4575C99.5263 28.8563 98.503 29.0371 97.4779 28.9867C96.2004 28.9995 94.9564 28.5753 93.9506 27.7861L93.9331 27.7877ZM94.6703 16.6145V24.8471C94.9163 25.1601 95.2318 25.4103 95.5914 25.5777C95.9511 25.7451 96.3447 25.825 96.7406 25.8108C98.0594 25.9517 99.3734 25.4874 100.316 24.5302C101.114 23.3364 101.485 21.9038 101.366 20.4691C101.366 17.3081 99.9173 15.7276 97.0203 15.7276C96.1528 15.6572 95.298 15.9758 94.6847 16.5969L94.6703 16.6145ZM109.947 27.7877L109.162 28.9563H107.202V6.95871L110.681 6.0895V13.453C111.581 12.8618 112.633 12.5486 113.708 12.5517C115.704 12.4717 117.636 13.2721 118.994 14.748C120.365 16.2824 121.085 18.296 121.002 20.3586C121.134 22.6477 120.415 24.9016 118.98 26.6816C118.294 27.4511 117.448 28.0572 116.501 28.4559C115.554 28.8546 114.531 29.0359 113.506 28.9867C112.235 29.0059 110.964 28.5817 109.947 27.7861V27.7877ZM110.684 16.6145V24.8471C110.93 25.1601 111.246 25.4103 111.605 25.5777C111.965 25.7451 112.359 25.825 112.755 25.8108C114.073 25.9517 115.387 25.4874 116.33 24.5302C117.128 23.3364 117.499 21.9038 117.38 20.4691C117.38 17.3081 115.931 15.7276 113.034 15.7276C112.603 15.6891 112.169 15.747 111.762 15.8973C111.356 16.0475 110.987 16.2864 110.683 16.5969L110.684 16.6145ZM131.811 27.0594C131.417 27.671 130.84 28.1411 130.164 28.4024C129.388 28.7487 128.549 28.9265 127.701 28.9243C126.319 29.0049 124.959 28.5463 123.904 27.6437C123.433 27.1726 123.067 26.6066 122.829 25.9828C122.591 25.359 122.487 24.6916 122.523 24.0244C122.486 23.204 122.643 22.3866 122.981 21.6393C123.32 20.8921 123.829 20.2365 124.468 19.7263C126.078 18.5873 128.024 18.0304 129.989 18.1464C130.477 18.1589 130.962 18.2331 131.432 18.3673C131.432 16.5029 130.323 15.5708 128.106 15.5708C126.974 15.5345 125.85 15.7728 124.828 16.2655L124.075 13.453C125.411 12.8128 126.878 12.4985 128.357 12.5357C129.254 12.4467 130.159 12.5408 131.019 12.8122C131.879 13.0837 132.676 13.527 133.362 14.1157C134.408 15.169 134.93 17.25 134.93 20.3586V23.741C134.93 25.8428 135.323 27.1698 136.122 27.7077C135.931 28.1399 135.591 28.4873 135.165 28.6874C134.776 28.8182 134.368 28.882 133.958 28.8762C133.446 28.8682 132.96 28.6521 132.607 28.276C132.246 27.9426 131.971 27.5248 131.808 27.0594H131.811ZM131.467 21.1958C131.029 21.0881 130.582 21.0248 130.132 21.0069C127.382 21.0069 126.007 21.9604 126.007 23.8675C126.007 25.2793 126.78 25.9906 128.327 26.0013C130.418 26.0013 131.463 24.8952 131.463 22.6829L131.467 21.1958ZM137.018 32.7485L139.214 29.8719C140.05 30.7223 141.121 31.3003 142.287 31.5315C143.453 31.7626 144.661 31.6362 145.755 31.1685C146.028 31.0761 146.267 30.9029 146.44 30.6715C146.614 30.4402 146.714 30.1615 146.727 29.8719C146.727 28.9403 146.006 28.4632 144.563 28.4632C143.981 28.4766 143.399 28.5241 142.822 28.6057C142.245 28.6858 141.662 28.7338 141.081 28.7658C138.687 28.7658 137.49 27.8544 137.49 26.0317C137.496 25.4505 137.707 24.8905 138.086 24.4518C138.457 23.9757 138.936 23.5963 139.482 23.3456C138.665 22.8127 137.998 22.0756 137.547 21.206C137.096 20.3364 136.876 19.3639 136.908 18.3833C136.864 16.7921 137.504 15.2618 138.666 14.1797C139.248 13.6272 139.933 13.1962 140.681 12.9113C141.429 12.6264 142.226 12.4933 143.025 12.5197C144.173 12.4877 145.309 12.7598 146.319 13.3105L147.686 11.6201L150.101 13.9412L148.439 15.2218C149.052 16.2112 149.368 17.358 149.349 18.5242C149.384 19.312 149.264 20.0991 148.995 20.8397C148.725 21.5803 148.313 22.2596 147.781 22.8382C146.753 23.8979 145.329 24.471 143.86 24.4181C143.525 24.4374 143.19 24.4374 142.855 24.4181L142.275 24.3381C142.019 24.4157 141.772 24.5214 141.538 24.6535C141.1 24.8583 140.895 25.0809 140.895 25.3178C140.895 25.5547 141.224 25.902 141.851 25.902C142.337 25.8732 142.805 25.7996 143.294 25.6811C143.865 25.5483 144.449 25.4743 145.035 25.4602C148.425 25.4602 150.12 26.9036 150.12 29.7903C150.135 30.542 149.956 31.2849 149.598 31.9448C149.24 32.6048 148.717 33.1589 148.081 33.552C146.617 34.4914 144.906 34.965 143.172 34.9111C140.939 34.9067 138.773 34.1442 137.023 32.7469L137.018 32.7485ZM140.501 18.4313C140.463 19.2455 140.725 20.045 141.238 20.6756C141.48 20.9569 141.782 21.1797 142.122 21.3274C142.461 21.4751 142.829 21.544 143.199 21.5288C143.559 21.5513 143.919 21.4888 144.252 21.3462C144.584 21.2037 144.878 20.985 145.112 20.7076C145.592 20.0509 145.83 19.2459 145.785 18.4313C145.804 17.6902 145.547 16.9682 145.064 16.408C144.837 16.1279 144.549 15.904 144.223 15.7533C143.896 15.6026 143.54 15.5292 143.181 15.5388C142.819 15.5275 142.459 15.5934 142.123 15.7322C141.788 15.8709 141.486 16.0794 141.236 16.3439C140.731 16.9036 140.466 17.6419 140.499 18.3977L140.501 18.4313ZM165.128 21.8777H154.524C154.516 22.428 154.617 22.9742 154.822 23.4844C155.027 23.9946 155.331 24.4585 155.716 24.8487C156.558 25.5803 157.649 25.9693 158.758 25.8924C159.42 25.9437 160.084 25.8534 160.709 25.6274C161.333 25.4015 161.903 25.045 162.381 24.5814L163.731 27.3939C162.147 28.5623 160.2 29.1226 158.242 28.9739C157.245 29.0256 156.248 28.8636 155.318 28.4985C154.388 28.1334 153.546 27.5736 152.846 26.8561C151.448 25.2201 150.739 23.1007 150.87 20.9461C150.773 18.7176 151.557 16.5414 153.049 14.8937C153.715 14.1705 154.518 13.5886 155.41 13.182C156.302 12.7754 157.266 12.5523 158.244 12.5257C159.223 12.4992 160.197 12.6698 161.11 13.0275C162.022 13.3851 162.855 13.9227 163.558 14.6087C164.213 15.306 164.724 16.1277 165.06 17.0258C165.397 17.9239 165.553 18.8806 165.519 19.84C165.453 20.5303 165.321 21.2127 165.126 21.8777H165.128ZM154.603 19.0972H161.992C162.026 18.1336 161.65 17.2019 160.959 16.536C160.268 15.8701 159.322 15.5372 158.369 15.6204C156.361 15.6364 155.137 16.7889 154.635 19.1132L154.603 19.0972Z" fill="black"/>
</svg>
