<svg width="166" height="77" viewBox="0 0 166 77" fill="none" xmlns="http://www.w3.org/2000/svg">
<path d="M15.9852 18.7516C15.7738 18.1145 15.4073 17.5124 15.049 16.9502C14.5869 16.2188 14.0691 15.5248 13.5002 14.8743C13.1931 14.5416 12.7737 13.9994 12.3114 13.8264C12.2288 13.7931 12.1661 13.7599 12.0753 13.7648C12.0257 13.7482 11.9795 13.7482 11.9432 13.7482L9.03715 12.993C7.69804 12.602 6.4027 12.0725 5.17181 11.4129C4.64344 11.1268 4.12333 10.8224 3.63624 10.4731L3.27959 10.2069C2.83873 9.60813 2.38797 8.9428 1.82658 8.46042L1.711 8.39722C1.79851 8.88291 2.08251 9.33202 2.33018 9.75118C2.94441 10.7941 3.66266 11.7755 4.38916 12.7419C5.07604 13.6567 5.80915 14.5583 6.70077 15.2984C7.43058 15.9172 8.26111 16.4046 9.10815 16.8404L11.9927 18.2143C13.2278 18.6967 14.4826 19.0759 15.7903 19.2788L15.6203 19.2522C15.6913 19.2572 15.759 19.2755 15.825 19.3021C16.218 19.4418 16.0562 18.9079 16.0066 18.7532L15.9852 18.7516Z" fill="black"/>
<path d="M12.6226 14.0422C12.4773 13.3869 12.1702 12.7498 11.868 12.156C11.4792 11.3819 11.0304 10.64 10.5257 9.93708C10.2912 9.60109 10.027 9.27174 9.73641 9.00062L9.4392 8.77939C8.53437 8.54153 7.5734 8.64133 6.66527 8.40015C5.881 8.19028 5.12883 7.87354 4.42961 7.45869C4.03004 7.19755 3.64036 6.91644 3.27876 6.6054L3.00632 6.39581L2.96504 6.35589L2.74214 6.11803L2.71572 6.07978L1.92812 5.01191C1.44434 4.42974 0.927526 3.7145 0.253857 3.34856L0.369437 3.41509C0.326507 3.37018 0.275323 3.33692 0.215881 3.3103C0.217532 3.3602 0.232392 3.40678 0.242299 3.45501C0.254186 3.50871 0.271332 3.56108 0.293485 3.61137C0.508135 4.28503 0.760761 4.94205 1.06953 5.57412L1.65568 6.69355L1.77952 6.91644L2.45319 8.05251C3.06081 8.96735 3.6965 9.82564 4.43457 10.6374C5.14456 11.4191 5.93381 12.1593 6.80892 12.7465C7.6444 13.3054 8.53107 13.8277 9.49204 14.1304C10.4216 14.4248 11.4074 14.4531 12.365 14.6061C12.5384 14.6893 12.6325 14.6344 12.6457 14.4398L12.6045 14.0738L12.6226 14.0422Z" fill="black"/>
<path d="M12.648 14.1717C12.6348 13.4997 12.463 12.8144 12.2847 12.1707C12.0568 11.339 11.7729 10.5124 11.4212 9.7256C11.2313 9.29978 10.9853 8.67103 10.5989 8.36831C10.5279 8.31341 10.4783 8.26351 10.3925 8.23856C10.3463 8.20862 10.305 8.19199 10.267 8.18367L9.82449 7.90922L9.96319 7.99239L7.72093 6.59518C6.55522 5.8134 5.47041 4.93183 4.48963 3.92218C4.07024 3.48971 3.66406 3.04559 3.3008 2.56488L3.03992 2.19895C2.79555 1.49535 2.56109 0.721893 2.16811 0.0948111L2.07565 0C2.01621 0.489024 2.15325 1.00466 2.26553 1.47705C2.54623 2.65803 2.9392 3.81073 3.34703 4.95012C3.73175 6.0313 4.16435 7.10915 4.78023 8.07722C5.29209 8.88727 5.94264 9.60251 6.62292 10.2728L8.97085 12.4352C10.0061 13.2635 11.0926 14.0037 12.2831 14.5892L12.1295 14.5127C12.1955 14.5393 12.255 14.5759 12.3111 14.6225C12.6414 14.872 12.6496 14.3164 12.6463 14.1534L12.648 14.1717Z" fill="black"/>
<path d="M19.5177 22.7737C19.242 22.1616 18.8111 21.6027 18.395 21.0837C17.855 20.4101 17.2672 19.753 16.6282 19.1908C16.3305 18.9108 16.0077 18.6591 15.664 18.439L15.3304 18.2843C14.3959 18.2377 13.4778 18.5338 12.54 18.4872C11.7305 18.4444 10.9306 18.2905 10.1623 18.0298C9.71585 17.859 9.2807 17.6596 8.85957 17.4327L8.55742 17.263L8.51118 17.2331L8.247 17.0501L8.21398 17.0168L7.22329 16.1353C6.62887 15.6645 5.97997 15.0707 5.24191 14.8378L5.36904 14.8811C5.31951 14.8445 5.26172 14.8229 5.19733 14.8096C5.20888 14.8595 5.23035 14.8994 5.25181 14.9426C5.27988 15.0042 5.3063 15.0474 5.33767 15.0923C5.68442 15.7078 6.06418 16.2949 6.49348 16.8505L7.29594 17.8252L7.46105 18.0165L8.35267 18.9896C9.13367 19.758 9.93117 20.4666 10.8178 21.107C11.6715 21.7224 12.5961 22.288 13.5753 22.6789C14.5065 23.0531 15.4807 23.3775 16.4813 23.4773C17.4505 23.5721 18.423 23.3941 19.3906 23.3475C19.5772 23.3941 19.6581 23.3209 19.6333 23.128L19.5177 22.7753V22.7737Z" fill="black"/>
<path d="M23.8628 27.3463C23.5293 26.7641 23.0488 26.2485 22.5882 25.7711C21.9897 25.1476 21.3444 24.5715 20.6581 24.0479C20.2866 23.7651 19.7715 23.3376 19.2878 23.2594C19.2003 23.2461 19.1326 23.2262 19.0434 23.2461C18.9979 23.2414 18.952 23.2453 18.908 23.2578L18.3879 23.2311L18.5497 23.2361L15.9213 23.1031C14.5245 22.9866 13.1509 22.7405 11.8069 22.3346C11.234 22.1616 10.6627 21.9687 10.1129 21.7242L9.71009 21.5345C9.15864 21.0355 8.58408 20.475 7.93853 20.1174L7.81305 20.0791C7.97815 20.5365 8.36284 20.9208 8.6881 21.28C9.49711 22.1782 10.3969 22.9933 11.3 23.7917C12.1553 24.5485 13.0501 25.2837 14.0573 25.8343C14.8943 26.2917 15.8074 26.6028 16.722 26.8589L19.8227 27.624C21.1435 27.8453 22.4346 27.965 23.7555 27.8985L23.5838 27.9068C23.6537 27.8979 23.7246 27.9013 23.7934 27.9168C24.2062 27.975 23.9585 27.4843 23.8595 27.3429L23.8628 27.3463Z" fill="black"/>
<path d="M13.6858 26.8298L14.168 27.0594L14.7508 27.3005C16.3145 27.7929 17.992 27.8245 19.592 27.4935L19.3773 27.5401C20.1455 27.3658 20.8998 27.1351 21.6345 26.8498C21.9812 26.72 22.4006 27.0627 22.6516 27.2423C23.312 27.7031 23.8767 28.2636 24.4183 28.8391C24.9599 29.4147 25.48 30.0334 25.8994 30.7087C25.906 30.7187 26.5037 31.6569 26.2296 31.7533C24.2053 32.4519 22.0984 32.7713 20.0048 32.1925C19.2621 31.9828 18.5424 31.698 17.8566 31.3425C16.7273 30.7636 15.7465 29.9735 14.802 29.1302C14.1416 28.5414 13.4778 27.8994 12.9329 27.2007C12.6357 26.8215 12.3104 26.419 12.2328 25.9366L12.2592 26.1029C12.2394 25.9965 12.2163 25.9233 12.2196 25.8252C12.2229 25.742 13.1377 26.424 13.0617 26.3608L13.6974 26.8465L13.6858 26.8298Z" fill="black"/>
<path d="M17.844 32.6769L18.3673 32.7883L18.9898 32.8881C20.6408 33.0046 22.2621 32.6436 23.7448 31.95L23.5466 32.0448C24.2566 31.7022 24.9335 31.2913 25.5857 30.8472C25.8911 30.641 26.3782 30.8772 26.6638 30.9919C27.3952 31.2913 28.0886 31.7005 28.7474 32.1363C29.4062 32.5721 30.0517 33.0512 30.6131 33.61C30.6213 33.6184 31.4188 34.3918 31.1744 34.5498C29.3649 35.7009 27.3903 36.5026 25.2175 36.4294C24.4469 36.3983 23.6813 36.289 22.9325 36.1034C21.7008 35.804 20.5649 35.2617 19.4488 34.6629C18.6728 34.2471 17.8803 33.7714 17.1868 33.2191C16.8137 32.9197 16.4026 32.6037 16.216 32.1496L16.2755 32.2893C16.2325 32.1895 16.1929 32.123 16.1731 32.0282C16.1566 31.9484 17.2034 32.3941 17.1142 32.3542L17.844 32.6786V32.6769Z" fill="black"/>
<path d="M34.9388 36.5189C34.3873 36.1413 33.7335 35.8868 33.1094 35.6622C32.3009 35.3644 31.4707 35.1303 30.6262 34.962C30.1722 34.8721 29.5201 34.7125 29.0512 34.8555C28.9653 34.8805 28.8976 34.8938 28.8266 34.9503C28.7771 34.9703 28.7391 34.9936 28.711 35.0202L28.2157 35.2248L28.3643 35.1582L25.9423 36.1962C24.6346 36.7051 23.2923 37.0877 21.9071 37.3139C21.316 37.4104 20.7184 37.4869 20.119 37.5085L19.6766 37.5152C18.9666 37.3106 18.2038 37.0561 17.4642 37.0162L17.3321 37.0378C17.6953 37.3705 18.1906 37.5368 18.6397 37.7331C19.7575 38.1822 20.9181 38.5249 22.0788 38.8475C23.1768 39.1519 24.3011 39.4197 25.4436 39.473C26.3963 39.5162 27.3506 39.3964 28.2867 39.2235L31.4237 38.5481C32.695 38.1739 33.9201 37.7065 35.0807 37.0678L34.9321 37.1509C34.9913 37.1119 35.0566 37.0832 35.1253 37.0661C35.5216 36.9364 35.0758 36.6103 34.9388 36.5172V36.5189Z" fill="black"/>
<path d="M24.5697 41.2066L25.0947 41.1117L25.7089 40.967C27.2675 40.4514 28.6477 39.5 29.7622 38.294L29.6136 38.457C30.1388 37.8661 30.6206 37.2374 31.0549 36.5758C31.2613 36.2681 31.8029 36.3013 32.1083 36.3013C32.901 36.3136 33.6907 36.4038 34.466 36.5708C35.2387 36.7255 36.018 36.9234 36.7477 37.2262C36.7576 37.2312 37.7879 37.6453 37.6162 37.8849C36.3713 39.638 34.8391 41.1284 32.8001 41.8835C32.0802 42.1497 31.3191 42.3326 30.5613 42.4458C29.3065 42.6354 28.0517 42.5622 26.7969 42.4324C25.9219 42.341 25.0088 42.2046 24.1619 41.9534C23.7045 41.8203 23.2043 41.6823 22.8625 41.3313L22.9698 41.4394C22.8922 41.3629 22.8311 41.318 22.7783 41.2365C22.7321 41.17 23.868 41.1866 23.7689 41.1816L24.5664 41.2049L24.5697 41.2066Z" fill="black"/>
<path d="M27.4087 44.7644L27.9205 44.6064L28.5149 44.3902C30.001 43.6966 31.2641 42.5838 32.2267 41.2564L32.0979 41.4361C32.5553 40.7907 32.9483 40.1021 33.3082 39.3968C33.4767 39.0675 34.0182 39.0359 34.322 38.9976C35.1063 38.9028 35.9071 38.9244 36.6947 38.986C37.4823 39.0475 38.2765 39.1523 39.0394 39.3685C39.0493 39.3719 40.1209 39.6613 39.9805 39.9175C38.9486 41.8054 37.6029 43.4687 35.6644 44.4584C34.9808 44.7911 34.2444 45.0805 33.5064 45.2834C32.2845 45.6194 31.0296 45.6993 29.7665 45.7159C28.8865 45.7259 27.9635 45.6992 27.0917 45.5495C26.6211 45.4697 26.1109 45.3932 25.7278 45.0871C25.7674 45.1204 25.6948 45.0772 25.6337 45.004C25.5809 44.9408 26.7119 44.8243 26.6128 44.831L27.4087 44.7595V44.7644Z" fill="black"/>
<path d="M41.6795 40.6544C40.9976 40.5945 40.2976 40.6877 39.6405 40.7841C38.7899 40.9066 37.9499 41.094 37.1276 41.3447C36.6884 41.4777 36.0428 41.6474 35.7209 41.9817C35.6615 42.0433 35.6103 42.0849 35.5806 42.1647C35.5475 42.2046 35.531 42.2412 35.5195 42.2762L35.2223 42.6687L35.3114 42.5456L33.809 44.5416C32.9689 45.577 32.0164 46.5143 30.9692 47.3361C30.5152 47.6904 30.0479 48.0297 29.546 48.3224L29.1663 48.532C28.4448 48.69 27.6523 48.8281 27.0034 49.1358L26.9044 49.214C27.3997 49.3238 27.923 49.2473 28.4068 49.1907C29.6121 49.0493 30.7959 48.7981 31.9664 48.532C33.0759 48.2792 34.1854 47.9831 35.1926 47.5007C36.0346 47.0982 36.7842 46.5576 37.4875 45.9821L39.789 43.9811C40.669 43.0829 41.4632 42.1281 42.1055 41.0603L42.0229 41.1983C42.0526 41.1384 42.0922 41.0852 42.1418 41.0386C42.4092 40.7475 41.8446 40.6827 41.6795 40.6677V40.6544Z" fill="black"/>
<path d="M47.5839 40.0778C47.5179 39.4458 47.3759 38.8253 47.1546 38.2432C46.973 37.7658 46.7913 37.2185 46.4215 36.841C46.4545 36.9075 46.4463 36.8992 46.4083 36.8277C46.1441 36.806 45.8964 36.8942 45.6719 37.0855L45.094 37.513C44.2915 38.1683 43.5848 38.9135 42.9343 39.6637C42.2837 40.4138 41.6629 41.2039 41.1907 42.0223C41.1362 42.1221 40.5219 43.1168 40.8885 43.2033C41.1857 43.2748 41.331 43.486 41.4499 43.7073C41.9155 44.6554 42.2424 45.7033 42.3481 46.7778C42.4885 48.2199 42.3151 49.7103 42.0509 51.209L41.2749 54.8417L41.0173 55.7399L40.8852 56.1192L40.7944 56.2622L39.589 58.3331C39.589 58.3331 39.1729 59.0483 39.5643 58.7373C40.2743 58.1717 40.7762 57.4099 41.2782 56.7413C42.2408 55.4572 43.0779 54.1215 43.8919 52.7892C44.4776 51.848 44.9857 50.8599 45.411 49.835L45.8403 48.7988L46.3125 47.5097L46.9135 45.3972C47.3593 43.6258 47.7672 41.7828 47.5839 40.0795V40.0778Z" fill="black"/>
<path d="M58.9126 28.6278L58.9819 28.7443C58.764 28.3667 58.3479 28.1505 57.9698 27.9459C57.2682 27.5633 56.4806 27.2672 55.7113 27.0194C54.6101 26.6634 53.4956 26.3624 52.3135 26.2942C51.589 26.2485 50.8619 26.2747 50.1425 26.3723C48.1018 26.6584 46.3452 27.698 44.7487 29.0237C44.7322 29.0354 44.7355 29.0537 44.7289 29.0703C44.1279 29.5826 43.5649 30.1731 43.0448 30.7669C42.1979 31.74 41.4004 32.7496 40.8127 33.919C40.4935 34.5508 40.2289 35.2091 40.0219 35.8867C39.8006 35.4659 39.5365 35.055 39.2129 34.8221L37.4001 33.5247C32.2325 29.9768 27.0566 26.4555 22.4057 22.2206L22.0194 21.8613L21.7321 21.5919L20.9265 20.8168C20.3948 20.2961 19.8698 19.7688 19.358 19.2249C18.2849 18.0905 17.2315 16.9212 16.2244 15.7219C15.692 15.091 15.1756 14.4465 14.6758 13.7891L14.4215 13.4481L14.3588 13.3616C14.1491 13.0622 13.951 12.7562 13.7529 12.4501L13.3038 11.7382L13.1717 11.5053C12.6566 10.2745 12.9571 11.0529 12.9241 10.9664C12.4614 9.76833 11.9329 8.59718 11.3408 7.4584C11.0106 6.82966 10.6275 5.99133 10.0761 5.5073C9.59732 5.08813 9.81195 6.11442 9.81691 6.17264L9.82186 6.21422C9.81964 6.44506 9.83399 6.67576 9.86479 6.90451C9.92257 7.28708 9.98531 7.66965 10.0712 8.04889C10.3436 9.25316 10.7101 10.3975 11.0981 11.5702C11.7321 13.4831 12.6418 15.3161 13.568 17.0958C15.2586 20.3427 17.3933 23.5064 19.8418 26.211C22.0376 28.6228 24.4447 30.8451 26.9575 32.9193C29.4951 35.0151 32.1252 37.0111 34.7998 38.9406C34.7783 38.9406 34.813 38.9572 34.8691 38.9905L35.6814 39.5727C36.5696 40.3411 37.6989 41.8215 37.027 44.0504L36.3715 45.3678L36.0908 45.9633C36.0545 46.0231 36.0413 46.0581 36.0413 46.0681C35.7945 46.5943 35.5584 47.1256 35.333 47.6615C34.6506 48.5302 33.8218 49.2711 32.8846 49.8505C32.6568 49.9769 32.4223 50.0967 32.1862 50.2048C32.0211 50.2763 31.856 50.3379 31.6909 50.4094C31.5869 50.4543 31.6843 50.426 30.9067 50.5558C31.0058 50.5391 29.8897 50.7604 29.9491 50.8186C30.0185 50.8851 30.0878 50.9184 30.1803 50.9766L30.0532 50.8934C30.461 51.1629 30.9777 51.1928 31.4532 51.2261C32.3332 51.2926 33.2693 51.2327 34.1278 51.1379C33.8092 52.1825 33.5747 53.2604 33.4014 54.3365L33.2858 55.0684C32.6287 55.9749 31.927 56.8482 31.1395 57.6566C30.4676 58.3502 29.7642 59.0139 29.0262 59.636C28.6548 59.9686 28.2767 60.2597 27.8904 60.5558L27.3587 60.955L27.0715 61.1629C26.2493 61.7351 25.4254 62.2607 24.5785 62.7431C24.1558 62.9843 23.7298 63.2205 23.294 63.4367L22.5841 63.7744L22.3315 63.8908C22.3199 63.8958 22.3149 63.8991 22.2984 63.9075C21.4373 64.2771 20.5584 64.6036 19.6651 64.8855L19.391 64.9637L18.7802 65.125L18.1726 65.2747L17.9629 65.3246C17.2695 65.4627 16.5513 65.6007 15.9074 65.9068C15.7423 65.985 15.1859 66.2811 15.6036 66.5006C16.0923 66.7584 16.832 66.7169 17.3537 66.7119C18.3104 66.689 19.264 66.5939 20.2066 66.4274C23.3353 65.9118 26.4061 64.8971 29.2706 63.4833L28.5441 64.1819C28.1066 64.5861 27.6609 64.9836 27.2035 65.3662L26.9196 65.6041L26.2806 66.1031C25.8514 66.4274 25.4139 66.7351 24.9697 67.0345L24.6759 67.2258L23.9824 67.6533L23.6853 67.828L22.9985 68.1989L22.9291 68.2322L22.3265 68.5149L22.239 68.5548L21.7371 68.7578L20.1951 69.1686L19.6998 69.2934C19.6502 69.3017 19.5941 69.31 19.5314 69.3266C18.521 69.5013 17.5138 69.992 16.6124 70.4411C15.8265 70.8287 15.044 71.2561 14.334 71.7751C14.301 71.7967 14.268 71.825 14.2383 71.8449C14.2086 71.8649 14.1673 71.8865 14.1343 71.9115C13.9923 72.008 13.2823 72.4072 13.3088 72.7016C13.3368 73.006 16.4225 72.2591 16.9162 72.1294C21.2748 70.9817 25.4304 68.9857 29.2376 66.5306C29.0361 66.8399 28.8281 67.146 28.6151 67.4487L28.3427 67.8197L27.8441 68.4634L27.6245 68.7362L27.1292 69.3233L27.0896 69.3666L26.5943 69.8606L26.5217 69.9338L26.1304 70.2914L24.8096 71.2229L24.3721 71.5223C24.3247 71.5497 24.2784 71.5791 24.2334 71.6104C23.3468 72.1311 22.5741 72.9494 21.8824 73.6863C21.2814 74.3267 20.6986 75.0036 20.2149 75.7405C20.1934 75.7738 20.1703 75.807 20.1488 75.8436C20.1274 75.8802 20.0993 75.9069 20.0745 75.9401C19.9755 76.0815 19.4472 76.7053 19.5792 76.9714C19.7113 77.2458 22.3414 75.4577 22.7591 75.1417C27.2745 71.9381 31.0586 67.6566 34.1113 63.0325L34.2269 62.8579C36.9015 60.634 39.3152 58.0774 41.199 55.1566C41.6663 54.6908 42.013 54.2817 42.0906 54.0288C43.3783 49.7673 43.5319 47.758 43.2083 46.0614C43.4262 45.9583 43.6541 45.8951 43.9017 45.9416C44.3244 46.0248 44.5258 44.7174 44.5505 44.591C44.6086 44.2676 44.6527 43.9418 44.6826 43.6146C45.1155 43.2758 45.5192 42.9008 45.8895 42.4935C45.9555 42.422 46.6292 41.7067 46.3947 41.4789C46.2032 41.2959 46.152 41.0364 46.124 40.7803C46.0221 39.6834 46.0637 38.5778 46.2478 37.4918C46.5037 36.058 46.9907 34.6974 47.5488 33.3667L47.978 32.377C48.3774 32.3968 48.7767 32.3351 49.1519 32.1957C49.5738 32.0413 49.9551 31.7915 50.2663 31.4655C50.2878 31.4522 50.3109 31.4406 50.329 31.4239C50.8772 30.9382 51.4468 30.4808 52.0543 30.07C53.2876 29.2815 54.6712 28.7393 56.0993 28.5513C56.3634 28.528 56.6309 28.5097 56.8967 28.5097C57.0618 28.5114 57.2302 28.523 57.3969 28.5264C57.5026 28.528 57.4102 28.5164 58.1118 28.6977C58.0243 28.6744 59.0479 28.9056 59.0232 28.8374C58.9951 28.7543 58.9505 28.701 58.901 28.6212L58.9126 28.6278ZM19.8054 69.295C19.7774 69.2967 19.7394 69.3017 19.7064 69.3067C20.0035 69.2302 19.9375 69.2684 19.8054 69.295ZM23.824 67.7697C23.9891 67.6783 24.1641 67.5735 23.824 67.7697V67.7697ZM26.9608 65.6041C27.0764 65.5126 27.4198 65.2265 26.9608 65.6041V65.6041ZM24.5042 71.4823C24.4777 71.4923 24.4464 71.5106 24.4167 71.5289C24.6709 71.3526 24.6197 71.4125 24.5042 71.4823ZM27.7104 68.668C27.8425 68.5133 28.0208 68.2887 27.7104 68.668V68.668Z" fill="black"/>
<path d="M69.2092 38.6916H71.3588V54.7096H69.2092V38.6916ZM75.7521 28.5452H77.9017V50.4431C77.9017 52.5456 78.8494 52.8633 79.6716 52.8633C79.9572 52.8633 80.2081 52.8301 80.2081 52.8301V54.7728C80.2081 54.7728 79.8284 54.836 79.419 54.836C78.0899 54.836 75.7538 54.4235 75.7538 50.9189V28.5618L75.7521 28.5452ZM82.9257 28.5452H85.0588V50.4431C85.0588 52.5456 86.0081 52.8633 86.8286 52.8633C87.1126 52.8633 87.3652 52.8301 87.3652 52.8301V54.7728C87.3652 54.7728 86.9855 54.836 86.5727 54.836C85.2453 54.836 82.9075 54.4235 82.9075 50.9189L82.9257 28.5452ZM90.0382 38.6916H92.1878V48.3091C92.1878 50.8257 92.5675 53.0546 95.6334 53.0546C99.2689 53.0546 101.514 49.8377 101.514 46.3679V38.6916H103.664V54.7096H101.577V52.3061C101.577 51.6042 101.64 51.032 101.64 51.032H101.577C101.038 52.2403 100.163 53.2653 99.0576 53.9829C97.9523 54.7006 96.6643 55.0801 95.3494 55.0756C91.6182 55.0756 90.0398 53.038 90.0398 48.8646V38.6733L90.0382 38.6916ZM107.895 38.6916H110.014V41.0818C110.014 41.7804 109.951 42.3559 109.951 42.3559H110.014C110.773 40.1903 113.299 38.3107 115.766 38.3107C118.704 38.3107 120.223 39.6796 120.697 42.3243H120.76C121.613 40.1587 123.922 38.3107 126.608 38.3107C130.464 38.3107 131.888 40.5728 131.888 44.5216V54.713H129.738V45.0655C129.738 42.4541 129.201 40.2884 126.292 40.2884C123.857 40.2884 121.868 42.4557 121.267 44.8127C121.046 45.5146 120.981 46.2765 120.981 47.1381V54.7163H118.832V45.0689C118.832 42.6487 118.501 40.2917 115.48 40.2917C112.888 40.2917 110.928 42.5539 110.263 45.0057C110.108 45.7062 110.034 46.4222 110.042 47.1397V54.718H107.892V38.6999L107.895 38.6916ZM143.454 38.309C148.102 38.309 151.863 41.8769 151.863 46.6208C151.863 51.4445 148.099 55.0922 143.454 55.0922C138.81 55.0922 135.046 51.4611 135.046 46.6208C135.046 41.8752 138.81 38.309 143.454 38.309ZM143.454 53.1511C146.869 53.1511 149.649 50.3483 149.649 46.6224C149.649 42.9913 146.869 40.3017 143.454 40.3017C140.04 40.3017 137.26 43.008 137.26 46.6224C137.26 50.3483 140.042 53.1511 143.454 53.1511ZM155.117 51.2099C155.117 51.2099 156.887 53.1527 159.859 53.1527C161.566 53.1527 163.052 52.2928 163.052 50.6045C163.052 47.1015 154.483 47.9598 154.483 42.7369C154.483 39.8709 157.042 38.309 159.922 38.309C163.273 38.309 164.82 40.0605 164.82 40.0605L163.841 41.7172C163.841 41.7172 162.482 40.2535 159.857 40.2535C158.244 40.2535 156.695 40.9521 156.695 42.7369C156.695 46.2715 165.264 45.315 165.264 50.6045C165.264 53.2159 163.019 55.0955 159.826 55.0955C155.971 55.0955 153.948 52.7702 153.948 52.7702L155.117 51.2099ZM70.2824 31.7055C69.3661 31.7055 68.6231 32.454 68.6231 33.3772C68.6231 34.3004 69.3661 35.0489 70.2824 35.0489C71.1987 35.0489 71.9416 34.3004 71.9416 33.3772C71.9416 32.454 71.1987 31.7055 70.2824 31.7055Z" fill="black"/>
</svg>
