<svg width="42" height="41" viewBox="0 0 42 41" fill="none" xmlns="http://www.w3.org/2000/svg">
<mask id="path-1-inside-1_0_4302" fill="white">
<path d="M40.9219 3.89062L35.9219 36.3125C35.8438 37.0938 35.375 37.7969 34.6719 38.1875C34.2812 38.3438 33.8906 38.5 33.4219 38.5C33.1094 38.5 32.7969 38.4219 32.4844 38.2656L22.9531 34.2812L18.9688 40.2188C18.6562 40.7656 18.1094 41 17.5625 41C16.7031 41 16 40.2969 16 39.4375V31.9375C16 31.3125 16.1562 30.7656 16.4688 30.375L33.5 8.5L10.5312 29.2031L2.48438 25.8438C1.625 25.4531 1 24.6719 1 23.6562C0.921875 22.5625 1.39062 21.7812 2.25 21.3125L37.25 1.39062C38.0312 0.921875 39.125 0.921875 39.9062 1.46875C40.6875 2.01562 41.0781 2.95312 40.9219 3.89062Z"/>
</mask>
<path d="M40.9219 3.89062L39.9354 3.72621L39.9336 3.73821L40.9219 3.89062ZM35.9219 36.3125L34.9336 36.1601L34.9295 36.1865L34.9268 36.213L35.9219 36.3125ZM34.6719 38.1875L35.0433 39.116L35.1021 39.0924L35.1575 39.0617L34.6719 38.1875ZM32.4844 38.2656L32.9316 37.3712L32.9013 37.3561L32.8701 37.343L32.4844 38.2656ZM22.9531 34.2812L23.3388 33.3586L22.5807 33.0417L22.1228 33.724L22.9531 34.2812ZM18.9688 40.2188L18.1384 39.6615L18.1183 39.6914L18.1005 39.7226L18.9688 40.2188ZM16.4688 30.375L17.2497 30.9998L17.2578 30.9893L16.4688 30.375ZM33.5 8.5L34.289 9.11433L32.8305 7.75721L33.5 8.5ZM10.5312 29.2031L10.146 30.1259L10.7304 30.3699L11.2008 29.9459L10.5312 29.2031ZM2.48438 25.8438L2.07057 26.7541L2.08475 26.7606L2.09912 26.7666L2.48438 25.8438ZM1 23.6562H2V23.6206L1.99746 23.585L1 23.6562ZM2.25 21.3125L2.72885 22.1904L2.7368 22.1861L2.74468 22.1816L2.25 21.3125ZM37.25 1.39062L37.7447 2.2597L37.7547 2.25402L37.7645 2.24812L37.25 1.39062ZM39.9336 3.73821L34.9336 36.1601L36.9102 36.4649L41.9102 4.04304L39.9336 3.73821ZM34.9268 36.213C34.8823 36.6588 34.6112 37.0772 34.1862 37.3133L35.1575 39.0617C36.1388 38.5165 36.8052 37.5287 36.9169 36.412L34.9268 36.213ZM34.3005 37.259C33.8918 37.4225 33.6713 37.5 33.4219 37.5V39.5C34.1099 39.5 34.6707 39.265 35.0433 39.116L34.3005 37.259ZM33.4219 37.5C33.2821 37.5 33.1218 37.4663 32.9316 37.3712L32.0372 39.1601C32.4719 39.3774 32.9366 39.5 33.4219 39.5V37.5ZM32.8701 37.343L23.3388 33.3586L22.5674 35.2039L32.0987 39.1883L32.8701 37.343ZM22.1228 33.724L18.1384 39.6615L19.7991 40.776L23.7835 34.8385L22.1228 33.724ZM18.1005 39.7226C18 39.8984 17.8247 40 17.5625 40V42C18.394 42 19.3125 41.6328 19.837 40.7149L18.1005 39.7226ZM17.5625 40C17.2554 40 17 39.7446 17 39.4375H15C15 40.8492 16.1508 42 17.5625 42V40ZM17 39.4375V31.9375H15V39.4375H17ZM17 31.9375C17 31.465 17.1194 31.1624 17.2496 30.9997L15.6879 29.7503C15.1931 30.3688 15 31.16 15 31.9375H17ZM17.2578 30.9893L34.289 9.11433L32.711 7.88567L15.6797 29.7607L17.2578 30.9893ZM32.8305 7.75721L9.86173 28.4603L11.2008 29.9459L34.1695 9.24279L32.8305 7.75721ZM10.9165 28.2803L2.86963 24.9209L2.09912 26.7666L10.146 30.1259L10.9165 28.2803ZM2.89818 24.9334C2.32755 24.674 2 24.2099 2 23.6562H0C0 25.1339 0.922453 26.2322 2.07057 26.7541L2.89818 24.9334ZM1.99746 23.585C1.97004 23.2011 2.04086 22.9297 2.14965 22.7319C2.25889 22.5333 2.43997 22.348 2.72885 22.1904L1.77115 20.4346C1.20066 20.7458 0.71767 21.1854 0.397222 21.7681C0.0763282 22.3515 -0.0481634 23.0176 0.0025413 23.7275L1.99746 23.585ZM2.74468 22.1816L37.7447 2.2597L36.7553 0.521547L1.75532 20.4434L2.74468 22.1816ZM37.7645 2.24812C38.2271 1.97058 38.8933 1.98035 39.3328 2.28798L40.4797 0.649518C39.3567 -0.136597 37.8354 -0.126833 36.7355 0.533132L37.7645 2.24812ZM39.3328 2.28798C39.7971 2.61299 40.0287 3.16719 39.9355 3.72623L41.9083 4.05502C42.1276 2.73906 41.5779 1.41826 40.4797 0.649518L39.3328 2.28798Z" fill="black" mask="url(#path-1-inside-1_0_4302)"/>
</svg>
