<svg width="512" height="558" viewBox="0 0 512 558" fill="none" xmlns="http://www.w3.org/2000/svg">
<g opacity="0.08" clip-path="url(#clip0_0_4303)">
<path d="M6.07627 -1.97565C6.07627 -6.148 2.92563 -9.27728 -1.27522 -9.27728C-5.47607 -9.27728 -8.62671 -6.148 -8.62671 -1.97565C-8.62671 2.1967 -5.47607 5.32593 -1.27522 5.32593C2.92563 5.32593 6.07627 2.1967 6.07627 -1.97565Z" fill="black"/>
<path d="M2.22593 15.4108C2.22593 11.2385 -0.924709 8.10919 -5.12556 8.10919C-9.32642 8.10919 -12.4771 11.2385 -12.4771 15.4108C-12.4771 19.5832 -9.32642 22.7124 -5.12556 22.7124C-0.924708 22.7124 2.22593 19.5832 2.22593 15.4108Z" fill="black"/>
<path d="M26.0306 -6.49474C26.0306 -10.6671 22.88 -13.7964 18.6791 -13.7964C14.4783 -13.7964 11.3276 -10.6671 11.3276 -6.49474C11.3276 -2.3224 14.4783 0.806885 18.6791 0.806884C22.88 0.806884 26.0306 -2.3224 26.0306 -6.49474Z" fill="black"/>
<path d="M26.0306 11.5868C26.0306 7.55423 22.7392 4.28522 18.6791 4.28522C14.619 4.28522 11.3276 7.55423 11.3276 11.5868C11.3276 15.6194 14.619 18.8884 18.6791 18.8884C22.7392 18.8884 26.0306 15.6194 26.0306 11.5868Z" fill="black"/>
<path d="M18.3283 27.9295C18.3283 23.7571 15.1776 20.6279 10.9768 20.6279C6.77594 20.6279 3.6253 23.7571 3.6253 27.9295C3.62531 32.1018 6.77594 35.2311 10.9768 35.2311C15.1776 35.5788 18.3283 32.1018 18.3283 27.9295Z" fill="black"/>
<path d="M3.97678 39.4C3.97678 35.2277 0.826145 32.0985 -3.37471 32.0985C-7.57556 32.0985 -10.7262 35.2277 -10.7262 39.4C-10.7262 43.5724 -7.57556 46.7017 -3.37471 46.7017C0.826146 46.7017 3.97678 43.5724 3.97678 39.4Z" fill="black"/>
<path d="M47.7347 7.06751C47.7347 2.89516 44.584 -0.234067 40.3831 -0.234067C36.1823 -0.234067 33.0317 2.89516 33.0317 7.06751C33.0317 11.2399 36.1823 14.3691 40.3831 14.3691C44.2339 14.3691 47.7347 11.2399 47.7347 7.06751Z" fill="black"/>
<path d="M43.5336 24.799C43.5336 20.6266 40.3829 17.4973 36.1821 17.4973C31.9812 17.4973 28.8306 20.6266 28.8306 24.799C28.8306 28.9713 31.9812 32.1006 36.1821 32.1006C40.3829 32.1006 43.5336 28.9713 43.5336 24.799Z" fill="black"/>
<path d="M34.433 40.7888C34.433 36.6164 31.2823 33.4871 27.0815 33.4871C22.8806 33.4871 19.73 36.6164 19.73 40.7888C19.73 44.9611 22.8806 48.0903 27.0815 48.0903C31.2823 48.0903 34.433 44.9611 34.433 40.7888Z" fill="black"/>
<path d="M21.1292 53.3075C21.1292 49.2749 17.8378 46.0059 13.7777 46.0059C9.71754 46.0059 6.42615 49.2749 6.42615 53.3075C6.42615 57.3401 9.71754 60.6091 13.7777 60.6091C17.8378 60.6091 21.1292 57.3401 21.1292 53.3075Z" fill="black"/>
<path d="M4.67643 61.3041C4.67643 57.1317 1.52579 54.0025 -2.67506 54.0025C-6.87592 54.0025 -10.0266 57.1317 -10.0266 61.3041C-10.0266 65.4764 -6.87592 68.6057 -2.67506 68.6057C1.52579 68.6057 4.67643 65.4764 4.67643 61.3041Z" fill="black"/>
<path d="M68.3883 2.19682C68.3883 -1.97553 65.2377 -5.10481 61.0368 -5.10481C56.836 -5.10481 53.6853 -1.97553 53.6853 2.19682C53.6853 6.36917 56.836 9.49845 61.0368 9.49845C65.2377 9.84615 68.3883 6.36917 68.3883 2.19682Z" fill="black"/>
<path d="M66.2888 20.6252C66.2888 16.4528 63.1381 13.3235 58.9373 13.3235C54.7364 13.3236 51.5858 16.4528 51.5858 20.6252C51.5858 24.7975 54.7364 27.9268 58.9373 27.9268C63.1381 27.9268 66.2888 24.4498 66.2888 20.6252Z" fill="black"/>
<path d="M60.3374 38.0082C60.3374 33.8359 57.1867 30.7066 52.9859 30.7066C48.785 30.7066 45.6343 33.8359 45.6343 38.0082C45.6343 42.1806 48.785 45.3098 52.9859 45.3098C57.1867 45.3098 60.3374 41.8329 60.3374 38.0082Z" fill="black"/>
<path d="M50.5354 53.3075C50.5354 49.1352 47.3848 46.0059 43.1839 46.0059C38.9831 46.0059 35.8325 49.1352 35.8325 53.3075C35.8325 57.4798 38.9831 60.6091 43.1839 60.6091C47.3848 60.6091 50.5354 57.4798 50.5354 53.3075Z" fill="black"/>
<path d="M37.5837 66.5216C37.5837 62.489 34.2923 59.22 30.2322 59.22C26.1721 59.22 22.8807 62.489 22.8807 66.5216C22.8807 70.5542 26.1721 73.8232 30.2322 73.8232C34.2923 73.8232 37.5837 70.5542 37.5837 66.5216Z" fill="black"/>
<path d="M22.1803 76.2551C22.1803 72.0827 19.0296 68.9534 14.8288 68.9534C10.6279 68.9534 7.47729 72.0827 7.47729 76.2551C7.47729 80.4274 10.6279 83.5566 14.8288 83.5566C19.0296 83.5566 22.1803 80.4274 22.1803 76.2551Z" fill="black"/>
<path d="M4.67649 82.5129C4.67649 78.4803 1.38512 75.2112 -2.675 75.2112C-6.73512 75.2112 -10.0265 78.4803 -10.0265 82.5129C-10.0265 86.5454 -6.73512 89.8145 -2.675 89.8145C1.38512 89.8145 4.67649 86.5454 4.67649 82.5129Z" fill="black"/>
<path d="M88.6933 -2.32238C88.6933 -6.49473 85.5427 -9.62396 81.3418 -9.62396C77.141 -9.62396 73.9903 -6.49473 73.9903 -2.32238C73.9903 1.84997 77.141 4.97925 81.3418 4.97925C85.5427 4.97925 88.6933 1.84997 88.6933 -2.32238Z" fill="black"/>
<path d="M87.9928 16.1044C87.9928 11.932 84.8421 8.80275 80.6413 8.80275C76.4404 8.80275 73.2898 11.932 73.2898 16.1044C73.2898 20.2767 76.4404 23.406 80.6413 23.406C84.8421 23.406 87.9928 19.929 87.9928 16.1044Z" fill="black"/>
<path d="M84.1424 33.8376C84.1424 29.6652 80.9918 26.536 76.791 26.536C72.5901 26.536 69.4395 29.6652 69.4395 33.8376C69.4395 38.0099 72.5901 41.1392 76.791 41.1392C80.6418 41.1392 84.1424 38.0099 84.1424 33.8376Z" fill="black"/>
<path d="M76.79 50.8739C76.79 46.8413 73.4986 43.5723 69.4384 43.5723C65.3783 43.5723 62.087 46.8413 62.087 50.8739C62.087 54.9065 65.3783 58.1755 69.4384 58.1755C73.4986 58.1755 76.79 54.9065 76.79 50.8739Z" fill="black"/>
<path d="M66.9885 66.1715C66.9885 61.9992 63.8378 58.8699 59.637 58.8699C55.4361 58.8699 52.2855 61.9992 52.2855 66.1715C52.2855 70.3439 55.4361 73.4731 59.637 73.4731C63.8378 73.4731 66.9885 69.9962 66.9885 66.1715Z" fill="black"/>
<path d="M54.0367 79.3871C54.0367 75.3545 50.7453 72.0855 46.6851 72.0855C42.625 72.0855 39.3337 75.3545 39.3337 79.3871C39.3337 83.4197 42.625 86.6887 46.6851 86.6887C50.7453 86.6887 54.0367 83.4197 54.0367 79.3871Z" fill="black"/>
<path d="M39.3326 90.1642C39.3326 86.1317 36.0412 82.8626 31.9811 82.8626C27.921 82.8626 24.6296 86.1317 24.6296 90.1642C24.6296 94.1968 27.921 97.4658 31.9811 97.4658C36.0412 97.4658 39.3326 94.1968 39.3326 90.1642Z" fill="black"/>
<path d="M22.88 98.1623C22.88 93.9899 19.7294 90.8607 15.5285 90.8607C11.3277 90.8607 8.177 93.9899 8.177 98.1623C8.177 102.335 11.3277 105.464 15.5285 105.464C19.3793 105.464 22.88 102.335 22.88 98.1623Z" fill="black"/>
<path d="M5.0268 103.028C5.02679 98.8558 1.87613 95.7265 -2.32472 95.7265C-6.52557 95.7265 -9.67621 98.8558 -9.67621 103.028C-9.67621 107.2 -6.52557 110.33 -2.32472 110.33C1.52606 110.677 5.0268 107.2 5.0268 103.028Z" fill="black"/>
<path d="M108.997 -7.18838C108.997 -11.3607 105.846 -14.49 101.646 -14.49C97.4447 -14.49 94.2941 -11.3607 94.2941 -7.18838C94.2941 -3.01603 97.4447 0.113198 101.646 0.113198C105.846 0.460893 108.997 -3.01603 108.997 -7.18838Z" fill="black"/>
<path d="M109.347 11.2368C109.347 7.0644 106.196 3.93512 101.995 3.93512C97.7946 3.93512 94.644 7.0644 94.644 11.2368C94.644 15.4091 97.7946 18.5383 101.995 18.5383C105.846 18.5383 109.347 15.4091 109.347 11.2368Z" fill="black"/>
<path d="M106.547 29.3167C106.547 25.1444 103.396 22.0151 99.195 22.0151C94.9942 22.0151 91.8436 25.1444 91.8436 29.3167C91.8436 33.4891 94.9942 36.6183 99.195 36.6183C103.396 36.966 106.547 33.4891 106.547 29.3167Z" fill="black"/>
<path d="M101.296 47.0514C101.296 42.879 98.1453 39.7498 93.9444 39.7498C89.7436 39.7498 86.593 42.879 86.593 47.0514C86.593 51.2237 89.7436 54.353 93.9444 54.353C97.7952 54.353 101.296 50.876 101.296 47.0514Z" fill="black"/>
<path d="M93.2445 63.3927C93.2445 59.2203 90.0939 56.091 85.893 56.091C81.6922 56.091 78.5416 59.2203 78.5416 63.3927C78.5416 67.565 81.6922 70.6943 85.893 70.6943C90.0939 71.0419 93.2445 67.565 93.2445 63.3927Z" fill="black"/>
<path d="M83.0925 78.6903C83.0925 74.518 79.9418 71.3887 75.741 71.3887C71.5401 71.3887 68.3895 74.518 68.3895 78.6903C68.3895 82.8627 71.5401 85.9919 75.741 85.9919C79.5918 85.9919 83.0925 82.8627 83.0925 78.6903Z" fill="black"/>
<path d="M70.4897 92.2511C70.4897 88.0788 67.3391 84.9495 63.1382 84.9495C58.9374 84.9495 55.7867 88.0788 55.7867 92.2511C55.7867 96.4235 58.9374 99.5527 63.1382 99.5527C67.3391 99.5527 70.4897 96.4235 70.4897 92.2511Z" fill="black"/>
<path d="M56.1363 103.726C56.1363 99.5541 52.9857 96.4248 48.7848 96.4248C44.5839 96.4248 41.4333 99.5541 41.4333 103.726C41.4333 107.899 44.584 111.028 48.7848 111.028C52.9857 111.028 56.1363 107.899 56.1363 103.726Z" fill="black"/>
<path d="M40.3825 113.113C40.3825 108.941 37.2319 105.812 33.0311 105.812C28.8302 105.812 25.6796 108.941 25.6796 113.113C25.6796 117.286 28.8302 120.415 33.0311 120.415C36.8819 120.415 40.3825 116.938 40.3825 113.113Z" fill="black"/>
<path d="M23.2302 119.718C23.2302 115.545 20.0796 112.416 15.8787 112.416C11.6779 112.416 8.52722 115.545 8.52722 119.718C8.52722 123.89 11.6779 127.019 15.8787 127.019C19.7295 127.019 23.2302 123.89 23.2302 119.718Z" fill="black"/>
<path d="M5.02655 123.89C5.02655 119.857 1.73515 116.588 -2.32496 116.588C-6.38508 116.588 -9.67645 119.857 -9.67645 123.89C-9.67645 127.923 -6.38508 131.192 -2.32496 131.192C1.73515 131.192 5.02655 127.923 5.02655 123.89Z" fill="black"/>
<path d="M130.001 6.71917C130.001 2.54683 126.85 -0.582456 122.649 -0.582456C118.449 -0.582456 115.298 2.54683 115.298 6.71917C115.298 10.8915 118.449 14.0208 122.649 14.0208C126.85 14.0208 130.001 10.5438 130.001 6.71917Z" fill="black"/>
<path d="M128.252 24.799C128.252 20.6266 125.102 17.4973 120.901 17.4973C116.7 17.4973 113.549 20.6266 113.549 24.799C113.549 28.9713 116.7 32.1006 120.901 32.1006C125.102 32.1006 128.252 28.9713 128.252 24.799Z" fill="black"/>
<path d="M124.4 42.8759C124.4 38.7035 121.25 35.5743 117.049 35.5743C112.848 35.5743 109.697 38.7035 109.697 42.8759C109.697 47.0482 112.848 50.1775 117.049 50.1775C120.9 50.1775 124.4 46.7005 124.4 42.8759Z" fill="black"/>
<path d="M118.099 59.9155C118.099 55.7431 114.949 52.6138 110.748 52.6138C106.547 52.6138 103.396 55.7431 103.396 59.9155C103.396 64.0878 106.547 67.217 110.748 67.217C114.949 67.217 118.099 64.0878 118.099 59.9155Z" fill="black"/>
<path d="M109.698 76.2551C109.698 72.0827 106.547 68.9534 102.346 68.9534C98.1453 68.9534 94.9946 72.0827 94.9946 76.2551C94.9946 80.4274 98.1453 83.5566 102.346 83.5566C106.197 83.5566 109.698 80.4274 109.698 76.2551Z" fill="black"/>
<path d="M99.1949 91.5575C99.1949 87.3852 96.0443 84.2559 91.8434 84.2559C87.6425 84.2559 84.4919 87.3852 84.4919 91.5575C84.4919 95.7298 87.6425 98.8591 91.8434 98.8591C95.6942 98.8591 99.1949 95.3822 99.1949 91.5575Z" fill="black"/>
<path d="M86.9428 105.115C86.9428 100.943 83.7922 97.8135 79.5913 97.8135C75.3905 97.8135 72.2398 100.943 72.2398 105.115C72.2398 109.287 75.3905 112.417 79.5913 112.417C83.4421 112.417 86.9428 108.94 86.9428 105.115Z" fill="black"/>
<path d="M72.9396 116.937C72.9396 112.765 69.789 109.636 65.5881 109.636C61.3873 109.636 58.2366 112.765 58.2366 116.937C58.2366 121.11 61.3873 124.239 65.5881 124.239C69.4389 124.239 72.9396 121.11 72.9396 116.937Z" fill="black"/>
<path d="M57.5365 127.019C57.5365 122.847 54.3858 119.718 50.185 119.718C45.9841 119.718 42.8335 122.847 42.8335 127.019C42.8335 131.192 45.9841 134.321 50.185 134.321C54.0357 134.321 57.5365 131.192 57.5365 127.019Z" fill="black"/>
<path d="M40.7332 135.016C40.7332 130.843 37.5825 127.714 33.3817 127.714C29.1808 127.714 26.0302 130.843 26.0302 135.016C26.0302 139.188 29.1808 142.317 33.3817 142.317C37.5825 142.317 40.7332 139.188 40.7332 135.016Z" fill="black"/>
<path d="M23.2302 140.931C23.2302 136.759 20.0796 133.63 15.8787 133.63C11.6779 133.63 8.52722 136.759 8.52722 140.931C8.52722 145.104 11.6779 148.233 15.8787 148.233C20.0796 148.233 23.2302 145.104 23.2302 140.931Z" fill="black"/>
<path d="M5.37726 144.405C5.37726 140.233 2.22662 137.104 -1.97423 137.104C-6.17508 137.104 -9.32575 140.233 -9.32574 144.405C-9.32574 148.578 -6.17508 151.707 -1.97423 151.707C1.87655 152.055 5.37726 148.578 5.37726 144.405Z" fill="black"/>
<path d="M150.656 1.84852C150.656 -2.32383 147.506 -5.45306 143.305 -5.45306C139.104 -5.45306 135.953 -2.32383 135.953 1.84852C135.953 6.02086 139.104 9.15015 143.305 9.15015C147.506 9.15015 150.656 6.02086 150.656 1.84852Z" fill="black"/>
<path d="M149.605 20.2782C149.605 16.1059 146.454 12.9766 142.253 12.9766C138.052 12.9766 134.902 16.1059 134.902 20.2782C134.902 24.4506 138.052 27.5798 142.253 27.5798C146.454 27.5798 149.605 24.4506 149.605 20.2782Z" fill="black"/>
<path d="M146.804 38.3615C146.804 34.1891 143.654 31.0599 139.453 31.0599C135.252 31.0599 132.101 34.1891 132.101 38.3615C132.101 42.5338 135.252 45.6631 139.453 45.6631C143.304 45.6631 146.804 42.5338 146.804 38.3615Z" fill="black"/>
<path d="M141.905 56.0914C141.905 51.9191 138.754 48.7898 134.553 48.7898C130.352 48.7898 127.202 51.9191 127.202 56.0914C127.202 60.2638 130.352 63.3931 134.553 63.3931C138.404 63.3931 141.905 59.9161 141.905 56.0914Z" fill="black"/>
<path d="M134.552 72.778C134.552 68.7454 131.261 65.4764 127.201 65.4764C123.141 65.4764 119.849 68.7454 119.849 72.778C119.849 76.8106 123.141 80.0796 127.201 80.0796C131.261 80.0796 134.552 76.8106 134.552 72.778Z" fill="black"/>
<path d="M125.8 89.1222C125.8 84.9499 122.649 81.8206 118.448 81.8206C114.248 81.8206 111.097 84.9499 111.097 89.1222C111.097 93.2946 114.248 96.4238 118.448 96.4238C122.649 96.4238 125.8 92.9469 125.8 89.1222Z" fill="black"/>
<path d="M115.299 104.073C115.299 100.041 112.007 96.7715 107.947 96.7715C103.887 96.7715 100.596 100.041 100.596 104.073C100.596 108.106 103.887 111.375 107.947 111.375C112.007 111.375 115.299 108.106 115.299 104.073Z" fill="black"/>
<path d="M103.047 117.632C103.047 113.46 99.8961 110.331 95.6953 110.331C91.4944 110.331 88.3438 113.46 88.3438 117.632C88.3438 121.805 91.4944 124.934 95.6953 124.934C99.8961 125.282 103.047 121.805 103.047 117.632Z" fill="black"/>
<path d="M89.3926 130.15C89.3926 125.977 86.242 122.848 82.0412 122.848C77.8403 122.848 74.6896 125.977 74.6896 130.15C74.6896 134.322 77.8403 137.451 82.0412 137.451C85.8919 137.451 89.3926 133.974 89.3926 130.15Z" fill="black"/>
<path d="M74.3402 140.581C74.3402 136.409 71.1896 133.28 66.9887 133.28C62.7879 133.28 59.6372 136.409 59.6372 140.581C59.6372 144.754 62.7879 147.883 66.9887 147.883C71.1896 148.231 74.3402 144.754 74.3402 140.581Z" fill="black"/>
<path d="M58.2378 149.62C58.2378 145.447 55.0871 142.318 50.8863 142.318C46.6854 142.318 43.5348 145.447 43.5348 149.62C43.5348 153.792 46.6854 156.921 50.8863 156.921C55.0871 156.921 58.2378 153.792 58.2378 149.62Z" fill="black"/>
<path d="M41.0839 156.92C41.0839 152.887 37.7925 149.618 33.7323 149.618C29.6722 149.618 26.3809 152.887 26.3809 156.92C26.3809 160.952 29.6722 164.221 33.7323 164.221C37.7925 164.221 41.0839 160.952 41.0839 156.92Z" fill="black"/>
<path d="M23.581 161.79C23.581 157.618 20.4303 154.489 16.2295 154.489C12.0286 154.489 8.87799 157.618 8.87799 161.79C8.87799 165.962 12.0286 169.092 16.2295 169.092C20.0803 169.439 23.581 165.962 23.581 161.79Z" fill="black"/>
<path d="M5.37738 165.267C5.37738 161.095 2.22675 157.966 -1.97411 157.966C-6.17496 157.966 -9.32562 161.095 -9.32562 165.267C-9.32562 169.44 -6.17496 172.569 -1.97411 172.569C1.87668 172.569 5.37738 169.092 5.37738 165.267Z" fill="black"/>
<path d="M171.31 -2.66901C171.31 -6.84136 168.16 -9.97064 163.959 -9.97064C159.758 -9.97064 156.607 -6.84136 156.607 -2.66901C156.607 1.50334 159.758 4.63257 163.959 4.63257C167.81 4.63257 171.31 1.15564 171.31 -2.66901Z" fill="black"/>
<path d="M170.96 15.4093C170.96 11.2369 167.809 8.10765 163.608 8.10765C159.407 8.10765 156.257 11.2369 156.257 15.4093C156.257 19.5816 159.407 22.7109 163.608 22.7109C167.459 23.0585 170.96 19.5816 170.96 15.4093Z" fill="black"/>
<path d="M168.51 33.8376C168.51 29.6652 165.359 26.536 161.158 26.536C156.958 26.536 153.807 29.6652 153.807 33.8376C153.807 38.0099 156.958 41.1392 161.158 41.1392C165.359 41.1392 168.51 38.0099 168.51 33.8376Z" fill="black"/>
<path d="M164.66 51.569C164.66 47.5364 161.368 44.2674 157.308 44.2674C153.248 44.2674 149.957 47.5364 149.957 51.569C149.957 55.6015 153.248 58.8706 157.308 58.8706C161.368 58.8706 164.66 55.6015 164.66 51.569Z" fill="black"/>
<path d="M158.708 68.9537C158.708 64.7813 155.557 61.6521 151.356 61.6521C147.155 61.6521 144.005 64.7813 144.005 68.9537C144.005 73.126 147.155 76.2553 151.356 76.2553C155.557 76.603 158.708 73.126 158.708 68.9537Z" fill="black"/>
<path d="M151.356 85.9919C151.356 81.9593 148.065 78.6902 144.005 78.6902C139.944 78.6902 136.653 81.9593 136.653 85.9919C136.653 90.0244 139.944 93.2935 144.005 93.2935C148.065 93.2935 151.356 90.0244 151.356 85.9919Z" fill="black"/>
<path d="M142.255 101.641C142.255 97.4686 139.104 94.3393 134.903 94.3393C130.702 94.3393 127.552 97.4686 127.552 101.641C127.552 105.813 130.702 108.943 134.903 108.943C138.754 109.29 142.255 105.813 142.255 101.641Z" fill="black"/>
<path d="M131.401 116.587C131.401 112.555 128.11 109.286 124.05 109.286C119.99 109.286 116.698 112.555 116.698 116.587C116.698 120.62 119.99 123.889 124.05 123.889C128.11 123.889 131.401 120.62 131.401 116.587Z" fill="black"/>
<path d="M119.149 130.498C119.149 126.326 115.999 123.196 111.798 123.196C107.597 123.196 104.446 126.326 104.446 130.498C104.446 134.67 107.597 137.8 111.798 137.8C115.999 137.8 119.149 134.67 119.149 130.498Z" fill="black"/>
<path d="M105.847 143.014C105.847 138.841 102.697 135.712 98.4957 135.712C94.2949 135.712 91.1442 138.841 91.1442 143.014C91.1442 147.186 94.2949 150.315 98.4957 150.315C102.697 150.315 105.847 147.186 105.847 143.014Z" fill="black"/>
<path d="M91.1435 154.144C91.1435 149.971 87.9929 146.842 83.792 146.842C79.5912 146.842 76.4405 149.971 76.4405 154.144C76.4405 158.316 79.5912 161.445 83.792 161.445C87.9929 161.445 91.1435 158.316 91.1435 154.144Z" fill="black"/>
<path d="M75.3901 163.877C75.3901 159.705 72.2395 156.576 68.0386 156.576C63.8378 156.576 60.6871 159.705 60.6871 163.877C60.6871 168.05 63.8378 171.179 68.0386 171.179C72.2395 171.179 75.3901 168.05 75.3901 163.877Z" fill="black"/>
<path d="M58.9371 171.874C58.9371 167.701 55.7865 164.572 51.5856 164.572C47.3848 164.572 44.2341 167.701 44.2341 171.874C44.2341 176.046 47.3848 179.175 51.5856 179.175C55.4364 179.175 58.9371 176.046 58.9371 171.874Z" fill="black"/>
<path d="M41.4341 178.128C41.4341 173.956 38.2835 170.827 34.0827 170.827C29.8818 170.827 26.7311 173.956 26.7311 178.128C26.7311 182.301 29.8818 185.43 34.0827 185.43C38.2835 185.43 41.4341 182.301 41.4341 178.128Z" fill="black"/>
<path d="M23.5808 182.999C23.5808 178.827 20.4302 175.698 16.2294 175.698C12.0285 175.698 8.87787 178.827 8.87787 182.999C8.87787 187.172 12.0285 190.301 16.2294 190.301C20.4302 190.301 23.5808 186.824 23.5808 182.999Z" fill="black"/>
<path d="M5.37738 185.78C5.37738 181.747 2.08601 178.478 -1.97411 178.478C-6.03423 178.478 -9.32562 181.747 -9.32562 185.78C-9.32562 189.812 -6.03423 193.081 -1.97411 193.081C2.08601 193.081 5.37738 189.812 5.37738 185.78Z" fill="black"/>
<path d="M191.614 10.8883C191.614 6.71596 188.464 3.58668 184.263 3.58668C180.062 3.58668 176.911 6.71596 176.911 10.8883C176.911 15.0607 180.062 18.1899 184.263 18.1899C188.464 18.1899 191.614 15.0607 191.614 10.8883Z" fill="black"/>
<path d="M190.214 29.3166C190.214 25.1442 187.063 22.015 182.862 22.015C178.661 22.015 175.511 25.1442 175.511 29.3166C175.511 33.4889 178.661 36.6182 182.862 36.6182C186.713 36.6182 190.214 33.1412 190.214 29.3166Z" fill="black"/>
<path d="M187.064 47.3981C187.064 43.2257 183.913 40.0964 179.712 40.0964C175.511 40.0964 172.361 43.2257 172.361 47.3981C172.361 51.5704 175.511 54.6997 179.712 54.6997C183.563 54.6997 187.064 51.2227 187.064 47.3981Z" fill="black"/>
<path d="M182.162 64.7828C182.162 60.6104 179.012 57.4811 174.811 57.4811C170.61 57.4811 167.459 60.6104 167.459 64.7828C167.459 68.9551 170.61 72.0844 174.811 72.0844C178.661 72.4321 182.162 68.9551 182.162 64.7828Z" fill="black"/>
<path d="M175.862 82.1676C175.862 77.9953 172.711 74.866 168.51 74.866C164.309 74.866 161.159 77.9953 161.159 82.1676C161.159 86.34 164.309 89.4692 168.51 89.4692C172.711 89.4692 175.862 86.34 175.862 82.1676Z" fill="black"/>
<path d="M167.809 98.8556C167.809 94.6833 164.658 91.554 160.457 91.554C156.256 91.554 153.106 94.6833 153.106 98.8556C153.106 103.028 156.256 106.157 160.457 106.157C164.308 106.157 167.809 102.68 167.809 98.8556Z" fill="black"/>
<path d="M158.357 114.5C158.357 110.328 155.206 107.199 151.006 107.199C146.805 107.199 143.654 110.328 143.654 114.5C143.654 118.673 146.805 121.802 151.006 121.802C155.206 121.802 158.357 118.673 158.357 114.5Z" fill="black"/>
<path d="M147.506 129.451C147.506 125.279 144.355 122.15 140.154 122.15C135.953 122.15 132.803 125.279 132.803 129.451C132.803 133.624 135.953 136.753 140.154 136.753C144.355 136.753 147.506 133.276 147.506 129.451Z" fill="black"/>
<path d="M135.602 143.362C135.602 139.19 132.452 136.06 128.251 136.06C124.05 136.06 120.899 139.19 120.899 143.362C120.899 147.534 124.05 150.664 128.251 150.664C132.452 150.664 135.602 147.187 135.602 143.362Z" fill="black"/>
<path d="M122.3 155.878C122.3 151.705 119.15 148.576 114.949 148.576C110.748 148.576 107.597 151.705 107.597 155.878C107.597 160.05 110.748 163.179 114.949 163.179C118.8 163.179 122.3 160.05 122.3 155.878Z" fill="black"/>
<path d="M107.947 167.351C107.947 163.179 104.797 160.05 100.596 160.05C96.3949 160.05 93.2442 163.179 93.2442 167.351C93.2442 171.524 96.3949 174.653 100.596 174.653C104.446 175.001 107.947 171.524 107.947 167.351Z" fill="black"/>
<path d="M92.5437 177.785C92.5437 173.612 89.393 170.483 85.1922 170.483C80.9913 170.483 77.8407 173.612 77.8407 177.785C77.8407 181.957 80.9913 185.086 85.1922 185.086C89.0429 185.086 92.5437 181.609 92.5437 177.785Z" fill="black"/>
<path d="M76.4413 186.476C76.4413 182.304 73.2906 179.175 69.0898 179.175C64.8889 179.175 61.7383 182.304 61.7383 186.476C61.7383 190.649 64.8889 193.778 69.0898 193.778C72.9406 193.778 76.4413 190.649 76.4413 186.476Z" fill="black"/>
<path d="M59.2878 193.778C59.2878 189.605 56.1371 186.476 51.9362 186.476C47.7354 186.476 44.5848 189.605 44.5848 193.778C44.5848 197.95 47.7354 201.079 51.9362 201.079C56.1371 201.079 59.2878 197.95 59.2878 193.778Z" fill="black"/>
<path d="M41.7832 199.337C41.7832 195.165 38.6325 192.036 34.4317 192.036C30.2308 192.036 27.0802 195.165 27.0802 199.337C27.0802 203.51 30.2308 206.639 34.4317 206.639C38.6325 206.987 41.7832 203.51 41.7832 199.337Z" fill="black"/>
<path d="M23.9295 203.514C23.9295 199.342 20.7789 196.213 16.5781 196.213C12.3772 196.213 9.22656 199.342 9.22656 203.514C9.22656 207.687 12.3772 210.816 16.5781 210.816C20.4288 211.164 23.9295 207.687 23.9295 203.514Z" fill="black"/>
<path d="M5.37726 206.293C5.37726 202.261 2.08589 198.992 -1.97423 198.992C-6.03435 198.992 -9.32575 202.261 -9.32574 206.293C-9.32574 210.326 -6.03435 213.595 -1.97423 213.595C2.08589 213.595 5.37726 210.326 5.37726 206.293Z" fill="black"/>
<path d="M212.269 6.36927C212.269 2.19692 209.118 -0.93231 204.917 -0.932309C200.717 -0.932309 197.566 2.19692 197.566 6.36927C197.566 10.5416 200.717 13.6709 204.917 13.6709C209.118 13.6709 212.269 10.1939 212.269 6.36927Z" fill="black"/>
<path d="M211.218 24.4508C211.218 20.2785 208.067 17.1492 203.866 17.1492C199.665 17.1492 196.515 20.2785 196.515 24.4508C196.515 28.6232 199.665 31.7524 203.866 31.7524C208.067 31.7524 211.218 28.6232 211.218 24.4508Z" fill="black"/>
<path d="M208.768 42.5289C208.768 38.3566 205.617 35.2273 201.416 35.2273C197.215 35.2273 194.065 38.3566 194.065 42.5289C194.065 46.7013 197.215 49.8305 201.416 49.8305C205.617 50.1782 208.768 46.7013 208.768 42.5289Z" fill="black"/>
<path d="M204.917 60.6105C204.917 56.4382 201.767 53.3089 197.566 53.3089C193.365 53.3089 190.214 56.4382 190.214 60.6105C190.214 64.7829 193.365 67.9121 197.566 67.9121C201.767 67.9121 204.917 64.7829 204.917 60.6105Z" fill="black"/>
<path d="M199.316 77.9953C199.316 73.8229 196.166 70.6936 191.965 70.6936C187.764 70.6936 184.613 73.8229 184.613 77.9953C184.613 82.1676 187.764 85.2969 191.965 85.2969C196.166 85.2969 199.316 82.1676 199.316 77.9953Z" fill="black"/>
<path d="M192.315 95.0316C192.315 90.8593 189.164 87.73 184.963 87.73C180.762 87.73 177.612 90.8593 177.612 95.0316C177.612 99.204 180.762 102.333 184.963 102.333C189.164 102.333 192.315 99.204 192.315 95.0316Z" fill="black"/>
<path d="M184.263 111.375C184.263 107.202 181.113 104.073 176.912 104.073C172.711 104.073 169.56 107.202 169.56 111.375C169.56 115.547 172.711 118.676 176.912 118.676C181.113 118.676 184.263 115.547 184.263 111.375Z" fill="black"/>
<path d="M174.462 127.019C174.462 122.847 171.311 119.718 167.11 119.718C162.909 119.718 159.759 122.847 159.759 127.019C159.759 131.191 162.909 134.321 167.11 134.321C171.311 134.668 174.462 131.191 174.462 127.019Z" fill="black"/>
<path d="M163.608 141.973C163.608 137.801 160.458 134.672 156.257 134.672C152.056 134.672 148.905 137.801 148.905 141.973C148.905 146.146 152.056 149.275 156.257 149.275C160.458 149.275 163.608 146.146 163.608 141.973Z" fill="black"/>
<path d="M151.706 155.878C151.706 151.705 148.556 148.576 144.355 148.576C140.154 148.576 137.003 151.705 137.003 155.878C137.003 160.05 140.154 163.179 144.355 163.179C148.556 163.179 151.706 160.05 151.706 155.878Z" fill="black"/>
<path d="M138.753 168.743C138.753 164.571 135.603 161.442 131.402 161.442C127.201 161.442 124.05 164.571 124.05 168.743C124.05 172.916 127.201 176.045 131.402 176.045C135.253 176.045 138.753 172.916 138.753 168.743Z" fill="black"/>
<path d="M124.4 180.565C124.4 176.533 121.109 173.264 117.049 173.264C112.989 173.264 109.697 176.533 109.697 180.565C109.697 184.598 112.989 187.867 117.049 187.867C121.109 187.867 124.4 184.598 124.4 180.565Z" fill="black"/>
<path d="M109.347 191.342C109.347 187.17 106.196 184.041 101.995 184.041C97.7946 184.041 94.644 187.17 94.644 191.342C94.644 195.515 97.7946 198.644 101.995 198.644C106.196 198.644 109.347 195.167 109.347 191.342Z" fill="black"/>
<path d="M93.5937 200.732C93.5937 196.7 90.3023 193.431 86.2421 193.431C82.182 193.431 78.8906 196.7 78.8906 200.732C78.8906 204.765 82.182 208.034 86.2421 208.034C90.3023 208.034 93.5937 204.765 93.5937 200.732Z" fill="black"/>
<path d="M76.79 208.727C76.79 204.695 73.4986 201.426 69.4384 201.426C65.3783 201.426 62.087 204.695 62.087 208.727C62.087 212.76 65.3783 216.029 69.4384 216.029C73.4986 216.029 76.79 212.76 76.79 208.727Z" fill="black"/>
<path d="M59.6376 215.333C59.6376 211.161 56.487 208.032 52.2861 208.032C48.0853 208.032 44.9346 211.161 44.9346 215.333C44.9346 219.506 48.0853 222.635 52.2861 222.635C56.487 222.635 59.6376 219.506 59.6376 215.333Z" fill="black"/>
<path d="M42.133 220.549C42.133 216.377 38.9824 213.248 34.7816 213.248C30.5807 213.248 27.4301 216.377 27.4301 220.549C27.4301 224.722 30.5807 227.851 34.7816 227.851C38.6324 227.851 42.133 224.722 42.133 220.549Z" fill="black"/>
<path d="M23.9295 224.376C23.9295 220.204 20.7788 217.075 16.578 217.075C12.3771 217.075 9.2265 220.204 9.2265 224.376C9.2265 228.549 12.3771 231.678 16.578 231.678C20.7788 231.678 23.9295 228.549 23.9295 224.376Z" fill="black"/>
<path d="M5.72574 226.809C5.72574 222.776 2.43437 219.507 -1.62575 219.507C-5.68586 219.507 -8.97723 222.776 -8.97723 226.809C-8.97723 230.841 -5.68586 234.11 -1.62575 234.11C2.43437 234.11 5.72574 230.841 5.72574 226.809Z" fill="black"/>
<path d="M232.923 1.50335C232.923 -2.52921 229.632 -5.79828 225.572 -5.79828C221.512 -5.79828 218.22 -2.52921 218.22 1.50335C218.22 5.53592 221.512 8.80493 225.572 8.80493C229.632 8.80493 232.923 5.53592 232.923 1.50335Z" fill="black"/>
<path d="M232.573 19.9316C232.573 15.7592 229.422 12.6299 225.221 12.6299C221.02 12.6299 217.87 15.7592 217.87 19.9316C217.87 24.1039 221.02 27.2332 225.221 27.2332C229.072 27.2332 232.573 23.7562 232.573 19.9316Z" fill="black"/>
<path d="M230.473 38.0085C230.473 33.8361 227.322 30.7069 223.121 30.7069C218.921 30.7069 215.77 33.8361 215.77 38.0085C215.77 42.1808 218.921 45.3101 223.121 45.3101C226.972 45.3101 230.473 42.1808 230.473 38.0085Z" fill="black"/>
<path d="M226.972 56.0866C226.972 51.9142 223.821 48.7849 219.62 48.7849C215.419 48.7849 212.269 51.9142 212.269 56.0866C212.269 60.2589 215.419 63.3882 219.62 63.3882C223.821 63.3882 226.972 60.2589 226.972 56.0866Z" fill="black"/>
<path d="M222.42 73.8229C222.42 69.6506 219.269 66.5213 215.068 66.5213C210.868 66.5213 207.717 69.6506 207.717 73.8229C207.717 77.9953 210.868 81.1245 215.068 81.1245C218.919 81.1245 222.42 77.9953 222.42 73.8229Z" fill="black"/>
<path d="M216.47 91.2091C216.47 87.0368 213.32 83.9075 209.119 83.9075C204.918 83.9075 201.767 87.0368 201.767 91.2091C201.767 95.3815 204.918 98.5107 209.119 98.5107C212.97 98.5107 216.47 95.3815 216.47 91.2091Z" fill="black"/>
<path d="M209.118 107.896C209.118 103.723 205.967 100.594 201.766 100.594C197.566 100.594 194.415 103.723 194.415 107.896C194.415 112.068 197.566 115.197 201.766 115.197C205.617 115.545 209.118 112.068 209.118 107.896Z" fill="black"/>
<path d="M200.716 124.238C200.716 120.066 197.566 116.937 193.365 116.937C189.164 116.937 186.013 120.066 186.013 124.238C186.013 128.411 189.164 131.54 193.365 131.54C197.216 131.54 200.716 128.411 200.716 124.238Z" fill="black"/>
<path d="M190.914 139.886C190.914 135.714 187.764 132.585 183.563 132.585C179.362 132.585 176.211 135.714 176.211 139.886C176.211 144.059 179.362 147.188 183.563 147.188C187.764 147.188 190.914 144.059 190.914 139.886Z" fill="black"/>
<path d="M179.712 154.837C179.712 150.805 176.421 147.536 172.361 147.536C168.301 147.536 165.009 150.805 165.009 154.837C165.009 158.87 168.301 162.139 172.361 162.139C176.421 162.139 179.712 158.87 179.712 154.837Z" fill="black"/>
<path d="M167.809 168.745C167.809 164.572 164.658 161.443 160.457 161.443C156.256 161.443 153.106 164.572 153.106 168.745C153.106 172.917 156.256 176.046 160.457 176.046C164.658 176.046 167.809 172.569 167.809 168.745Z" fill="black"/>
<path d="M154.857 181.607C154.857 177.435 151.707 174.306 147.506 174.306C143.305 174.306 140.154 177.435 140.154 181.607C140.154 185.78 143.305 188.909 147.506 188.909C151.707 188.909 154.857 185.78 154.857 181.607Z" fill="black"/>
<path d="M140.855 193.779C140.855 189.747 137.563 186.478 133.503 186.478C129.443 186.478 126.152 189.747 126.152 193.779C126.152 197.812 129.443 201.081 133.503 201.081C137.563 201.081 140.855 197.812 140.855 193.779Z" fill="black"/>
<path d="M126.151 204.555C126.151 200.382 123 197.253 118.799 197.253C114.598 197.253 111.448 200.382 111.448 204.555C111.448 208.727 114.598 211.856 118.799 211.856C123 212.204 126.151 208.727 126.151 204.555Z" fill="black"/>
<path d="M110.397 214.643C110.397 210.61 107.106 207.341 103.045 207.341C98.9853 207.341 95.6939 210.61 95.6939 214.643C95.6939 218.676 98.9853 221.945 103.045 221.945C107.106 221.945 110.397 218.676 110.397 214.643Z" fill="black"/>
<path d="M94.2945 223.33C94.2945 219.157 91.1439 216.028 86.943 216.028C82.7422 216.028 79.5916 219.157 79.5916 223.33C79.5916 227.502 82.7422 230.631 86.943 230.631C91.1439 230.631 94.2945 227.154 94.2945 223.33Z" fill="black"/>
<path d="M77.4912 230.636C77.4912 226.464 74.3406 223.334 70.1397 223.334C65.9389 223.334 62.7883 226.464 62.7883 230.636C62.7883 234.808 65.9389 237.937 70.1397 237.937C73.9905 237.937 77.4912 234.808 77.4912 230.636Z" fill="black"/>
<path d="M59.9867 236.891C59.9867 232.718 56.836 229.589 52.6352 229.589C48.4343 229.589 45.2837 232.718 45.2837 236.891C45.2837 241.063 48.4343 244.192 52.6352 244.192C56.836 244.192 59.9867 240.715 59.9867 236.891Z" fill="black"/>
<path d="M42.133 241.411C42.133 237.239 38.9824 234.11 34.7816 234.11C30.5807 234.11 27.4301 237.239 27.4301 241.411C27.4301 245.584 30.5807 248.713 34.7816 248.713C38.9824 249.061 42.133 245.584 42.133 241.411Z" fill="black"/>
<path d="M24.2802 244.887C24.2802 240.714 21.1296 237.585 16.9287 237.585C12.7278 237.585 9.57721 240.714 9.57721 244.887C9.57721 249.059 12.7278 252.188 16.9287 252.188C20.7795 252.536 24.2802 249.059 24.2802 244.887Z" fill="black"/>
<path d="M5.72562 247.319C5.72562 243.147 2.57499 240.017 -1.62587 240.017C-5.82672 240.017 -8.97736 243.147 -8.97736 247.319C-8.97736 251.491 -5.82672 254.621 -1.62587 254.621C2.57499 254.621 5.72562 251.144 5.72562 247.319Z" fill="black"/>
<path d="M253.577 -3.02062C253.577 -7.05319 250.285 -10.3223 246.225 -10.3223C242.165 -10.3223 238.874 -7.05319 238.874 -3.02062C238.874 1.01194 242.165 4.28101 246.225 4.28101C250.285 4.28101 253.577 1.01194 253.577 -3.02062Z" fill="black"/>
<path d="M253.226 15.0623C253.226 10.89 250.075 7.76072 245.875 7.76072C241.674 7.76072 238.523 10.89 238.523 15.0623C238.523 19.2346 241.674 22.3639 245.875 22.3639C250.075 22.7116 253.226 19.2346 253.226 15.0623Z" fill="black"/>
<path d="M251.826 33.4891C251.826 29.3168 248.676 26.1875 244.475 26.1875C240.274 26.1875 237.123 29.3168 237.123 33.4891C237.123 37.6615 240.274 40.7908 244.475 40.7908C248.325 40.7908 251.826 37.6615 251.826 33.4891Z" fill="black"/>
<path d="M249.026 51.569C249.026 47.3966 245.875 44.2674 241.674 44.2674C237.473 44.2674 234.323 47.3966 234.323 51.569C234.323 55.7413 237.473 58.8706 241.674 58.8706C245.875 58.8706 249.026 55.7413 249.026 51.569Z" fill="black"/>
<path d="M245.175 69.6488C245.175 65.4765 242.025 62.3472 237.824 62.3472C233.623 62.3472 230.472 65.4765 230.472 69.6488C230.472 73.8212 233.623 76.9504 237.824 76.9504C241.675 76.9504 245.175 73.4735 245.175 69.6488Z" fill="black"/>
<path d="M239.924 87.0336C239.924 82.8613 236.774 79.732 232.573 79.732C228.372 79.732 225.221 82.8613 225.221 87.0336C225.221 91.2059 228.372 94.3352 232.573 94.3352C236.774 94.3352 239.924 91.2059 239.924 87.0336Z" fill="black"/>
<path d="M233.273 104.417C233.273 100.245 230.123 97.1153 225.922 97.1153C221.721 97.1153 218.57 100.245 218.57 104.417C218.57 108.589 221.721 111.719 225.922 111.719C230.123 111.719 233.273 108.242 233.273 104.417Z" fill="black"/>
<path d="M225.571 121.11C225.571 116.937 222.42 113.808 218.22 113.808C214.019 113.808 210.868 116.937 210.868 121.11C210.868 125.282 214.019 128.411 218.22 128.411C222.42 128.411 225.571 124.934 225.571 121.11Z" fill="black"/>
<path d="M216.819 137.107C216.819 132.935 213.668 129.806 209.467 129.806C205.266 129.806 202.116 132.935 202.116 137.107C202.116 141.28 205.266 144.409 209.467 144.409C213.668 144.409 216.819 141.28 216.819 137.107Z" fill="black"/>
<path d="M207.016 152.403C207.016 148.371 203.725 145.102 199.665 145.102C195.605 145.102 192.313 148.371 192.313 152.403C192.313 156.436 195.605 159.705 199.665 159.705C203.725 159.705 207.016 156.436 207.016 152.403Z" fill="black"/>
<path d="M196.165 167.353C196.165 163.181 193.014 160.051 188.814 160.051C184.613 160.051 181.462 163.181 181.462 167.353C181.462 171.525 184.613 174.655 188.814 174.655C192.664 174.655 196.165 171.525 196.165 167.353Z" fill="black"/>
<path d="M184.263 181.259C184.263 177.087 181.113 173.957 176.912 173.957C172.711 173.957 169.56 177.087 169.56 181.259C169.56 185.431 172.711 188.561 176.912 188.561C180.762 188.561 184.263 185.431 184.263 181.259Z" fill="black"/>
<path d="M171.31 194.476C171.31 190.304 168.16 187.174 163.959 187.174C159.758 187.174 156.607 190.304 156.607 194.476C156.607 198.648 159.758 201.778 163.959 201.778C167.81 201.778 171.31 198.648 171.31 194.476Z" fill="black"/>
<path d="M157.658 206.642C157.658 202.469 154.508 199.34 150.307 199.34C146.106 199.34 142.955 202.469 142.955 206.642C142.955 210.814 146.106 213.943 150.307 213.943C154.157 213.943 157.658 210.814 157.658 206.642Z" fill="black"/>
<path d="M142.954 218.117C142.954 213.945 139.803 210.815 135.602 210.815C131.402 210.815 128.251 213.945 128.251 218.117C128.251 222.289 131.402 225.419 135.602 225.419C139.803 225.419 142.954 221.942 142.954 218.117Z" fill="black"/>
<path d="M127.551 228.201C127.551 224.168 124.259 220.899 120.199 220.899C116.139 220.899 112.848 224.168 112.848 228.201C112.848 232.233 116.139 235.502 120.199 235.502C124.259 235.502 127.551 232.233 127.551 228.201Z" fill="black"/>
<path d="M111.448 237.24C111.448 233.068 108.298 229.939 104.097 229.939C99.8961 229.939 96.7455 233.068 96.7455 237.24C96.7455 241.413 99.8961 244.542 104.097 244.542C108.298 244.89 111.448 241.413 111.448 237.24Z" fill="black"/>
<path d="M94.9937 245.235C94.9937 241.063 91.8431 237.934 87.6422 237.934C83.4414 237.934 80.2908 241.063 80.2908 245.235C80.2908 249.408 83.4414 252.537 87.6422 252.537C91.8431 252.885 94.9937 249.408 94.9937 245.235Z" fill="black"/>
<path d="M77.8415 252.191C77.8415 248.159 74.5501 244.89 70.49 244.89C66.4299 244.89 63.1385 248.159 63.1385 252.191C63.1385 256.224 66.4299 259.493 70.49 259.493C74.5501 259.493 77.8415 256.224 77.8415 252.191Z" fill="black"/>
<path d="M60.3369 258.099C60.3369 253.927 57.1863 250.798 52.9854 250.798C48.7846 250.798 45.6339 253.927 45.6339 258.099C45.6339 262.272 48.7846 265.401 52.9854 265.401C57.1863 265.401 60.3369 261.924 60.3369 258.099Z" fill="black"/>
<path d="M42.4837 262.623C42.4837 258.451 39.333 255.322 35.1322 255.322C30.9313 255.322 27.7807 258.451 27.7807 262.623C27.7807 266.796 30.9313 269.925 35.1322 269.925C39.333 269.925 42.4837 266.448 42.4837 262.623Z" fill="black"/>
<path d="M24.2802 265.754C24.2802 261.581 21.1296 258.452 16.9287 258.452C12.7278 258.452 9.57721 261.581 9.57721 265.754C9.57721 269.926 12.7278 273.055 16.9287 273.055C20.7795 273.055 24.2802 269.926 24.2802 265.754Z" fill="black"/>
<path d="M274.23 10.5416C274.23 6.36928 271.08 3.24005 266.879 3.24005C262.678 3.24005 259.527 6.36928 259.527 10.5416C259.527 14.714 262.678 17.8433 266.879 17.8433C270.73 17.8433 274.23 14.714 274.23 10.5416Z" fill="black"/>
<path d="M272.83 28.9669C272.83 24.7946 269.68 21.6653 265.479 21.6653C261.278 21.6653 258.128 24.7946 258.128 28.9669C258.128 33.1393 261.278 36.2686 265.479 36.2686C269.68 36.2686 272.83 32.7916 272.83 28.9669Z" fill="black"/>
<path d="M270.731 47.0514C270.731 42.879 267.58 39.7498 263.379 39.7498C259.178 39.7498 256.028 42.879 256.028 47.0514C256.028 51.2237 259.178 54.353 263.379 54.353C267.23 54.353 270.731 51.2237 270.731 47.0514Z" fill="black"/>
<path d="M267.229 65.1313C267.229 60.9589 264.079 57.8297 259.878 57.8297C255.677 57.8297 252.526 60.9589 252.526 65.1313C252.526 69.3036 255.677 72.4329 259.878 72.4329C264.079 72.4329 267.229 68.9559 267.229 65.1313Z" fill="black"/>
<path d="M262.68 82.8644C262.68 78.8318 259.388 75.5628 255.328 75.5628C251.268 75.5628 247.977 78.8318 247.977 82.8644C247.977 86.897 251.268 90.166 255.328 90.166C259.388 90.166 262.68 86.897 262.68 82.8644Z" fill="black"/>
<path d="M257.078 100.249C257.078 96.0768 253.928 92.9475 249.727 92.9475C245.526 92.9475 242.375 96.0768 242.375 100.249C242.375 104.421 245.526 107.551 249.727 107.551C253.578 107.551 257.078 104.421 257.078 100.249Z" fill="black"/>
<path d="M250.077 117.281C250.077 113.248 246.786 109.979 242.725 109.979C238.665 109.979 235.374 113.248 235.374 117.281C235.374 121.313 238.665 124.583 242.725 124.583C246.786 124.583 250.077 121.313 250.077 117.281Z" fill="black"/>
<path d="M242.024 133.972C242.024 129.8 238.873 126.67 234.672 126.67C230.472 126.67 227.321 129.8 227.321 133.972C227.321 138.144 230.472 141.274 234.672 141.274C238.873 141.274 242.024 137.797 242.024 133.972Z" fill="black"/>
<path d="M233.273 149.966C233.273 145.794 230.123 142.665 225.922 142.665C221.721 142.665 218.57 145.794 218.57 149.966C218.57 154.139 221.721 157.268 225.922 157.268C229.773 157.268 233.273 153.791 233.273 149.966Z" fill="black"/>
<path d="M341 17C341 8.99999 336.286 3 330 3C323.714 3 319 8.99999 319 17C319 25 323.714 31 330 31C336.286 31 341 25 341 17Z" fill="black"/>
<path d="M200.366 194.128C200.366 189.955 197.215 186.826 193.014 186.826C188.813 186.826 185.663 189.955 185.663 194.128C185.663 198.3 188.813 201.429 193.014 201.429C196.865 201.429 200.366 197.952 200.366 194.128Z" fill="black"/>
<path d="M187.413 207.34C187.413 203.168 184.262 200.038 180.061 200.038C175.86 200.038 172.71 203.168 172.71 207.34C172.71 211.512 175.86 214.642 180.061 214.642C184.262 214.642 187.413 211.512 187.413 207.34Z" fill="black"/>
<path d="M173.76 219.507C173.76 215.335 170.61 212.206 166.409 212.206C162.208 212.206 159.057 215.335 159.057 219.507C159.057 223.68 162.208 226.809 166.409 226.809C170.61 227.157 173.76 223.68 173.76 219.507Z" fill="black"/>
<path d="M159.407 231.329C159.407 227.157 156.256 224.028 152.056 224.028C147.855 224.028 144.704 227.157 144.704 231.329C144.704 235.502 147.855 238.631 152.056 238.631C156.256 238.631 159.407 235.154 159.407 231.329Z" fill="black"/>
<path d="M144.355 241.76C144.355 237.727 141.063 234.458 137.003 234.458C132.943 234.458 129.652 237.727 129.652 241.76C129.652 245.792 132.943 249.061 137.003 249.061C141.063 249.061 144.355 245.792 144.355 241.76Z" fill="black"/>
<path d="M128.601 251.496C128.601 247.324 125.45 244.195 121.249 244.195C117.048 244.195 113.898 247.324 113.898 251.496C113.898 255.669 117.048 258.798 121.249 258.798C125.45 258.798 128.601 255.321 128.601 251.496Z" fill="black"/>
<path d="M95.3445 267.491C95.3445 263.458 92.0531 260.189 87.993 260.189C83.9329 260.189 80.6415 263.458 80.6415 267.491C80.6415 271.523 83.9329 274.792 87.993 274.792C92.0531 274.792 95.3445 271.523 95.3445 267.491Z" fill="black"/>
<path d="M60.6875 278.964C60.6875 274.792 57.5369 271.663 53.3361 271.663C49.1352 271.663 45.9846 274.792 45.9846 278.964C45.9846 283.137 49.1352 286.266 53.3361 286.266C57.1869 286.614 60.6875 283.137 60.6875 278.964Z" fill="black"/>
<path d="M42.4837 283.134C42.4837 278.961 39.333 275.832 35.1322 275.832C30.9313 275.832 27.7807 278.961 27.7807 283.134C27.7807 287.306 30.9313 290.435 35.1322 290.435C39.333 290.783 42.4837 287.306 42.4837 283.134Z" fill="black"/>
<path d="M6.07627 288.003C6.07627 283.97 2.7849 280.701 -1.27522 280.701C-5.33534 280.701 -8.62671 283.97 -8.62671 288.003C-8.62671 292.035 -5.33534 295.304 -1.27522 295.304C2.7849 295.304 6.07627 292.035 6.07627 288.003Z" fill="black"/>
<path d="M294.884 5.6707C294.884 1.49835 291.734 -1.63093 287.533 -1.63093C283.332 -1.63093 280.181 1.49835 280.181 5.6707C280.181 9.84305 283.332 12.9723 287.533 12.9723C291.384 13.32 294.884 9.84305 294.884 5.6707Z" fill="black"/>
<path d="M293.835 24.1008C293.835 19.9284 290.684 16.7991 286.483 16.7991C282.282 16.7991 279.132 19.9284 279.132 24.1008C279.132 28.2731 282.282 31.4023 286.483 31.4023C290.684 31.4023 293.835 28.2731 293.835 24.1008Z" fill="black"/>
<path d="M292.084 42.5292C292.084 38.3569 288.933 35.2276 284.733 35.2276C280.532 35.2276 277.381 38.3569 277.381 42.5292C277.381 46.7016 280.532 49.8308 284.733 49.8308C288.933 49.8308 292.084 46.3539 292.084 42.5292Z" fill="black"/>
<path d="M285.083 78.3405C285.083 74.1681 281.932 71.0389 277.731 71.0389C273.53 71.0389 270.38 74.1681 270.38 78.3405C270.38 82.5128 273.53 85.6421 277.731 85.6421C281.932 85.6421 285.083 82.5128 285.083 78.3405Z" fill="black"/>
<path d="M266.879 130.15C266.879 126.117 263.587 122.848 259.527 122.848C255.467 122.848 252.176 126.117 252.176 130.15C252.176 134.182 255.467 137.451 259.527 137.451C263.587 137.451 266.879 134.182 266.879 130.15Z" fill="black"/>
<path d="M258.479 146.487C258.479 142.315 255.328 139.186 251.127 139.186C246.926 139.186 243.776 142.315 243.776 146.487C243.776 150.66 246.926 153.789 251.127 153.789C255.328 153.789 258.479 150.66 258.479 146.487Z" fill="black"/>
<path d="M249.376 162.484C249.376 158.311 246.225 155.182 242.024 155.182C237.823 155.182 234.673 158.311 234.673 162.484C234.673 166.656 237.823 169.785 242.024 169.785C246.225 169.785 249.376 166.656 249.376 162.484Z" fill="black"/>
<path d="M239.224 177.783C239.224 173.611 236.073 170.481 231.872 170.481C227.671 170.481 224.521 173.611 224.521 177.783C224.521 181.955 227.671 185.085 231.872 185.085C236.073 185.432 239.224 181.955 239.224 177.783Z" fill="black"/>
<path d="M203.868 220.204C203.868 216.032 200.717 212.902 196.516 212.902C192.315 212.902 189.165 216.032 189.165 220.204C189.165 224.376 192.315 227.506 196.516 227.506C200.367 227.506 203.868 224.029 203.868 220.204Z" fill="black"/>
<path d="M190.213 232.72C190.213 228.547 187.063 225.418 182.862 225.418C178.661 225.418 175.51 228.547 175.51 232.72C175.51 236.892 178.661 240.021 182.862 240.021C187.063 240.021 190.213 236.544 190.213 232.72Z" fill="black"/>
<path d="M96.045 289.045C96.045 284.872 92.8943 281.743 88.6934 281.743C84.4926 281.743 81.342 284.872 81.342 289.045C81.342 293.217 84.4926 296.346 88.6934 296.346C92.5442 296.694 96.045 293.217 96.045 289.045Z" fill="black"/>
<path d="M78.5412 295.304C78.5412 291.272 75.2498 288.002 71.1897 288.002C67.1295 288.002 63.8382 291.272 63.8382 295.304C63.8382 299.337 67.1295 302.606 71.1897 302.606C75.2498 302.606 78.5412 299.337 78.5412 295.304Z" fill="black"/>
<path d="M60.6875 300.175C60.6875 296.003 57.5369 292.873 53.3361 292.873C49.1352 292.873 45.9846 296.003 45.9846 300.175C45.9846 304.347 49.1352 307.477 53.3361 307.477C57.5369 307.477 60.6875 304.347 60.6875 300.175Z" fill="black"/>
<path d="M42.8346 303.999C42.8346 299.827 39.6839 296.698 35.4831 296.698C31.2822 296.698 28.1316 299.827 28.1316 303.999C28.1316 308.172 31.2822 311.301 35.4831 311.301C39.3339 311.301 42.8346 308.172 42.8346 303.999Z" fill="black"/>
<path d="M6.07639 308.52C6.07639 304.347 2.92575 301.218 -1.2751 301.218C-5.47595 301.218 -8.62659 304.347 -8.62659 308.52C-8.62659 312.692 -5.47595 315.821 -1.2751 315.821C2.92576 316.169 6.07639 312.692 6.07639 308.52Z" fill="black"/>
<path d="M313.439 37.663C313.439 33.6304 310.148 30.3614 306.087 30.3614C302.027 30.3614 298.736 33.6304 298.736 37.663C298.736 41.6955 302.027 44.9646 306.087 44.9646C310.148 44.9646 313.439 41.6955 313.439 37.663Z" fill="black"/>
<path d="M302.938 91.5575C302.938 87.5249 299.646 84.2559 295.586 84.2559C291.526 84.2559 288.235 87.5249 288.235 91.5575C288.235 95.5901 291.526 98.8591 295.586 98.8591C299.646 98.8591 302.938 95.5901 302.938 91.5575Z" fill="black"/>
<path d="M297.336 109.288C297.336 105.255 294.045 101.986 289.985 101.986C285.925 101.986 282.633 105.255 282.633 109.288C282.633 113.32 285.925 116.589 289.985 116.589C294.045 116.589 297.336 113.32 297.336 109.288Z" fill="black"/>
<path d="M283.333 143.015C283.333 138.843 280.183 135.714 275.982 135.714C271.781 135.714 268.63 138.843 268.63 143.015C268.63 147.188 271.781 150.317 275.982 150.317C280.183 150.665 283.333 147.188 283.333 143.015Z" fill="black"/>
<path d="M356 119C356 111 351.071 105 344.5 105C337.929 105 333 111 333 119C333 127 337.929 133 344.5 133C351.071 133 356 126.333 356 119Z" fill="black"/>
<path d="M219.97 232.72C219.97 228.547 216.819 225.418 212.618 225.418C208.418 225.418 205.267 228.547 205.267 232.72C205.267 236.892 208.418 240.021 212.618 240.021C216.819 240.021 219.97 236.892 219.97 232.72Z" fill="black"/>
<path d="M177.962 268.533C177.962 264.36 174.811 261.231 170.61 261.231C166.409 261.231 163.259 264.36 163.259 268.533C163.259 272.705 166.409 275.834 170.61 275.834C174.461 275.834 177.962 272.705 177.962 268.533Z" fill="black"/>
<path d="M162.558 278.615C162.558 274.442 159.407 271.313 155.207 271.313C151.006 271.313 147.855 274.442 147.855 278.615C147.855 282.787 151.006 285.916 155.207 285.916C159.407 286.264 162.558 282.787 162.558 278.615Z" fill="black"/>
<path d="M146.804 288.004C146.804 283.832 143.654 280.703 139.453 280.703C135.252 280.703 132.101 283.832 132.101 288.004C132.101 292.177 135.252 295.306 139.453 295.306C143.304 295.654 146.804 292.177 146.804 288.004Z" fill="black"/>
<path d="M130.351 296.696C130.351 292.524 127.201 289.394 123 289.394C118.799 289.394 115.648 292.524 115.648 296.696C115.648 300.868 118.799 303.998 123 303.998C127.201 303.998 130.351 300.868 130.351 296.696Z" fill="black"/>
<path d="M113.548 304.346C113.548 300.313 110.257 297.044 106.196 297.044C102.136 297.044 98.845 300.313 98.845 304.346C98.845 308.378 102.136 311.647 106.196 311.647C110.257 311.647 113.548 308.378 113.548 304.346Z" fill="black"/>
<path d="M96.394 310.952C96.394 306.919 93.1027 303.65 89.0426 303.65C84.9824 303.65 81.691 306.919 81.691 310.952C81.691 314.984 84.9824 318.253 89.0426 318.253C93.1027 318.253 96.394 314.984 96.394 310.952Z" fill="black"/>
<path d="M335.843 -3.71426C335.843 -7.88661 332.692 -11.0159 328.492 -11.0159C324.291 -11.0159 321.14 -7.88661 321.14 -3.71426C321.14 0.45809 324.291 3.58732 328.492 3.58732C332.342 3.93501 335.843 0.458089 335.843 -3.71426Z" fill="black"/>
<path d="M332.343 51.2253C332.343 47.0529 329.193 43.9236 324.992 43.9236C320.791 43.9236 317.64 47.0529 317.64 51.2253C317.64 55.3976 320.791 58.5269 324.992 58.5269C329.193 58.5269 332.343 55.3976 332.343 51.2253Z" fill="black"/>
<path d="M325.342 87.3803C325.342 83.3477 322.05 80.0787 317.99 80.0787C313.93 80.0787 310.639 83.3477 310.639 87.3803C310.639 91.4128 313.93 94.6819 317.99 94.6819C322.05 94.6819 325.342 91.4128 325.342 87.3803Z" fill="black"/>
<path d="M307.837 139.536C307.837 135.364 304.687 132.235 300.486 132.235C296.285 132.235 293.134 135.364 293.134 139.536C293.134 143.709 296.285 146.838 300.486 146.838C304.337 146.838 307.837 143.361 307.837 139.536Z" fill="black"/>
<path d="M281.933 188.217C281.933 184.044 278.782 180.915 274.581 180.915C270.38 180.915 267.23 184.044 267.23 188.217C267.23 192.389 270.38 195.518 274.581 195.518C278.782 195.518 281.933 192.041 281.933 188.217Z" fill="black"/>
<path d="M194.415 281.745C194.415 277.712 191.123 274.443 187.063 274.443C183.003 274.443 179.712 277.712 179.712 281.745C179.712 285.778 183.003 289.047 187.063 289.047C191.123 289.047 194.415 285.778 194.415 281.745Z" fill="black"/>
<path d="M113.899 325.903C113.899 321.87 110.607 318.601 106.547 318.601C102.487 318.601 99.1957 321.87 99.1957 325.903C99.1957 329.936 102.487 333.205 106.547 333.205C110.607 333.205 113.899 329.936 113.899 325.903Z" fill="black"/>
<path d="M117 342C117 334 112.071 328 105.5 328C98.9286 328 94 334 94 342C94 350 98.9286 356 105.5 356C112.071 356 117 350 117 342Z" fill="black"/>
<path d="M33 361.5C33 353.786 28.0714 348 21.5 348C14.9286 348 10 353.786 10 361.5C10 369.214 14.9286 375 21.5 375C28.0714 375 33 368.571 33 361.5Z" fill="black"/>
<path d="M353.696 46.7014C353.696 42.529 350.546 39.3997 346.345 39.3997C342.144 39.3997 338.993 42.529 338.993 46.7014C338.993 50.8737 342.144 54.0029 346.345 54.0029C350.546 54.0029 353.696 50.8737 353.696 46.7014Z" fill="black"/>
<path d="M351.246 64.7828C351.246 60.6105 348.096 57.4812 343.895 57.4812C339.694 57.4812 336.543 60.6105 336.543 64.7828C336.543 68.9552 339.694 72.0845 343.895 72.0845C347.746 72.0845 351.246 68.9552 351.246 64.7828Z" fill="black"/>
<path d="M343.196 100.594C343.196 96.422 340.045 93.2928 335.844 93.2928C331.643 93.2928 328.493 96.422 328.493 100.594C328.493 104.767 331.643 107.896 335.844 107.896C340.045 107.896 343.196 104.767 343.196 100.594Z" fill="black"/>
<path d="M324.29 152.4C324.29 148.228 321.14 145.099 316.939 145.099C312.738 145.099 309.587 148.228 309.587 152.4C309.587 156.573 312.738 159.702 316.939 159.702C321.14 159.702 324.29 156.573 324.29 152.4Z" fill="black"/>
<path d="M316.59 169.09C316.59 165.057 313.298 161.788 309.238 161.788C305.178 161.788 301.887 165.057 301.887 169.09C301.887 173.123 305.178 176.392 309.238 176.392C313.298 176.392 316.59 173.123 316.59 169.09Z" fill="black"/>
<path d="M265.13 244.887C265.13 240.715 261.979 237.585 257.778 237.585C253.577 237.585 250.427 240.715 250.427 244.887C250.427 249.059 253.577 252.188 257.778 252.188C261.629 252.188 265.13 248.712 265.13 244.887Z" fill="black"/>
<path d="M33 400C33 392.268 27.8513 386 21.5 386C15.1488 386 10 392.268 10 400C10 407.732 15.1488 414 21.5 414C27.8513 414 33 407.732 33 400Z" fill="black"/>
<path d="M24.9815 389.183C24.9815 385.01 21.8309 381.881 17.6301 381.881C13.4292 381.881 10.2786 385.01 10.2786 389.183C10.2786 393.355 13.4292 396.484 17.6301 396.484C21.4808 396.484 24.9815 393.355 24.9815 389.183Z" fill="black"/>
</g>
<defs>
<clipPath id="clip0_0_4303">
<rect width="558" height="566" fill="white" transform="translate(-54 558) rotate(-90)"/>
</clipPath>
</defs>
</svg>
