<svg width="564" height="558" viewBox="0 0 564 558" fill="none" xmlns="http://www.w3.org/2000/svg">
<g opacity="0.08" clip-path="url(#clip0_0_5195)">
<path d="M525.878 555.105C525.878 559.277 529.029 562.406 533.229 562.406C537.43 562.406 540.581 559.277 540.581 555.105C540.581 550.933 537.43 547.803 533.229 547.803C529.379 547.803 525.878 551.28 525.878 555.105Z" fill="black"/>
<path d="M505.924 559.975C505.924 564.148 509.074 567.277 513.275 567.277C517.476 567.277 520.627 564.148 520.627 559.975C520.627 555.803 517.476 552.674 513.275 552.674C509.074 552.674 505.924 555.803 505.924 559.975Z" fill="black"/>
<path d="M509.774 542.589C509.774 546.762 512.925 549.891 517.126 549.891C521.326 549.891 524.477 546.762 524.477 542.589C524.477 538.417 521.326 535.288 517.126 535.288C512.925 535.288 509.774 538.417 509.774 542.589Z" fill="black"/>
<path d="M525.878 534.939C525.878 539.112 529.029 542.241 533.23 542.241C537.43 542.241 540.581 539.112 540.581 534.939C540.581 530.767 537.43 527.638 533.23 527.638C529.029 527.29 525.878 530.767 525.878 534.939Z" fill="black"/>
<path d="M541.98 542.589C541.98 546.762 545.131 549.891 549.332 549.891C553.533 549.891 556.683 546.762 556.683 542.589C556.683 538.417 553.533 535.288 549.332 535.288C545.131 535.288 541.98 538.417 541.98 542.589Z" fill="black"/>
<path d="M546.181 559.626C546.181 563.658 549.473 566.927 553.533 566.927C557.593 566.927 560.884 563.658 560.884 559.626C560.884 555.593 557.593 552.324 553.533 552.324C549.473 552.324 546.181 555.593 546.181 559.626Z" fill="black"/>
<path d="M485.969 564.495C485.969 568.667 489.12 571.796 493.321 571.796C497.522 571.796 500.672 568.667 500.672 564.495C500.672 560.322 497.522 557.193 493.321 557.193C489.12 557.193 485.969 560.322 485.969 564.495Z" fill="black"/>
<path d="M485.969 546.413C485.969 550.446 489.261 553.715 493.321 553.715C497.381 553.715 500.672 550.446 500.672 546.413C500.672 542.381 497.381 539.112 493.321 539.112C489.261 539.112 485.969 542.381 485.969 546.413Z" fill="black"/>
<path d="M493.672 530.07C493.672 534.243 496.822 537.372 501.023 537.372C505.224 537.372 508.375 534.243 508.375 530.07C508.375 525.898 505.224 522.769 501.023 522.769C496.822 522.421 493.672 525.898 493.672 530.07Z" fill="black"/>
<path d="M508.023 518.6C508.023 522.772 511.174 525.901 515.375 525.901C519.576 525.901 522.726 522.772 522.726 518.6C522.726 514.427 519.576 511.298 515.375 511.298C511.174 511.298 508.023 514.427 508.023 518.6Z" fill="black"/>
<path d="M525.527 514.426C525.527 518.598 528.678 521.727 532.879 521.727C537.08 521.727 540.23 518.598 540.23 514.426C540.23 510.253 537.08 507.124 532.879 507.124C529.028 507.124 525.527 510.253 525.527 514.426Z" fill="black"/>
<path d="M543.731 518.251C543.731 522.424 546.881 525.553 551.082 525.553C555.283 525.553 558.434 522.424 558.434 518.251C558.434 514.079 555.283 510.95 551.082 510.95C546.881 510.95 543.731 514.427 543.731 518.251Z" fill="black"/>
<path d="M558.084 529.727C558.084 533.899 561.235 537.028 565.436 537.028C569.637 537.028 572.787 533.899 572.787 529.727C572.787 525.554 569.637 522.425 565.436 522.425C561.235 522.077 558.084 525.554 558.084 529.727Z" fill="black"/>
<path d="M464.265 550.932C464.265 555.105 467.416 558.234 471.617 558.234C475.818 558.234 478.968 555.105 478.968 550.932C478.968 546.76 475.818 543.631 471.617 543.631C467.766 543.631 464.265 546.76 464.265 550.932Z" fill="black"/>
<path d="M468.466 533.201C468.466 537.373 471.617 540.502 475.818 540.502C480.019 540.502 483.169 537.373 483.169 533.201C483.169 529.028 480.019 525.899 475.818 525.899C471.617 525.899 468.466 529.028 468.466 533.201Z" fill="black"/>
<path d="M477.567 517.211C477.567 521.383 480.718 524.513 484.919 524.513C489.119 524.513 492.27 521.383 492.27 517.211C492.27 513.039 489.119 509.909 484.919 509.909C480.718 509.909 477.567 513.039 477.567 517.211Z" fill="black"/>
<path d="M490.871 504.692C490.871 508.725 494.162 511.994 498.222 511.994C502.282 511.994 505.574 508.725 505.574 504.692C505.574 500.66 502.282 497.391 498.222 497.391C494.162 497.391 490.871 500.66 490.871 504.692Z" fill="black"/>
<path d="M507.324 496.696C507.324 500.868 510.474 503.997 514.675 503.997C518.876 503.997 522.027 500.868 522.027 496.696C522.027 492.523 518.876 489.394 514.675 489.394C510.474 489.394 507.324 492.523 507.324 496.696Z" fill="black"/>
<path d="M525.527 493.91C525.527 498.083 528.678 501.212 532.879 501.212C537.08 501.212 540.23 498.083 540.23 493.91C540.23 489.738 537.08 486.609 532.879 486.609C529.028 486.609 525.527 489.738 525.527 493.91Z" fill="black"/>
<path d="M543.731 496.696C543.731 500.728 547.022 503.997 551.082 503.997C555.143 503.997 558.434 500.728 558.434 496.696C558.434 492.663 555.143 489.394 551.082 489.394C547.022 489.394 543.731 492.663 543.731 496.696Z" fill="black"/>
<path d="M560.535 504.342C560.535 508.515 563.685 511.644 567.886 511.644C572.087 511.644 575.238 508.515 575.238 504.342C575.238 500.17 572.087 497.041 567.886 497.041C563.685 497.041 560.535 500.518 560.535 504.342Z" fill="black"/>
<path d="M443.612 555.803C443.612 559.976 446.762 563.105 450.963 563.105C455.164 563.105 458.315 559.976 458.315 555.803C458.315 551.631 455.164 548.502 450.963 548.502C446.762 548.154 443.612 551.631 443.612 555.803Z" fill="black"/>
<path d="M445.711 537.375C445.711 541.547 448.862 544.676 453.063 544.676C457.264 544.676 460.414 541.547 460.414 537.375C460.414 533.202 457.264 530.073 453.063 530.073C448.862 530.073 445.711 533.55 445.711 537.375Z" fill="black"/>
<path d="M451.663 519.992C451.663 524.164 454.813 527.293 459.014 527.293C463.215 527.293 466.366 524.164 466.366 519.992C466.366 515.819 463.215 512.69 459.014 512.69C454.813 512.69 451.663 516.167 451.663 519.992Z" fill="black"/>
<path d="M461.465 504.692C461.465 508.865 464.615 511.994 468.816 511.994C473.017 511.994 476.167 508.865 476.167 504.692C476.167 500.52 473.017 497.391 468.816 497.391C464.615 497.391 461.465 500.52 461.465 504.692Z" fill="black"/>
<path d="M474.416 491.478C474.416 495.511 477.708 498.78 481.768 498.78C485.828 498.78 489.119 495.511 489.119 491.478C489.119 487.446 485.828 484.177 481.768 484.177C477.708 484.177 474.416 487.446 474.416 491.478Z" fill="black"/>
<path d="M489.82 481.745C489.82 485.917 492.97 489.047 497.171 489.047C501.372 489.047 504.523 485.917 504.523 481.745C504.523 477.573 501.372 474.443 497.171 474.443C492.97 474.443 489.82 477.573 489.82 481.745Z" fill="black"/>
<path d="M507.324 475.487C507.324 479.52 510.615 482.789 514.675 482.789C518.735 482.789 522.026 479.52 522.026 475.487C522.026 471.455 518.735 468.186 514.675 468.186C510.615 468.186 507.324 471.455 507.324 475.487Z" fill="black"/>
<path d="M525.527 473.395C525.527 477.568 528.678 480.697 532.879 480.697C537.08 480.697 540.23 477.568 540.23 473.395C540.23 469.223 537.08 466.094 532.879 466.094C528.678 466.094 525.527 469.571 525.527 473.395Z" fill="black"/>
<path d="M543.731 475.487C543.731 479.659 546.881 482.789 551.082 482.789C555.283 482.789 558.434 479.659 558.434 475.487C558.434 471.315 555.283 468.186 551.082 468.186C547.232 468.186 543.731 471.315 543.731 475.487Z" fill="black"/>
<path d="M561.234 481.398C561.234 485.431 564.525 488.7 568.585 488.7C572.645 488.7 575.937 485.431 575.937 481.398C575.937 477.365 572.645 474.096 568.585 474.096C564.525 474.096 561.234 477.365 561.234 481.398Z" fill="black"/>
<path d="M423.307 560.322C423.307 564.494 426.457 567.624 430.658 567.624C434.859 567.624 438.01 564.494 438.01 560.322C438.01 556.15 434.859 553.021 430.658 553.021C426.457 553.021 423.307 556.15 423.307 560.322Z" fill="black"/>
<path d="M424.007 541.896C424.007 546.068 427.158 549.197 431.359 549.197C435.56 549.197 438.71 546.068 438.71 541.896C438.71 537.723 435.56 534.594 431.359 534.594C427.158 534.594 424.007 538.071 424.007 541.896Z" fill="black"/>
<path d="M427.858 524.162C427.858 528.335 431.008 531.464 435.209 531.464C439.41 531.464 442.561 528.335 442.561 524.162C442.561 519.99 439.41 516.861 435.209 516.861C431.358 516.861 427.858 519.99 427.858 524.162Z" fill="black"/>
<path d="M435.21 507.126C435.21 511.159 438.501 514.428 442.562 514.428C446.622 514.428 449.913 511.159 449.913 507.126C449.913 503.094 446.622 499.824 442.562 499.824C438.501 499.824 435.21 503.094 435.21 507.126Z" fill="black"/>
<path d="M445.012 491.828C445.012 496.001 448.162 499.13 452.363 499.13C456.564 499.13 459.714 496.001 459.714 491.828C459.714 487.656 456.564 484.527 452.363 484.527C448.162 484.527 445.012 488.004 445.012 491.828Z" fill="black"/>
<path d="M457.963 478.613C457.963 482.645 461.255 485.914 465.315 485.914C469.375 485.914 472.666 482.645 472.666 478.613C472.666 474.58 469.375 471.311 465.315 471.311C461.255 471.311 457.963 474.58 457.963 478.613Z" fill="black"/>
<path d="M472.667 467.836C472.667 471.868 475.959 475.137 480.019 475.137C484.079 475.137 487.37 471.868 487.37 467.836C487.37 463.803 484.079 460.534 480.019 460.534C475.959 460.534 472.667 463.803 472.667 467.836Z" fill="black"/>
<path d="M489.12 459.838C489.12 464.01 492.271 467.139 496.471 467.139C500.672 467.139 503.823 464.01 503.823 459.838C503.823 455.665 500.672 452.536 496.471 452.536C492.621 452.536 489.12 455.665 489.12 459.838Z" fill="black"/>
<path d="M506.973 454.972C506.973 459.144 510.124 462.273 514.325 462.273C518.526 462.273 521.676 459.144 521.676 454.972C521.676 450.8 518.526 447.67 514.325 447.67C510.474 447.323 506.973 450.8 506.973 454.972Z" fill="black"/>
<path d="M525.527 453.233C525.527 457.266 528.819 460.535 532.879 460.535C536.939 460.535 540.23 457.266 540.23 453.233C540.23 449.201 536.939 445.932 532.879 445.932C528.819 445.932 525.527 449.201 525.527 453.233Z" fill="black"/>
<path d="M543.731 454.623C543.731 458.656 547.022 461.925 551.082 461.925C555.142 461.925 558.434 458.656 558.434 454.623C558.434 450.591 555.142 447.322 551.082 447.322C547.022 447.322 543.731 450.591 543.731 454.623Z" fill="black"/>
<path d="M561.584 459.489C561.584 463.662 564.735 466.791 568.936 466.791C573.137 466.791 576.287 463.662 576.287 459.489C576.287 455.317 573.137 452.188 568.936 452.188C564.735 452.188 561.584 455.317 561.584 459.489Z" fill="black"/>
<path d="M403.003 565.188C403.003 569.36 406.154 572.49 410.354 572.49C414.555 572.49 417.706 569.36 417.706 565.188C417.706 561.016 414.555 557.887 410.354 557.887C406.154 557.539 403.003 561.016 403.003 565.188Z" fill="black"/>
<path d="M402.653 546.763C402.653 550.935 405.804 554.065 410.005 554.065C414.205 554.065 417.356 550.935 417.356 546.763C417.356 542.591 414.205 539.461 410.005 539.461C406.154 539.461 402.653 542.591 402.653 546.763Z" fill="black"/>
<path d="M405.453 528.683C405.453 532.856 408.604 535.985 412.805 535.985C417.006 535.985 420.156 532.856 420.156 528.683C420.156 524.511 417.006 521.382 412.805 521.382C408.604 521.034 405.453 524.511 405.453 528.683Z" fill="black"/>
<path d="M410.704 510.949C410.704 515.121 413.855 518.25 418.056 518.25C422.256 518.25 425.407 515.121 425.407 510.949C425.407 506.776 422.256 503.647 418.056 503.647C414.205 503.647 410.704 507.124 410.704 510.949Z" fill="black"/>
<path d="M418.755 494.607C418.755 498.78 421.906 501.909 426.107 501.909C430.308 501.909 433.458 498.78 433.458 494.607C433.458 490.435 430.308 487.306 426.107 487.306C421.906 486.958 418.755 490.435 418.755 494.607Z" fill="black"/>
<path d="M428.907 479.309C428.907 483.482 432.058 486.611 436.259 486.611C440.46 486.611 443.61 483.482 443.61 479.309C443.61 475.137 440.46 472.008 436.259 472.008C432.408 472.008 428.907 475.137 428.907 479.309Z" fill="black"/>
<path d="M441.51 465.749C441.51 469.921 444.661 473.05 448.862 473.05C453.063 473.05 456.213 469.921 456.213 465.749C456.213 461.576 453.063 458.447 448.862 458.447C444.661 458.447 441.51 461.576 441.51 465.749Z" fill="black"/>
<path d="M455.864 454.273C455.864 458.446 459.014 461.575 463.215 461.575C467.416 461.575 470.567 458.446 470.567 454.273C470.567 450.101 467.416 446.972 463.215 446.972C459.014 446.972 455.864 450.101 455.864 454.273Z" fill="black"/>
<path d="M471.617 444.887C471.617 449.059 474.768 452.188 478.969 452.188C483.17 452.188 486.32 449.059 486.32 444.887C486.32 440.714 483.17 437.585 478.969 437.585C475.118 437.585 471.617 441.062 471.617 444.887Z" fill="black"/>
<path d="M488.77 438.282C488.77 442.454 491.92 445.584 496.121 445.584C500.322 445.584 503.473 442.454 503.473 438.282C503.473 434.11 500.322 430.98 496.121 430.98C492.271 430.98 488.77 434.11 488.77 438.282Z" fill="black"/>
<path d="M506.973 434.11C506.973 438.142 510.265 441.411 514.325 441.411C518.385 441.411 521.676 438.142 521.676 434.11C521.676 430.077 518.385 426.808 514.325 426.808C510.265 426.808 506.973 430.077 506.973 434.11Z" fill="black"/>
<path d="M525.177 432.718C525.177 436.75 528.469 440.019 532.529 440.019C536.589 440.019 539.88 436.75 539.88 432.718C539.88 428.685 536.589 425.416 532.529 425.416C528.469 425.416 525.177 428.685 525.177 432.718Z" fill="black"/>
<path d="M543.731 433.761C543.731 437.934 546.881 441.063 551.082 441.063C555.283 441.063 558.434 437.934 558.434 433.761C558.434 429.589 555.283 426.46 551.082 426.46C546.881 426.46 543.731 429.937 543.731 433.761Z" fill="black"/>
<path d="M561.584 437.934C561.584 442.106 564.735 445.235 568.936 445.235C573.137 445.235 576.287 442.106 576.287 437.934C576.287 433.761 573.137 430.632 568.936 430.632C565.085 430.632 561.584 433.761 561.584 437.934Z" fill="black"/>
<path d="M381.999 551.281C381.999 555.453 385.15 558.582 389.351 558.582C393.551 558.582 396.702 555.453 396.702 551.281C396.702 547.108 393.551 543.979 389.351 543.979C385.15 543.979 381.999 547.456 381.999 551.281Z" fill="black"/>
<path d="M383.748 533.201C383.748 537.373 386.898 540.502 391.099 540.502C395.3 540.502 398.451 537.373 398.451 533.201C398.451 529.028 395.3 525.899 391.099 525.899C386.898 525.899 383.748 529.028 383.748 533.201Z" fill="black"/>
<path d="M387.6 515.124C387.6 519.296 390.75 522.426 394.951 522.426C399.152 522.426 402.303 519.296 402.303 515.124C402.303 510.952 399.152 507.823 394.951 507.823C391.1 507.823 387.6 511.299 387.6 515.124Z" fill="black"/>
<path d="M393.901 498.085C393.901 502.257 397.051 505.386 401.252 505.386C405.453 505.386 408.604 502.257 408.604 498.085C408.604 493.912 405.453 490.783 401.252 490.783C397.051 490.783 393.901 493.912 393.901 498.085Z" fill="black"/>
<path d="M402.302 481.745C402.302 485.917 405.453 489.047 409.654 489.047C413.855 489.047 417.005 485.917 417.005 481.745C417.005 477.573 413.855 474.443 409.654 474.443C405.803 474.443 402.302 477.573 402.302 481.745Z" fill="black"/>
<path d="M412.805 466.442C412.805 470.615 415.956 473.744 420.157 473.744C424.357 473.744 427.508 470.615 427.508 466.442C427.508 462.27 424.357 459.141 420.157 459.141C416.306 459.141 412.805 462.618 412.805 466.442Z" fill="black"/>
<path d="M425.057 452.885C425.057 457.057 428.208 460.186 432.409 460.186C436.61 460.186 439.76 457.057 439.76 452.885C439.76 448.712 436.61 445.583 432.409 445.583C428.558 445.583 425.057 449.06 425.057 452.885Z" fill="black"/>
<path d="M439.06 441.063C439.06 445.235 442.211 448.364 446.412 448.364C450.613 448.364 453.763 445.235 453.763 441.063C453.763 436.89 450.613 433.761 446.412 433.761C442.561 433.761 439.06 436.89 439.06 441.063Z" fill="black"/>
<path d="M454.464 430.981C454.464 435.153 457.614 438.282 461.815 438.282C466.016 438.282 469.167 435.153 469.167 430.981C469.167 426.808 466.016 423.679 461.815 423.679C457.964 423.679 454.464 426.808 454.464 430.981Z" fill="black"/>
<path d="M471.267 422.984C471.267 427.157 474.417 430.286 478.618 430.286C482.819 430.286 485.97 427.157 485.97 422.984C485.97 418.812 482.819 415.683 478.618 415.683C474.417 415.683 471.267 418.812 471.267 422.984Z" fill="black"/>
<path d="M488.77 417.068C488.77 421.241 491.92 424.37 496.121 424.37C500.322 424.37 503.473 421.241 503.473 417.068C503.473 412.896 500.322 409.767 496.121 409.767C491.92 409.767 488.77 412.896 488.77 417.068Z" fill="black"/>
<path d="M506.623 413.595C506.623 417.767 509.773 420.896 513.974 420.896C518.175 420.896 521.326 417.767 521.326 413.595C521.326 409.422 518.175 406.293 513.974 406.293C510.123 405.945 506.623 409.422 506.623 413.595Z" fill="black"/>
<path d="M525.177 412.202C525.177 416.375 528.328 419.504 532.529 419.504C536.729 419.504 539.88 416.375 539.88 412.202C539.88 408.03 536.729 404.901 532.529 404.901C528.328 404.901 525.177 408.03 525.177 412.202Z" fill="black"/>
<path d="M543.731 413.246C543.731 417.419 546.881 420.548 551.082 420.548C555.283 420.548 558.434 417.419 558.434 413.246C558.434 409.074 555.283 405.945 551.082 405.945C546.881 405.945 543.731 409.074 543.731 413.246Z" fill="black"/>
<path d="M561.585 416.725C561.585 420.897 564.735 424.027 568.936 424.027C573.137 424.027 576.288 420.897 576.288 416.725C576.288 412.553 573.137 409.423 568.936 409.423C565.085 409.423 561.585 412.553 561.585 416.725Z" fill="black"/>
<path d="M361.344 556.151C361.344 560.324 364.494 563.453 368.695 563.453C372.896 563.453 376.047 560.324 376.047 556.151C376.047 551.979 372.896 548.85 368.695 548.85C364.494 548.85 361.344 551.979 361.344 556.151Z" fill="black"/>
<path d="M362.395 537.722C362.395 541.894 365.546 545.023 369.747 545.023C373.948 545.023 377.098 541.894 377.098 537.722C377.098 533.549 373.948 530.42 369.747 530.42C365.546 530.42 362.395 533.549 362.395 537.722Z" fill="black"/>
<path d="M365.196 519.639C365.196 523.811 368.346 526.94 372.547 526.94C376.748 526.94 379.899 523.811 379.899 519.639C379.899 515.466 376.748 512.337 372.547 512.337C368.696 512.337 365.196 515.466 365.196 519.639Z" fill="black"/>
<path d="M370.095 501.908C370.095 506.081 373.246 509.21 377.447 509.21C381.648 509.21 384.798 506.081 384.798 501.908C384.798 497.736 381.648 494.607 377.447 494.607C373.596 494.607 370.095 498.084 370.095 501.908Z" fill="black"/>
<path d="M377.448 485.222C377.448 489.255 380.739 492.524 384.799 492.524C388.859 492.524 392.151 489.255 392.151 485.222C392.151 481.189 388.859 477.92 384.799 477.92C380.739 477.92 377.448 481.189 377.448 485.222Z" fill="black"/>
<path d="M386.2 468.878C386.2 473.05 389.351 476.179 393.552 476.179C397.752 476.179 400.903 473.05 400.903 468.878C400.903 464.705 397.752 461.576 393.552 461.576C389.351 461.576 386.2 465.053 386.2 468.878Z" fill="black"/>
<path d="M396.701 453.927C396.701 457.959 399.993 461.228 404.053 461.228C408.113 461.228 411.404 457.959 411.404 453.927C411.404 449.894 408.113 446.625 404.053 446.625C399.993 446.625 396.701 449.894 396.701 453.927Z" fill="black"/>
<path d="M408.953 440.368C408.953 444.54 412.104 447.669 416.305 447.669C420.506 447.669 423.656 444.54 423.656 440.368C423.656 436.195 420.506 433.066 416.305 433.066C412.104 432.718 408.953 436.195 408.953 440.368Z" fill="black"/>
<path d="M422.607 427.85C422.607 432.023 425.758 435.152 429.959 435.152C434.16 435.152 437.31 432.023 437.31 427.85C437.31 423.678 434.16 420.549 429.959 420.549C426.108 420.549 422.607 424.026 422.607 427.85Z" fill="black"/>
<path d="M437.66 417.419C437.66 421.591 440.81 424.72 445.011 424.72C449.212 424.72 452.363 421.591 452.363 417.419C452.363 413.246 449.212 410.117 445.011 410.117C440.81 409.769 437.66 413.246 437.66 417.419Z" fill="black"/>
<path d="M453.762 408.38C453.762 412.553 456.913 415.682 461.114 415.682C465.315 415.682 468.465 412.553 468.465 408.38C468.465 404.208 465.315 401.079 461.114 401.079C456.913 401.079 453.762 404.208 453.762 408.38Z" fill="black"/>
<path d="M470.916 401.08C470.916 405.113 474.208 408.382 478.268 408.382C482.328 408.382 485.619 405.113 485.619 401.08C485.619 397.048 482.328 393.779 478.268 393.779C474.208 393.779 470.916 397.048 470.916 401.08Z" fill="black"/>
<path d="M488.419 396.21C488.419 400.382 491.57 403.511 495.771 403.511C499.971 403.511 503.122 400.382 503.122 396.21C503.122 392.038 499.971 388.908 495.771 388.908C491.92 388.561 488.419 392.038 488.419 396.21Z" fill="black"/>
<path d="M506.623 392.733C506.623 396.905 509.773 400.034 513.974 400.034C518.175 400.034 521.326 396.905 521.326 392.733C521.326 388.56 518.175 385.431 513.974 385.431C510.123 385.431 506.623 388.908 506.623 392.733Z" fill="black"/>
<path d="M525.177 391.691C525.177 395.863 528.328 398.992 532.529 398.992C536.729 398.992 539.88 395.863 539.88 391.691C539.88 387.518 536.729 384.389 532.529 384.389C528.328 384.389 525.177 387.866 525.177 391.691Z" fill="black"/>
<path d="M543.381 392.733C543.381 396.905 546.532 400.034 550.732 400.034C554.933 400.034 558.084 396.905 558.084 392.733C558.084 388.56 554.933 385.431 550.732 385.431C546.882 385.431 543.381 388.56 543.381 392.733Z" fill="black"/>
<path d="M561.584 395.516C561.584 399.689 564.735 402.818 568.936 402.818C573.137 402.818 576.287 399.689 576.287 395.516C576.287 391.344 573.137 388.215 568.936 388.215C565.085 388.215 561.584 391.692 561.584 395.516Z" fill="black"/>
<path d="M340.69 560.669C340.69 564.841 343.84 567.971 348.041 567.971C352.242 567.971 355.393 564.841 355.393 560.669C355.393 556.497 352.242 553.367 348.041 553.367C344.19 553.367 340.69 556.844 340.69 560.669Z" fill="black"/>
<path d="M341.04 542.591C341.04 546.763 344.191 549.892 348.392 549.892C352.593 549.892 355.743 546.763 355.743 542.591C355.743 538.418 352.593 535.289 348.392 535.289C344.541 534.941 341.04 538.418 341.04 542.591Z" fill="black"/>
<path d="M343.49 524.162C343.49 528.335 346.641 531.464 350.842 531.464C355.042 531.464 358.193 528.335 358.193 524.162C358.193 519.99 355.042 516.861 350.842 516.861C346.641 516.861 343.49 519.99 343.49 524.162Z" fill="black"/>
<path d="M347.34 506.431C347.34 510.464 350.632 513.733 354.692 513.733C358.752 513.733 362.043 510.464 362.043 506.431C362.043 502.398 358.752 499.129 354.692 499.129C350.632 499.129 347.34 502.398 347.34 506.431Z" fill="black"/>
<path d="M353.292 489.046C353.292 493.219 356.443 496.348 360.644 496.348C364.845 496.348 367.995 493.219 367.995 489.046C367.995 484.874 364.845 481.745 360.644 481.745C356.443 481.397 353.292 484.874 353.292 489.046Z" fill="black"/>
<path d="M360.644 472.008C360.644 476.041 363.935 479.31 367.995 479.31C372.056 479.31 375.347 476.041 375.347 472.008C375.347 467.976 372.056 464.707 367.995 464.707C363.935 464.707 360.644 467.976 360.644 472.008Z" fill="black"/>
<path d="M369.745 456.359C369.745 460.531 372.896 463.66 377.097 463.66C381.298 463.66 384.448 460.531 384.448 456.359C384.448 452.186 381.298 449.057 377.097 449.057C373.246 448.71 369.745 452.186 369.745 456.359Z" fill="black"/>
<path d="M380.599 441.413C380.599 445.445 383.89 448.714 387.95 448.714C392.01 448.714 395.302 445.445 395.302 441.413C395.302 437.38 392.01 434.111 387.95 434.111C383.89 434.111 380.599 437.38 380.599 441.413Z" fill="black"/>
<path d="M392.851 427.502C392.851 431.674 396.001 434.803 400.202 434.803C404.403 434.803 407.554 431.674 407.554 427.502C407.554 423.329 404.403 420.2 400.202 420.2C396.001 420.2 392.851 423.329 392.851 427.502Z" fill="black"/>
<path d="M406.153 414.986C406.153 419.159 409.303 422.288 413.504 422.288C417.705 422.288 420.856 419.159 420.856 414.986C420.856 410.814 417.705 407.685 413.504 407.685C409.303 407.685 406.153 410.814 406.153 414.986Z" fill="black"/>
<path d="M420.857 403.856C420.857 408.029 424.007 411.158 428.208 411.158C432.409 411.158 435.56 408.029 435.56 403.856C435.56 399.684 432.409 396.555 428.208 396.555C424.007 396.555 420.857 399.684 420.857 403.856Z" fill="black"/>
<path d="M436.61 394.123C436.61 398.295 439.76 401.424 443.961 401.424C448.162 401.424 451.313 398.295 451.313 394.123C451.313 389.95 448.162 386.821 443.961 386.821C439.76 386.821 436.61 389.95 436.61 394.123Z" fill="black"/>
<path d="M453.063 386.126C453.063 390.299 456.214 393.428 460.414 393.428C464.615 393.428 467.766 390.299 467.766 386.126C467.766 381.954 464.615 378.825 460.414 378.825C456.564 378.825 453.063 381.954 453.063 386.126Z" fill="black"/>
<path d="M470.566 379.872C470.566 384.044 473.716 387.173 477.917 387.173C482.118 387.173 485.269 384.044 485.269 379.872C485.269 375.699 482.118 372.57 477.917 372.57C473.716 372.57 470.566 375.699 470.566 379.872Z" fill="black"/>
<path d="M488.419 375.001C488.419 379.173 491.57 382.302 495.771 382.302C499.971 382.302 503.122 379.173 503.122 375.001C503.122 370.828 499.971 367.699 495.771 367.699C491.57 367.699 488.419 371.176 488.419 375.001Z" fill="black"/>
<path d="M506.623 372.22C506.623 376.253 509.914 379.522 513.974 379.522C518.034 379.522 521.326 376.253 521.326 372.22C521.326 368.188 518.034 364.919 513.974 364.919C509.914 364.919 506.623 368.188 506.623 372.22Z" fill="black"/>
<path d="M524.827 371.18C524.827 375.352 527.977 378.482 532.178 378.482C536.379 378.482 539.529 375.352 539.529 371.18C539.529 367.008 536.379 363.878 532.178 363.878C528.327 363.878 524.827 367.355 524.827 371.18Z" fill="black"/>
<path d="M543.381 372.22C543.381 376.393 546.532 379.522 550.732 379.522C554.933 379.522 558.084 376.393 558.084 372.22C558.084 368.048 554.933 364.919 550.732 364.919C546.882 364.919 543.381 368.048 543.381 372.22Z" fill="black"/>
<path d="M561.584 374.654C561.584 378.826 564.735 381.956 568.936 381.956C573.137 381.956 576.287 378.826 576.287 374.654C576.287 370.482 573.137 367.353 568.936 367.353C565.085 367.353 561.584 370.829 561.584 374.654Z" fill="black"/>
<path d="M320.386 547.111C320.386 551.284 323.536 554.413 327.737 554.413C331.938 554.413 335.089 551.284 335.089 547.111C335.089 542.939 331.938 539.81 327.737 539.81C323.536 539.81 320.386 542.939 320.386 547.111Z" fill="black"/>
<path d="M321.786 528.683C321.786 532.856 324.937 535.985 329.138 535.985C333.339 535.985 336.489 532.856 336.489 528.683C336.489 524.511 333.339 521.382 329.138 521.382C325.287 521.382 321.786 524.859 321.786 528.683Z" fill="black"/>
<path d="M324.936 510.602C324.936 514.774 328.087 517.903 332.288 517.903C336.489 517.903 339.639 514.774 339.639 510.602C339.639 506.429 336.489 503.3 332.288 503.3C328.437 503.3 324.936 506.777 324.936 510.602Z" fill="black"/>
<path d="M329.838 493.217C329.838 497.389 332.988 500.519 337.189 500.519C341.39 500.519 344.541 497.389 344.541 493.217C344.541 489.045 341.39 485.915 337.189 485.915C333.339 485.568 329.838 489.045 329.838 493.217Z" fill="black"/>
<path d="M336.138 475.832C336.138 480.005 339.289 483.134 343.49 483.134C347.691 483.134 350.841 480.005 350.841 475.832C350.841 471.66 347.691 468.531 343.49 468.531C339.289 468.531 336.138 471.66 336.138 475.832Z" fill="black"/>
<path d="M344.191 459.144C344.191 463.316 347.342 466.446 351.543 466.446C355.744 466.446 358.894 463.316 358.894 459.144C358.894 454.972 355.744 451.843 351.543 451.843C347.692 451.843 344.191 455.319 344.191 459.144Z" fill="black"/>
<path d="M353.643 443.5C353.643 447.672 356.794 450.801 360.994 450.801C365.195 450.801 368.346 447.672 368.346 443.5C368.346 439.327 365.195 436.198 360.994 436.198C356.794 436.198 353.643 439.327 353.643 443.5Z" fill="black"/>
<path d="M364.494 428.549C364.494 432.721 367.645 435.85 371.846 435.85C376.047 435.85 379.197 432.721 379.197 428.549C379.197 424.376 376.047 421.247 371.846 421.247C367.645 421.247 364.494 424.724 364.494 428.549Z" fill="black"/>
<path d="M376.398 414.638C376.398 418.81 379.548 421.94 383.749 421.94C387.95 421.94 391.101 418.81 391.101 414.638C391.101 410.466 387.95 407.336 383.749 407.336C379.548 407.336 376.398 410.813 376.398 414.638Z" fill="black"/>
<path d="M389.7 402.122C389.7 406.295 392.85 409.424 397.051 409.424C401.252 409.424 404.403 406.295 404.403 402.122C404.403 397.95 401.252 394.821 397.051 394.821C393.2 394.821 389.7 397.95 389.7 402.122Z" fill="black"/>
<path d="M404.053 390.649C404.053 394.821 407.203 397.95 411.404 397.95C415.605 397.95 418.756 394.821 418.756 390.649C418.756 386.476 415.605 383.347 411.404 383.347C407.554 382.999 404.053 386.476 404.053 390.649Z" fill="black"/>
<path d="M419.456 380.215C419.456 384.388 422.607 387.517 426.808 387.517C431.009 387.517 434.159 384.388 434.159 380.215C434.159 376.043 431.009 372.914 426.808 372.914C422.957 372.914 419.456 376.391 419.456 380.215Z" fill="black"/>
<path d="M435.559 371.524C435.559 375.696 438.709 378.825 442.91 378.825C447.111 378.825 450.262 375.696 450.262 371.524C450.262 367.351 447.111 364.222 442.91 364.222C439.059 364.222 435.559 367.351 435.559 371.524Z" fill="black"/>
<path d="M452.712 364.222C452.712 368.395 455.863 371.524 460.064 371.524C464.265 371.524 467.415 368.395 467.415 364.222C467.415 360.05 464.265 356.921 460.064 356.921C455.863 356.921 452.712 360.05 452.712 364.222Z" fill="black"/>
<path d="M470.217 358.663C470.217 362.835 473.367 365.964 477.568 365.964C481.769 365.964 484.92 362.835 484.92 358.663C484.92 354.49 481.769 351.361 477.568 351.361C473.367 351.013 470.217 354.49 470.217 358.663Z" fill="black"/>
<path d="M488.07 354.486C488.07 358.658 491.221 361.787 495.422 361.787C499.623 361.787 502.773 358.658 502.773 354.486C502.773 350.313 499.623 347.184 495.422 347.184C491.571 346.836 488.07 350.313 488.07 354.486Z" fill="black"/>
<path d="M506.623 351.707C506.623 355.739 509.914 359.008 513.974 359.008C518.034 359.008 521.326 355.739 521.326 351.707C521.326 347.674 518.034 344.405 513.974 344.405C509.914 344.405 506.623 347.674 506.623 351.707Z" fill="black"/>
<path d="M524.827 351.01C524.827 355.042 528.118 358.311 532.178 358.311C536.238 358.311 539.529 355.042 539.529 351.01C539.529 346.977 536.238 343.708 532.178 343.708C528.118 343.708 524.827 346.977 524.827 351.01Z" fill="black"/>
<path d="M543.381 351.707C543.381 355.879 546.531 359.008 550.732 359.008C554.933 359.008 558.084 355.879 558.084 351.707C558.084 347.534 554.933 344.405 550.732 344.405C546.531 344.405 543.381 347.534 543.381 351.707Z" fill="black"/>
<path d="M561.584 354.139C561.584 358.311 564.735 361.44 568.936 361.44C573.137 361.44 576.287 358.311 576.287 354.139C576.287 349.966 573.137 346.837 568.936 346.837C565.085 346.49 561.584 349.966 561.584 354.139Z" fill="black"/>
<path d="M299.731 551.631C299.731 555.803 302.882 558.932 307.083 558.932C311.283 558.932 314.434 555.803 314.434 551.631C314.434 547.458 311.283 544.329 307.083 544.329C302.882 544.329 299.731 547.806 299.731 551.631Z" fill="black"/>
<path d="M300.782 533.549C300.782 537.722 303.933 540.851 308.134 540.851C312.335 540.851 315.485 537.722 315.485 533.549C315.485 529.377 312.335 526.248 308.134 526.248C303.933 526.248 300.782 529.377 300.782 533.549Z" fill="black"/>
<path d="M303.232 515.471C303.232 519.643 306.383 522.772 310.584 522.772C314.785 522.772 317.935 519.643 317.935 515.471C317.935 511.299 314.785 508.169 310.584 508.169C306.383 507.822 303.232 511.299 303.232 515.471Z" fill="black"/>
<path d="M307.083 497.389C307.083 501.562 310.233 504.691 314.434 504.691C318.635 504.691 321.786 501.562 321.786 497.389C321.786 493.217 318.635 490.088 314.434 490.088C310.233 490.088 307.083 493.217 307.083 497.389Z" fill="black"/>
<path d="M312.684 480.005C312.684 484.177 315.834 487.306 320.035 487.306C324.236 487.306 327.387 484.177 327.387 480.005C327.387 475.832 324.236 472.703 320.035 472.703C315.834 472.703 312.684 475.832 312.684 480.005Z" fill="black"/>
<path d="M319.685 462.968C319.685 467.141 322.836 470.27 327.037 470.27C331.238 470.27 334.388 467.141 334.388 462.968C334.388 458.796 331.238 455.667 327.037 455.667C322.836 455.667 319.685 458.796 319.685 462.968Z" fill="black"/>
<path d="M327.737 446.625C327.737 450.798 330.887 453.927 335.088 453.927C339.289 453.927 342.44 450.798 342.44 446.625C342.44 442.453 339.289 439.324 335.088 439.324C330.887 439.324 327.737 442.453 327.737 446.625Z" fill="black"/>
<path d="M337.538 430.981C337.538 435.153 340.689 438.282 344.89 438.282C349.091 438.282 352.241 435.153 352.241 430.981C352.241 426.809 349.091 423.679 344.89 423.679C340.689 423.332 337.538 426.809 337.538 430.981Z" fill="black"/>
<path d="M348.392 416.027C348.392 420.199 351.542 423.328 355.743 423.328C359.944 423.328 363.095 420.199 363.095 416.027C363.095 411.854 359.944 408.725 355.743 408.725C351.542 408.725 348.392 411.854 348.392 416.027Z" fill="black"/>
<path d="M360.294 402.122C360.294 406.295 363.444 409.424 367.645 409.424C371.846 409.424 374.997 406.295 374.997 402.122C374.997 397.95 371.846 394.821 367.645 394.821C363.444 394.821 360.294 397.95 360.294 402.122Z" fill="black"/>
<path d="M373.247 389.257C373.247 393.429 376.397 396.558 380.598 396.558C384.799 396.558 387.95 393.429 387.95 389.257C387.95 385.084 384.799 381.955 380.598 381.955C376.747 381.955 373.247 385.084 373.247 389.257Z" fill="black"/>
<path d="M387.6 377.435C387.6 381.467 390.891 384.736 394.951 384.736C399.011 384.736 402.303 381.467 402.303 377.435C402.303 373.402 399.011 370.133 394.951 370.133C390.891 370.133 387.6 373.402 387.6 377.435Z" fill="black"/>
<path d="M402.653 366.658C402.653 370.83 405.804 373.959 410.005 373.959C414.205 373.959 417.356 370.83 417.356 366.658C417.356 362.485 414.205 359.356 410.005 359.356C405.804 359.356 402.653 362.833 402.653 366.658Z" fill="black"/>
<path d="M418.406 357.268C418.406 361.3 421.698 364.569 425.758 364.569C429.818 364.569 433.109 361.3 433.109 357.268C433.109 353.235 429.818 349.966 425.758 349.966C421.698 349.966 418.406 353.235 418.406 357.268Z" fill="black"/>
<path d="M435.21 349.273C435.21 353.305 438.501 356.574 442.562 356.574C446.622 356.574 449.913 353.305 449.913 349.273C449.913 345.24 446.622 341.971 442.562 341.971C438.501 341.971 435.21 345.24 435.21 349.273Z" fill="black"/>
<path d="M452.362 342.667C452.362 346.839 455.513 349.968 459.714 349.968C463.915 349.968 467.065 346.839 467.065 342.667C467.065 338.494 463.915 335.365 459.714 335.365C455.513 335.365 452.362 338.494 452.362 342.667Z" fill="black"/>
<path d="M469.867 337.451C469.867 341.623 473.018 344.752 477.218 344.752C481.419 344.752 484.57 341.623 484.57 337.451C484.57 333.278 481.419 330.149 477.218 330.149C473.368 330.149 469.867 333.278 469.867 337.451Z" fill="black"/>
<path d="M488.071 333.624C488.071 337.796 491.221 340.925 495.422 340.925C499.623 340.925 502.773 337.796 502.773 333.624C502.773 329.451 499.623 326.322 495.422 326.322C491.221 326.322 488.071 329.451 488.071 333.624Z" fill="black"/>
<path d="M506.274 331.191C506.274 335.224 509.566 338.493 513.626 338.493C517.686 338.493 520.977 335.224 520.977 331.191C520.977 327.159 517.686 323.89 513.626 323.89C509.566 323.89 506.274 327.159 506.274 331.191Z" fill="black"/>
<path d="M524.827 330.498C524.827 334.67 527.977 337.8 532.178 337.8C536.379 337.8 539.529 334.67 539.529 330.498C539.529 326.326 536.379 323.196 532.178 323.196C527.977 323.196 524.827 326.326 524.827 330.498Z" fill="black"/>
<path d="M543.381 331.191C543.381 335.364 546.531 338.493 550.732 338.493C554.933 338.493 558.084 335.364 558.084 331.191C558.084 327.019 554.933 323.89 550.732 323.89C546.531 323.89 543.381 327.019 543.381 331.191Z" fill="black"/>
<path d="M561.584 333.278C561.584 337.311 564.876 340.58 568.936 340.58C572.996 340.58 576.287 337.311 576.287 333.278C576.287 329.246 572.996 325.977 568.936 325.977C564.876 325.977 561.584 329.246 561.584 333.278Z" fill="black"/>
<path d="M279.077 556.497C279.077 560.529 282.368 563.798 286.428 563.798C290.488 563.798 293.78 560.529 293.78 556.497C293.78 552.464 290.488 549.195 286.428 549.195C282.368 549.195 279.077 552.464 279.077 556.497Z" fill="black"/>
<path d="M279.427 538.068C279.427 542.241 282.578 545.37 286.779 545.37C290.98 545.37 294.13 542.241 294.13 538.068C294.13 533.896 290.98 530.767 286.779 530.767C282.928 530.767 279.427 534.244 279.427 538.068Z" fill="black"/>
<path d="M281.527 519.992C281.527 524.164 284.678 527.293 288.879 527.293C293.079 527.293 296.23 524.164 296.23 519.992C296.23 515.819 293.079 512.69 288.879 512.69C285.028 512.69 281.527 515.819 281.527 519.992Z" fill="black"/>
<path d="M285.028 501.913C285.028 506.086 288.179 509.215 292.38 509.215C296.581 509.215 299.731 506.086 299.731 501.913C299.731 497.741 296.581 494.612 292.38 494.612C288.179 494.612 285.028 497.741 285.028 501.913Z" fill="black"/>
<path d="M289.58 484.177C289.58 488.349 292.731 491.479 296.932 491.479C301.132 491.479 304.283 488.349 304.283 484.177C304.283 480.005 301.132 476.875 296.932 476.875C293.081 476.875 289.58 480.005 289.58 484.177Z" fill="black"/>
<path d="M295.53 466.791C295.53 470.963 298.68 474.092 302.881 474.092C307.082 474.092 310.233 470.963 310.233 466.791C310.233 462.619 307.082 459.489 302.881 459.489C299.03 459.489 295.53 462.619 295.53 466.791Z" fill="black"/>
<path d="M302.882 450.104C302.882 454.277 306.033 457.406 310.234 457.406C314.434 457.406 317.585 454.277 317.585 450.104C317.585 445.932 314.434 442.803 310.234 442.803C306.383 442.455 302.882 445.932 302.882 450.104Z" fill="black"/>
<path d="M311.284 433.761C311.284 437.934 314.434 441.063 318.635 441.063C322.836 441.063 325.987 437.934 325.987 433.761C325.987 429.589 322.836 426.46 318.635 426.46C314.784 426.46 311.284 429.589 311.284 433.761Z" fill="black"/>
<path d="M321.086 418.114C321.086 422.286 324.236 425.415 328.437 425.415C332.638 425.415 335.789 422.286 335.789 418.114C335.789 413.941 332.638 410.812 328.437 410.812C324.236 410.812 321.086 413.941 321.086 418.114Z" fill="black"/>
<path d="M332.288 403.163C332.288 407.195 335.579 410.464 339.639 410.464C343.699 410.464 346.991 407.195 346.991 403.163C346.991 399.13 343.699 395.861 339.639 395.861C335.579 395.861 332.288 399.13 332.288 403.163Z" fill="black"/>
<path d="M344.191 389.255C344.191 393.428 347.342 396.557 351.543 396.557C355.744 396.557 358.894 393.428 358.894 389.255C358.894 385.083 355.744 381.954 351.543 381.954C347.342 381.954 344.191 385.431 344.191 389.255Z" fill="black"/>
<path d="M357.143 376.393C357.143 380.565 360.293 383.694 364.494 383.694C368.695 383.694 371.846 380.565 371.846 376.393C371.846 372.22 368.695 369.091 364.494 369.091C360.293 369.091 357.143 372.22 357.143 376.393Z" fill="black"/>
<path d="M371.145 364.221C371.145 368.253 374.437 371.522 378.497 371.522C382.557 371.522 385.848 368.253 385.848 364.221C385.848 360.188 382.557 356.919 378.497 356.919C374.437 356.919 371.145 360.188 371.145 364.221Z" fill="black"/>
<path d="M385.849 353.445C385.849 357.618 389 360.747 393.201 360.747C397.402 360.747 400.552 357.618 400.552 353.445C400.552 349.273 397.402 346.144 393.201 346.144C389 345.796 385.849 349.273 385.849 353.445Z" fill="black"/>
<path d="M401.603 343.357C401.603 347.39 404.894 350.659 408.955 350.659C413.015 350.659 416.306 347.39 416.306 343.357C416.306 339.324 413.015 336.055 408.955 336.055C404.894 336.055 401.603 339.324 401.603 343.357Z" fill="black"/>
<path d="M417.705 334.67C417.705 338.843 420.856 341.972 425.057 341.972C429.258 341.972 432.408 338.843 432.408 334.67C432.408 330.498 429.258 327.369 425.057 327.369C420.856 327.369 417.705 330.846 417.705 334.67Z" fill="black"/>
<path d="M434.509 327.364C434.509 331.536 437.659 334.666 441.86 334.666C446.061 334.666 449.212 331.536 449.212 327.364C449.212 323.192 446.061 320.062 441.86 320.062C438.009 320.062 434.509 323.192 434.509 327.364Z" fill="black"/>
<path d="M452.013 321.109C452.013 325.282 455.164 328.411 459.365 328.411C463.566 328.411 466.716 325.282 466.716 321.109C466.716 316.937 463.566 313.808 459.365 313.808C455.164 313.808 452.013 317.285 452.013 321.109Z" fill="black"/>
<path d="M469.867 316.589C469.867 320.761 473.018 323.89 477.218 323.89C481.419 323.89 484.57 320.761 484.57 316.589C484.57 312.416 481.419 309.287 477.218 309.287C473.018 308.939 469.867 312.416 469.867 316.589Z" fill="black"/>
<path d="M487.72 313.113C487.72 317.286 490.87 320.415 495.071 320.415C499.272 320.415 502.423 317.286 502.423 313.113C502.423 308.941 499.272 305.812 495.071 305.812C491.221 305.464 487.72 308.941 487.72 313.113Z" fill="black"/>
<path d="M506.274 310.681C506.274 314.853 509.425 317.983 513.626 317.983C517.827 317.983 520.977 314.853 520.977 310.681C520.977 306.509 517.827 303.379 513.626 303.379C509.425 303.379 506.274 306.856 506.274 310.681Z" fill="black"/>
<path d="M524.827 309.983C524.827 314.155 527.977 317.284 532.178 317.284C536.379 317.284 539.529 314.155 539.529 309.983C539.529 305.81 536.379 302.681 532.178 302.681C527.977 302.681 524.827 305.81 524.827 309.983Z" fill="black"/>
<path d="M543.03 310.681C543.03 314.853 546.181 317.983 550.382 317.983C554.583 317.983 557.733 314.853 557.733 310.681C557.733 306.509 554.583 303.379 550.382 303.379C546.531 303.379 543.03 306.509 543.03 310.681Z" fill="black"/>
<path d="M561.584 312.415C561.584 316.587 564.735 319.716 568.936 319.716C573.137 319.716 576.287 316.587 576.287 312.415C576.287 308.243 573.137 305.113 568.936 305.113C564.735 305.113 561.584 308.59 561.584 312.415Z" fill="black"/>
<path d="M258.423 561.021C258.423 565.053 261.715 568.322 265.775 568.322C269.835 568.322 273.126 565.053 273.126 561.021C273.126 556.988 269.835 553.719 265.775 553.719C261.715 553.719 258.423 556.988 258.423 561.021Z" fill="black"/>
<path d="M258.774 542.937C258.774 547.11 261.925 550.239 266.125 550.239C270.326 550.239 273.477 547.11 273.477 542.937C273.477 538.765 270.326 535.636 266.125 535.636C261.925 535.288 258.774 538.765 258.774 542.937Z" fill="black"/>
<path d="M260.174 524.511C260.174 528.683 263.324 531.812 267.525 531.812C271.726 531.812 274.877 528.683 274.877 524.511C274.877 520.339 271.726 517.209 267.525 517.209C263.675 517.209 260.174 520.339 260.174 524.511Z" fill="black"/>
<path d="M262.974 506.431C262.974 510.603 266.125 513.733 270.326 513.733C274.527 513.733 277.677 510.603 277.677 506.431C277.677 502.259 274.527 499.129 270.326 499.129C266.125 499.129 262.974 502.259 262.974 506.431Z" fill="black"/>
<path d="M266.825 488.351C266.825 492.523 269.975 495.653 274.176 495.653C278.377 495.653 281.528 492.523 281.528 488.351C281.528 484.179 278.377 481.049 274.176 481.049C270.325 481.049 266.825 484.526 266.825 488.351Z" fill="black"/>
<path d="M272.076 470.966C272.076 475.139 275.226 478.268 279.427 478.268C283.628 478.268 286.779 475.139 286.779 470.966C286.779 466.794 283.628 463.665 279.427 463.665C275.226 463.665 272.076 466.794 272.076 470.966Z" fill="black"/>
<path d="M278.727 453.583C278.727 457.755 281.877 460.885 286.078 460.885C290.279 460.885 293.43 457.755 293.43 453.583C293.43 449.411 290.279 446.281 286.078 446.281C281.877 446.281 278.727 449.758 278.727 453.583Z" fill="black"/>
<path d="M286.429 436.89C286.429 441.062 289.58 444.192 293.78 444.192C297.981 444.192 301.132 441.062 301.132 436.89C301.132 432.718 297.981 429.588 293.78 429.588C289.58 429.588 286.429 433.065 286.429 436.89Z" fill="black"/>
<path d="M295.181 420.893C295.181 425.065 298.332 428.194 302.533 428.194C306.734 428.194 309.884 425.065 309.884 420.893C309.884 416.72 306.734 413.591 302.533 413.591C298.332 413.591 295.181 416.72 295.181 420.893Z" fill="black"/>
<path d="M304.984 405.597C304.984 409.629 308.275 412.898 312.335 412.898C316.395 412.898 319.687 409.629 319.687 405.597C319.687 401.564 316.395 398.295 312.335 398.295C308.275 398.295 304.984 401.564 304.984 405.597Z" fill="black"/>
<path d="M315.835 390.647C315.835 394.819 318.986 397.949 323.186 397.949C327.387 397.949 330.538 394.819 330.538 390.647C330.538 386.475 327.387 383.345 323.186 383.345C319.336 383.345 315.835 386.475 315.835 390.647Z" fill="black"/>
<path d="M327.737 376.741C327.737 380.913 330.887 384.043 335.088 384.043C339.289 384.043 342.44 380.913 342.44 376.741C342.44 372.569 339.289 369.439 335.088 369.439C331.238 369.439 327.737 372.569 327.737 376.741Z" fill="black"/>
<path d="M340.69 363.524C340.69 367.696 343.84 370.826 348.041 370.826C352.242 370.826 355.393 367.696 355.393 363.524C355.393 359.352 352.242 356.222 348.041 356.222C344.19 356.222 340.69 359.352 340.69 363.524Z" fill="black"/>
<path d="M354.342 351.358C354.342 355.531 357.492 358.66 361.693 358.66C365.894 358.66 369.045 355.531 369.045 351.358C369.045 347.186 365.894 344.057 361.693 344.057C357.843 344.057 354.342 347.186 354.342 351.358Z" fill="black"/>
<path d="M369.046 339.883C369.046 344.055 372.197 347.185 376.398 347.185C380.598 347.185 383.749 344.055 383.749 339.883C383.749 335.711 380.598 332.581 376.398 332.581C372.197 332.581 369.046 336.058 369.046 339.883Z" fill="black"/>
<path d="M384.449 329.8C384.449 333.832 387.741 337.101 391.801 337.101C395.861 337.101 399.152 333.832 399.152 329.8C399.152 325.767 395.861 322.498 391.801 322.498C387.741 322.498 384.449 325.767 384.449 329.8Z" fill="black"/>
<path d="M400.552 320.76C400.552 324.932 403.702 328.061 407.903 328.061C412.104 328.061 415.255 324.932 415.255 320.76C415.255 316.587 412.104 313.458 407.903 313.458C403.702 313.11 400.552 316.587 400.552 320.76Z" fill="black"/>
<path d="M417.006 312.765C417.006 316.937 420.157 320.066 424.358 320.066C428.559 320.066 431.709 316.937 431.709 312.765C431.709 308.592 428.559 305.463 424.358 305.463C420.157 305.115 417.006 308.592 417.006 312.765Z" fill="black"/>
<path d="M434.158 305.809C434.158 309.841 437.45 313.11 441.51 313.11C445.57 313.11 448.861 309.841 448.861 305.809C448.861 301.776 445.57 298.507 441.51 298.507C437.45 298.507 434.158 301.776 434.158 305.809Z" fill="black"/>
<path d="M451.663 299.901C451.663 304.073 454.814 307.202 459.015 307.202C463.215 307.202 466.366 304.073 466.366 299.901C466.366 295.728 463.215 292.599 459.015 292.599C454.814 292.599 451.663 296.076 451.663 299.901Z" fill="black"/>
<path d="M469.516 295.377C469.516 299.549 472.667 302.678 476.868 302.678C481.069 302.678 484.219 299.549 484.219 295.377C484.219 291.204 481.069 288.075 476.868 288.075C472.667 288.075 469.516 291.552 469.516 295.377Z" fill="black"/>
<path d="M487.72 292.246C487.72 296.419 490.87 299.548 495.071 299.548C499.272 299.548 502.423 296.419 502.423 292.246C502.423 288.074 499.272 284.945 495.071 284.945C491.221 284.945 487.72 288.074 487.72 292.246Z" fill="black"/>
<path d="M524.478 289.471C524.478 293.643 527.628 296.772 531.829 296.772C536.03 296.772 539.181 293.643 539.181 289.471C539.181 285.298 536.03 282.169 531.829 282.169C527.979 282.169 524.478 285.646 524.478 289.471Z" fill="black"/>
<path d="M543.03 290.166C543.03 294.198 546.322 297.467 550.382 297.467C554.442 297.467 557.733 294.198 557.733 290.166C557.733 286.133 554.442 282.864 550.382 282.864C546.322 282.864 543.03 286.133 543.03 290.166Z" fill="black"/>
<path d="M561.234 291.903C561.234 296.075 564.385 299.204 568.585 299.204C572.786 299.204 575.937 296.075 575.937 291.903C575.937 287.73 572.786 284.601 568.585 284.601C564.385 284.601 561.234 287.73 561.234 291.903Z" fill="black"/>
<path d="M237.77 547.458C237.77 551.631 240.92 554.76 245.121 554.76C249.322 554.76 252.473 551.631 252.473 547.458C252.473 543.286 249.322 540.157 245.121 540.157C241.27 540.157 237.77 543.286 237.77 547.458Z" fill="black"/>
<path d="M239.17 529.033C239.17 533.205 242.32 536.335 246.521 536.335C250.722 536.335 253.872 533.205 253.872 529.033C253.872 524.861 250.722 521.731 246.521 521.731C242.32 521.731 239.17 525.208 239.17 529.033Z" fill="black"/>
<path d="M241.269 510.949C241.269 515.121 244.42 518.25 248.621 518.25C252.822 518.25 255.972 515.121 255.972 510.949C255.972 506.776 252.822 503.647 248.621 503.647C244.77 503.647 241.269 506.776 241.269 510.949Z" fill="black"/>
<path d="M244.771 492.868C244.771 497.041 247.921 500.17 252.122 500.17C256.323 500.17 259.474 497.041 259.474 492.868C259.474 488.696 256.323 485.567 252.122 485.567C247.921 485.567 244.771 489.044 244.771 492.868Z" fill="black"/>
<path d="M249.32 475.136C249.32 479.168 252.612 482.437 256.672 482.437C260.732 482.437 264.023 479.168 264.023 475.136C264.023 471.103 260.732 467.834 256.672 467.834C252.612 467.834 249.32 471.103 249.32 475.136Z" fill="black"/>
<path d="M254.922 457.751C254.922 461.923 258.072 465.052 262.273 465.052C266.474 465.052 269.625 461.923 269.625 457.751C269.625 453.579 266.474 450.449 262.273 450.449C258.422 450.449 254.922 453.579 254.922 457.751Z" fill="black"/>
<path d="M261.923 440.719C261.923 444.752 265.214 448.021 269.275 448.021C273.335 448.021 276.626 444.752 276.626 440.719C276.626 436.687 273.335 433.417 269.275 433.417C265.214 433.417 261.923 436.687 261.923 440.719Z" fill="black"/>
<path d="M269.976 424.028C269.976 428.2 273.127 431.33 277.328 431.33C281.528 431.33 284.679 428.2 284.679 424.028C284.679 419.856 281.528 416.726 277.328 416.726C273.127 416.726 269.976 420.203 269.976 424.028Z" fill="black"/>
<path d="M278.727 408.033C278.727 412.206 281.877 415.335 286.078 415.335C290.279 415.335 293.43 412.206 293.43 408.033C293.43 403.861 290.279 400.732 286.078 400.732C282.227 400.732 278.727 404.209 278.727 408.033Z" fill="black"/>
<path d="M288.879 392.733C288.879 396.905 292.029 400.034 296.23 400.034C300.431 400.034 303.582 396.905 303.582 392.733C303.582 388.56 300.431 385.431 296.23 385.431C292.029 385.431 288.879 388.56 288.879 392.733Z" fill="black"/>
<path d="M311.634 363.872C311.634 368.045 314.785 371.174 318.986 371.174C323.187 371.174 326.337 368.045 326.337 363.872C326.337 359.7 323.187 356.571 318.986 356.571C315.135 356.571 311.634 360.048 311.634 363.872Z" fill="black"/>
<path d="M324.587 350.66C324.587 354.832 327.738 357.962 331.939 357.962C336.14 357.962 339.29 354.832 339.29 350.66C339.29 346.488 336.14 343.358 331.939 343.358C327.738 343.358 324.587 346.488 324.587 350.66Z" fill="black"/>
<path d="M338.24 338.493C338.24 342.665 341.39 345.794 345.591 345.794C349.792 345.794 352.943 342.665 352.943 338.493C352.943 334.32 349.792 331.191 345.591 331.191C341.39 330.843 338.24 334.32 338.24 338.493Z" fill="black"/>
<path d="M352.593 326.671C352.593 330.843 355.744 333.972 359.944 333.972C364.145 333.972 367.296 330.843 367.296 326.671C367.296 322.498 364.145 319.369 359.944 319.369C355.744 319.369 352.593 322.846 352.593 326.671Z" fill="black"/>
<path d="M367.645 316.24C367.645 320.273 370.937 323.542 374.997 323.542C379.057 323.542 382.348 320.273 382.348 316.24C382.348 312.208 379.057 308.939 374.997 308.939C370.937 308.939 367.645 312.208 367.645 316.24Z" fill="black"/>
<path d="M383.399 306.504C383.399 310.676 386.55 313.805 390.751 313.805C394.952 313.805 398.102 310.676 398.102 306.504C398.102 302.331 394.952 299.202 390.751 299.202C386.55 299.202 383.399 302.679 383.399 306.504Z" fill="black"/>
<path d="M416.655 290.509C416.655 294.542 419.947 297.811 424.007 297.811C428.067 297.811 431.359 294.542 431.359 290.509C431.359 286.477 428.067 283.208 424.007 283.208C419.947 283.208 416.655 286.477 416.655 290.509Z" fill="black"/>
<path d="M451.312 279.036C451.312 283.208 454.463 286.337 458.664 286.337C462.865 286.337 466.015 283.208 466.015 279.036C466.015 274.863 462.865 271.734 458.664 271.734C454.813 271.386 451.312 274.863 451.312 279.036Z" fill="black"/>
<path d="M469.516 274.866C469.516 279.039 472.667 282.168 476.868 282.168C481.069 282.168 484.219 279.039 484.219 274.866C484.219 270.694 481.069 267.565 476.868 267.565C472.667 267.217 469.516 270.694 469.516 274.866Z" fill="black"/>
<path d="M505.924 269.997C505.924 274.03 509.215 277.299 513.275 277.299C517.335 277.299 520.627 274.03 520.627 269.997C520.627 265.965 517.335 262.696 513.275 262.696C509.215 262.696 505.924 265.965 505.924 269.997Z" fill="black"/>
<path d="M543.03 269.649C543.03 273.821 546.181 276.95 550.382 276.95C554.583 276.95 557.733 273.821 557.733 269.649C557.733 265.476 554.583 262.347 550.382 262.347C546.181 262.347 543.03 265.476 543.03 269.649Z" fill="black"/>
<path d="M217.116 552.329C217.116 556.501 220.266 559.631 224.467 559.631C228.668 559.631 231.819 556.501 231.819 552.329C231.819 548.157 228.668 545.027 224.467 545.027C220.616 544.68 217.116 548.157 217.116 552.329Z" fill="black"/>
<path d="M218.165 533.899C218.165 538.072 221.316 541.201 225.517 541.201C229.718 541.201 232.868 538.072 232.868 533.899C232.868 529.727 229.718 526.598 225.517 526.598C221.316 526.598 218.165 529.727 218.165 533.899Z" fill="black"/>
<path d="M219.916 515.471C219.916 519.643 223.067 522.772 227.267 522.772C231.468 522.772 234.619 519.643 234.619 515.471C234.619 511.298 231.468 508.169 227.267 508.169C223.067 508.169 219.916 511.646 219.916 515.471Z" fill="black"/>
<path d="M226.917 479.66C226.917 483.832 230.068 486.961 234.269 486.961C238.47 486.961 241.62 483.832 241.62 479.66C241.62 475.487 238.47 472.358 234.269 472.358C230.068 472.358 226.917 475.487 226.917 479.66Z" fill="black"/>
<path d="M245.121 427.85C245.121 431.883 248.413 435.152 252.473 435.152C256.533 435.152 259.824 431.883 259.824 427.85C259.824 423.818 256.533 420.549 252.473 420.549C248.413 420.549 245.121 423.818 245.121 427.85Z" fill="black"/>
<path d="M253.521 411.512C253.521 415.685 256.672 418.814 260.873 418.814C265.074 418.814 268.224 415.685 268.224 411.512C268.224 407.34 265.074 404.211 260.873 404.211C256.672 404.211 253.521 407.34 253.521 411.512Z" fill="black"/>
<path d="M262.624 395.516C262.624 399.689 265.775 402.818 269.976 402.818C274.177 402.818 277.327 399.689 277.327 395.516C277.327 391.344 274.177 388.215 269.976 388.215C265.775 388.215 262.624 391.344 262.624 395.516Z" fill="black"/>
<path d="M272.776 380.217C272.776 384.389 275.927 387.518 280.128 387.518C284.329 387.518 287.479 384.389 287.479 380.217C287.479 376.044 284.329 372.915 280.128 372.915C275.927 372.567 272.776 376.044 272.776 380.217Z" fill="black"/>
<path d="M308.132 337.796C308.132 341.968 311.283 345.098 315.484 345.098C319.685 345.098 322.835 341.968 322.835 337.796C322.835 333.624 319.685 330.494 315.484 330.494C311.633 330.494 308.132 333.971 308.132 337.796Z" fill="black"/>
<path d="M321.787 325.28C321.787 329.453 324.937 332.582 329.138 332.582C333.339 332.582 336.49 329.453 336.49 325.28C336.49 321.108 333.339 317.979 329.138 317.979C324.937 317.979 321.787 321.456 321.787 325.28Z" fill="black"/>
<path d="M415.955 268.955C415.955 273.128 419.106 276.257 423.306 276.257C427.507 276.257 430.658 273.128 430.658 268.955C430.658 264.783 427.507 261.654 423.306 261.654C419.456 261.306 415.955 264.783 415.955 268.955Z" fill="black"/>
<path d="M433.459 262.696C433.459 266.728 436.75 269.998 440.81 269.998C444.87 269.998 448.162 266.728 448.162 262.696C448.162 258.663 444.87 255.394 440.81 255.394C436.75 255.394 433.459 258.663 433.459 262.696Z" fill="black"/>
<path d="M451.312 257.825C451.312 261.997 454.463 265.127 458.664 265.127C462.865 265.127 466.015 261.997 466.015 257.825C466.015 253.653 462.865 250.523 458.664 250.523C454.463 250.523 451.312 253.653 451.312 257.825Z" fill="black"/>
<path d="M469.165 254.001C469.165 258.173 472.316 261.302 476.517 261.302C480.718 261.302 483.868 258.173 483.868 254.001C483.868 249.828 480.718 246.699 476.517 246.699C472.666 246.699 469.165 249.828 469.165 254.001Z" fill="black"/>
<path d="M505.924 249.48C505.924 253.653 509.074 256.782 513.275 256.782C517.476 256.782 520.627 253.653 520.627 249.48C520.627 245.308 517.476 242.179 513.275 242.179C509.074 241.831 505.924 245.308 505.924 249.48Z" fill="black"/>
<path d="M198.561 520.337C198.561 524.369 201.852 527.638 205.913 527.638C209.973 527.638 213.264 524.369 213.264 520.337C213.264 516.304 209.973 513.035 205.913 513.035C201.852 513.035 198.561 516.304 198.561 520.337Z" fill="black"/>
<path d="M209.062 466.442C209.062 470.475 212.354 473.744 216.414 473.744C220.474 473.744 223.765 470.475 223.765 466.442C223.765 462.41 220.474 459.141 216.414 459.141C212.354 459.141 209.062 462.41 209.062 466.442Z" fill="black"/>
<path d="M214.664 448.712C214.664 452.745 217.955 456.014 222.015 456.014C226.075 456.014 229.367 452.745 229.367 448.712C229.367 444.68 226.075 441.411 222.015 441.411C217.955 441.411 214.664 444.68 214.664 448.712Z" fill="black"/>
<path d="M228.667 414.985C228.667 419.157 231.817 422.286 236.018 422.286C240.219 422.286 243.37 419.157 243.37 414.985C243.37 410.812 240.219 407.683 236.018 407.683C231.817 407.335 228.667 410.812 228.667 414.985Z" fill="black"/>
<path d="M279.427 338.49C279.427 342.662 282.578 345.791 286.779 345.791C290.98 345.791 294.13 342.662 294.13 338.49C294.13 334.317 290.98 331.188 286.779 331.188C282.578 331.188 279.427 334.665 279.427 338.49Z" fill="black"/>
<path d="M292.03 325.28C292.03 329.453 295.181 332.582 299.382 332.582C303.582 332.582 306.733 329.453 306.733 325.28C306.733 321.108 303.582 317.979 299.382 317.979C295.181 317.979 292.03 321.108 292.03 325.28Z" fill="black"/>
<path d="M334.038 289.467C334.038 293.64 337.189 296.769 341.39 296.769C345.591 296.769 348.741 293.64 348.741 289.467C348.741 285.295 345.591 282.166 341.39 282.166C337.539 282.166 334.038 285.295 334.038 289.467Z" fill="black"/>
<path d="M349.442 279.385C349.442 283.558 352.593 286.687 356.793 286.687C360.994 286.687 364.145 283.558 364.145 279.385C364.145 275.213 360.994 272.084 356.793 272.084C352.593 271.736 349.442 275.213 349.442 279.385Z" fill="black"/>
<path d="M365.196 269.996C365.196 274.168 368.346 277.297 372.547 277.297C376.748 277.297 379.899 274.168 379.899 269.996C379.899 265.823 376.748 262.694 372.547 262.694C368.696 262.346 365.196 265.823 365.196 269.996Z" fill="black"/>
<path d="M381.649 261.304C381.649 265.476 384.799 268.606 389 268.606C393.201 268.606 396.352 265.476 396.352 261.304C396.352 257.132 393.201 254.002 389 254.002C384.799 254.002 381.649 257.132 381.649 261.304Z" fill="black"/>
<path d="M398.452 253.654C398.452 257.687 401.743 260.956 405.804 260.956C409.864 260.956 413.155 257.687 413.155 253.654C413.155 249.622 409.864 246.353 405.804 246.353C401.743 246.353 398.452 249.622 398.452 253.654Z" fill="black"/>
<path d="M415.606 247.048C415.606 251.081 418.897 254.35 422.957 254.35C427.018 254.35 430.309 251.081 430.309 247.048C430.309 243.016 427.018 239.747 422.957 239.747C418.897 239.747 415.606 243.016 415.606 247.048Z" fill="black"/>
<path d="M542.682 228.623C542.682 232.795 545.832 235.925 550.033 235.925C554.234 235.925 557.385 232.795 557.385 228.623C557.385 224.451 554.234 221.322 550.033 221.322C546.182 221.322 542.682 224.798 542.682 228.623Z" fill="black"/>
<path d="M176.157 561.714C176.157 565.887 179.308 569.016 183.508 569.016C187.709 569.016 190.86 565.887 190.86 561.714C190.86 557.542 187.709 554.413 183.508 554.413C179.658 554.065 176.157 557.542 176.157 561.714Z" fill="black"/>
<path d="M179.657 506.774C179.657 510.947 182.807 514.076 187.008 514.076C191.209 514.076 194.36 510.947 194.36 506.774C194.36 502.602 191.209 499.473 187.008 499.473C182.807 499.473 179.657 502.602 179.657 506.774Z" fill="black"/>
<path d="M186.658 470.619C186.658 474.652 189.95 477.921 194.01 477.921C198.07 477.921 201.361 474.652 201.361 470.619C201.361 466.587 198.07 463.318 194.01 463.318C189.95 463.318 186.658 466.587 186.658 470.619Z" fill="black"/>
<path d="M204.163 418.464C204.163 422.636 207.313 425.765 211.514 425.765C215.715 425.765 218.866 422.636 218.866 418.464C218.866 414.291 215.715 411.162 211.514 411.162C207.663 411.162 204.163 414.639 204.163 418.464Z" fill="black"/>
<path d="M230.067 369.783C230.067 373.956 233.218 377.085 237.419 377.085C241.62 377.085 244.77 373.956 244.77 369.783C244.77 365.611 241.62 362.482 237.419 362.482C233.218 362.482 230.067 365.959 230.067 369.783Z" fill="black"/>
<path d="M317.585 276.255C317.585 280.288 320.877 283.557 324.937 283.557C328.997 283.557 332.288 280.288 332.288 276.255C332.288 272.222 328.997 268.953 324.937 268.953C320.877 268.953 317.585 272.222 317.585 276.255Z" fill="black"/>
<path d="M398.101 232.097C398.101 236.13 401.393 239.399 405.453 239.399C409.513 239.399 412.804 236.13 412.804 232.097C412.804 228.064 409.513 224.795 405.453 224.795C401.393 224.795 398.101 228.064 398.101 232.097Z" fill="black"/>
<path d="M433.109 220.278C433.109 224.451 436.259 227.58 440.46 227.58C444.661 227.58 447.812 224.451 447.812 220.278C447.812 216.106 444.661 212.977 440.46 212.977C436.259 212.977 433.109 216.106 433.109 220.278Z" fill="black"/>
<path d="M487.369 209.848C487.369 214.02 490.52 217.15 494.721 217.15C498.921 217.15 502.072 214.02 502.072 209.848C502.072 205.676 498.921 202.546 494.721 202.546C490.52 202.546 487.369 206.023 487.369 209.848Z" fill="black"/>
<path d="M524.127 207.763C524.127 211.935 527.278 215.064 531.479 215.064C535.68 215.064 538.83 211.935 538.83 207.763C538.83 203.59 535.68 200.461 531.479 200.461C527.628 200.461 524.127 203.938 524.127 207.763Z" fill="black"/>
<path d="M158.304 511.298C158.304 515.471 161.454 518.6 165.655 518.6C169.856 518.6 173.007 515.471 173.007 511.298C173.007 507.126 169.856 503.997 165.655 503.997C161.454 503.997 158.304 507.126 158.304 511.298Z" fill="black"/>
<path d="M160.754 493.217C160.754 497.39 163.904 500.519 168.105 500.519C172.306 500.519 175.457 497.39 175.457 493.217C175.457 489.045 172.306 485.916 168.105 485.916C164.254 485.916 160.754 489.045 160.754 493.217Z" fill="black"/>
<path d="M168.804 457.405C168.804 461.578 171.955 464.707 176.156 464.707C180.357 464.707 183.507 461.578 183.507 457.405C183.507 453.233 180.357 450.104 176.156 450.104C171.955 450.104 168.804 453.233 168.804 457.405Z" fill="black"/>
<path d="M187.71 405.6C187.71 409.772 190.86 412.901 195.061 412.901C199.262 412.901 202.413 409.772 202.413 405.6C202.413 401.427 199.262 398.298 195.061 398.298C190.86 398.298 187.71 401.427 187.71 405.6Z" fill="black"/>
<path d="M195.41 388.91C195.41 392.943 198.702 396.212 202.762 396.212C206.822 396.212 210.113 392.943 210.113 388.91C210.113 384.877 206.822 381.608 202.762 381.608C198.702 381.608 195.41 384.877 195.41 388.91Z" fill="black"/>
<path d="M246.87 313.113C246.87 317.285 250.021 320.415 254.222 320.415C258.423 320.415 261.573 317.285 261.573 313.113C261.573 308.941 258.423 305.812 254.222 305.812C250.371 305.812 246.87 309.288 246.87 313.113Z" fill="black"/>
<path d="M487.369 189.333C487.369 193.365 490.661 196.634 494.721 196.634C498.781 196.634 502.072 193.365 502.072 189.333C502.072 185.3 498.781 182.031 494.721 182.031C490.661 182.031 487.369 185.3 487.369 189.333Z" fill="black"/>
<path d="M487.018 168.817C487.018 172.99 490.169 176.119 494.37 176.119C498.571 176.119 501.721 172.99 501.721 168.817C501.721 164.645 498.571 161.516 494.37 161.516C490.519 161.516 487.018 164.645 487.018 168.817Z" fill="black"/>
</g>
<defs>
<clipPath id="clip0_0_5195">
<rect width="558" height="566" fill="white" transform="matrix(0 1 -1 0 566 0)"/>
</clipPath>
</defs>
</svg>
