<svg width="81" height="170" viewBox="0 0 81 170" fill="none" xmlns="http://www.w3.org/2000/svg">
<rect x="73.668" y="89.9775" width="7.33186" height="7.19812" rx="2" fill="#FF0000"/>
<rect x="73.668" y="125.968" width="7.33186" height="7.19812" rx="2" fill="#FF0000"/>
<rect x="73.668" y="107.972" width="7.33186" height="7.19812" rx="2" fill="#FF0000"/>
<rect x="73.668" y="143.963" width="7.33186" height="7.19812" rx="2" fill="#FF0000"/>
<rect x="73.668" y="161.958" width="7.33186" height="7.19812" rx="2" fill="#FF0000"/>
<rect width="7.33186" height="7.19812" rx="2" transform="matrix(1 0 0 -1 18.6792 79.1804)" fill="#FF0000"/>
<rect width="7.33186" height="7.19812" rx="2" transform="matrix(1 0 0 -1 18.6792 43.1897)" fill="#FF0000"/>
<rect width="7.33186" height="7.19812" rx="2" transform="matrix(1 0 0 -1 18.6792 61.1846)" fill="#FF0000"/>
<rect width="7.33186" height="7.19812" rx="2" transform="matrix(1 0 0 -1 18.6792 25.1946)" fill="#FF0000"/>
<rect width="7.33186" height="7.19812" rx="2" transform="matrix(1 0 0 -1 18.6792 7.19824)" fill="#FF0000"/>
<rect x="55.3384" y="89.9775" width="7.33186" height="7.19812" rx="2" fill="#FF0000"/>
<rect x="55.3384" y="125.968" width="7.33186" height="7.19812" rx="2" fill="#FF0000"/>
<rect x="55.3384" y="107.972" width="7.33186" height="7.19812" rx="2" fill="#FF0000"/>
<rect x="55.3384" y="143.963" width="7.33186" height="7.19812" rx="2" fill="#FF0000"/>
<rect x="55.3384" y="161.958" width="7.33186" height="7.19812" rx="2" fill="#FF0000"/>
<rect width="7.33186" height="7.19812" rx="2" transform="matrix(1 0 0 -1 0.349609 79.1802)" fill="#FF0000"/>
<rect width="7.33186" height="7.19812" rx="2" transform="matrix(1 0 0 -1 0.349609 43.1895)" fill="#FF0000"/>
<rect width="7.33186" height="7.19812" rx="2" transform="matrix(1 0 0 -1 0.349609 61.1846)" fill="#FF0000"/>
<rect width="7.33186" height="7.19812" rx="2" transform="matrix(1 0 0 -1 0.349609 25.1943)" fill="#FF0000"/>
<rect width="7.33186" height="7.19812" rx="2" transform="matrix(1 0 0 -1 0.349609 7.198)" fill="#FF0000"/>
<rect x="37.0093" y="0.000976562" width="7.33186" height="7.19812" rx="2" fill="#0DB760"/>
<rect x="37.0093" y="35.9919" width="7.33186" height="7.19812" rx="2" fill="#0DB760"/>
<rect x="37.0093" y="17.9956" width="7.33186" height="7.19812" rx="2" fill="#0DB760"/>
<rect x="37.0093" y="53.9871" width="7.33186" height="7.19812" rx="2" fill="#0DB760"/>
<rect x="37.0093" y="71.9832" width="7.33186" height="7.19812" rx="2" fill="#0DB760"/>
<rect x="73.668" y="0.000976562" width="7.33186" height="7.19812" rx="2" fill="#0DB760"/>
<rect x="73.668" y="35.9919" width="7.33186" height="7.19812" rx="2" fill="#0DB760"/>
<rect x="73.668" y="17.9956" width="7.33186" height="7.19812" rx="2" fill="#0DB760"/>
<rect x="73.668" y="53.9871" width="7.33186" height="7.19812" rx="2" fill="#0DB760"/>
<rect x="73.668" y="71.9832" width="7.33186" height="7.19812" rx="2" fill="#0DB760"/>
<rect width="7.33186" height="7.19812" rx="2" transform="matrix(1 0 0 -1 18.6792 169.156)" fill="#0DB760"/>
<rect width="7.33186" height="7.19812" rx="2" transform="matrix(1 0 0 -1 18.6792 133.167)" fill="#0DB760"/>
<rect width="7.33186" height="7.19812" rx="2" transform="matrix(1 0 0 -1 18.6792 151.161)" fill="#0DB760"/>
<rect width="7.33186" height="7.19812" rx="2" transform="matrix(1 0 0 -1 18.6792 115.171)" fill="#0DB760"/>
<rect width="7.33186" height="7.19812" rx="2" transform="matrix(1 0 0 -1 18.6792 97.1753)" fill="#0DB760"/>
<rect x="55.3384" y="0.000976562" width="7.33186" height="7.19812" rx="2" fill="#0DB760"/>
<rect x="55.3384" y="35.9919" width="7.33186" height="7.19812" rx="2" fill="#0DB760"/>
<rect x="55.3384" y="17.9956" width="7.33186" height="7.19812" rx="2" fill="#0DB760"/>
<rect x="55.3384" y="53.9871" width="7.33186" height="7.19812" rx="2" fill="#0DB760"/>
<rect x="55.3384" y="71.9832" width="7.33186" height="7.19812" rx="2" fill="#0DB760"/>
<rect width="7.33186" height="7.19812" rx="2" transform="matrix(1 0 0 -1 0.349121 169.156)" fill="#0DB760"/>
<rect width="7.33186" height="7.19812" rx="2" transform="matrix(1 0 0 -1 0.349609 133.166)" fill="#0DB760"/>
<rect width="7.33186" height="7.19812" rx="2" transform="matrix(1 0 0 -1 0.349609 151.161)" fill="#0DB760"/>
<rect width="7.33186" height="7.19812" rx="2" transform="matrix(1 0 0 -1 0.349609 115.171)" fill="#0DB760"/>
<rect width="7.33186" height="7.19812" rx="2" transform="matrix(1 0 0 -1 0.349609 97.1755)" fill="#0DB760"/>
<rect x="37.0093" y="89.9775" width="7.33186" height="7.19812" rx="2" fill="#0DB760"/>
<rect x="37.0093" y="125.968" width="7.33186" height="7.19812" rx="2" fill="#0DB760"/>
<rect x="37.0093" y="107.972" width="7.33186" height="7.19812" rx="2" fill="#0DB760"/>
<rect x="37.0093" y="143.963" width="7.33186" height="7.19812" rx="2" fill="#0DB760"/>
<rect x="37.0093" y="161.958" width="7.33186" height="7.19812" rx="2" fill="#0DB760"/>
</svg>
