<svg width="22" height="22" viewBox="0 0 22 22" fill="none" xmlns="http://www.w3.org/2000/svg">
<mask id="path-1-inside-1_134_94" fill="white">
<path d="M20.96 16.4849L19.9756 20.6274C19.8525 21.2427 19.3604 21.6528 18.7451 21.6528C8.40918 21.6118 0.000976562 13.2036 0.000976562 2.86768C0.000976562 2.25244 0.370117 1.76025 0.985352 1.63721L5.12793 0.652832C5.70215 0.529785 6.31738 0.85791 6.56348 1.39111L8.49121 5.86182C8.69629 6.39502 8.57324 7.01025 8.12207 7.33838L5.90723 9.14307C7.30176 11.9731 9.59863 14.27 12.4697 15.6646L14.2744 13.4497C14.6025 13.0396 15.2178 12.8755 15.751 13.0806L20.2217 15.0083C20.7549 15.2954 21.083 15.9106 20.96 16.4849Z"/>
</mask>
<path d="M20.96 16.4849L21.9329 16.7161L21.9354 16.7052L21.9378 16.6944L20.96 16.4849ZM19.9756 20.6274L19.0027 20.3963L18.9985 20.4137L18.995 20.4313L19.9756 20.6274ZM18.7451 21.6528L18.7411 22.6528H18.7451V21.6528ZM0.985352 1.63721L1.18147 2.61779L1.19907 2.61427L1.21654 2.61012L0.985352 1.63721ZM5.12793 0.652832L4.9184 -0.32497L4.90754 -0.322644L4.89674 -0.320077L5.12793 0.652832ZM6.56348 1.39111L7.48175 0.995161L7.47674 0.983543L7.47144 0.972055L6.56348 1.39111ZM8.49121 5.86182L9.42456 5.50284L9.41739 5.4842L9.40948 5.46586L8.49121 5.86182ZM8.12207 7.33838L7.5339 6.52964L7.51169 6.5458L7.4904 6.56314L8.12207 7.33838ZM5.90723 9.14307L5.27555 8.36783L4.65826 8.87081L5.01021 9.58507L5.90723 9.14307ZM12.4697 15.6646L12.0328 16.5641L12.7449 16.9099L13.245 16.2962L12.4697 15.6646ZM14.2744 13.4497L15.0497 14.0814L15.0553 14.0744L14.2744 13.4497ZM15.751 13.0806L16.1469 12.1623L16.1286 12.1544L16.11 12.1472L15.751 13.0806ZM20.2217 15.0083L20.6958 14.1278L20.6575 14.1072L20.6176 14.09L20.2217 15.0083ZM19.9871 16.2537L19.0027 20.3963L20.9485 20.8586L21.9329 16.7161L19.9871 16.2537ZM18.995 20.4313C18.9761 20.5257 18.9363 20.5763 18.9047 20.6026C18.8738 20.6284 18.825 20.6528 18.7451 20.6528V22.6528C19.8508 22.6528 20.7424 21.8926 20.9562 20.8236L18.995 20.4313ZM18.7491 20.6528C8.96156 20.614 1.00098 12.6506 1.00098 2.86768H-0.999023C-0.999023 13.7567 7.8568 22.6096 18.7411 22.6528L18.7491 20.6528ZM1.00098 2.86768C1.00098 2.76173 1.03124 2.708 1.04877 2.68569C1.06347 2.66698 1.09574 2.63493 1.18147 2.61779L0.789235 0.656626C-0.328026 0.880079 -0.999023 1.81195 -0.999023 2.86768H1.00098ZM1.21654 2.61012L5.35912 1.62574L4.89674 -0.320077L0.754165 0.664298L1.21654 2.61012ZM5.33746 1.63063C5.37321 1.62297 5.43447 1.62517 5.5074 1.6631C5.58116 1.70145 5.63177 1.75872 5.65552 1.81017L7.47144 0.972055C7.04081 0.0390416 5.97618 -0.551638 4.9184 -0.32497L5.33746 1.63063ZM5.64521 1.78707L7.57294 6.25777L9.40948 5.46586L7.48175 0.995161L5.64521 1.78707ZM7.55787 6.2208C7.59143 6.30808 7.59285 6.39046 7.57932 6.44796C7.5669 6.50072 7.54644 6.52053 7.5339 6.52964L8.71024 8.14711C9.60121 7.49914 9.75692 6.36699 9.42456 5.50284L7.55787 6.2208ZM7.4904 6.56314L5.27555 8.36783L6.5389 9.9183L8.75374 8.11361L7.4904 6.56314ZM5.01021 9.58507C6.50268 12.6139 8.96111 15.0721 12.0328 16.5641L12.9066 14.765C10.2362 13.468 8.10084 11.3324 6.80424 8.70106L5.01021 9.58507ZM13.245 16.2962L15.0496 14.0814L13.4992 12.818L11.6945 15.0329L13.245 16.2962ZM15.0553 14.0744C15.07 14.056 15.11 14.022 15.1828 14.0034C15.254 13.9853 15.3287 13.9896 15.392 14.0139L16.11 12.1472C15.1933 11.7946 14.109 12.0557 13.4935 12.825L15.0553 14.0744ZM15.355 13.9988L19.8257 15.9266L20.6176 14.09L16.1469 12.1623L15.355 13.9988ZM19.7476 15.8888C19.8303 15.9333 19.9025 16.0078 19.946 16.0931C19.9889 16.1773 19.9895 16.2412 19.9822 16.2753L21.9378 16.6944C22.1671 15.624 21.5625 14.5945 20.6958 14.1278L19.7476 15.8888Z" fill="black" mask="url(#path-1-inside-1_134_94)"/>
</svg>
