<svg width="16" height="22" viewBox="0 0 16 22" fill="none" xmlns="http://www.w3.org/2000/svg">
<mask id="path-1-inside-1_134_93" fill="white">
<path d="M6.8916 21.1196C4.75879 18.4536 0.000976562 12.0962 0.000976562 8.48682C0.000976562 4.13916 3.4873 0.611816 7.87598 0.611816C12.2236 0.611816 15.751 4.13916 15.751 8.48682C15.751 12.0962 10.9521 18.4536 8.81934 21.1196C8.32715 21.7349 7.38379 21.7349 6.8916 21.1196ZM7.87598 11.1118C9.31152 11.1118 10.501 9.96338 10.501 8.48682C10.501 7.05127 9.31152 5.86182 7.87598 5.86182C6.39941 5.86182 5.25098 7.05127 5.25098 8.48682C5.25098 9.96338 6.39941 11.1118 7.87598 11.1118Z"/>
</mask>
<path d="M7.67247 20.4949C6.61738 19.1761 4.92372 16.957 3.4989 14.6341C2.78633 13.4724 2.15281 12.3038 1.70016 11.2224C1.24088 10.1251 1.00098 9.19465 1.00098 8.48682H-0.999023C-0.999023 9.58367 -0.644205 10.8014 -0.14474 11.9946C0.361353 13.2037 1.05059 14.4678 1.79407 15.6798C3.28136 18.1045 5.03301 20.3972 6.11073 21.7443L7.67247 20.4949ZM1.00098 8.48682C1.00098 4.68804 4.04298 1.61182 7.87598 1.61182V-0.388184C2.93163 -0.388184 -0.999023 3.59028 -0.999023 8.48682H1.00098ZM7.87598 1.61182C11.6713 1.61182 14.751 4.69144 14.751 8.48682H16.751C16.751 3.58688 12.7759 -0.388184 7.87598 -0.388184V1.61182ZM14.751 8.48682C14.751 9.19302 14.5095 10.1225 14.0465 11.2197C13.5903 12.301 12.9519 13.4696 12.2342 14.6315C10.7991 16.9546 9.09518 19.174 8.03847 20.4949L9.6002 21.7443C10.6763 20.3992 12.4382 18.1069 13.9357 15.6825C14.6843 14.4706 15.379 13.2065 15.8892 11.9972C16.3926 10.804 16.751 9.5853 16.751 8.48682H14.751ZM8.03847 20.4949C7.9466 20.6098 7.76433 20.6098 7.67247 20.4949L6.11073 21.7443C7.00325 22.86 8.70769 22.86 9.6002 21.7443L8.03847 20.4949ZM7.87598 12.1118C9.85359 12.1118 11.501 10.5258 11.501 8.48682H9.50098C9.50098 9.40093 8.76946 10.1118 7.87598 10.1118V12.1118ZM11.501 8.48682C11.501 6.49898 9.86381 4.86182 7.87598 4.86182V6.86182C8.75924 6.86182 9.50098 7.60355 9.50098 8.48682H11.501ZM7.87598 4.86182C5.83696 4.86182 4.25098 6.5092 4.25098 8.48682H6.25098C6.25098 7.59333 6.96186 6.86182 7.87598 6.86182V4.86182ZM4.25098 8.48682C4.25098 10.5157 5.84713 12.1118 7.87598 12.1118V10.1118C6.9517 10.1118 6.25098 9.41109 6.25098 8.48682H4.25098Z" fill="black" mask="url(#path-1-inside-1_134_93)"/>
</svg>
