<svg width="159" height="148" viewBox="0 0 159 148" fill="none" xmlns="http://www.w3.org/2000/svg">
<g opacity="0.5">
<path d="M7.26467 13.7146C10.9192 13.7146 13.8816 10.756 13.8816 7.10632C13.8816 3.45667 10.9192 0.498047 7.26467 0.498047C3.61014 0.498047 0.647461 3.45667 0.647461 7.10632C0.647461 10.756 3.61014 13.7146 7.26467 13.7146Z" fill="#615F3B"/>
<path d="M36.1917 13.7146C39.8462 13.7146 42.8089 10.756 42.8089 7.10632C42.8089 3.45667 39.8462 0.498047 36.1917 0.498047C32.5371 0.498047 29.5747 3.45667 29.5747 7.10632C29.5747 10.756 32.5371 13.7146 36.1917 13.7146Z" fill="#615F3B"/>
<path d="M65.1109 13.7146C68.7654 13.7146 71.7278 10.756 71.7278 7.10632C71.7278 3.45667 68.7654 0.498047 65.1109 0.498047C61.4563 0.498047 58.4937 3.45667 58.4937 7.10632C58.4937 10.756 61.4563 13.7146 65.1109 13.7146Z" fill="#615F3B"/>
<path d="M94.0896 13.7146C97.7441 13.7146 100.707 10.756 100.707 7.10632C100.707 3.45667 97.7441 0.498047 94.0896 0.498047C90.4351 0.498047 87.4727 3.45667 87.4727 7.10632C87.4727 10.756 90.4351 13.7146 94.0896 13.7146Z" fill="#615F3B"/>
<path d="M123.015 13.7146C126.67 13.7146 129.632 10.756 129.632 7.10632C129.632 3.45667 126.67 0.498047 123.015 0.498047C119.361 0.498047 116.398 3.45667 116.398 7.10632C116.398 10.756 119.361 13.7146 123.015 13.7146Z" fill="#615F3B"/>
<path d="M151.99 13.7146C155.645 13.7146 158.608 10.756 158.608 7.10632C158.608 3.45667 155.645 0.498047 151.99 0.498047C148.336 0.498047 145.374 3.45667 145.374 7.10632C145.374 10.756 148.336 13.7146 151.99 13.7146Z" fill="#615F3B"/>
<path d="M7.26467 35.9426C10.9192 35.9426 13.8816 32.984 13.8816 29.3344C13.8816 25.6847 10.9192 22.7261 7.26467 22.7261C3.61014 22.7261 0.647461 25.6847 0.647461 29.3344C0.647461 32.984 3.61014 35.9426 7.26467 35.9426Z" fill="#615F3B"/>
<path d="M36.1917 35.9426C39.8462 35.9426 42.8089 32.984 42.8089 29.3344C42.8089 25.6847 39.8462 22.7261 36.1917 22.7261C32.5371 22.7261 29.5747 25.6847 29.5747 29.3344C29.5747 32.984 32.5371 35.9426 36.1917 35.9426Z" fill="#615F3B"/>
<path d="M65.1118 35.9426C68.7664 35.9426 71.7288 32.984 71.7288 29.3344C71.7288 25.6847 68.7664 22.7261 65.1118 22.7261C61.4573 22.7261 58.4946 25.6847 58.4946 29.3344C58.4946 32.984 61.4573 35.9426 65.1118 35.9426Z" fill="#615F3B"/>
<path d="M94.0906 35.9426C97.7451 35.9426 100.708 32.984 100.708 29.3344C100.708 25.6847 97.7451 22.7261 94.0906 22.7261C90.4361 22.7261 87.4736 25.6847 87.4736 29.3344C87.4736 32.984 90.4361 35.9426 94.0906 35.9426Z" fill="#615F3B"/>
<path d="M123.015 35.9426C126.67 35.9426 129.632 32.984 129.632 29.3344C129.632 25.6847 126.67 22.7261 123.015 22.7261C119.361 22.7261 116.398 25.6847 116.398 29.3344C116.398 32.984 119.361 35.9426 123.015 35.9426Z" fill="#615F3B"/>
<path d="M151.99 35.9426C155.645 35.9426 158.608 32.984 158.608 29.3344C158.608 25.6847 155.645 22.7261 151.99 22.7261C148.336 22.7261 145.374 25.6847 145.374 29.3344C145.374 32.984 148.336 35.9426 151.99 35.9426Z" fill="#615F3B"/>
<path d="M7.26467 58.1751C10.9192 58.1751 13.8816 55.2164 13.8816 51.5668C13.8816 47.9171 10.9192 44.9585 7.26467 44.9585C3.61014 44.9585 0.647461 47.9171 0.647461 51.5668C0.647461 55.2164 3.61014 58.1751 7.26467 58.1751Z" fill="#615F3B"/>
<path d="M36.1917 58.1751C39.8462 58.1751 42.8089 55.2164 42.8089 51.5668C42.8089 47.9171 39.8462 44.9585 36.1917 44.9585C32.5371 44.9585 29.5747 47.9171 29.5747 51.5668C29.5747 55.2164 32.5371 58.1751 36.1917 58.1751Z" fill="#615F3B"/>
<path d="M65.1118 58.1751C68.7664 58.1751 71.7288 55.2164 71.7288 51.5668C71.7288 47.9171 68.7664 44.9585 65.1118 44.9585C61.4573 44.9585 58.4946 47.9171 58.4946 51.5668C58.4946 55.2164 61.4573 58.1751 65.1118 58.1751Z" fill="#615F3B"/>
<path d="M94.0906 58.1751C97.7451 58.1751 100.708 55.2164 100.708 51.5668C100.708 47.9171 97.7451 44.9585 94.0906 44.9585C90.4361 44.9585 87.4736 47.9171 87.4736 51.5668C87.4736 55.2164 90.4361 58.1751 94.0906 58.1751Z" fill="#615F3B"/>
<path d="M123.015 58.1751C126.67 58.1751 129.632 55.2164 129.632 51.5668C129.632 47.9171 126.67 44.9585 123.015 44.9585C119.361 44.9585 116.398 47.9171 116.398 51.5668C116.398 55.2164 119.361 58.1751 123.015 58.1751Z" fill="#615F3B"/>
<path d="M151.99 58.1751C155.645 58.1751 158.608 55.2164 158.608 51.5668C158.608 47.9171 155.645 44.9585 151.99 44.9585C148.336 44.9585 145.374 47.9171 145.374 51.5668C145.374 55.2164 148.336 58.1751 151.99 58.1751Z" fill="#615F3B"/>
<path d="M7.26467 80.4055C10.9192 80.4055 13.8816 77.4469 13.8816 73.7972C13.8816 70.1476 10.9192 67.189 7.26467 67.189C3.61014 67.189 0.647461 70.1476 0.647461 73.7972C0.647461 77.4469 3.61014 80.4055 7.26467 80.4055Z" fill="#615F3B"/>
<path d="M36.1917 80.4055C39.8462 80.4055 42.8089 77.4469 42.8089 73.7972C42.8089 70.1476 39.8462 67.189 36.1917 67.189C32.5371 67.189 29.5747 70.1476 29.5747 73.7972C29.5747 77.4469 32.5371 80.4055 36.1917 80.4055Z" fill="#615F3B"/>
<path d="M65.1118 80.4055C68.7664 80.4055 71.7288 77.4469 71.7288 73.7972C71.7288 70.1476 68.7664 67.189 65.1118 67.189C61.4573 67.189 58.4946 70.1476 58.4946 73.7972C58.4946 77.4469 61.4573 80.4055 65.1118 80.4055Z" fill="#615F3B"/>
<path d="M94.0906 80.4055C97.7451 80.4055 100.708 77.4469 100.708 73.7972C100.708 70.1476 97.7451 67.189 94.0906 67.189C90.4361 67.189 87.4736 70.1476 87.4736 73.7972C87.4736 77.4469 90.4361 80.4055 94.0906 80.4055Z" fill="#615F3B"/>
<path d="M123.015 80.4055C126.67 80.4055 129.632 77.4469 129.632 73.7972C129.632 70.1476 126.67 67.189 123.015 67.189C119.361 67.189 116.398 70.1476 116.398 73.7972C116.398 77.4469 119.361 80.4055 123.015 80.4055Z" fill="#615F3B"/>
<path d="M151.99 80.4055C155.645 80.4055 158.608 77.4469 158.608 73.7972C158.608 70.1476 155.645 67.189 151.99 67.189C148.336 67.189 145.374 70.1476 145.374 73.7972C145.374 77.4469 148.336 80.4055 151.99 80.4055Z" fill="#615F3B"/>
<path d="M7.26467 102.634C10.9192 102.634 13.8816 99.6749 13.8816 96.0253C13.8816 92.3756 10.9192 89.417 7.26467 89.417C3.61014 89.417 0.647461 92.3756 0.647461 96.0253C0.647461 99.6749 3.61014 102.634 7.26467 102.634Z" fill="#615F3B"/>
<path d="M36.1917 102.634C39.8462 102.634 42.8089 99.6749 42.8089 96.0253C42.8089 92.3756 39.8462 89.417 36.1917 89.417C32.5371 89.417 29.5747 92.3756 29.5747 96.0253C29.5747 99.6749 32.5371 102.634 36.1917 102.634Z" fill="#615F3B"/>
<path d="M65.1109 102.634C68.7654 102.634 71.7278 99.6749 71.7278 96.0253C71.7278 92.3756 68.7654 89.417 65.1109 89.417C61.4563 89.417 58.4937 92.3756 58.4937 96.0253C58.4937 99.6749 61.4563 102.634 65.1109 102.634Z" fill="#615F3B"/>
<path d="M94.0896 102.634C97.7441 102.634 100.707 99.6749 100.707 96.0253C100.707 92.3756 97.7441 89.417 94.0896 89.417C90.4351 89.417 87.4727 92.3756 87.4727 96.0253C87.4727 99.6749 90.4351 102.634 94.0896 102.634Z" fill="#615F3B"/>
<path d="M123.015 102.634C126.67 102.634 129.632 99.6749 129.632 96.0253C129.632 92.3756 126.67 89.417 123.015 89.417C119.361 89.417 116.398 92.3756 116.398 96.0253C116.398 99.6749 119.361 102.634 123.015 102.634Z" fill="#615F3B"/>
<path d="M151.99 102.634C155.645 102.634 158.608 99.6749 158.608 96.0253C158.608 92.3756 155.645 89.417 151.99 89.417C148.336 89.417 145.374 92.3756 145.374 96.0253C145.374 99.6749 148.336 102.634 151.99 102.634Z" fill="#615F3B"/>
<path d="M7.26467 124.861C10.9192 124.861 13.8816 121.902 13.8816 118.253C13.8816 114.603 10.9192 111.645 7.26467 111.645C3.61014 111.645 0.647461 114.603 0.647461 118.253C0.647461 121.902 3.61014 124.861 7.26467 124.861Z" fill="#615F3B"/>
<path d="M36.1917 124.861C39.8462 124.861 42.8089 121.902 42.8089 118.253C42.8089 114.603 39.8462 111.645 36.1917 111.645C32.5371 111.645 29.5747 114.603 29.5747 118.253C29.5747 121.902 32.5371 124.861 36.1917 124.861Z" fill="#615F3B"/>
<path d="M65.1118 124.861C68.7664 124.861 71.7288 121.902 71.7288 118.253C71.7288 114.603 68.7664 111.645 65.1118 111.645C61.4573 111.645 58.4946 114.603 58.4946 118.253C58.4946 121.902 61.4573 124.861 65.1118 124.861Z" fill="#615F3B"/>
<path d="M94.0906 124.861C97.7451 124.861 100.708 121.902 100.708 118.253C100.708 114.603 97.7451 111.645 94.0906 111.645C90.4361 111.645 87.4736 114.603 87.4736 118.253C87.4736 121.902 90.4361 124.861 94.0906 124.861Z" fill="#615F3B"/>
<path d="M123.015 124.861C126.67 124.861 129.632 121.902 129.632 118.253C129.632 114.603 126.67 111.645 123.015 111.645C119.361 111.645 116.398 114.603 116.398 118.253C116.398 121.902 119.361 124.861 123.015 124.861Z" fill="#615F3B"/>
<path d="M151.99 124.861C155.645 124.861 158.608 121.902 158.608 118.253C158.608 114.603 155.645 111.645 151.99 111.645C148.336 111.645 145.374 114.603 145.374 118.253C145.374 121.902 148.336 124.861 151.99 124.861Z" fill="#615F3B"/>
<path d="M7.26467 147.094C10.9192 147.094 13.8816 144.135 13.8816 140.486C13.8816 136.836 10.9192 133.877 7.26467 133.877C3.61014 133.877 0.647461 136.836 0.647461 140.486C0.647461 144.135 3.61014 147.094 7.26467 147.094Z" fill="#615F3B"/>
<path d="M36.1917 147.094C39.8462 147.094 42.8089 144.135 42.8089 140.486C42.8089 136.836 39.8462 133.877 36.1917 133.877C32.5371 133.877 29.5747 136.836 29.5747 140.486C29.5747 144.135 32.5371 147.094 36.1917 147.094Z" fill="#615F3B"/>
<path d="M65.1118 147.094C68.7664 147.094 71.7288 144.135 71.7288 140.486C71.7288 136.836 68.7664 133.877 65.1118 133.877C61.4573 133.877 58.4946 136.836 58.4946 140.486C58.4946 144.135 61.4573 147.094 65.1118 147.094Z" fill="#615F3B"/>
<path d="M94.0906 147.094C97.7451 147.094 100.708 144.135 100.708 140.486C100.708 136.836 97.7451 133.877 94.0906 133.877C90.4361 133.877 87.4736 136.836 87.4736 140.486C87.4736 144.135 90.4361 147.094 94.0906 147.094Z" fill="#615F3B"/>
<path d="M123.015 147.094C126.67 147.094 129.632 144.135 129.632 140.486C129.632 136.836 126.67 133.877 123.015 133.877C119.361 133.877 116.398 136.836 116.398 140.486C116.398 144.135 119.361 147.094 123.015 147.094Z" fill="#615F3B"/>
<path d="M151.99 147.094C155.645 147.094 158.608 144.135 158.608 140.486C158.608 136.836 155.645 133.877 151.99 133.877C148.336 133.877 145.374 136.836 145.374 140.486C145.374 144.135 148.336 147.094 151.99 147.094Z" fill="#615F3B"/>
</g>
</svg>
