<svg width="26" height="24" viewBox="0 0 26 24" fill="none" xmlns="http://www.w3.org/2000/svg">
<path d="M24.8277 11.6199C24.8277 16.958 20.7896 21.451 15.3626 22.5056V15.4792H17.7524H18.1773L18.2459 15.0598L18.7951 11.7006L18.8901 11.1199H18.3017H15.362V9.44166C15.362 9.06193 15.4616 8.746 15.6627 8.52826C15.8563 8.31866 16.2121 8.12642 16.8836 8.12642H18.4484H18.9484V7.62642V4.76717V4.34081L18.5274 4.27345L18.4484 4.76717L18.5273 4.27344L18.5272 4.27342L18.5269 4.27336L18.5258 4.27319L18.5221 4.27261L18.5088 4.27053L18.4588 4.26293C18.4156 4.25645 18.353 4.2473 18.2738 4.23637C18.1155 4.21452 17.8907 4.1855 17.6227 4.15649C17.0889 4.0987 16.3751 4.04001 15.6716 4.04001C14.163 4.04001 12.8572 4.46949 11.9248 5.34383C10.9877 6.22255 10.4866 7.4954 10.4866 9.06046V11.1199H7.83656H7.33656V11.6199V14.9792V15.4792H7.83656H10.4866V22.5045C5.05954 21.4494 1.02148 16.9565 1.02148 11.6199C1.02148 5.51084 6.32003 0.502441 12.9246 0.502441C19.5292 0.502441 24.8277 5.51084 24.8277 11.6199Z" stroke="black"/>
</svg>
