<svg width="25" height="24" viewBox="0 0 25 24" fill="none" xmlns="http://www.w3.org/2000/svg">
<path d="M7.5176 0.5H17.5198C21.1131 0.5 24.0218 3.32603 24.0218 6.73783V16.3627C24.0218 19.7745 21.1131 22.6005 17.5198 22.6005H7.5176C3.92428 22.6005 1.01562 19.7745 1.01562 16.3627V6.73783C1.01562 3.32603 3.92428 0.5 7.5176 0.5Z" stroke="black"/>
<path d="M19.0207 6.23815H19.0196C18.8176 6.23815 18.6216 6.18041 18.4565 6.07426C18.2916 5.96824 18.166 5.81952 18.0927 5.64919C18.0195 5.4791 18.0007 5.29313 18.0377 5.11392C18.0748 4.93456 18.1668 4.76707 18.3054 4.63374C18.4441 4.50022 18.6232 4.40725 18.8209 4.36941C19.0187 4.33156 19.2235 4.35114 19.4087 4.42495C19.5937 4.49871 19.7488 4.62238 19.8565 4.77743C19.9639 4.93222 20.02 5.11208 20.02 5.29437L20.02 5.29549C20.0203 5.41662 19.9957 5.5371 19.9472 5.65018C19.8986 5.76331 19.8268 5.86739 19.7348 5.9559C19.6428 6.04446 19.5324 6.11563 19.4097 6.16442C19.2868 6.21323 19.1546 6.23843 19.0207 6.23815ZM9.45428 7.16931C10.3596 6.58723 11.4259 6.27546 12.5181 6.27546C13.9833 6.27546 15.3848 6.83572 16.4152 7.82724C17.4449 8.81813 18.0197 10.1579 18.0197 11.5506C18.0197 12.5895 17.6996 13.6068 17.0975 14.4739C16.4953 15.3412 15.6372 16.0201 14.6297 16.4217C13.622 16.8233 12.5122 16.9287 11.4413 16.7237C10.3705 16.5187 9.38936 16.0132 8.62111 15.2739C7.85306 14.5349 7.33232 13.5956 7.12157 12.576C6.91085 11.5566 7.01881 10.4998 7.4327 9.53823C7.8467 8.57645 8.54917 7.75127 9.45428 7.16931Z" stroke="black"/>
</svg>
