<svg width="24" height="19" viewBox="0 0 24 19" fill="none" xmlns="http://www.w3.org/2000/svg">
<path d="M6.72496 15.2131C5.16283 16.2256 3.33498 16.767 1.46186 16.7624M6.72496 15.2131L1.46065 17.2624C1.46081 17.2624 1.46096 17.2624 1.46112 17.2624C1.76811 17.2631 2.07394 17.2499 2.37774 17.2231M6.72496 15.2131C6.93107 15.2413 7.14094 15.2577 7.35384 15.2616L7.3631 14.7617L7.05802 14.3656C6.91176 14.4782 6.76246 14.5861 6.61035 14.6892C5.06637 14.4179 3.77947 13.4156 3.13772 12.0594C3.33173 12.0854 3.52714 12.1 3.72298 12.1033M6.72496 15.2131L3.48009 11.5922C3.54941 11.7686 3.63069 11.9393 3.72298 12.1033M1.46186 16.7624C1.45133 16.7624 1.44079 16.7624 1.43025 16.7623C1.44077 16.768 1.45129 16.7736 1.46182 16.7792L1.46186 16.7624ZM1.46186 16.7624L1.46184 16.7792C1.76169 16.9394 2.06725 17.0874 2.37774 17.2231M2.37774 17.2231C4.01739 17.9395 5.79494 18.3114 7.5991 18.3065L7.60046 18.3065C16.0241 18.3065 20.6301 11.4624 20.6301 5.51025C20.6301 5.31641 20.625 5.12207 20.6157 4.93201L20.6024 4.65866L20.8254 4.50009C21.243 4.20331 21.6338 3.87232 21.994 3.51104C21.6063 3.604 21.2131 3.67436 20.8163 3.7216L20.5046 2.79356C20.9672 2.52291 21.3696 2.16884 21.6941 1.75348C21.1219 1.97749 20.5293 2.14893 19.9236 2.26505L19.656 2.31635L19.4678 2.11929C19.0669 1.69949 18.5848 1.36552 18.0508 1.13767L18.247 0.677773L18.0508 1.13767C17.5167 0.909826 16.9418 0.79288 16.3611 0.793953L16.3602 0.793954C14.0032 0.793953 12.11 2.67004 12.11 4.96548V4.96808C12.1084 5.28689 12.1449 5.60475 12.2189 5.91488L12.3732 6.56148L11.7092 6.53037C9.75709 6.43892 7.84557 5.9413 6.09693 5.06932C4.57762 4.31171 3.21033 3.28599 2.05999 2.04364C1.88479 2.50572 1.79367 2.99743 1.79301 3.49542C1.79313 4.93631 2.54511 6.21548 3.69027 6.96771L5.15049 7.92689L3.4039 7.88547C2.86323 7.87265 2.32971 7.77573 1.8221 7.59979C2.1286 9.27849 3.45975 10.6128 5.16362 10.9495L5.19538 11.9232C4.74516 12.0431 4.28122 12.1039 3.81529 12.104M2.37774 17.2231C4.29584 17.0536 6.1329 16.3402 7.66818 15.1579L8.7974 14.2882L7.37237 14.2618C5.79717 14.2326 4.43377 13.3663 3.72298 12.1033M3.72298 12.1033C3.75374 12.1038 3.78451 12.104 3.81529 12.104M3.81529 12.104C3.81556 12.104 3.81582 12.104 3.81609 12.104L3.81522 11.604L3.81529 12.104ZM1.30306 17.261C3.2395 18.2792 5.40094 18.8125 7.60046 18.8065C16.35 18.8065 21.1301 11.6859 21.1301 5.51025C21.1301 5.30777 21.1248 5.10529 21.1151 4.90763C21.7846 4.43173 22.389 3.87248 22.914 3.24434L1.30306 17.261Z" stroke="black"/>
</svg>
