<svg width="40" height="40" viewBox="0 0 40 40" fill="none" xmlns="http://www.w3.org/2000/svg">
<mask id="path-1-inside-1_14_2925" fill="white">
<path d="M20 40C8.90625 40 0 31.0938 0 20C0 8.98438 8.90625 0 20 0C31.0156 0 40 8.98438 40 20C40 31.0938 31.0156 40 20 40ZM18.125 20C18.125 20.625 18.4375 21.25 18.9062 21.5625L26.4062 26.5625C27.2656 27.1875 28.4375 26.9531 28.9844 26.0938C29.6094 25.2344 29.375 24.0625 28.5156 23.4375L21.875 19.0625V9.375C21.875 8.35938 21.0156 7.5 19.9219 7.5C18.9062 7.5 18.0469 8.35938 18.0469 9.375L18.125 20Z"/>
</mask>
<path d="M18.125 20H19.125L19.125 19.9926L18.125 20ZM26.4062 26.5625L26.9944 25.7538L26.9779 25.7418L26.961 25.7304L26.4062 26.5625ZM28.9844 26.0938L28.1756 25.5056L28.1574 25.5307L28.1407 25.5569L28.9844 26.0938ZM28.5156 23.4375L29.1038 22.6288L29.0851 22.6152L29.0658 22.6024L28.5156 23.4375ZM21.875 19.0625H20.875V19.6012L21.3248 19.8976L21.875 19.0625ZM18.0469 9.375H17.0468L17.0469 9.38235L18.0469 9.375ZM20 39C9.45854 39 1 30.5415 1 20H-1C-1 31.646 8.35396 41 20 41V39ZM1 20C1 9.53411 9.46108 1 20 1V-1C8.35142 -1 -1 8.43464 -1 20H1ZM20 1C30.4633 1 39 9.53666 39 20H41C41 8.43209 31.5679 -1 20 -1V1ZM39 20C39 30.5389 30.4659 39 20 39V41C31.5654 41 41 31.6486 41 20H39ZM17.125 20C17.125 20.9163 17.5706 21.8739 18.3515 22.3946L19.461 20.7304C19.3044 20.6261 19.125 20.3337 19.125 20H17.125ZM18.3515 22.3946L25.8515 27.3946L26.961 25.7304L19.461 20.7304L18.3515 22.3946ZM25.8181 27.3712C27.1402 28.3328 28.9692 27.9803 29.828 26.6306L28.1407 25.5569C27.9058 25.926 27.391 26.0422 26.9944 25.7538L25.8181 27.3712ZM29.7931 26.6819C30.7704 25.3382 30.3712 23.5505 29.1038 22.6288L27.9275 24.2462C28.3788 24.5745 28.4484 25.1306 28.1756 25.5056L29.7931 26.6819ZM29.0658 22.6024L22.4252 18.2274L21.3248 19.8976L27.9655 24.2726L29.0658 22.6024ZM22.875 19.0625V9.375H20.875V19.0625H22.875ZM22.875 9.375C22.875 7.78072 21.5412 6.5 19.9219 6.5V8.5C20.4901 8.5 20.875 8.93803 20.875 9.375H22.875ZM19.9219 6.5C18.354 6.5 17.0469 7.80709 17.0469 9.375H19.0469C19.0469 8.91166 19.4585 8.5 19.9219 8.5V6.5ZM17.0469 9.38235L17.125 20.0074L19.125 19.9926L19.0468 9.36765L17.0469 9.38235Z" fill="black" mask="url(#path-1-inside-1_14_2925)"/>
</svg>
