<svg width="30" height="41" viewBox="0 0 30 41" fill="none" xmlns="http://www.w3.org/2000/svg">
<mask id="path-1-inside-1_14_2930" fill="white">
<path d="M13.125 39.0625C9.0625 33.9844 0 21.875 0 15C0 6.71875 6.64062 0 15 0C23.2812 0 30 6.71875 30 15C30 21.875 20.8594 33.9844 16.7969 39.0625C15.8594 40.2344 14.0625 40.2344 13.125 39.0625ZM15 20C17.7344 20 20 17.8125 20 15C20 12.2656 17.7344 10 15 10C12.1875 10 10 12.2656 10 15C10 17.8125 12.1875 20 15 20Z"/>
</mask>
<path d="M13.9059 38.4378C11.8859 35.9129 8.63368 31.6528 5.89148 27.1822C4.52021 24.9467 3.28831 22.6775 2.40194 20.5599C1.50895 18.4265 1 16.5242 1 15H-1C-1 16.9133 -0.376139 19.1028 0.557043 21.3322C1.49685 23.5774 2.78448 25.942 4.18665 28.2279C6.99132 32.8003 10.3016 37.134 12.3441 39.6872L13.9059 38.4378ZM1 15C1 7.26763 7.1963 1 15 1V-1C6.08495 -1 -1 6.16987 -1 15H1ZM15 1C22.729 1 29 7.27103 29 15H31C31 6.16647 23.8335 -1 15 -1V1ZM29 15C29 16.5226 28.4871 18.4239 27.587 20.5573C26.6936 22.6747 25.4521 24.9438 24.0711 27.1795C21.3094 31.6504 18.0376 35.9109 16.016 38.4378L17.5777 39.6872C19.6187 37.136 22.9484 32.8027 25.7726 28.2306C27.1846 25.9448 28.4822 23.5802 29.4296 21.3348C30.3703 19.1054 31 16.9149 31 15H29ZM16.016 38.4378C15.4788 39.1093 14.443 39.1093 13.9059 38.4378L12.3441 39.6872C13.682 41.3595 16.2399 41.3595 17.5777 39.6872L16.016 38.4378ZM15 21C18.2764 21 21 18.375 21 15H19C19 17.25 17.1923 19 15 19V21ZM21 15C21 11.7133 18.2867 9 15 9V11C17.1821 11 19 12.8179 19 15H21ZM15 9C11.6251 9 9 11.7236 9 15H11C11 12.8077 12.7499 11 15 11V9ZM9 15C9 18.3648 11.6352 21 15 21V19C12.7398 19 11 17.2602 11 15H9Z" fill="black" mask="url(#path-1-inside-1_14_2930)"/>
</svg>
