<svg width="41" height="42" viewBox="0 0 41 42" fill="none" xmlns="http://www.w3.org/2000/svg">
<mask id="path-1-inside-1_14_2921" fill="white">
<path d="M39.9219 31.2344L38.0469 39.125C37.8125 40.2969 36.875 41.0781 35.7031 41.0781C16.0156 41 0 24.9844 0 5.29688C0 4.125 0.703125 3.1875 1.875 2.95312L9.76562 1.07812C10.8594 0.84375 12.0312 1.46875 12.5 2.48438L16.1719 11C16.5625 12.0156 16.3281 13.1875 15.4688 13.8125L11.25 17.25C13.9062 22.6406 18.2812 27.0156 23.75 29.6719L27.1875 25.4531C27.8125 24.6719 28.9844 24.3594 30 24.75L38.5156 28.4219C39.5312 28.9688 40.1562 30.1406 39.9219 31.2344Z"/>
</mask>
<path d="M39.9219 31.2344L40.8948 31.4656L40.8974 31.4548L40.8997 31.4439L39.9219 31.2344ZM38.0469 39.125L37.074 38.8938L37.0698 38.9113L37.0663 38.9289L38.0469 39.125ZM35.7031 41.0781L35.6992 42.0781H35.7031V41.0781ZM1.875 2.95312L2.07112 3.93371L2.08872 3.93018L2.10619 3.92603L1.875 2.95312ZM9.76562 1.07812L9.5561 0.100323L9.54524 0.102649L9.53444 0.105216L9.76562 1.07812ZM12.5 2.48438L13.4183 2.08842L13.4133 2.0768L13.408 2.06532L12.5 2.48438ZM16.1719 11L17.1052 10.641L17.0981 10.6224L17.0901 10.604L16.1719 11ZM15.4688 13.8125L14.8806 13.0038L14.8584 13.0199L14.8371 13.0373L15.4688 13.8125ZM11.25 17.25L10.6183 16.4748L10.001 16.9777L10.353 17.692L11.25 17.25ZM23.75 29.6719L23.3131 30.5714L24.0252 30.9173L24.5252 30.3035L23.75 29.6719ZM27.1875 25.4531L27.9628 26.0848L27.9684 26.0778L27.1875 25.4531ZM30 24.75L30.396 23.8317L30.3776 23.8238L30.359 23.8167L30 24.75ZM38.5156 28.4219L38.9897 27.5414L38.9515 27.5208L38.9116 27.5036L38.5156 28.4219ZM38.949 31.0032L37.074 38.8938L39.0198 39.3562L40.8948 31.4656L38.949 31.0032ZM37.0663 38.9289C36.9227 39.647 36.3845 40.0781 35.7031 40.0781V42.0781C37.3655 42.0781 38.7023 40.9468 39.0275 39.3211L37.0663 38.9289ZM35.7071 40.0781C16.568 40.0022 1 24.4313 1 5.29688H-1C-1 25.5374 15.4632 41.9978 35.6992 42.0781L35.7071 40.0781ZM1 5.29688C1 4.56549 1.40127 4.06768 2.07112 3.93371L1.67888 1.97254C0.00498147 2.30732 -1 3.68451 -1 5.29688H1ZM2.10619 3.92603L9.99681 2.05103L9.53444 0.105216L1.64381 1.98022L2.10619 3.92603ZM9.97515 2.05593C10.5853 1.92517 11.3078 2.28762 11.592 2.90343L13.408 2.06532C12.7547 0.649881 11.1334 -0.237673 9.5561 0.100323L9.97515 2.05593ZM11.5817 2.88033L15.2536 11.396L17.0901 10.604L13.4183 2.08842L11.5817 2.88033ZM15.2385 11.359C15.5019 12.0437 15.3002 12.6986 14.8806 13.0038L16.0569 14.6212C17.3561 13.6764 17.6231 11.9876 17.1052 10.641L15.2385 11.359ZM14.8371 13.0373L10.6183 16.4748L11.8817 18.0252L16.1004 14.5877L14.8371 13.0373ZM10.353 17.692C13.1072 23.2814 17.6437 27.8177 23.3131 30.5714L24.1869 28.7724C18.9188 26.2136 14.7053 21.9999 12.147 16.808L10.353 17.692ZM24.5252 30.3035L27.9627 26.0848L26.4123 24.8215L22.9748 29.0402L24.5252 30.3035ZM27.9684 26.0778C28.306 25.6557 29.0089 25.4402 29.641 25.6833L30.359 23.8167C28.9599 23.2785 27.319 23.688 26.4066 24.8284L27.9684 26.0778ZM29.604 25.6683L38.1197 29.3401L38.9116 27.5036L30.396 23.8317L29.604 25.6683ZM38.0415 29.3023C38.7236 29.6696 39.0721 30.4273 38.9441 31.0248L40.8997 31.4439C41.2404 29.854 40.3389 28.2679 38.9897 27.5414L38.0415 29.3023Z" fill="black" mask="url(#path-1-inside-1_14_2921)"/>
</svg>
