<svg width="1222" height="591" viewBox="0 0 1222 591" fill="none" xmlns="http://www.w3.org/2000/svg">
<path d="M36.6119 387.895C37.2387 387.269 37.8656 386.642 38.4924 386.016C46.0147 378.498 41.6268 369.728 40.373 366.596C40.373 365.969 39.7462 365.969 39.7462 365.343C38.4924 364.09 36.6119 363.463 35.985 363.463L31.597 367.848C31.597 367.848 31.597 367.848 32.2239 367.848C33.4776 368.475 34.1044 368.475 34.7313 368.475C35.3582 368.475 35.985 368.475 35.985 369.101C39.1193 375.366 38.4924 379.751 33.4776 382.883C31.597 384.136 24.0747 384.136 22.821 382.883C22.821 381.63 22.1942 380.378 21.5673 379.125C21.5673 378.498 21.5673 378.498 20.9404 377.872L16.5524 382.257C16.5524 382.883 17.1793 383.51 17.1793 383.51C17.1793 384.763 18.433 386.642 21.5673 387.895C25.3284 390.401 33.4776 390.401 36.6119 387.895ZM792.602 100.351L786.961 99.0978C781.319 97.8449 774.424 95.9655 768.155 93.4597C762.513 91.5803 758.752 94.7126 756.245 97.2184C741.827 112.253 724.902 129.168 707.977 145.456C702.962 150.467 701.708 154.853 703.589 161.117C706.723 171.767 709.23 181.79 712.365 192.44L716.753 208.102C717.379 210.607 718.006 212.487 718.633 214.993C719.887 220.631 721.141 226.269 723.648 231.907C723.648 232.533 724.275 232.533 724.275 233.16L724.902 233.786C728.663 236.292 732.424 236.919 736.185 237.545C737.439 237.545 739.32 238.172 740.573 238.798C748.096 241.304 756.245 243.183 763.767 245.063C774.424 247.568 785.707 250.701 795.737 254.459C803.259 256.965 808.274 253.207 812.035 250.074C812.662 249.448 813.289 248.195 813.916 247.568C820.811 240.051 828.333 232.533 835.856 225.016C838.99 221.884 842.124 218.751 845.885 214.993C847.766 213.113 849.646 211.86 851.527 209.981C855.288 206.849 858.422 203.716 861.557 199.331C862.81 197.452 864.064 195.572 863.437 191.187C861.557 182.417 859.049 174.273 856.542 165.502C854.035 157.358 852.154 149.214 850.273 140.444C849.646 137.938 849.02 135.432 848.393 133.553C847.139 130.421 846.512 127.288 845.885 124.156C844.632 117.265 840.87 113.506 834.602 111.627C820.184 107.868 806.393 104.109 792.602 100.351ZM839.617 124.783C840.244 127.915 841.497 131.674 842.124 134.806C842.751 137.312 843.378 139.191 844.005 141.697C845.885 149.841 848.393 158.611 850.273 166.755C852.781 174.899 854.661 183.67 856.542 191.814C857.169 193.693 856.542 193.693 855.288 195.572C852.781 199.331 849.646 201.837 845.885 204.969C844.005 206.849 842.124 208.728 840.244 209.981C837.109 213.113 833.975 216.245 830.214 220.004C822.692 227.522 815.169 235.039 808.274 242.557C803.886 247.568 800.752 249.448 796.364 247.568C785.707 243.81 774.424 241.304 763.767 238.172C756.245 236.292 748.096 234.413 740.573 231.907C738.693 231.28 737.439 231.281 735.558 230.654C732.424 230.028 729.29 229.401 727.409 228.148C725.529 223.137 724.275 218.125 723.021 213.113C722.394 210.607 721.767 208.102 721.141 206.222L716.753 190.561C713.618 179.911 711.111 169.888 707.977 159.238C706.723 154.853 707.35 152.347 711.111 149.214C728.036 132.927 744.334 116.012 759.379 100.977C761.886 98.4713 763.14 98.4713 765.648 99.0978C772.543 100.977 779.438 102.857 785.08 104.736L790.722 105.989C804.513 109.748 818.304 113.506 832.094 116.639C836.482 117.892 838.363 119.771 839.617 124.783ZM533.71 226.895H532.456C526.815 225.642 519.292 230.028 517.412 235.039C515.531 240.677 516.785 246.942 520.546 251.327C523.68 254.459 530.576 256.965 536.844 254.459C538.098 253.833 539.352 253.207 540.606 251.954C543.74 248.821 546.247 243.183 544.994 238.172C544.367 236.292 544.367 235.039 543.74 233.786L543.113 231.907C543.113 231.28 542.486 230.654 541.859 230.654L541.232 230.028C538.725 228.148 536.218 227.522 533.71 226.895ZM538.098 235.666C538.725 236.919 538.725 238.172 539.352 240.051C539.979 243.183 537.471 248.195 534.964 249.448C531.203 250.701 527.442 249.448 524.934 247.568C523.054 245.689 521.8 241.304 523.054 237.545C523.054 236.919 523.68 236.292 524.307 236.292C526.188 234.413 529.949 233.16 531.83 233.16H533.083C534.964 233.16 536.218 233.786 538.098 234.413V235.666ZM-14.7905 439.891C3.38843 444.276 22.1942 449.288 40.9999 454.926C47.8953 456.805 52.9102 456.179 57.925 451.167L58.5519 450.541C66.701 441.771 74.8502 433 86.1337 421.724C91.1485 416.712 96.7902 411.701 103.686 404.809C108.701 400.424 109.954 395.413 108.074 389.774C104.313 375.366 99.9245 360.331 96.1634 345.922L89.8948 322.117C89.8948 321.49 89.2679 320.238 88.6411 319.611L88.0142 318.985C88.0142 318.358 87.3874 318.358 87.3874 317.732L86.7605 317.105C85.5068 316.479 84.2531 315.852 83.6262 315.226L79.2382 319.611C80.4919 320.238 82.3725 320.864 83.6262 321.49V322.117C83.6262 322.743 84.2531 323.37 84.2531 323.996L90.5217 347.802C94.2828 362.21 98.6708 377.245 102.432 391.654C103.686 395.413 102.432 397.918 99.2977 400.424C91.7754 407.315 86.1337 412.327 81.1188 417.339C69.8354 428.615 61.0593 438.012 52.9102 446.156C49.149 449.914 46.6416 450.541 40.9999 449.288C22.821 443.65 3.38843 439.265 -14.7905 434.253L-22.3128 432.374C-26.0739 431.121 -27.9545 429.868 -29.2082 426.109L-33.5962 430.494C-31.7156 434.253 -28.5813 436.759 -23.5665 438.012L-14.7905 439.891ZM859.049 -150.859L852.154 -152.738C846.512 -153.991 840.87 -155.871 835.229 -157.124C828.96 -159.003 825.826 -157.124 822.065 -153.365C805.766 -137.077 789.468 -120.789 773.797 -105.128C770.035 -101.995 768.155 -98.2366 770.036 -91.972C773.797 -80.0693 776.931 -66.9137 780.065 -55.011C781.319 -50.6258 782.573 -45.6141 783.826 -41.2289L788.214 -24.941C789.468 -19.9293 792.602 -16.797 797.617 -15.5441C805.14 -13.6647 812.035 -11.7853 819.557 -9.90598C826.453 -8.02661 833.348 -6.14722 840.244 -4.26785C844.005 -3.64139 847.139 -2.38846 850.9 -1.13556C855.288 0.117371 859.676 1.37027 864.691 2.6232C870.96 3.8761 874.721 1.99673 877.855 -1.13556C894.153 -17.4235 910.452 -33.7114 926.123 -49.3728C929.257 -52.5051 931.138 -56.2639 929.884 -62.5285C927.377 -70.6725 925.496 -78.8164 923.616 -86.3339C921.108 -95.1043 918.601 -104.501 916.093 -113.272C915.467 -115.151 914.84 -117.657 914.213 -119.536C912.959 -123.921 911.705 -128.933 910.452 -133.318C910.452 -133.945 909.825 -134.571 909.825 -134.571C909.198 -135.198 909.198 -135.198 908.571 -135.198C897.288 -139.583 886.004 -142.089 874.721 -145.221C869.079 -148.353 864.064 -149.606 859.049 -150.859ZM908.571 -119.536C909.198 -117.657 909.825 -115.151 910.452 -113.272C912.959 -104.501 915.466 -95.1043 917.974 -86.3339C919.854 -78.1899 922.362 -70.046 924.243 -62.5285C925.496 -58.7697 924.243 -57.5168 922.362 -55.011C914.213 -46.867 906.064 -38.7231 897.914 -30.5791C889.765 -22.4352 881.616 -14.2912 873.467 -6.14725C870.96 -3.64139 869.706 -3.01492 865.945 -3.64139C861.557 -4.89432 857.169 -6.14722 852.781 -7.40012C849.02 -8.65305 845.885 -9.27951 842.124 -10.5324C835.229 -12.4118 828.333 -14.2912 821.438 -16.1706C813.916 -18.0499 807.02 -19.9293 799.498 -21.8087C796.99 -22.4352 795.11 -24.3145 794.483 -26.8203L790.095 -43.1083C788.841 -47.4935 787.588 -52.5051 786.334 -56.8904C783.199 -69.4195 780.065 -81.9487 776.304 -93.8514C775.05 -96.9837 775.677 -98.863 778.185 -101.369C794.483 -117.657 810.781 -133.945 826.453 -149.606C828.96 -152.112 830.214 -152.738 833.975 -152.112C839.617 -150.859 845.259 -148.98 850.273 -147.727L857.169 -145.847C862.184 -144.595 867.198 -143.342 872.213 -142.089C882.87 -139.583 894.153 -136.451 904.183 -132.692C906.064 -128.307 907.317 -123.921 908.571 -119.536ZM452.845 482.49C450.965 484.996 449.711 488.128 449.711 492.514C449.711 496.899 450.965 500.658 453.472 502.537C458.487 506.922 467.263 506.296 472.278 502.537C472.905 501.911 474.159 501.284 474.785 500.658C480.427 495.019 477.92 487.502 476.039 482.49C476.039 481.864 475.412 481.864 475.412 481.237C475.412 480.611 474.785 480.611 474.159 480.611C462.875 475.599 459.741 475.599 452.845 482.49ZM468.517 498.152C465.383 500.658 459.741 501.284 457.233 498.778C455.98 497.525 455.353 495.646 455.353 493.14C455.353 490.634 455.98 488.128 456.607 486.876C457.233 486.249 457.233 486.249 457.86 485.623C460.995 482.49 462.248 482.49 470.397 485.623C472.905 491.887 472.905 495.02 468.517 498.152ZM852.781 -91.3456H851.527C845.885 -92.5985 838.363 -88.2133 836.482 -83.2016C834.602 -77.5635 835.856 -71.2989 839.617 -66.9137C842.751 -63.7814 849.646 -61.2755 855.915 -63.7814C857.169 -64.4078 858.422 -65.0343 859.676 -66.2872C862.811 -69.4195 865.318 -75.0576 864.064 -80.0693C863.437 -81.9487 863.437 -83.2016 862.811 -84.4545L862.184 -86.3339C862.184 -86.9604 861.557 -87.5868 860.93 -87.5868L860.303 -88.2133C857.796 -90.7191 855.288 -90.7191 852.781 -91.3456ZM857.169 -83.2016C857.796 -81.9487 857.796 -80.6958 858.422 -78.8164C859.049 -75.6841 856.542 -70.6724 854.034 -69.4195C850.273 -68.1666 846.512 -69.4195 844.005 -71.2989C842.124 -73.1783 840.87 -77.5635 842.124 -81.3222C842.124 -81.9487 842.751 -82.5751 843.378 -82.5751C845.258 -84.4545 849.02 -85.7074 850.9 -85.7074H852.154C854.034 -85.7074 855.288 -85.081 857.169 -84.4545V-83.2016ZM771.289 164.249C769.409 166.755 768.155 169.888 768.155 174.273C768.155 178.658 769.409 182.417 771.916 184.296C776.931 188.681 785.707 188.055 790.722 184.296C791.349 183.67 792.602 183.043 793.229 182.417C798.871 176.779 796.364 169.261 794.483 164.249C794.483 163.623 793.856 163.623 793.856 162.997C793.856 162.37 793.229 162.37 792.602 162.37C781.946 157.358 778.185 156.732 771.289 164.249ZM787.588 179.284C784.453 181.79 778.812 182.417 776.304 179.911C775.05 178.658 774.424 176.779 774.424 174.273C774.424 171.767 775.05 169.261 775.677 168.008C776.304 167.382 776.304 167.382 776.931 166.755C780.692 162.997 781.319 163.623 789.468 166.755C791.349 173.02 791.976 176.152 787.588 179.284ZM473.532 419.218L467.89 417.965C461.621 416.086 455.353 414.833 449.084 412.327C443.443 410.448 439.681 412.953 437.174 416.086C422.756 431.121 405.831 448.035 388.906 464.323C383.891 468.708 382.637 473.72 384.518 479.984C387.652 490.634 390.16 500.658 393.294 511.307L397.682 526.969C398.309 529.475 398.936 531.354 399.563 533.86C400.816 539.498 402.07 545.136 404.577 550.774C404.577 551.401 405.204 551.401 405.204 552.027L405.831 552.654C409.592 555.159 413.353 555.786 417.115 556.412C418.368 556.412 420.249 557.039 421.503 557.665C429.025 560.171 437.174 562.051 444.696 563.93C455.353 566.436 466.636 569.568 476.666 573.327C484.188 575.833 489.203 572.074 492.964 568.942C493.591 568.315 494.218 567.062 494.845 566.436C501.74 558.918 508.636 551.401 516.158 544.51C519.292 541.377 523.054 537.619 526.188 534.486C528.068 532.607 529.949 530.728 531.83 529.475C535.591 526.342 539.352 523.21 542.486 518.198C543.74 516.319 544.994 514.44 544.367 510.054C542.486 501.284 539.979 493.14 537.471 484.37C534.964 476.226 533.083 468.082 531.203 459.311C530.576 456.805 529.949 454.3 529.322 452.42C528.068 449.288 527.442 446.156 526.815 443.023C525.561 436.132 521.8 432.374 515.531 430.494C501.114 426.109 487.323 422.35 473.532 419.218ZM520.546 443.023C521.173 446.156 522.427 449.914 523.054 453.047C523.68 455.553 524.307 457.432 524.934 459.938C526.815 468.082 529.322 476.852 531.203 484.996C533.71 493.14 535.591 501.911 537.471 510.054C538.098 511.934 537.471 511.934 536.218 513.813C533.71 517.572 530.576 520.078 526.815 523.21C524.934 525.089 523.054 526.969 520.546 528.848C517.412 531.981 513.651 535.739 510.516 538.872C503.621 545.763 496.099 553.28 489.203 560.798C484.815 565.809 481.681 567.689 477.293 565.809C466.636 562.05 455.353 559.545 444.696 556.412C437.174 554.533 429.025 552.654 421.503 550.148C419.622 549.521 418.368 549.521 416.488 548.895C413.353 548.268 410.219 547.642 408.339 546.389C406.458 541.377 405.204 536.366 403.951 531.354C403.324 528.848 402.697 526.342 402.07 524.463L397.682 508.802C394.548 498.152 392.04 488.128 388.906 477.479C387.652 473.093 388.279 470.588 392.04 467.455C408.965 451.167 425.264 434.253 440.308 419.218C442.189 416.712 444.069 416.712 446.577 417.339C453.472 419.218 459.741 421.097 466.01 422.977L471.651 424.23C485.442 427.988 499.233 431.747 513.024 434.879C518.039 436.132 519.919 438.638 520.546 443.023ZM604.545 3.24963C605.799 2.62317 607.052 1.9967 607.679 0.743805C611.44 -3.01495 613.321 -8.65305 612.067 -13.0383C612.067 -13.6647 612.067 -14.2912 611.44 -14.2912C610.814 -16.1706 610.814 -18.6764 608.933 -20.5558C608.933 -20.5558 608.933 -21.1822 608.306 -21.1822C607.052 -23.0616 604.545 -23.688 603.291 -23.688C594.515 -26.1939 587.62 -23.688 583.232 -16.1706C580.098 -10.5324 583.232 -5.52075 585.112 -1.76199L585.739 -1.13556C589.5 3.87613 601.411 5.12903 604.545 3.24963ZM592.008 -3.64139C590.127 -7.40015 588.874 -9.90598 590.127 -12.4118C590.754 -13.6647 591.381 -14.9177 592.635 -15.5441C595.142 -18.0499 598.276 -18.6764 603.291 -17.4235C603.918 -17.4235 604.545 -17.4235 605.172 -17.4235C605.172 -17.4235 605.172 -16.797 605.799 -16.797C606.426 -15.5441 607.052 -14.2912 607.052 -13.0383C607.052 -12.4118 607.052 -11.7853 607.679 -11.1589C608.306 -8.02661 605.799 -3.01492 602.664 -1.76199C600.784 -1.13553 593.262 -2.38846 592.008 -3.64139ZM588.874 62.7632L594.515 64.0161C600.157 65.269 607.052 67.1484 613.321 69.6542C618.963 71.5336 622.724 69.0278 625.231 65.8955C642.156 48.3546 657.828 33.3197 673.499 17.6582C673.499 17.6582 673.499 17.6582 674.126 17.0318C678.514 12.6465 679.768 7.63489 677.887 1.3703C673.499 -13.6647 669.738 -28.6997 665.35 -43.7347L664.723 -44.9876C664.097 -46.867 663.47 -49.3728 662.843 -51.2522C661.589 -56.8904 659.708 -62.5285 657.828 -68.1666C657.828 -68.7931 657.201 -69.4195 657.201 -69.4195C657.201 -69.4195 657.201 -69.4195 656.574 -70.046C652.186 -73.8047 647.171 -74.4312 642.783 -75.0576C640.903 -75.6841 639.022 -75.6841 637.142 -76.3105C630.873 -78.1899 624.605 -79.4429 618.336 -81.3222C608.933 -83.8281 598.903 -86.3339 589.5 -89.4662C575.71 -94.4778 568.187 -87.5868 561.292 -80.0693C551.262 -68.7931 539.979 -56.8904 527.442 -46.2405C524.307 -43.7347 521.8 -40.6024 519.292 -37.4702L517.412 -34.9643C515.531 -32.4585 516.158 -29.9526 516.158 -28.6997V-28.0733C518.039 -19.3029 520.546 -9.90598 523.054 -1.13556C524.934 6.38196 527.442 14.5259 529.322 22.6698C529.949 25.1757 530.576 27.6815 531.203 29.5609C532.456 32.6932 533.083 35.8255 533.71 38.9578C534.964 45.8488 538.725 49.6076 544.994 51.487C561.292 55.2457 575.083 59.0044 588.874 62.7632ZM541.859 38.3313C541.232 35.199 539.979 31.4403 539.352 28.308C538.725 25.8022 538.098 23.9228 537.471 21.4169C535.591 13.273 533.71 5.129 531.203 -2.38849C528.695 -11.1589 526.188 -19.9293 524.307 -28.6997V-29.3262C524.307 -29.9526 524.307 -30.5791 524.307 -30.5791L526.188 -33.0849C528.695 -36.2172 531.203 -38.7231 533.71 -41.2289C545.62 -51.8787 557.531 -63.7814 567.56 -75.0576C573.829 -81.9487 578.844 -86.9603 588.874 -82.5751C598.276 -78.8164 608.306 -76.3106 618.336 -73.8047C624.605 -72.5518 630.873 -70.6725 636.515 -68.7931C638.395 -68.1666 640.276 -67.5402 642.783 -67.5402C646.545 -66.9137 650.306 -66.2872 653.44 -63.7814C655.32 -58.7697 656.574 -53.1316 657.828 -48.1199C658.455 -46.2405 659.082 -43.7347 659.708 -41.8553L660.335 -40.6024C664.723 -25.5674 668.485 -10.5324 672.873 5.12903C674.126 9.51425 673.499 12.0201 669.738 15.1524C662.216 22.6699 654.694 30.1873 647.171 37.7049C639.022 45.8488 630.873 54.6192 622.097 63.3896C620.216 65.8955 618.336 65.8955 615.828 65.269C608.933 63.3896 602.038 61.5103 596.396 59.6309L590.754 58.378C576.963 54.6192 563.172 50.8605 548.755 47.7282C544.367 45.2224 542.486 43.343 541.859 38.3313ZM555.023 171.767C550.008 170.514 544.994 169.261 539.979 168.008L533.71 166.129C528.068 164.876 522.427 162.997 516.785 161.744C510.516 159.864 507.382 161.744 503.621 165.502C487.323 181.79 471.024 198.078 455.353 213.74C451.592 216.872 449.711 220.631 451.592 226.895C455.353 239.424 458.487 251.954 461.621 263.856C462.875 268.242 464.129 273.253 465.383 277.638L469.771 293.926C471.024 298.938 474.159 302.07 479.174 303.323C486.696 305.203 493.591 307.082 501.114 308.961C508.009 310.841 514.904 312.72 521.8 314.599C525.561 315.226 528.695 316.479 532.456 317.732C536.844 318.985 541.232 320.238 546.247 321.49C552.516 322.743 555.65 320.864 559.411 317.732C575.71 301.444 592.008 285.156 607.679 269.494C610.814 266.362 612.694 262.603 611.44 256.339C608.933 248.195 607.052 240.051 605.172 232.533C602.664 223.763 600.157 214.366 597.65 205.596C597.023 203.716 596.396 201.211 595.769 199.331C594.515 194.946 593.262 189.934 592.008 185.549C592.008 184.923 591.381 184.296 590.754 184.296C590.127 183.67 590.127 183.67 589.5 183.67C578.217 177.405 566.307 174.273 555.023 171.767ZM589.5 198.705C590.127 200.584 590.754 203.09 591.381 204.969C593.888 213.74 596.396 223.137 598.903 231.907C600.784 240.051 603.291 248.195 605.172 255.712C606.426 259.471 605.172 260.724 603.291 263.23C595.142 271.374 586.993 279.518 578.844 287.662C570.695 295.806 562.546 303.95 554.396 312.094C551.889 314.599 550.635 315.226 546.874 314.599C542.486 313.347 538.098 312.094 533.71 310.841C529.949 309.588 526.815 308.961 523.054 307.708C516.158 305.829 509.263 303.95 502.367 302.07C494.845 300.191 487.95 298.312 480.427 296.432C477.92 295.806 476.039 293.926 475.412 291.42L471.024 275.133C469.771 270.747 468.517 265.736 467.263 261.351C464.129 248.821 460.995 236.292 457.233 224.389C455.98 221.257 456.607 219.378 459.114 216.872C475.412 200.584 491.711 184.296 507.382 168.635C509.89 166.129 511.143 165.502 514.904 166.129C520.546 167.382 526.188 169.261 531.83 170.514L538.098 172.393C543.113 173.646 548.128 174.899 553.143 176.152C563.799 178.658 575.083 181.79 585.112 185.549C587.62 190.561 588.247 194.946 589.5 198.705ZM401.443 729.941C392.04 724.93 387.652 731.194 384.518 735.579L383.264 737.459C380.13 741.844 381.384 746.229 382.637 748.735C383.264 749.362 383.264 750.615 383.891 751.241C383.891 752.494 385.145 754.373 388.279 755.626C392.667 757.505 400.189 757.506 403.951 755C404.577 754.373 405.204 753.747 405.831 753.12C413.353 745.603 408.965 736.832 407.712 733.7C407.712 733.074 407.085 733.074 407.085 732.447C405.831 731.194 403.951 730.568 402.697 730.568C402.07 729.941 402.07 729.941 401.443 729.941ZM402.697 736.206C405.831 742.471 405.204 746.856 400.189 749.988C398.309 751.241 390.787 751.241 389.533 749.988C389.533 748.735 388.906 747.482 388.279 746.229C387.025 743.097 387.025 741.844 387.652 740.591L388.906 738.712C390.16 737.459 390.787 736.206 391.413 735.579C393.294 733.7 395.175 733.074 398.309 734.953C399.563 735.579 400.189 735.579 400.816 735.579C402.07 736.206 402.697 736.206 402.697 736.206ZM1021.41 -159.003C1024.54 -147.727 1027.67 -135.824 1030.81 -124.548L1034.57 -111.392C1035.2 -109.513 1035.82 -107.633 1036.45 -105.754C1037.7 -101.369 1038.96 -96.9837 1039.58 -92.5985C1040.84 -87.5868 1043.97 -83.8281 1049.61 -82.5751C1072.18 -77.5635 1094.12 -71.2989 1114.18 -65.0343C1121.7 -62.5285 1126.72 -66.2872 1130.48 -70.046C1131.11 -70.6724 1131.73 -71.2989 1132.36 -71.9254C1134.24 -73.8047 1136.12 -76.3106 1138 -78.1899L1133.61 -82.5751C1131.73 -80.6958 1129.85 -78.1899 1127.97 -76.3105C1123.58 -71.9254 1121.08 -69.4195 1116.06 -71.2989C1095.37 -77.5635 1073.43 -83.8281 1050.87 -88.8397C1047.11 -89.4662 1045.85 -91.3456 1045.23 -94.4778C1044.6 -98.8631 1043.35 -103.875 1042.09 -107.633C1041.46 -109.513 1040.84 -111.392 1040.84 -113.272L1037.08 -126.427C1033.94 -137.703 1030.81 -149.606 1027.67 -160.882C1026.42 -164.641 1027.05 -166.521 1029.55 -169.026C1032.69 -172.159 1035.82 -175.291 1038.96 -178.423L1034.57 -182.808C1031.44 -179.676 1028.3 -176.544 1025.17 -173.412C1020.78 -169.026 1020.15 -164.641 1021.41 -159.003ZM443.443 679.825C442.189 679.825 440.308 679.198 439.055 678.572C430.905 676.066 422.756 674.187 415.234 672.307C404.577 669.801 393.921 666.669 383.264 663.537C376.996 661.657 371.354 662.91 366.966 668.548C358.19 677.945 349.414 686.716 341.265 694.86C334.996 701.124 328.101 707.389 321.832 713.653C316.19 718.665 314.937 723.677 316.817 731.194C322.459 749.362 326.847 768.155 331.862 786.949L333.742 794.467C334.996 800.731 338.757 804.49 345.026 805.743L352.548 807.622C370.727 812.007 389.533 817.019 408.339 822.031C415.234 823.91 420.249 823.284 425.264 818.272L425.891 817.646C434.04 808.875 442.816 800.105 453.472 788.828C458.487 783.817 464.129 778.805 471.024 771.914C475.412 767.529 477.293 762.517 475.412 756.879C471.024 741.844 467.263 727.436 463.502 712.401L457.233 689.222C457.233 688.595 456.607 687.342 455.98 686.716L455.353 686.089C455.353 685.463 454.726 685.463 454.726 684.836L454.099 684.21C450.965 681.078 447.204 680.451 443.443 679.825ZM450.965 688.595C450.965 689.222 451.592 689.848 451.592 690.474L457.86 713.653C461.621 728.688 466.009 743.724 469.771 758.132C471.024 761.891 469.771 764.397 466.636 766.902C459.114 773.793 453.472 778.805 448.457 783.817C437.174 795.093 428.398 803.863 420.249 812.634C416.488 816.393 413.98 817.019 408.339 815.766C390.16 810.128 370.727 805.743 352.548 800.731L345.026 798.852C340.638 797.599 338.757 795.719 338.13 791.961L336.25 784.443C331.862 766.276 326.847 747.482 321.205 728.688C319.952 723.677 319.952 720.545 323.713 717.412L324.34 716.786C331.235 710.521 337.504 704.257 344.399 697.992C352.548 689.848 361.324 680.451 370.1 671.054C373.234 667.296 376.369 666.669 380.13 667.922C390.787 671.681 401.443 674.187 412.1 677.319C420.249 679.198 427.771 681.704 435.92 683.583C437.801 684.21 439.055 684.21 440.935 684.836C445.323 686.089 448.457 686.716 450.965 688.595ZM762.513 360.957C761.26 360.957 759.379 360.331 758.125 359.704C749.976 357.199 741.827 355.319 734.305 353.44C723.648 350.934 712.991 347.802 702.335 344.669C696.066 342.79 690.425 344.043 686.037 349.681C677.26 359.078 668.485 367.848 660.335 375.992C654.067 382.257 647.171 388.522 640.903 394.786C635.261 399.798 634.007 404.809 635.888 412.327C641.53 430.494 645.918 449.288 650.306 468.082L652.186 475.599C653.44 481.864 657.201 485.623 663.47 486.876L670.992 488.755C689.171 493.14 707.977 498.152 726.156 503.163C733.051 505.043 738.066 504.416 743.081 499.405L743.708 498.778C751.857 490.008 760.633 481.237 771.289 469.961C776.304 464.95 781.946 459.938 788.841 453.047C793.229 448.661 795.11 443.65 793.229 438.012C788.841 422.977 785.08 407.942 780.692 392.907L774.424 370.354C774.424 369.728 773.797 368.475 773.17 367.848L772.543 367.222C772.543 366.595 771.916 366.596 771.916 365.969L771.289 365.343C770.036 362.837 765.648 361.584 762.513 360.957ZM770.036 370.354C770.036 370.981 770.662 371.607 770.662 372.234L776.931 394.786C780.692 409.821 785.08 424.856 789.468 439.891C790.722 443.65 789.468 446.156 786.334 448.661C778.811 455.553 773.17 460.564 768.155 465.576C756.872 476.852 748.096 485.623 739.946 494.393C736.185 498.152 733.678 498.778 728.036 497.525C709.857 491.887 690.425 487.502 672.246 482.49L664.723 480.611C660.335 479.358 658.455 477.479 657.828 473.72L655.947 466.202C651.559 448.035 646.544 429.241 640.903 410.448C639.649 405.436 639.649 402.304 643.41 399.171L644.037 398.545C650.932 392.28 657.201 386.016 664.096 379.751C672.246 371.607 681.022 362.21 689.798 352.813C692.932 349.055 696.066 348.428 699.827 349.681C710.484 353.44 721.141 355.946 731.797 359.078C739.319 360.957 747.469 363.463 755.618 365.343C757.498 365.969 758.752 365.969 760.633 366.596C764.394 367.848 767.528 367.848 770.036 370.354ZM286.101 322.117C287.355 321.49 288.609 320.864 289.236 319.611C292.997 315.852 294.877 310.214 293.624 305.829C293.624 305.203 293.624 304.576 292.997 304.576C292.37 302.697 292.37 300.191 290.489 298.312C290.489 298.312 290.489 297.685 289.862 297.685C288.609 295.806 286.101 295.179 284.848 295.179C276.072 292.673 269.176 295.179 264.788 302.697C261.654 308.335 264.788 313.346 266.669 317.105V317.732C271.057 322.743 282.34 323.996 286.101 322.117ZM273.564 314.599C271.684 310.841 270.43 308.335 271.684 305.829C272.31 304.576 272.937 303.323 274.191 302.697C276.698 300.191 279.833 299.564 284.848 300.817C285.474 300.817 286.101 300.817 286.728 300.817C286.728 300.817 286.728 301.444 287.355 301.444C287.982 302.697 288.609 303.95 288.609 305.203C288.609 305.829 288.609 306.456 289.236 307.082C289.862 310.214 287.355 315.226 284.221 316.479C281.713 317.732 274.818 316.479 273.564 314.599ZM720.514 411.074C711.111 406.062 706.723 412.327 703.589 416.712L702.335 418.591C699.201 422.977 700.454 427.362 701.708 429.868C702.335 430.494 702.335 431.747 702.962 432.374C702.962 433.627 704.215 435.506 707.35 436.759C711.738 438.638 719.26 438.638 723.021 436.132C723.648 435.506 724.275 434.879 724.902 434.253C732.424 426.735 728.036 417.965 726.782 414.833C726.782 414.206 726.156 414.206 726.156 413.58C724.902 412.327 723.021 411.701 721.768 411.701C721.141 411.701 720.514 411.074 720.514 411.074ZM721.768 417.965C724.902 424.23 723.648 428.615 719.26 431.747C717.379 433 709.857 432.374 708.603 431.747C708.603 430.494 707.977 429.241 707.35 427.988C706.096 424.856 706.096 423.603 706.723 422.35L707.977 420.471C709.23 419.218 709.857 417.965 710.484 417.339C712.365 415.459 714.245 414.833 717.379 416.712C718.633 417.339 719.26 417.339 719.887 417.339C720.514 417.339 721.141 417.339 721.768 417.965ZM958.72 278.265C944.929 273.253 937.406 280.144 930.511 287.662C920.481 298.938 909.198 310.214 896.661 321.49C893.526 323.996 891.019 327.129 888.512 330.261L886.004 332.767C884.124 335.273 884.75 337.778 884.75 339.031V339.658C886.631 348.428 889.138 357.825 891.646 366.596C893.526 372.234 894.78 378.498 896.661 384.763L901.676 379.751C900.422 374.739 899.168 369.728 897.914 364.716C895.407 355.946 892.9 347.175 891.019 338.405V337.778C891.019 337.152 891.019 336.526 891.019 336.526L893.526 334.02C896.034 330.887 898.541 328.382 901.049 325.876C913.586 314.599 924.869 303.323 934.899 292.047C941.168 285.156 946.183 280.144 956.839 284.529C966.242 288.288 976.272 290.794 986.302 293.3C987.555 293.3 988.809 293.926 989.436 293.926L994.451 288.915C991.943 288.288 990.063 287.662 987.555 287.035C977.525 284.529 968.123 282.024 958.72 278.265ZM-32.9693 640.984C-31.7156 640.358 -30.4619 639.731 -29.835 638.478C-26.0739 634.72 -24.1933 629.082 -25.447 624.696C-25.447 624.07 -25.447 623.443 -26.0739 623.443C-26.7008 621.564 -26.7008 619.058 -28.5813 617.179C-28.5813 617.179 -28.5813 616.552 -29.2082 616.552C-30.4619 614.673 -32.9693 614.047 -34.2231 614.047C-42.9991 611.541 -49.8945 614.047 -54.2825 621.564C-57.4168 627.202 -54.2825 632.214 -52.4019 635.973L-51.7751 636.599C-48.0139 640.984 -36.1036 642.237 -32.9693 640.984ZM-45.5065 633.467C-47.3871 629.708 -48.6408 627.202 -47.3871 624.696C-46.7602 623.443 -46.1333 622.191 -44.8796 621.564C-42.3722 619.058 -39.2379 618.432 -34.2231 619.685C-33.5962 619.685 -32.9693 619.685 -32.3425 619.685C-32.3425 619.685 -32.3425 620.311 -31.7156 620.311C-31.0888 621.564 -30.4619 622.817 -30.4619 624.07C-30.4619 624.696 -30.4619 625.323 -29.835 625.949C-29.2082 629.082 -31.7156 634.093 -34.8499 635.346C-36.7305 635.973 -44.2528 634.72 -45.5065 633.467ZM-42.9991 701.124C-37.3573 702.377 -30.4619 704.256 -24.1933 706.762C-18.5516 708.642 -14.7905 706.136 -12.283 703.004C4.64214 685.463 20.3136 670.428 35.985 654.766C35.985 654.766 35.985 654.766 36.6119 654.14C40.9999 649.755 42.2536 644.743 40.373 638.478C35.985 623.443 31.597 607.782 27.8359 593.373L27.209 592.121C26.5822 590.241 25.9553 587.735 25.3284 585.856C24.0747 580.218 22.1942 574.58 20.3136 568.942C20.3136 568.315 19.6867 567.689 19.6867 567.689C19.6867 567.689 19.6867 567.689 19.0599 567.062C14.6719 563.303 9.657 562.677 5.26898 562.051C3.38841 561.424 1.50784 561.424 -0.372726 560.798C-6.64131 558.918 -12.9099 557.665 -19.1785 555.786C-28.5813 553.28 -38.6111 550.774 -48.0139 547.642C-61.8048 542.63 -69.3271 549.521 -76.2225 557.039C-86.2523 568.315 -97.5357 579.591 -110.073 590.868C-113.207 593.373 -115.715 596.506 -118.222 599.638L-120.103 602.144C-121.983 604.65 -121.356 607.156 -121.356 608.408V609.035C-119.476 617.805 -116.968 627.202 -114.461 635.973C-112.58 643.49 -110.073 651.634 -108.192 659.778C-107.565 662.284 -106.939 664.79 -106.312 666.669C-105.058 669.801 -104.431 672.934 -103.804 676.066C-102.551 682.957 -98.7894 686.716 -92.5208 688.595C-78.7299 691.727 -64.9391 695.486 -51.1482 699.245L-42.9991 701.124ZM-95.6551 675.439C-96.282 672.307 -97.5357 668.548 -98.1625 665.416C-98.7894 662.91 -99.4163 661.031 -100.043 658.525C-101.924 650.381 -103.804 642.237 -106.312 634.72C-108.819 625.949 -111.327 617.179 -113.207 608.408V607.782C-113.207 607.156 -113.207 606.529 -113.207 606.529L-111.327 604.023C-108.819 600.891 -106.312 598.385 -103.804 595.879C-91.894 585.229 -79.9837 573.327 -69.9539 562.051C-63.6854 555.159 -58.6705 550.148 -48.0139 554.533C-38.6111 558.292 -28.5813 560.798 -18.5516 563.303C-12.283 564.556 -6.01445 566.436 -0.372726 568.315C1.50784 568.942 3.38841 569.568 5.89584 569.568C9.657 570.194 13.4181 570.821 16.5524 573.327C18.433 578.338 19.6867 583.977 20.9404 588.988C21.5673 590.868 22.1941 593.373 22.821 595.253L23.4479 596.506C27.209 611.541 31.597 626.576 35.985 642.237C37.2387 646.622 36.6119 649.128 32.8507 652.26C25.3284 659.778 17.8061 667.296 10.2838 674.813C2.13469 682.957 -6.01445 691.727 -14.7905 700.498C-17.2979 703.004 -18.5516 703.004 -21.059 702.377C-27.9545 700.498 -34.8499 698.618 -40.4916 696.739L-46.1333 695.486C-59.9242 691.727 -73.7151 687.969 -88.1328 684.836C-93.1477 682.33 -95.0283 680.451 -95.6551 675.439ZM153.207 821.404C153.834 820.778 155.088 820.151 155.715 819.525C161.357 813.887 158.849 806.369 156.969 801.358C156.969 800.731 156.342 800.731 156.342 800.105C156.342 799.478 155.715 799.478 155.088 799.478C144.431 794.467 140.67 794.467 133.775 801.358C131.894 803.863 130.641 806.996 130.641 811.381C130.641 815.766 131.894 819.525 134.402 821.404C139.417 825.789 148.193 825.163 153.207 821.404ZM136.282 811.381C136.282 808.875 136.909 806.369 137.536 805.116C138.163 804.49 138.163 804.49 138.79 803.863C142.551 800.105 143.178 800.731 151.327 803.863C153.834 810.128 153.834 813.26 149.446 816.393C146.312 818.898 140.67 819.525 138.163 817.019C137.536 816.393 136.282 813.887 136.282 811.381ZM101.805 874.653C109.327 877.159 117.477 879.038 124.999 880.918C135.655 883.424 146.939 886.556 156.969 890.315C164.491 892.821 169.506 889.062 173.267 885.929C173.894 885.303 174.521 884.05 175.147 883.424C182.043 875.906 188.938 868.389 196.461 861.498C199.595 858.365 203.356 854.607 206.49 851.474C208.371 849.595 210.252 847.715 212.132 846.463C215.893 843.33 219.654 840.198 222.789 835.186C224.042 833.307 225.296 831.428 224.669 827.042C222.789 818.272 220.281 810.128 217.774 801.358C215.266 793.214 213.386 785.07 211.505 776.299C210.878 773.793 210.251 771.288 209.625 769.408C208.371 766.276 207.744 763.144 207.117 760.011C205.863 753.12 202.102 749.362 195.834 747.482C182.043 744.35 168.252 740.591 154.461 736.832L148.819 735.579C143.178 734.327 136.282 732.447 130.014 729.941C124.372 728.062 120.611 730.568 118.103 733.7C103.686 748.735 86.7605 765.649 69.8353 781.937C64.8205 786.949 63.5668 791.334 65.4474 797.599C68.5816 808.249 71.0891 818.272 74.2234 828.922L78.6114 844.583C79.2382 847.089 79.8651 848.968 80.4919 851.474C81.7456 857.112 82.9994 862.75 85.5068 868.389C85.5068 869.015 86.1337 869.015 86.1337 869.641L86.7605 870.268C90.5216 872.774 94.2828 873.4 98.0439 874.027C99.2977 874.027 100.551 874.027 101.805 874.653ZM85.5068 849.595C84.8799 847.089 84.2531 844.583 83.6262 842.704L79.2382 827.042C76.1039 816.393 73.5965 806.369 70.4622 795.719C69.2085 791.334 69.8354 788.828 73.5965 785.696C90.5217 769.408 106.82 752.494 121.865 737.459C124.372 734.953 125.626 734.953 128.133 735.579C135.029 737.459 141.924 739.338 147.566 741.218L153.207 742.471C166.998 746.229 180.789 749.988 194.58 753.12C198.968 754.373 200.849 756.253 201.475 760.638C202.102 763.77 203.356 767.529 203.983 770.661C204.61 773.167 205.237 775.046 205.863 777.552C207.744 785.696 210.252 794.467 212.132 802.61C214.64 810.755 216.52 819.525 218.401 827.669C219.028 829.548 218.401 829.548 217.147 831.428C214.639 835.186 211.505 837.692 207.744 840.824C205.863 842.704 203.983 844.583 201.475 846.463C198.341 849.595 194.58 853.354 191.446 856.486C184.55 863.377 177.028 870.895 170.133 878.412C165.745 883.424 162.61 885.303 158.222 883.424C147.566 879.665 136.282 877.159 125.626 874.027C118.103 872.147 109.954 870.268 102.432 867.762C100.551 867.136 99.2977 867.136 97.4171 866.509C94.2828 865.883 91.1485 865.256 89.2679 864.003C88.0142 860.245 86.7605 855.233 85.5068 849.595ZM321.205 915.373C307.414 910.361 299.892 917.252 292.997 924.77C282.967 936.046 271.684 947.322 259.146 958.599C256.012 961.104 253.505 964.237 250.997 967.369L248.49 969.875C246.609 972.381 247.236 974.886 247.236 976.139V976.766C249.117 985.536 251.624 994.933 254.132 1003.7C256.012 1009.34 257.266 1015.61 259.146 1021.87L264.161 1016.86C262.908 1011.85 261.654 1006.84 260.4 1001.82C257.893 993.054 255.385 984.283 253.505 975.513V974.887C253.505 974.26 253.505 973.634 253.505 973.634L256.012 971.128C258.52 967.996 261.027 965.49 263.534 962.984C276.072 951.708 287.355 940.431 297.385 929.155C303.653 922.264 308.668 917.252 319.325 921.638C328.728 925.396 338.757 927.902 348.787 929.782C350.041 929.782 351.294 930.408 351.921 930.408L356.936 925.396C354.429 924.77 352.548 924.143 350.041 923.517C340.011 921.638 330.608 919.132 321.205 915.373ZM639.649 597.132C625.858 592.12 618.336 599.012 611.44 606.529C601.411 617.805 590.127 629.082 577.59 640.358C574.456 642.864 571.948 645.996 569.441 649.128L566.934 651.634C565.053 654.14 565.68 656.646 565.68 657.899V658.525C567.56 667.296 570.068 676.692 572.575 685.463C574.456 691.101 575.71 697.365 577.59 703.63L582.605 698.618C581.351 693.607 580.098 688.595 578.844 683.583C576.336 674.813 573.829 666.043 571.948 657.272V656.646C571.948 656.019 571.948 655.393 571.948 655.393L574.456 652.887C576.963 649.755 579.471 647.249 581.978 644.743C594.515 633.467 605.799 622.191 615.828 610.914C622.097 604.023 627.112 599.012 637.768 603.397C647.171 607.155 657.201 609.661 667.231 611.541C668.484 611.541 669.738 612.167 670.365 612.167L675.38 607.156C672.873 606.529 670.992 605.903 668.485 605.276C659.082 602.77 649.052 600.264 639.649 597.132ZM771.289 -370.746L770.036 -371.372L765.021 -366.361L769.409 -365.108L776.931 -336.917C784.453 -308.1 792.602 -278.657 800.752 -249.213C801.378 -246.707 802.005 -244.201 802.632 -242.322C804.513 -237.31 805.766 -232.299 806.393 -226.661C806.393 -225.408 807.02 -224.781 807.02 -223.528C773.17 -188.447 738.066 -153.365 703.589 -120.163C702.335 -120.789 701.708 -120.789 700.454 -120.789C695.439 -121.416 690.425 -122.668 685.41 -124.548C682.902 -125.174 680.395 -125.801 678.514 -126.427C649.052 -133.945 619.59 -142.089 590.754 -150.233L562.546 -157.75L561.292 -162.135L556.277 -157.124L556.904 -155.871L452.845 -51.8787L451.592 -52.5051L446.577 -47.4935L450.965 -46.2405L459.114 -17.4235C466.636 11.3936 474.786 40.8371 482.308 69.6542C482.935 72.1601 483.561 74.6659 484.188 76.5453C486.069 81.557 487.323 86.5686 487.95 91.5803C487.95 92.8332 488.576 93.4596 488.576 94.7126C454.726 129.794 419.622 164.876 385.145 198.078C383.891 197.452 383.264 197.452 382.011 197.452C376.996 196.825 371.981 195.572 366.966 193.693C364.458 193.067 361.951 192.44 360.07 191.814C331.235 184.296 301.773 176.152 272.937 168.635L244.102 160.491L242.221 156.105L237.206 161.117L237.833 162.37L133.775 266.362L132.521 265.736L127.506 270.747L131.894 272L139.417 300.817C146.939 329.634 155.088 359.078 162.61 387.895C163.237 390.401 163.864 392.907 164.491 394.786C166.371 399.798 167.625 404.809 168.252 409.821C168.252 411.074 168.879 411.701 168.879 412.953C135.029 448.035 99.9245 483.117 65.4474 516.319C64.1936 515.693 63.5668 515.693 62.3131 515.693C57.2982 515.066 52.2833 513.813 47.2685 511.934C44.761 511.307 42.2536 510.681 40.373 510.054C10.9107 502.537 -18.5516 494.393 -47.3871 486.249L-75.5957 478.732L-76.8494 474.346L-81.8642 479.358L-81.2374 480.611L-184.669 585.229L-185.923 584.603L-190.938 589.615L-186.549 590.868L-179.027 619.058C-175.266 632.214 -172.132 645.37 -168.371 658.525L-160.221 666.669C-164.609 649.755 -168.997 633.467 -173.385 617.179L-180.908 588.988L-76.8494 484.996L-48.6408 492.514C-19.8053 500.031 9.657 508.175 39.1193 516.319C41.6268 516.945 43.5073 517.572 46.0147 518.198C51.0296 520.078 56.6713 521.331 62.3131 521.957C63.5668 521.957 64.8205 522.584 65.4474 525.089C76.1039 565.809 87.3874 608.408 101.805 660.404C102.432 663.537 101.805 665.416 99.2977 667.922C66.701 699.871 34.7313 732.447 2.76157 764.397C1.50784 765.65 0.254135 767.529 -0.372726 768.782L-2.88016 768.155C-5.38759 767.529 -7.89502 766.902 -10.4025 766.276L-32.9693 760.011C-48.0139 755.626 -63.6854 751.867 -78.73 748.109L-70.5808 756.253C-58.6705 759.385 -46.7602 762.517 -34.8499 765.65L-12.283 771.914C-9.77559 772.541 -7.26816 773.167 -4.76073 773.793L-2.2533 774.42C-2.2533 776.299 -2.2533 777.552 -1.62643 779.432C4.64214 801.984 10.2839 822.657 15.2987 841.451L23.4479 849.595C17.8062 827.669 11.5376 804.49 4.01527 777.552C2.76157 773.167 3.38841 771.288 6.52271 768.155C39.1193 736.206 71.0891 703.63 103.059 671.681C104.313 670.428 104.939 669.175 106.193 667.922L131.267 674.813C169.506 684.836 207.744 695.486 245.982 705.509C248.49 706.136 249.117 707.389 249.117 709.268C255.385 734.953 262.281 761.264 269.176 786.323C272.31 798.225 275.445 809.502 278.579 821.404C280.46 827.669 281.713 834.56 283.594 840.824L285.474 847.715L181.416 951.708L161.983 946.696C151.954 944.19 141.924 941.058 131.267 938.552C121.865 936.046 112.462 933.54 103.059 931.034L111.208 939.178C117.477 941.058 123.745 942.311 129.387 944.19C139.417 946.696 149.446 949.828 160.103 952.334L179.535 957.346L187.058 986.163C190.819 999.318 193.953 1012.47 197.714 1025.63L205.863 1033.77C201.475 1017.49 197.087 1000.57 192.699 984.91L185.177 956.093L289.236 852.101L317.444 859.618C343.772 867.136 371.354 874.027 398.309 881.544L403.324 876.533C375.115 869.015 346.28 861.498 318.698 853.98L289.862 846.463L287.982 839.572C286.101 833.307 284.848 826.416 282.967 820.151C279.833 808.249 276.698 796.972 273.564 785.07C266.669 760.011 259.773 733.7 253.505 708.015C253.505 707.389 252.878 706.136 252.878 705.509C287.355 670.428 322.459 635.346 357.563 600.891C359.444 602.144 361.951 603.397 364.458 604.023C392.667 610.914 420.876 618.432 448.457 625.949C458.487 628.455 468.517 631.587 478.547 634.093L497.979 639.105L505.502 667.922C513.024 695.486 520.546 723.677 528.068 751.867L533.083 746.856C526.188 719.918 518.666 692.354 511.143 666.043L503.621 637.226L607.679 533.233L636.515 541.377C662.843 548.268 690.425 555.786 717.379 563.303L722.394 558.292C694.186 550.774 665.977 543.257 638.395 535.739L609.56 527.595L607.679 521.331C605.799 514.44 603.918 508.175 602.664 501.284C599.53 489.381 596.396 478.105 593.262 466.202C586.366 441.144 579.471 414.833 573.202 389.148C573.202 388.522 572.575 387.269 572.575 386.642C607.052 351.561 642.156 316.479 677.261 282.024C679.141 283.277 681.649 284.529 684.156 285.156C712.365 292.047 740.573 299.564 767.528 307.082C777.558 309.588 787.588 312.72 798.244 315.226L817.677 320.238L825.199 349.055C832.721 376.619 840.244 404.809 847.766 433L852.781 427.988C845.885 401.051 838.363 373.487 830.841 347.175L823.318 318.358L927.377 214.366L955.585 221.884C981.913 229.401 1009.5 236.292 1036.45 243.81L1041.46 238.798C1013.26 231.28 984.421 223.763 956.839 216.245L928.004 208.728L926.123 201.837C924.243 195.572 922.989 188.681 921.108 182.417C917.974 170.514 914.84 159.238 911.705 147.335C904.81 122.277 897.914 95.9655 891.646 70.2807C891.646 69.6543 891.019 68.4013 891.019 67.7749C925.496 32.6932 960.6 -2.38846 995.704 -36.8437C997.585 -35.5908 1000.09 -34.3378 1002.6 -33.7114C1030.81 -26.8203 1059.02 -19.3029 1085.97 -11.7853C1096 -9.27951 1106.03 -6.14722 1116.69 -3.64139L1136.12 1.3703L1143.64 30.1874C1151.17 57.7515 1158.69 85.9422 1166.21 114.133L1171.22 109.121C1164.33 82.1834 1156.81 54.6192 1149.28 28.308L1141.76 -0.509094L1178.75 -37.4702L1174.36 -41.8553L1137.37 -4.89429L1117.94 -9.90598C1107.91 -12.4118 1097.88 -15.5441 1087.23 -18.0499C1059.64 -25.5674 1031.44 -33.0849 1003.23 -39.976C995.704 -41.8553 994.451 -44.9876 992.57 -51.8787C983.167 -88.8397 972.51 -127.68 958.72 -178.423C957.466 -182.808 958.093 -184.688 961.227 -187.82C972.511 -199.096 983.167 -209.746 994.451 -221.022L990.063 -225.408C978.779 -214.131 968.123 -203.482 956.839 -192.205C955.585 -190.952 954.332 -189.073 953.705 -187.82L951.197 -188.447C948.69 -189.073 946.183 -189.7 943.675 -190.326L921.108 -196.591C885.377 -205.987 849.02 -216.011 813.289 -225.408C810.781 -226.034 810.154 -227.287 810.154 -228.54C809.528 -234.178 807.647 -239.816 806.393 -244.828C805.766 -247.334 805.14 -249.213 804.513 -251.719C796.99 -281.162 788.841 -310.606 780.692 -339.423L773.17 -367.614L810.154 -404.575L808.274 -407.707L771.289 -370.746ZM493.591 90.9538C492.964 85.3157 491.084 79.6776 489.83 74.6659C489.203 72.1601 488.576 70.2807 487.95 67.7749C480.427 38.9578 472.278 8.88779 464.756 -19.3029L457.233 -48.1199L561.292 -152.112L589.5 -144.595C618.336 -137.077 647.798 -128.933 677.261 -120.789C679.768 -120.163 681.649 -119.536 684.156 -118.91C689.171 -117.03 694.813 -115.777 700.454 -115.151C701.708 -115.151 702.962 -114.525 703.589 -112.019C714.245 -71.2989 725.529 -28.6997 739.946 23.2963C740.573 26.4286 739.946 28.308 737.439 30.8138C704.842 62.7632 672.873 95.3391 640.903 127.288C639.649 128.541 638.395 130.421 637.768 131.674L635.261 131.047C632.754 130.421 630.246 129.794 627.739 129.168L603.918 122.903C568.187 113.506 533.083 104.109 497.352 94.7126C494.845 93.4596 494.218 92.8332 493.591 90.9538ZM175.147 409.821C174.521 404.183 172.64 398.545 171.386 393.533C170.759 391.027 170.133 389.148 169.506 386.642C161.983 357.825 153.834 327.755 146.312 299.564L138.79 270.747L242.848 166.755L271.684 174.273C300.519 181.79 329.981 189.934 358.817 197.452C361.324 198.078 363.205 198.705 365.712 199.331C370.727 201.211 376.369 202.463 382.011 203.09C383.264 203.09 384.518 203.716 385.145 206.222C395.801 246.942 407.712 290.794 421.503 341.537C422.129 344.669 421.503 346.549 418.995 349.055C386.399 381.004 354.429 413.58 322.459 445.529C321.205 446.782 319.952 448.661 319.325 449.914L317.444 449.288C314.937 448.662 312.429 448.035 309.922 447.409L287.355 441.144C251.624 431.747 215.893 421.724 179.535 412.327C175.774 412.327 175.147 411.074 175.147 409.821ZM355.056 596.506C319.952 630.961 284.848 666.043 250.37 701.124C249.744 700.498 249.117 700.498 247.863 699.871C209.625 689.848 171.386 679.825 133.148 669.175L108.074 662.284C108.074 661.031 108.074 659.778 107.447 658.525C93.6559 607.156 81.7456 563.93 71.0891 523.21C71.0891 521.957 70.4622 521.331 69.8353 520.704C87.3874 503.79 104.939 486.875 121.865 469.335C139.417 451.794 156.342 434.253 173.267 417.339C173.894 417.965 174.521 417.965 175.774 418.591C211.505 427.988 247.236 437.385 283.594 447.409L306.161 453.673C308.668 454.3 311.176 454.926 313.683 455.553L316.19 456.179C316.19 458.058 316.19 459.311 316.817 461.191C330.608 510.681 341.265 550.774 350.668 587.735C352.548 590.868 353.175 594 355.056 596.506ZM568.814 390.401C575.083 416.086 581.978 442.397 588.874 467.455C592.008 479.358 595.142 490.634 598.276 502.537C600.157 509.428 602.038 515.693 603.291 522.584L605.172 528.848L501.114 632.84L481.681 627.829C471.651 625.323 461.621 622.191 451.592 619.685C424.01 612.167 395.801 604.65 367.593 597.759C360.07 595.879 358.817 592.747 356.936 585.856C347.533 548.895 336.877 508.802 323.086 459.311C321.832 454.926 322.459 453.047 325.593 449.914C358.19 417.965 390.16 385.389 422.129 353.44C423.383 352.187 424.637 350.934 425.264 349.681L451.592 356.572C489.203 366.596 527.442 376.619 565.053 386.642C567.56 387.895 568.187 388.522 568.814 390.401ZM674.126 278.265C639.022 312.72 603.918 347.802 569.441 382.883C568.814 382.257 568.187 382.257 566.934 381.63C529.322 371.607 491.084 361.584 453.472 351.56L427.144 344.669C427.144 343.417 427.144 342.164 426.517 340.911C412.727 290.794 400.816 246.315 390.16 205.596C390.16 204.343 389.533 203.716 388.906 203.09C406.458 186.175 424.01 169.261 440.935 151.72C457.86 134.179 475.412 116.639 492.338 99.7242C492.964 100.351 493.591 100.351 494.845 100.977C530.576 110.374 565.68 119.771 601.411 129.168L625.231 135.432C627.739 136.059 630.246 136.685 632.754 137.312L635.261 137.938C635.261 139.818 635.261 141.07 635.888 142.95C649.679 193.067 660.335 232.533 669.738 269.494C670.992 272.627 672.246 275.133 674.126 278.265ZM887.258 72.1601C893.526 97.8448 900.422 124.156 907.317 149.214C910.452 161.117 913.586 172.393 916.72 184.296C918.601 191.187 920.481 197.452 921.735 203.716L923.616 210.607L819.557 314.599L800.125 309.588C790.095 307.082 780.065 303.95 769.409 301.444C741.827 293.926 713.618 286.409 685.41 279.518C677.887 277.638 676.634 274.506 674.753 267.615C665.35 230.654 654.694 191.814 640.903 141.07C639.649 136.685 640.276 134.806 643.41 131.674C676.007 99.7242 707.977 67.1484 739.946 35.199C741.2 33.9461 741.827 32.6932 743.081 31.4403L769.409 38.3313C807.02 48.3546 845.258 58.378 882.87 68.4013C886.004 69.0278 886.631 70.2807 887.258 72.1601ZM922.362 -189.7L944.929 -183.435C947.436 -182.808 949.944 -182.182 952.451 -181.556L954.959 -180.929C954.959 -179.05 954.958 -177.797 955.585 -175.917C969.376 -125.801 980.033 -86.3339 989.436 -49.3728C990.063 -46.2405 991.316 -43.1083 993.197 -40.6024C958.093 -6.14725 922.989 28.9345 888.512 64.0161C887.885 63.3897 887.258 63.3896 886.004 62.7632C848.393 52.7398 810.154 42.7166 772.543 32.6932L746.215 25.8021C746.215 24.5492 746.215 23.2963 745.588 22.0434C731.797 -29.3262 719.887 -72.5518 709.23 -113.272C709.23 -114.525 708.603 -115.151 707.977 -115.777C725.529 -132.692 743.081 -149.606 760.006 -167.147C777.558 -184.688 794.483 -202.229 811.408 -219.143C812.035 -218.517 812.662 -218.517 813.916 -217.89C850.273 -209.12 886.004 -199.723 922.362 -189.7ZM236.579 490.008C231.565 488.755 226.55 487.502 221.535 486.249L215.266 484.37C209.625 483.117 203.983 481.237 198.341 479.984C192.073 478.105 188.938 480.611 185.177 483.743C168.879 500.031 152.581 516.319 136.909 531.981C133.148 535.113 131.267 538.872 133.148 545.136C136.909 557.039 140.043 570.194 143.178 582.097C144.431 586.482 145.685 591.494 146.939 595.879L151.327 612.167C152.581 617.179 155.715 620.311 160.73 621.564C168.252 623.443 175.147 625.323 182.67 627.202C189.565 629.082 196.461 630.961 203.356 632.84C207.117 633.467 210.251 634.72 214.013 635.973C218.401 637.226 222.789 638.478 227.804 639.731C234.072 640.984 237.206 639.105 240.968 635.973C257.266 619.685 273.564 603.397 289.236 587.735C292.37 584.603 294.25 580.844 292.997 574.58C290.489 566.436 288.609 558.292 286.728 550.774C284.221 542.004 281.713 532.607 279.206 523.837C278.579 521.957 277.952 519.451 277.325 517.572C276.072 513.187 274.818 508.175 273.564 503.79C273.564 503.163 272.937 502.537 272.31 502.537C271.684 501.911 271.684 501.91 271.057 501.91C259.146 495.646 247.863 493.14 236.579 490.008ZM270.43 517.572C271.057 519.451 271.684 521.957 272.31 523.837C274.818 532.607 277.325 542.004 279.833 550.774C281.713 558.918 284.221 567.062 286.101 574.58C287.355 578.338 286.101 579.591 284.221 582.097C276.072 590.241 267.922 598.385 259.773 606.529C251.624 614.673 243.475 622.817 235.326 630.961C232.818 633.467 231.565 634.093 227.804 633.467C223.416 632.214 219.027 630.961 214.639 629.708C210.878 628.455 207.744 627.829 203.983 626.576C197.087 624.696 190.192 622.817 183.297 620.938C175.774 619.058 168.252 617.179 161.357 615.299C158.849 614.673 156.969 612.794 156.342 610.288L151.954 594C150.7 589.615 149.446 584.603 148.193 580.218C145.058 567.689 141.924 555.159 138.163 543.257C136.909 540.125 137.536 538.245 140.043 535.739C156.342 519.451 172.64 503.163 188.311 487.502C190.819 484.996 192.073 484.37 195.834 484.996C201.475 486.249 207.117 488.128 212.759 489.381L219.028 491.261C224.042 492.514 229.057 493.767 234.072 495.02C244.729 497.525 256.012 500.658 266.042 504.416C268.549 508.802 269.803 513.187 270.43 517.572ZM355.056 69.0278C355.682 68.4013 356.309 67.7749 356.936 67.1484C364.458 59.6309 360.07 50.8605 358.817 47.7282C358.817 47.1017 358.19 47.1017 358.19 46.4753C356.936 45.2224 355.056 44.5959 354.429 44.5959L350.041 48.9811C350.041 48.9811 350.041 48.9811 350.668 48.9811C351.921 49.6076 352.548 49.6076 353.175 49.6076C353.802 49.6076 354.429 49.6076 354.429 50.234C357.563 56.4986 356.309 60.8839 351.921 64.0161C350.041 65.269 342.518 65.269 341.265 64.0161C341.265 62.7632 340.638 61.5103 340.011 60.2574C340.011 59.6309 340.011 59.6309 339.384 59.0045L334.996 63.3896C334.996 64.0161 335.623 64.6426 335.623 64.6426C335.623 65.8955 336.877 67.7748 340.011 69.0278C344.399 71.5336 351.921 71.5336 355.056 69.0278ZM270.43 381.63L275.445 382.883C281.086 384.136 287.982 386.016 294.25 388.522C299.892 390.401 303.653 387.895 306.161 384.763C323.086 367.222 338.757 352.187 354.429 336.526C354.429 336.526 354.429 336.525 355.056 335.899C359.444 331.514 360.697 326.502 358.817 320.238C354.429 305.203 350.668 290.168 346.28 275.133L345.653 273.253C345.026 271.374 344.399 268.868 343.772 266.989C342.518 261.35 340.638 255.712 338.757 250.074C338.757 249.448 338.13 248.821 338.13 248.821C338.13 248.821 338.13 248.821 337.504 248.195C333.116 244.436 328.101 243.81 323.713 243.183C321.832 242.557 319.952 242.557 318.071 241.93C311.802 240.051 305.534 238.798 299.265 236.919C289.862 234.413 279.833 231.907 270.43 228.775C256.639 223.763 249.117 230.654 242.221 238.172C232.191 249.448 220.908 260.724 208.371 272C205.237 274.506 202.729 277.638 200.222 280.771L198.341 283.277C196.461 285.782 197.087 288.288 197.087 289.541V290.168C198.968 298.938 201.475 308.335 203.983 317.105C205.863 324.623 208.371 332.767 210.251 340.911C210.878 343.417 211.505 345.922 212.132 347.802C213.386 350.934 214.013 354.066 214.639 357.199C215.893 364.09 219.654 367.848 225.923 369.728C242.848 374.113 256.639 377.872 270.43 381.63ZM222.789 357.199C222.162 354.066 220.908 350.308 220.281 347.175C219.654 344.669 219.028 342.79 218.401 340.284C216.52 332.14 214.64 323.996 212.132 316.479C209.625 307.708 207.117 298.938 205.237 290.168V289.541C205.237 288.915 205.237 288.288 205.237 288.288L207.117 285.782C209.625 282.65 212.132 280.144 214.639 277.638C226.55 266.989 238.46 255.086 248.49 243.81C254.758 236.919 259.773 231.907 269.803 236.292C279.206 240.051 289.236 242.557 299.265 245.063C305.534 246.315 311.802 248.195 317.444 250.074C319.325 250.701 321.205 251.327 323.713 251.327C327.474 251.954 331.235 252.58 334.369 255.086C336.25 260.098 337.504 265.736 338.757 270.747C339.384 272.627 340.011 275.133 340.638 277.012L341.265 278.891C345.026 293.926 349.414 308.961 353.802 323.996C355.056 328.382 354.429 330.887 350.668 334.02C343.145 341.537 335.623 349.055 328.101 356.572C319.952 364.716 311.802 373.487 303.026 382.257C300.519 384.763 299.265 384.763 296.758 384.136C289.862 382.257 282.967 380.378 277.325 378.498L272.31 377.245C258.52 373.487 244.102 369.728 230.311 366.596C225.296 363.463 223.415 361.584 222.789 357.199ZM303.653 121.65C321.832 126.035 340.638 131.047 359.444 136.059C366.339 137.938 371.354 137.312 376.369 132.3L376.996 131.674C385.145 122.903 393.294 114.133 404.577 102.857C409.592 97.8449 415.234 92.8332 422.129 85.9422C427.144 81.557 428.398 77.1718 426.517 70.9072C422.129 55.8722 418.368 41.4636 414.607 26.4286L408.339 3.24963C408.339 2.62317 407.712 1.37027 407.085 0.743805L407.712 -0.509094C407.712 -1.13556 407.085 -1.13553 407.085 -1.76199L406.458 -2.38849C405.204 -3.01495 403.951 -3.64139 403.324 -4.26785L398.309 0.743805C399.563 1.37027 401.443 1.99673 402.697 2.6232V3.24963C402.697 3.8761 403.324 4.50256 403.324 5.12903L409.592 28.308C413.353 43.343 417.741 57.7515 421.503 72.7865C422.756 76.5453 421.503 79.0511 418.368 81.5569C410.846 88.448 405.204 93.4597 400.189 98.4713C388.906 109.748 380.13 119.144 371.981 127.288C368.22 131.047 365.712 131.674 360.07 130.421C341.892 124.783 322.459 120.397 304.28 115.386L298.012 114.133C294.25 112.88 292.37 111.627 291.116 107.868L286.728 112.253C288.609 116.012 291.743 118.518 296.758 119.771L303.653 121.65ZM215.266 545.763H214.013C208.371 544.51 200.849 548.895 198.968 553.907C197.087 559.545 198.341 565.809 202.102 570.195C205.237 573.327 212.132 575.833 218.401 573.327C219.654 572.7 220.908 572.074 222.162 570.821C225.296 567.689 227.803 562.051 226.55 557.039C225.923 555.159 225.923 553.907 225.296 552.654L224.669 550.774C224.669 550.148 224.042 549.521 223.415 549.521L222.789 548.895C220.281 546.389 217.774 546.389 215.266 545.763ZM219.028 553.907C219.654 555.159 219.654 556.412 220.281 558.292C220.908 561.424 218.401 566.436 215.893 567.689C212.132 568.942 208.371 567.689 205.863 565.809C203.983 563.93 202.729 559.545 203.983 555.786C203.983 555.159 204.61 554.533 205.237 554.533C207.117 552.654 210.878 551.401 212.759 551.401H214.013C215.893 551.401 217.147 552.027 219.028 552.654V553.907ZM1207.58 11.3936L1205.07 13.8995C1203.19 16.4053 1203.82 18.9111 1203.82 20.164V20.7905C1205.7 29.5609 1208.21 38.9578 1210.72 47.7282C1212.6 53.9928 1213.85 59.6309 1215.73 65.8955L1220.75 60.8839C1219.49 55.8722 1218.24 50.8605 1216.99 45.8488C1214.48 37.0784 1211.97 28.308 1210.09 19.5375V18.9111C1210.09 18.2846 1210.09 17.6582 1210.09 17.6582L1212.6 15.1524C1215.1 12.0201 1217.61 9.51422 1220.12 7.00839C1220.75 6.38193 1221.37 5.75549 1222 5.12903L1217.61 0.743805C1216.99 1.37027 1216.36 1.99673 1215.73 2.6232C1212.6 5.75549 1210.09 8.88779 1207.58 11.3936ZM1080.96 42.7166C1079.7 42.7166 1077.82 42.0901 1076.57 41.4636C1068.42 38.9578 1060.27 37.0784 1052.75 35.199C1042.09 32.6932 1031.44 29.5609 1020.78 26.4286C1014.51 24.5493 1008.87 25.8022 1004.48 31.4403C995.704 40.8372 986.928 49.6076 978.779 57.7516C972.511 64.0161 965.615 70.2807 959.347 76.5453C953.705 81.557 952.451 86.5686 954.332 94.0861C959.973 112.253 964.361 131.047 968.749 149.214L970.63 156.732C971.884 162.997 975.645 166.755 981.913 168.008L989.436 169.888C1007.61 174.273 1026.42 179.284 1044.6 184.296C1051.49 186.175 1056.51 185.549 1061.52 180.537L1062.15 179.911C1070.3 171.141 1079.08 162.37 1089.73 151.094C1094.75 146.082 1100.39 141.07 1107.29 134.179C1111.67 129.794 1113.55 124.783 1111.67 119.144C1107.29 104.109 1103.52 89.7009 1099.76 74.6659L1093.49 51.487C1093.49 50.8605 1092.87 49.6076 1092.24 48.9811L1091.61 48.3547C1091.61 47.7282 1090.99 47.7282 1090.99 47.1017L1090.36 46.4753C1088.48 43.9695 1084.72 43.343 1080.96 42.7166ZM1088.48 51.487C1088.48 52.1134 1089.11 52.7398 1089.11 53.3663L1095.37 76.5453C1099.14 91.5803 1103.52 106.615 1107.29 121.024C1108.54 124.783 1107.29 127.288 1104.15 129.794C1096.63 136.685 1090.99 141.697 1085.97 146.709C1074.69 157.985 1065.91 166.755 1057.76 175.526C1054 179.284 1051.49 179.911 1045.85 178.658C1027.67 173.02 1008.87 168.635 990.063 163.623L982.54 161.744C978.152 160.491 976.272 158.611 975.645 154.853L973.764 147.335C969.376 129.168 964.361 110.374 958.72 91.5803C957.466 86.5686 957.466 83.4363 961.227 80.304L961.854 79.6776C968.749 73.413 975.018 67.1484 981.913 60.8839C990.063 52.7399 998.839 43.343 1007.61 33.9461C1010.75 30.1873 1013.88 29.5609 1017.64 30.8138C1028.3 34.5726 1038.96 37.0784 1049.61 40.2107C1057.76 42.0901 1065.29 44.5959 1073.43 46.4753C1075.32 47.1017 1076.57 47.1017 1078.45 47.7282C1083.46 48.9811 1085.97 49.6076 1088.48 51.487ZM840.244 -355.711L838.363 -353.205C836.482 -350.699 837.109 -348.193 837.109 -346.941V-346.314C838.99 -337.544 841.497 -328.147 844.005 -319.376C845.885 -311.859 848.393 -303.715 850.273 -295.571C850.9 -293.065 851.527 -290.559 852.154 -288.68C853.408 -285.548 854.034 -282.415 854.661 -279.283C855.915 -272.392 859.676 -268.633 865.945 -266.754C879.736 -263.622 893.526 -259.863 907.317 -256.104L912.959 -254.851C918.601 -253.598 925.496 -251.719 931.765 -249.213C937.407 -247.334 941.168 -249.84 943.675 -252.972C946.809 -256.104 949.944 -259.236 953.078 -262.995L948.69 -267.38C945.556 -264.248 942.421 -261.116 939.287 -257.357C936.78 -254.851 935.526 -254.851 933.019 -255.478C926.123 -257.357 919.228 -259.236 913.586 -261.116L907.944 -262.369C894.153 -266.127 880.362 -269.886 866.572 -273.018C862.184 -274.271 860.303 -276.151 859.676 -280.536C859.049 -283.668 857.796 -287.427 857.169 -290.559C856.542 -293.065 855.915 -294.945 855.288 -297.45C853.408 -305.594 851.527 -313.738 849.02 -321.256C846.512 -330.026 844.005 -338.797 842.124 -347.567V-348.193C842.124 -348.82 842.124 -349.446 842.124 -349.446L844.005 -351.952C846.512 -355.085 849.02 -357.59 851.527 -360.096C852.154 -360.723 852.781 -361.349 853.408 -361.976L849.02 -366.361C848.393 -365.734 847.766 -365.108 847.139 -364.481C845.259 -361.349 842.751 -358.217 840.244 -355.711ZM622.724 -197.217C640.903 -192.832 659.709 -187.82 677.887 -182.808C684.783 -180.929 689.798 -181.556 694.813 -186.567L695.439 -187.194C703.589 -195.964 711.738 -204.735 723.021 -216.011C728.036 -221.022 733.678 -226.034 740.573 -232.925C745.588 -237.31 746.842 -242.322 744.961 -247.96C740.573 -262.995 736.812 -277.404 733.051 -292.439L726.782 -315.618C726.782 -316.244 726.155 -317.497 725.529 -318.123L724.902 -318.75C724.902 -319.376 724.275 -319.376 724.275 -320.003L723.648 -320.629C722.394 -321.256 721.141 -321.882 720.514 -322.509L716.126 -318.123C717.379 -317.497 719.26 -316.871 720.514 -316.244V-315.618C720.514 -314.991 721.141 -314.365 721.141 -313.738L727.409 -290.559C731.17 -275.524 735.558 -261.116 739.319 -246.081C740.573 -242.322 739.319 -239.816 736.185 -237.31C728.663 -230.419 723.021 -225.408 718.006 -220.396C706.723 -209.12 697.947 -199.723 689.798 -191.579C686.037 -187.82 683.529 -187.194 677.887 -188.447C659.709 -194.085 640.903 -198.47 622.097 -203.482L614.575 -205.361C610.814 -206.614 608.933 -207.867 607.679 -211.626L603.291 -207.24C605.172 -203.482 608.306 -200.976 613.321 -199.723L622.724 -197.217ZM674.126 -249.213C674.753 -249.84 675.38 -250.466 676.007 -251.092C683.529 -258.61 679.141 -267.38 677.887 -270.513C677.887 -271.139 677.261 -271.139 677.261 -271.766C676.007 -273.018 674.126 -273.645 673.499 -273.645L669.111 -269.26C669.111 -269.26 669.111 -269.26 669.738 -269.26C670.992 -268.633 671.619 -268.633 672.246 -268.633C672.873 -268.633 673.499 -268.633 673.499 -268.007C676.634 -261.742 676.007 -257.357 670.992 -254.225C669.111 -252.972 661.589 -252.972 660.335 -254.225C660.335 -255.478 659.709 -256.731 659.082 -257.983C659.082 -258.61 659.082 -258.61 658.455 -259.236L654.067 -254.851C654.067 -254.225 654.694 -253.598 654.694 -253.598C654.694 -252.345 655.947 -250.466 659.082 -249.213C662.843 -246.707 670.992 -246.707 674.126 -249.213ZM1038.96 92.8332C1029.55 87.8215 1025.17 94.0861 1022.03 98.4713L1020.78 100.351C1017.64 104.736 1018.9 109.121 1020.15 111.627C1020.78 112.253 1020.78 113.506 1021.41 114.133C1021.41 115.386 1022.66 117.265 1025.79 118.518C1030.18 120.397 1037.7 120.397 1041.46 117.892C1042.09 117.265 1042.72 116.639 1043.35 116.012C1050.87 108.495 1046.48 99.7242 1045.23 96.5919C1045.23 95.9655 1044.6 95.9655 1044.6 95.3391C1043.35 94.0861 1041.46 93.4597 1040.21 93.4597C1039.58 92.8332 1039.58 92.8332 1038.96 92.8332ZM1040.21 99.0978C1043.35 105.362 1042.72 109.748 1037.7 112.88C1035.82 114.133 1028.3 114.133 1027.05 112.88C1027.05 111.627 1026.42 110.374 1025.79 109.121C1024.54 105.989 1024.54 104.736 1025.17 103.483L1026.42 101.604C1027.67 100.351 1028.3 99.0978 1028.93 98.4713C1030.81 96.592 1032.69 95.9655 1035.82 97.8448C1037.08 98.4713 1037.7 98.4713 1038.33 98.4713C1039.58 98.4713 1040.21 99.0978 1040.21 99.0978Z" fill="#636363"/>
</svg>
