<svg width="45" height="45" viewBox="0 0 45 45" fill="none" xmlns="http://www.w3.org/2000/svg">
<path d="M5.01602 11.6738L5.01613 11.6739C5.24993 11.8619 5.3485 12.1648 5.2696 12.4546M5.01602 11.6738L5.2696 12.4546M5.01602 11.6738L2.90168 9.97437L5.61106 9.84233L5.01602 11.6738ZM5.2696 12.4546L4.55803 15.072M5.2696 12.4546L4.55803 15.072M4.55803 15.072L6.82747 13.5864C6.8275 13.5864 6.82753 13.5864 6.82756 13.5864C7.0787 13.422 7.39727 13.422 7.64841 13.5864C7.64845 13.5864 7.64848 13.5864 7.64851 13.5864L9.91804 15.0721L9.20646 12.4547C9.20645 12.4547 9.20643 12.4546 9.20642 12.4545C9.1276 12.1648 9.22618 11.8619 9.45993 11.6739L9.46004 11.6738L11.5744 9.97446L8.865 9.84241C8.56493 9.82783 8.30745 9.64035 8.20089 9.36017L8.20078 9.35988L7.2381 6.82393L6.27537 9.35956L6.27527 9.35982L4.55803 15.072ZM20.8106 7.99114L20.8106 7.99139L21.5223 10.6089L19.2528 9.12327C19.0016 8.95876 18.6829 8.95876 18.4318 9.12327L16.1623 10.6089L16.8739 7.99128L16.874 7.99105C16.9524 7.70207 16.8547 7.39893 16.6203 7.21059C16.6203 7.21055 16.6202 7.21051 16.6202 7.21047L14.506 5.5112L17.2154 5.37915C17.2154 5.37915 17.2154 5.37915 17.2154 5.37915C17.5155 5.36454 17.7729 5.17707 17.8795 4.89691L17.8796 4.89664L18.8423 2.36097L19.805 4.89662C19.9116 5.17737 20.1695 5.36464 20.4692 5.37924C20.4692 5.37924 20.4693 5.37924 20.4693 5.37924L23.1787 5.51129L21.0645 7.21056C20.8302 7.39867 20.732 7.70176 20.8106 7.99114ZM21.6955 11.246C21.6955 11.2457 21.6954 11.2455 21.6953 11.2452L21.6955 11.2459L21.6955 11.246ZM15.9891 11.246L15.9891 11.2459L15.9891 11.246ZM13.8472 5.54331C13.847 5.54331 13.8469 5.54332 13.8467 5.54333L13.8467 5.54333L13.8472 5.54331ZM34.3547 35.8989L32.9981 34.5423C32.3591 33.9034 31.3228 33.9034 30.6838 34.5423L30.6838 34.5423C30.0449 35.1813 30.0449 36.2176 30.6838 36.8565L33.2018 39.3745C33.8407 40.0134 34.877 40.0134 35.516 39.3745C36.4718 38.4187 37.4223 37.4545 38.3714 36.4919C38.93 35.9253 39.4881 35.3592 40.0465 34.7956C40.6805 34.1558 40.6792 33.1223 40.039 32.4856C39.3996 31.8497 38.363 31.8506 37.7266 32.4933L38.0819 32.8451L37.7266 32.4933L34.3547 35.8989ZM5.92687 38.6153L5.92689 38.6152C7.02697 32.4803 12.3913 27.8245 18.8425 27.8245C22.0395 27.8245 24.968 28.9675 27.2445 30.8677C26.3262 32.3366 25.795 34.0727 25.795 35.932C25.795 36.9975 25.9694 38.0231 26.2914 38.9812L6.23313 38.9813C6.03628 38.9813 5.89211 38.8089 5.92687 38.6153ZM28.2243 11.6739L28.2242 11.6738L26.1098 9.97437L28.8192 9.84233C29.1187 9.82777 29.3768 9.64087 29.4834 9.35982C29.4834 9.35973 29.4835 9.35965 29.4835 9.35957L30.4463 6.82386L31.4088 9.35986L31.4089 9.36017C31.5155 9.64035 31.773 9.82783 32.073 9.84241L34.7824 9.97446L32.6681 11.6738L32.668 11.6739C32.4342 11.862 32.3356 12.1649 32.4145 12.4547L33.1262 15.072L30.8566 13.5864C30.8566 13.5864 30.8566 13.5864 30.8565 13.5864C30.6054 13.422 30.2868 13.422 30.0357 13.5864C30.0357 13.5864 30.0356 13.5864 30.0356 13.5864L27.7662 15.072L28.4777 12.4546C28.4778 12.4546 28.4778 12.4545 28.4778 12.4545C28.5566 12.1647 28.458 11.8618 28.2243 11.6739ZM25.4506 10.0065L25.4511 10.0065C25.4509 10.0065 25.4507 10.0065 25.4506 10.0065L25.4384 9.75618L25.4506 10.0065ZM30.6806 6.20674C30.6806 6.20678 30.6805 6.20681 30.6805 6.20684L30.6806 6.20674ZM35.4417 10.0066C35.4416 10.0066 35.4414 10.0066 35.4413 10.0066L35.4417 10.0066L35.4539 9.75624L35.4417 10.0066ZM33.2994 15.7091C33.2993 15.7089 33.2992 15.7086 33.2992 15.7084L33.2994 15.7091L33.2994 15.7091ZM33.6781 15.4334C33.6783 15.4335 33.6784 15.4335 33.6785 15.4336L33.6785 15.4336L33.6781 15.4334ZM27.2139 15.4336C27.2139 15.4335 27.214 15.4335 27.214 15.4335L27.2139 15.4336ZM27.593 15.7091L27.593 15.709C27.593 15.7091 27.593 15.7091 27.593 15.7091ZM4.00574 15.4336C4.0058 15.4335 4.00585 15.4335 4.00591 15.4335L4.00574 15.4336ZM4.38484 15.7091L4.38485 15.709L4.38484 15.7091ZM2.24245 10.0065L2.24291 10.0065C2.24275 10.0065 2.2426 10.0065 2.24244 10.0065L2.24245 10.0065ZM12.2336 10.0066C12.2335 10.0066 12.2333 10.0066 12.2331 10.0066L12.2336 10.0066L12.2336 10.0066ZM10.0912 15.7091C10.0912 15.709 10.0912 15.7088 10.0911 15.7087L10.0912 15.7091L10.0912 15.7091ZM10.4699 15.4333C10.47 15.4334 10.4702 15.4335 10.4704 15.4336L10.4703 15.4336L10.4699 15.4333ZM35.3628 28.7703C39.3181 28.7703 42.5245 31.9768 42.5245 35.932C42.5245 39.8873 39.3181 43.0937 35.3628 43.0937C31.4075 43.0937 28.2011 39.8873 28.2011 35.932C28.2011 31.9768 31.4075 28.7703 35.3628 28.7703ZM18.8425 13.1702C22.3702 13.1702 25.2301 16.0301 25.2301 19.5578C25.2301 23.0856 22.3702 25.9455 18.8425 25.9455C15.3147 25.9455 12.4548 23.0856 12.4548 19.5578C12.4547 16.0301 15.3146 13.1702 18.8425 13.1702Z" stroke="black"/>
</svg>
