<svg width="45" height="45" viewBox="0 0 45 45" fill="none" xmlns="http://www.w3.org/2000/svg">
<g clip-path="url(#clip0_120_3027)">
<path d="M17.1387 21.1816C17.8655 21.1816 18.457 21.7731 18.457 22.5C18.457 23.2269 17.8655 23.8184 17.1387 23.8184C16.4118 23.8184 15.8203 23.2269 15.8203 22.5C15.8203 21.7731 16.4118 21.1816 17.1387 21.1816Z" fill="black"/>
<path d="M18.457 16.04V18.7717C18.0448 18.6249 17.601 18.5449 17.1387 18.5449C14.9581 18.5449 13.1836 20.3194 13.1836 22.5C13.1836 24.6806 14.9581 26.4551 17.1387 26.4551C17.601 26.4551 18.0448 26.3751 18.457 26.2283V28.96C18.0255 29.0479 17.5843 29.0918 17.1387 29.0918C13.5044 29.0918 10.5469 26.1343 10.5469 22.5C10.5469 18.8657 13.5044 15.9082 17.1387 15.9082C17.5843 15.9082 18.0255 15.9521 18.457 16.04Z" fill="black"/>
<path d="M14.502 5.86133H17.957V12.8053C17.6855 12.7826 17.4125 12.7715 17.1387 12.7715C11.7737 12.7715 7.41016 17.135 7.41016 22.5C7.41016 27.865 11.7737 32.2285 17.1387 32.2285C17.4125 32.2285 17.6855 32.2174 17.957 32.1947V39.1387H14.502C14.0504 39.1387 13.6836 38.7719 13.6836 38.3203V36.4535V36.0759L13.3204 35.9726C12.2802 35.6767 11.2767 35.2578 10.3198 34.7203L9.98922 34.5347L9.72123 34.8028L8.39508 36.1298C8.0753 36.4496 7.5578 36.4496 7.23803 36.1298L3.50883 32.4006C3.18937 32.0812 3.1904 31.562 3.50883 31.2436L4.83598 29.9164L5.10425 29.6482L4.91811 29.3176C4.38007 28.362 3.962 27.3587 3.66608 26.3183L3.56277 25.9551H3.18516H1.31836C0.866768 25.9551 0.5 25.5883 0.5 25.1367V19.8633C0.5 19.4117 0.866767 19.0449 1.31836 19.0449H3.18516H3.56277L3.66608 18.6817C3.962 17.6413 4.38008 16.6379 4.9182 15.6814L5.10421 15.3507L4.83586 15.0826L3.50883 13.7564C3.1904 13.438 3.18937 12.9188 3.50883 12.5994L7.23803 8.87016C7.5578 8.55038 8.0753 8.55038 8.39508 8.87015L9.72223 10.1973L9.9905 10.4656L10.3211 10.2794C11.2767 9.7414 12.28 9.32333 13.3204 9.02741L13.6836 8.9241V8.54648V6.67969C13.6836 6.2281 14.0504 5.86133 14.502 5.86133Z" stroke="black"/>
<path d="M43.0212 12.7715H37.5898V7.34011L43.0212 12.7715ZM30.498 12.7715H25.0488C24.045 12.7715 23.2305 13.586 23.2305 14.5898C23.2305 15.5937 24.045 16.4082 25.0488 16.4082H30.498C31.5019 16.4082 32.3164 15.5937 32.3164 14.5898C32.3164 13.586 31.5019 12.7715 30.498 12.7715ZM25.0488 32.2285H38.4082C39.4121 32.2285 40.2266 31.414 40.2266 30.4102C40.2266 29.4063 39.4121 28.5918 38.4082 28.5918H25.0488C24.045 28.5918 23.2305 29.4063 23.2305 30.4102C23.2305 31.414 24.045 32.2285 25.0488 32.2285ZM25.0488 26.9551H38.4082C39.4121 26.9551 40.2266 26.1406 40.2266 25.1367C40.2266 24.1328 39.4121 23.3184 38.4082 23.3184H25.0488C24.045 23.3184 23.2305 24.1328 23.2305 25.1367C23.2305 26.1406 24.045 26.9551 25.0488 26.9551ZM25.0488 21.6816H38.4082C39.4121 21.6816 40.2266 20.8672 40.2266 19.8633C40.2266 18.8594 39.4121 18.0449 38.4082 18.0449H25.0488C24.045 18.0449 23.2305 18.8594 23.2305 19.8633C23.2305 20.8672 24.045 21.6816 25.0488 21.6816ZM33.9531 14.5898C33.9531 15.5937 34.7676 16.4082 35.7715 16.4082H44.5V38.3203C44.5 38.7719 44.1332 39.1387 43.6816 39.1387H21.5938V5.86133H33.9531V14.5898Z" stroke="black"/>
</g>
<defs>
<clipPath id="clip0_120_3027">
<rect width="45" height="45" rx="5" fill="white"/>
</clipPath>
</defs>
</svg>
