<svg width="45" height="45" viewBox="0 0 45 45" fill="none" xmlns="http://www.w3.org/2000/svg">
<path d="M34.9102 27.8174L35.5139 27.6333C35.5944 27.6087 35.6738 27.5848 35.7522 27.5612C36.1893 27.4295 36.5913 27.3084 36.9458 27.1488C37.3598 26.9625 37.6338 26.7547 37.7834 26.4964L37.7835 26.4963C37.9077 26.2818 37.9598 26.0094 37.9475 25.6597C37.935 25.3067 37.859 24.9153 37.7611 24.483C37.7408 24.3934 37.7194 24.3014 37.6977 24.2079C37.6184 23.8673 37.5343 23.5059 37.4811 23.162C37.413 22.7219 37.3841 22.2498 37.4963 21.8057L37.4963 21.8056C37.61 21.356 37.8549 20.9488 38.1221 20.587C38.3414 20.2899 38.5975 19.9958 38.8374 19.7203C38.8886 19.6616 38.9389 19.6037 38.9881 19.5469C39.2778 19.2116 39.5304 18.9043 39.7119 18.6018C39.8924 18.3012 39.9802 18.0412 39.9802 17.8017C39.9802 17.572 39.8887 17.2916 39.6939 16.9465C39.501 16.6048 39.2341 16.2459 38.9353 15.8613C38.88 15.79 38.8233 15.7177 38.7661 15.6445C38.5229 15.3338 38.2683 15.0085 38.0503 14.6895C37.7819 14.2968 37.5363 13.8684 37.4239 13.4267L37.4239 13.4266C37.311 12.9827 37.339 12.5106 37.4063 12.0703C37.4589 11.7263 37.5423 11.3647 37.6209 11.0239C37.6425 10.9303 37.6637 10.8384 37.6839 10.7487C37.781 10.3162 37.8563 9.9247 37.868 9.57177C37.8797 9.22204 37.8271 8.94981 37.7025 8.73559L38.1346 8.48414L37.7025 8.73557C37.5778 8.52132 37.3671 8.34101 37.0573 8.17831C36.7447 8.01413 36.3671 7.88606 35.9431 7.75672C35.8553 7.72992 35.7649 7.70291 35.6729 7.67544C35.3377 7.57534 34.9822 7.46915 34.6572 7.34483C34.2411 7.18571 33.8168 6.9767 33.4868 6.65912L33.4868 6.65909C33.1512 6.33615 32.9201 5.9177 32.7401 5.5038C32.5946 5.16898 32.4692 4.8036 32.3517 4.46138C32.3245 4.38226 32.2978 4.30437 32.2713 4.22839C32.1251 3.8087 31.9845 3.43745 31.8121 3.13321C31.6411 2.83131 31.4598 2.63385 31.2533 2.52338L34.9102 27.8174ZM34.9102 27.8174L35.2276 28.363M34.9102 27.8174L35.2276 28.363M35.2276 28.363L38.5088 34.0021L40.3237 37.1213L40.9017 38.1148L41.0618 38.3898L41.1037 38.4619L41.1145 38.4804L41.1172 38.4851L41.1179 38.4862L41.118 38.4865C41.1181 38.4866 41.1181 38.4866 41.3454 38.3544L41.1181 38.4866C41.2652 38.7394 41.2258 38.8738 41.2026 38.9163C41.1793 38.9588 41.0876 39.0645 40.7956 39.0773C40.7955 39.0773 40.7954 39.0774 40.7954 39.0774L36.8214 39.2505C36.3134 39.2727 35.7775 39.4639 35.3184 39.731C34.8594 39.9981 34.4284 40.3695 34.1581 40.7997L34.158 40.7999L32.0431 44.1693C31.8875 44.4171 31.7504 44.4445 31.7021 44.4437C31.6537 44.4429 31.5175 44.4107 31.3703 44.1577L30.9381 44.4091C31.3703 44.1577 31.3703 44.1576 31.3702 44.1576L31.37 44.1572L31.3692 44.1558L31.366 44.1503L31.3533 44.1284L31.3037 44.0433L31.1156 43.7199L30.4441 42.5656L28.4063 39.0628L26.3682 35.5594L25.6964 34.4044L25.508 34.0806L25.4584 33.9952L25.4485 33.9782C25.3986 33.882 25.3236 33.7792 25.2096 33.7023C25.0793 33.6146 24.9346 33.5856 24.802 33.5981C24.5851 33.6186 24.4346 33.7474 24.3993 33.7776L24.3968 33.7798L24.3966 33.7799C24.0599 34.0672 23.748 34.3161 23.4411 34.4939C23.1363 34.6705 22.8672 34.7584 22.6157 34.7584C22.3503 34.7584 22.0172 34.6582 21.6499 34.4691C21.2892 34.2833 20.9323 34.0308 20.63 33.7734L20.6295 33.773C20.5127 33.6738 20.3407 33.6002 20.1411 33.6162C19.9312 33.6331 19.7568 33.7428 19.63 33.8909L19.6299 33.8909L19.6256 33.8962C19.6033 33.9249 19.5818 33.9576 19.5804 33.96L19.5786 33.963L19.5769 33.9659L19.5732 33.9722L19.5602 33.9947L19.5102 34.0808L19.3215 34.4065L18.6486 35.5678L16.608 39.0905L14.5679 42.6125L13.8956 43.7731L13.7073 44.0983L13.6577 44.184L13.6449 44.2059L13.6417 44.2115L13.6409 44.2129L13.6407 44.2132C13.6407 44.2132 13.6407 44.2133 13.6439 44.2151L13.6407 44.2133C13.4939 44.4666 13.3577 44.499 13.3093 44.4999C13.261 44.5008 13.1238 44.4736 12.9677 44.2261C12.9677 44.226 12.9677 44.226 12.9676 44.226L10.8468 40.8607L10.8468 40.8606C10.5757 40.4306 10.144 40.06 9.68445 39.7938C9.22492 39.5276 8.6887 39.3374 8.18087 39.316L8.18068 39.316L4.20634 39.1503C3.91384 39.138 3.82189 39.0324 3.79863 38.99C3.77539 38.9477 3.73571 38.8134 3.88256 38.5601L3.88258 38.56M35.2276 28.363L3.88258 38.56M13.6814 2.57892L13.6813 2.57898C13.4749 2.68981 13.294 2.88761 13.1235 3.18987C12.9517 3.49444 12.8117 3.86596 12.6663 4.28593C12.64 4.36197 12.6134 4.4399 12.5864 4.51907C12.4695 4.86152 12.3448 5.22714 12.1998 5.56221C12.0207 5.97643 11.7903 6.3953 11.4553 6.71881L11.4553 6.71883C11.1258 7.03699 10.7019 7.24675 10.2862 7.40662C9.96138 7.53151 9.60609 7.63834 9.27117 7.73904C9.17921 7.76669 9.08878 7.79388 9.00094 7.82086C8.57722 7.95098 8.19986 8.07974 7.88752 8.24451C7.57801 8.40779 7.36764 8.5885 7.24336 8.80301L6.81073 8.55236L7.24336 8.80301C7.11913 9.01744 7.06702 9.28974 7.07936 9.63941C7.09181 9.99227 7.16784 10.3836 7.26575 10.8159C7.28604 10.9055 7.30742 10.9974 7.32917 11.0909C7.40844 11.4316 7.49253 11.793 7.54577 12.1369C7.6139 12.5772 7.64281 13.0493 7.53072 13.4934L7.53071 13.4935C7.41919 13.9352 7.17036 14.347 6.90138 14.7177C6.69899 14.9967 6.46245 15.2818 6.23563 15.5551C6.16185 15.6441 6.08909 15.7318 6.01888 15.8176C5.72263 16.1797 5.4595 16.5225 5.26971 16.8626C5.08079 17.201 4.98205 17.5066 4.98205 17.7947C4.98205 18.034 5.06999 18.2935 5.25079 18.5936C5.43275 18.8957 5.68597 19.2025 5.97645 19.5372C6.0259 19.5942 6.07661 19.6522 6.12806 19.711C6.36848 19.9859 6.62512 20.2793 6.845 20.5757C7.11299 20.937 7.3589 21.3438 7.47332 21.7935C7.58628 22.2373 7.55826 22.7095 7.49096 23.1498C7.43839 23.4938 7.355 23.8553 7.27638 24.1962C7.2548 24.2897 7.23358 24.3817 7.21346 24.4713C7.11636 24.9038 7.04107 25.2954 7.02928 25.6483C7.0176 25.9981 7.07021 26.2704 7.19488 26.4848L13.6814 2.57892ZM13.6814 2.57892C13.8894 2.46714 14.1563 2.42501 14.5045 2.44914C14.8552 2.47345 15.2441 2.56117 15.6757 2.67067C15.7524 2.69012 15.8307 2.71035 15.9103 2.73089C16.2625 2.82185 16.6384 2.91893 16.9994 2.98169C17.4434 3.05889 17.9198 3.09541 18.3729 2.99008C18.4731 2.96679 18.5581 2.91974 18.6053 2.89211C18.6624 2.85871 18.7218 2.81851 18.7795 2.77716C18.8952 2.69436 19.0342 2.58539 19.1836 2.46633C19.2406 2.4209 19.2999 2.37343 19.3612 2.3243C19.6283 2.11041 19.9344 1.8652 20.2645 1.62077C20.6706 1.32013 21.0966 1.03314 21.5028 0.822938C21.9189 0.607607 22.2633 0.5 22.5184 0.5C22.766 0.5 23.033 0.589167 23.3389 0.768954C23.6467 0.949861 23.9587 1.20102 24.2972 1.48744C24.3545 1.53593 24.4128 1.58562 24.4718 1.636C24.7499 1.87308 25.046 2.12559 25.3438 2.34027C25.706 2.60144 26.1138 2.83986 26.5623 2.94323C27.0156 3.04771 27.4919 3.01034 27.9358 2.93235M13.6814 2.57892L27.9358 2.93235M3.88258 38.56L3.45004 38.3094M3.88258 38.56L3.45004 38.3094M3.45004 38.3094C3.88258 38.56 3.8826 38.56 3.88264 38.5599L3.88281 38.5596L3.88351 38.5584L3.88629 38.5536L3.8973 38.5346L3.94028 38.4604L4.10399 38.1779L4.69315 37.1611L6.52414 34.001L9.63566 28.6309C9.71004 28.5159 9.76241 28.374 9.75689 28.2134C9.75106 28.0438 9.68264 27.9085 9.60734 27.8138C9.47237 27.6441 9.28661 27.5638 9.17909 27.5316M3.45004 38.3094L9.17909 27.5316M15.122 29.1838L15.1191 29.1819C8.99152 25.257 6.97538 17.1391 10.6591 10.7812C14.3847 4.35004 22.5732 2.08129 29.0623 5.61539C29.0623 5.6154 29.0623 5.61541 29.0623 5.61542L28.8232 6.05452C28.847 6.06745 28.8705 6.0807 28.8941 6.09395L15.122 29.1838ZM15.122 29.1838C19.3017 31.8201 24.7761 32.1059 29.3383 29.4517C35.8684 25.6527 38.0897 17.2502 34.2907 10.72L33.8585 10.9714L34.2907 10.72C33.0479 8.58383 31.3116 6.90822 29.3095 5.75391L29.3073 5.75267C29.2601 5.72576 29.2124 5.69891 29.1644 5.67229L15.122 29.1838ZM27.9358 2.93235C28.2968 2.86894 28.6726 2.77116 29.0248 2.67955M27.9358 2.93235L29.0248 2.67955M29.0248 2.67955C29.1042 2.65889 29.1824 2.63854 29.2589 2.61898M29.0248 2.67955L29.2589 2.61898M29.2589 2.61898C29.6904 2.5087 30.0791 2.42026 30.4298 2.39528M29.2589 2.61898L30.4298 2.39528M30.4298 2.39528C30.7779 2.37047 31.045 2.41205 31.2532 2.52335L30.4298 2.39528ZM9.17909 27.5316C8.70727 27.3903 8.2813 27.2589 7.92354 27.0843M9.17909 27.5316L7.92354 27.0843M7.92354 27.0843C7.56875 26.9112 7.33079 26.7184 7.1949 26.4848L7.92354 27.0843Z" stroke="black"/>
<path d="M27.8311 8.47023L27.8313 8.47035C32.8919 11.4022 34.6236 17.9048 31.692 22.9655C28.7603 28.0259 22.2575 29.7581 17.1969 26.8263L17.1968 26.8262C17.0738 26.755 16.9519 26.68 16.829 26.6021L16.8258 26.6002C15.4072 25.7166 14.1779 24.4857 13.2802 22.9427L13.2802 22.9427C10.3392 17.8877 12.0597 11.3813 17.1149 8.44034L17.1149 8.44034C20.5204 6.45899 24.5853 6.59262 27.7765 8.43957L27.7783 8.44059C27.8107 8.45919 27.8115 8.45938 27.8121 8.45952C27.8126 8.45964 27.813 8.45972 27.8311 8.47023ZM23.6208 23.5166L25.9145 24.7224L25.9145 24.7224C26.3391 24.9457 26.864 25.0443 27.2808 24.7415C27.6975 24.4386 27.7659 23.909 27.6848 23.4361C27.6848 23.4361 27.6848 23.4361 27.6848 23.4361L27.2468 20.8822L27.2467 20.8821C27.1961 20.5873 27.235 20.1973 27.3621 19.8062C27.4892 19.4151 27.6869 19.0767 27.9011 18.868L27.9011 18.868L29.7567 17.0593C30.1003 16.7244 30.3562 16.2557 30.1971 15.7658C30.0379 15.2759 29.5554 15.047 29.0807 14.9779L29.0806 14.9779L26.5164 14.6053L26.5164 14.6053C26.2203 14.5623 25.8614 14.4047 25.5287 14.163C25.196 13.9213 24.9353 13.6287 24.8029 13.3604L24.3545 13.5817L24.8029 13.3604L23.656 11.0369C23.656 11.0369 23.656 11.0369 23.656 11.0368C23.4437 10.6066 23.077 10.2184 22.5619 10.2184C22.0467 10.2184 21.68 10.6066 21.4676 11.0368L21.4676 11.0369L20.3209 13.3604C20.3209 13.3604 20.3209 13.3604 20.3209 13.3604C20.1885 13.6287 19.9277 13.9213 19.595 14.163C19.2623 14.4047 18.9034 14.5623 18.6074 14.6053L16.0431 14.9779L16.0431 14.9779C15.5683 15.047 15.0858 15.2758 14.9266 15.7657C14.7673 16.2557 15.0233 16.7244 15.3669 17.0593C15.3669 17.0593 15.367 17.0593 15.367 17.0593L17.2224 18.8679L17.2224 18.868C17.4366 19.0767 17.6343 19.4151 17.7614 19.8062C17.8885 20.1974 17.9274 20.5874 17.8769 20.8822L17.8769 20.8822L17.4388 23.4361C17.4388 23.4361 17.4388 23.4361 17.4388 23.4361C17.3577 23.909 17.4261 24.4387 17.8429 24.7415C18.2597 25.0443 18.7846 24.9457 19.2093 24.7224L19.2093 24.7224L21.5028 23.5166C21.5028 23.5166 21.5028 23.5166 21.5028 23.5165C21.7676 23.3773 22.1506 23.2939 22.5618 23.2939C22.973 23.2939 23.356 23.3774 23.6208 23.5166C23.6208 23.5166 23.6208 23.5166 23.6208 23.5166Z" stroke="black"/>
</svg>
