<svg width="45" height="45" viewBox="0 0 45 45" fill="none" xmlns="http://www.w3.org/2000/svg">
<g clip-path="url(#clip0_120_3044)">
<path d="M8.92513 28.5776L8.84177 28.236L8.49203 28.1989L3.25391 27.6442V25.7539H15.3642C15.6208 29.4719 18.7181 32.4083 22.5013 32.4083C26.2846 32.4083 29.3818 29.4718 29.6385 25.7539H41.7488V27.6442L36.5107 28.1989L36.1609 28.236L36.0776 28.5776C35.7353 29.9807 35.1811 31.3009 34.4506 32.5024L34.2679 32.803L34.489 33.0765L37.8016 37.1737L34.4211 40.5542L30.3239 37.2416L30.0504 37.0204L29.7498 37.2032C28.5483 37.9337 27.2281 38.4878 25.8251 38.8301L25.4834 38.9135L25.4464 39.2632L24.8917 44.5013H20.111L19.5563 39.2632L19.5193 38.9135L19.1776 38.8301C17.7746 38.4878 16.4544 37.9337 15.2529 37.2032L14.9523 37.0204L14.6788 37.2416L10.5816 40.5542L7.20107 37.1737L10.5137 33.0765L10.7348 32.803L10.5521 32.5024C9.8216 31.3009 9.26741 29.9807 8.92513 28.5776Z" stroke="black"/>
<path d="M17.9023 5.10056C17.9023 2.56429 19.9666 0.5 22.5029 0.5C25.0392 0.5 27.1035 2.56429 27.1035 5.10056C27.1035 7.63682 25.0392 9.70103 22.5029 9.70103C19.9666 9.70103 17.9023 7.63682 17.9023 5.10056Z" stroke="black"/>
<path d="M17.0737 12.1094C17.0737 12.1094 17.0737 12.1094 17.0737 12.1094H27.9347C30.1589 12.1094 31.9693 13.9197 31.9693 16.144V22.114H13.0391V16.144C13.0391 13.9198 14.8494 12.1095 17.0737 12.1094Z" stroke="black"/>
<path d="M7.61328 6.92464C7.61328 4.68139 9.43913 2.85547 11.6825 2.85547C13.9258 2.85547 15.7516 4.68131 15.7516 6.92464C15.7516 7.54885 15.6104 8.13974 15.3585 8.66829C13.809 9.02332 12.4389 9.84831 11.4045 10.9832C9.29024 10.8398 7.61328 9.07421 7.61328 6.92464Z" stroke="black"/>
<path d="M3.25391 16.82C3.25391 14.8562 4.85237 13.2578 6.81612 13.2578H9.96443C9.60045 14.1499 9.3995 15.1251 9.3995 16.1459V22.116H3.25391V16.82Z" stroke="black"/>
<path d="M29.252 6.92464C29.252 4.68139 31.0778 2.85547 33.3211 2.85547C35.5645 2.85547 37.3903 4.68131 37.3903 6.92464C37.3903 9.07422 35.7133 10.8399 33.599 10.9832C32.5647 9.84831 31.1945 9.02332 29.6449 8.66829C29.3931 8.13975 29.252 7.5488 29.252 6.92464Z" stroke="black"/>
<path d="M35.6008 16.1459C35.6008 15.1251 35.3999 14.1499 35.0359 13.2578H38.1842C40.148 13.2578 41.7464 14.8562 41.7464 16.8199V22.1159H35.6008V16.1459Z" stroke="black"/>
</g>
<defs>
<clipPath id="clip0_120_3044">
<rect width="45" height="45" rx="5" fill="white"/>
</clipPath>
</defs>
</svg>
