<svg width="24" height="24" viewBox="0 0 24 24" fill="none" xmlns="http://www.w3.org/2000/svg">
<g clip-path="url(#clip0_0_4072)">
<path d="M21.0016 7.1612L20.8899 7.24284L20.8997 7.38092C20.9135 7.57394 20.9136 7.76846 20.9136 7.97333C20.9136 14.0696 16.2755 21.0754 7.81299 21.0754C5.56913 21.0754 3.46327 20.5166 1.62142 19.5264C1.6609 19.5267 1.7006 19.5268 1.74055 19.5268C3.99157 19.5268 6.0649 18.7662 7.72025 17.4686L8.27124 17.0367L7.5713 17.0219C5.75849 16.9836 4.21915 15.8797 3.55587 14.3156C3.72173 14.331 3.89074 14.34 4.06494 14.34C4.50872 14.34 4.95112 14.2788 5.36248 14.1722L5.34943 13.6852C3.42576 13.2952 1.95713 11.6772 1.80091 9.67845C2.36489 9.93177 2.99162 10.0871 3.64869 10.1119L4.53348 10.1452L3.79679 9.65406C2.59976 8.85594 1.8162 7.49426 1.8162 5.95378C1.8162 5.25814 1.97217 4.61223 2.25158 4.0311C4.60194 6.76932 8.03461 8.54572 11.8675 8.74601L12.1915 8.76294L12.1253 8.44538C12.0556 8.11072 12.0144 7.76477 12.0144 7.42124C12.0144 4.9726 13.9949 2.97839 16.4567 2.97839C17.7364 2.97839 18.8913 3.51478 19.7027 4.38122L19.7969 4.48183L19.9322 4.45587C20.783 4.2927 21.6062 4.01129 22.3668 3.63279C21.9882 4.38457 21.3989 5.01469 20.6722 5.44857L20.8271 5.91179C21.4988 5.83948 22.1548 5.68878 22.7806 5.47994C22.2611 6.11066 21.6623 6.67877 21.0016 7.1612Z" stroke="black" stroke-width="0.5"/>
</g>
<defs>
<clipPath id="clip0_0_4072">
<rect width="22.8951" height="22.8976" fill="white" transform="translate(0.607422 0.578369)"/>
</clipPath>
</defs>
</svg>
