<svg width="21" height="21" viewBox="0 0 21 21" fill="none" xmlns="http://www.w3.org/2000/svg">
<path d="M3.45508 17.0623V17.3123H3.70508H6.42852H6.43262H6.68262V17.0623V8.29312V8.04312H6.43262H3.70508H3.45508V8.29312V17.0623ZM16.6373 17.3123H16.8873V17.0623V12.2552C16.8873 11.0683 16.7613 9.96026 16.2479 9.14618C15.7179 8.30575 14.8082 7.82573 13.3684 7.82573C12.3192 7.82573 11.5146 8.25104 11.0016 8.7822V8.29312V8.04312H10.7516H8.13887H7.88887V8.29312V17.0623V17.3123H8.13887H10.8623H11.1123V17.0623V12.7228C11.1123 12.1552 11.1686 11.6486 11.3673 11.2886C11.4634 11.1145 11.5918 10.9768 11.7655 10.8807C11.9406 10.7838 12.1765 10.721 12.4988 10.721C12.8074 10.721 13.0172 10.7929 13.1649 10.8962C13.3132 11 13.4202 11.1504 13.4968 11.3442C13.6556 11.7462 13.6639 12.2772 13.6639 12.7966V17.0623V17.3123H13.9139H16.6373ZM2.1834 1.56226H17.9375C18.5193 1.56226 19 2.04303 19 2.63706V18.3625C19 18.9565 18.5193 19.4373 17.9375 19.4373H2.1834C1.60263 19.4373 1.125 18.9575 1.125 18.3625V2.63706C1.125 2.042 1.60263 1.56226 2.1834 1.56226ZM3.2377 5.51636C3.2377 6.52354 4.05467 7.34546 5.0668 7.34546C6.0785 7.34546 6.8959 6.52806 6.8959 5.51636C6.8959 4.50875 6.0744 3.68726 5.0668 3.68726C4.05467 3.68726 3.2377 4.50918 3.2377 5.51636Z" stroke="black" stroke-width="0.5"/>
</svg>
