<svg width="21" height="21" viewBox="0 0 21 21" fill="none" xmlns="http://www.w3.org/2000/svg">
<path d="M14.3204 9.75H11.8069V8.12969C11.8069 7.77209 11.895 7.44963 12.0938 7.2197C12.2868 6.99654 12.6163 6.82357 13.1809 6.82357H14.4373H14.6873V6.57357V4.12268V3.91171L14.4794 3.87624L14.4373 4.12268L14.4793 3.87623L14.4792 3.87621L14.479 3.87618L14.4782 3.87604L14.4754 3.87557L14.465 3.87384L14.4256 3.86745C14.3914 3.86198 14.3416 3.85423 14.2785 3.84496C14.1524 3.82641 13.9732 3.80175 13.7595 3.77709C13.3333 3.72791 12.7651 3.67821 12.2066 3.67821C11.0177 3.67821 10.0074 4.03928 9.29413 4.75333C8.58059 5.46764 8.19308 6.50624 8.19308 7.80464V9.75H5.91183H5.66183V10V12.8804V13.1304H5.91183H8.19308V18.75H2.92857C2.48339 18.75 2.05644 18.5732 1.74164 18.2584C1.42685 17.9436 1.25 17.5166 1.25 17.0714V2.92857C1.25 2.48339 1.42685 2.05644 1.74164 1.74164C2.05644 1.42685 2.48339 1.25 2.92857 1.25H17.0714C17.5166 1.25 17.9436 1.42685 18.2584 1.74164C18.5732 2.05644 18.75 2.48339 18.75 2.92857V17.0714C18.75 17.5166 18.5732 17.9436 18.2584 18.2584C17.9436 18.5732 17.5166 18.75 17.0714 18.75H11.8069V13.1304H13.8784H14.093L14.1255 12.9183L14.5675 10.0379L14.6117 9.75H14.3204Z" stroke="black" stroke-width="0.5"/>
</svg>
