<svg width="72" height="72" viewBox="0 0 72 72" fill="none" xmlns="http://www.w3.org/2000/svg">
<rect x="0.62207" y="0.861328" width="70.8659" height="70.8735" rx="5" fill="#F2E401"/>
<path d="M39.1067 42.3983L39.4067 42.5858L39.6834 42.3653C40.5592 41.6671 41.6676 41.25 42.875 41.25C45.7054 41.25 48 43.5446 48 46.375C48 49.2054 45.7054 51.5 42.875 51.5C40.0446 51.5 37.75 49.2054 37.75 46.375V46.3749C37.7499 46.0006 37.7906 45.6274 37.8715 45.2619L37.9479 44.917L37.6484 44.7298L31.6433 40.9767L31.3433 40.7892L31.0666 41.0097C30.1908 41.7079 29.0824 42.125 27.875 42.125C25.0446 42.125 22.75 39.8304 22.75 37C22.75 34.1696 25.0446 31.875 27.875 31.875C29.0824 31.875 30.1908 32.2921 31.0666 32.9903L31.3433 33.2108L31.6433 33.0233L37.6484 29.2702L37.9479 29.0829L37.8715 28.7381C37.7922 28.3798 37.75 28.0075 37.75 27.625C37.75 24.7946 40.0446 22.5 42.875 22.5C45.7054 22.5 48 24.7946 48 27.625C48 30.4554 45.7054 32.75 42.875 32.75C41.6677 32.75 40.5592 32.3329 39.6834 31.6347L39.4067 31.4141L39.1067 31.6016L33.1016 35.3548L32.8022 35.5419L32.8784 35.8867C33.0405 36.62 33.0405 37.3799 32.8784 38.1132L32.8022 38.458L33.1016 38.6452L39.1067 42.3983Z" stroke="black"/>
</svg>
