<svg width="66" height="66" viewBox="0 0 66 66" fill="none" xmlns="http://www.w3.org/2000/svg">
<rect x="0.0232353" y="0.0351562" width="65.0503" height="65.0759" rx="10" fill="#F2E401"/>
<path d="M23.2586 34.6174L23.262 34.6214L23.4435 34.8332L23.4521 34.8434C23.8529 35.3206 24.2532 35.7971 24.6262 36.2858C25.3739 37.2686 26.0389 38.3269 26.4088 39.5526C26.4538 39.7236 26.4313 39.9055 26.3456 40.0605C26.2587 40.2176 26.1139 40.3344 25.942 40.3862C25.7701 40.4379 25.5848 40.4203 25.4257 40.3372C25.2688 40.2552 25.1496 40.1159 25.0928 39.9484C24.7904 38.947 24.2351 38.0428 23.5309 37.119L23.5309 37.119L23.5276 37.1148C23.1607 36.6405 22.7817 36.1755 22.3912 35.7204L22.2179 35.5132L22.2179 35.5132L22.2143 35.509C21.8685 35.1017 21.5111 34.6802 21.1642 34.2471L21.1636 34.2463C19.5132 32.1912 17.9651 29.7396 17.9651 26.091C17.9651 18.3769 24.147 12.2398 32.5484 12.2398C40.9498 12.2398 47.1318 18.375 47.1318 26.0929C47.1318 29.7393 45.5839 32.1909 43.9333 34.2481C43.6079 34.6527 43.2737 35.0481 42.9479 35.4335L42.8814 35.5122L42.8811 35.5125L42.7056 35.7205C42.7054 35.7208 42.7052 35.721 42.705 35.7212C42.303 36.1959 41.9181 36.6555 41.566 37.119C40.8634 38.0406 40.3097 38.9439 40.0068 39.9394C39.9466 40.1015 39.8277 40.2353 39.6734 40.3139C39.5152 40.3946 39.3319 40.411 39.1619 40.3599C38.9918 40.3088 38.8481 40.194 38.7605 40.0395C38.6754 39.8892 38.6498 39.7125 38.6887 39.5445C39.061 38.322 39.7248 37.2662 40.4722 36.2863L40.4731 36.285C40.8468 35.793 41.2505 35.3128 41.656 34.8323C41.6561 34.8321 41.6563 34.8319 41.6565 34.8317L41.8374 34.6184L41.8383 34.6174L41.8494 34.6042C42.1896 34.2017 42.5273 33.8021 42.8601 33.388L42.8609 33.387C44.4258 31.4333 45.7568 29.2849 45.7568 26.0929C45.7568 19.1825 40.2392 13.6148 32.5484 13.6148C24.8576 13.6148 19.3401 19.1825 19.3401 26.0929C19.3401 29.2847 20.6707 31.4349 22.2362 33.3854C22.5696 33.8021 22.9079 34.2024 23.248 34.6049L23.2586 34.6174L23.2586 34.6174ZM38.7776 44.8231C38.9599 44.8231 39.1348 44.8956 39.2637 45.0245C39.3927 45.1534 39.4651 45.3283 39.4651 45.5106C39.4651 45.693 39.3927 45.8678 39.2637 45.9968C39.1348 46.1257 38.9599 46.1981 38.7776 46.1981H26.3192C26.1369 46.1981 25.962 46.1257 25.8331 45.9968C25.7042 45.8678 25.6317 45.693 25.6317 45.5106C25.6317 45.3283 25.7042 45.1534 25.8331 45.0245C25.962 44.8956 26.1369 44.8231 26.3192 44.8231H38.7776ZM28.5067 51.2606C28.5067 51.0783 28.5792 50.9034 28.7081 50.7745C28.837 50.6456 29.0119 50.5731 29.1942 50.5731H35.9026C36.0849 50.5731 36.2598 50.6456 36.3887 50.7745C36.5177 50.9034 36.5901 51.0783 36.5901 51.2606C36.5901 51.443 36.5177 51.6178 36.3887 51.7468C36.2598 51.8757 36.0849 51.9481 35.9026 51.9481H29.1942C29.0119 51.9481 28.837 51.8757 28.7081 51.7467C28.5792 51.6178 28.5067 51.443 28.5067 51.2606Z" stroke="black" stroke-width="1.5"/>
</svg>
