<svg width="66" height="66" viewBox="0 0 66 66" fill="none" xmlns="http://www.w3.org/2000/svg">
<rect width="65.05" height="65.08" rx="5" fill="#F2E401"/>
<path d="M18.5 29.635C18.5 27.3794 18.5 26.2525 19.0606 25.3469C19.6194 24.4394 20.6281 23.935 22.6456 22.9281L30.1456 19.1781C31.7919 18.3531 32.615 17.9425 33.5 17.9425C34.385 17.9425 35.2081 18.355 36.8544 19.1763L44.3544 22.9263C46.3719 23.935 47.3806 24.4394 47.9394 25.345C48.5 26.2544 48.5 27.3813 48.5 29.6369V40C48.5 43.5363 48.5 45.3025 47.4012 46.4013C46.3025 47.5 44.5363 47.5 41 47.5H26C22.4637 47.5 20.6975 47.5 19.5987 46.4013C18.5 45.3025 18.5 43.5363 18.5 40V29.635Z" stroke="black" stroke-width="1.5"/>
<path d="M18.5 28.75L23.0263 33.2762C23.7293 33.9796 24.683 34.3748 25.6775 34.375H41.3225C42.317 34.3748 43.2707 33.9796 43.9738 33.2762L48.5 28.75" stroke="black" stroke-width="1.5" stroke-linecap="round"/>
</svg>
