<svg width="66" height="66" viewBox="0 0 66 66" fill="none" xmlns="http://www.w3.org/2000/svg">
<rect x="-0.000202179" width="65.05" height="65.08" rx="5" fill="#F2E401"/>
<path d="M32.4998 19.375H47.4998M17.4998 45.625H23.1248M17.4998 19.375H24.9998M30.6248 45.625H47.4998M41.8748 32.5H47.4998M17.4998 32.5H34.3748" stroke="black" stroke-width="1.5" stroke-linecap="round"/>
<path d="M24.9998 19.375C24.9998 21.4461 26.6787 23.125 28.7498 23.125C30.8209 23.125 32.4998 21.4461 32.4998 19.375C32.4998 17.3039 30.8209 15.625 28.7498 15.625C26.6787 15.625 24.9998 17.3039 24.9998 19.375Z" stroke="black" stroke-width="1.5" stroke-linecap="round"/>
<path d="M34.3748 32.5C34.3748 34.5711 36.0537 36.25 38.1248 36.25C40.1959 36.25 41.8748 34.5711 41.8748 32.5C41.8748 30.4289 40.1959 28.75 38.1248 28.75C36.0537 28.75 34.3748 30.4289 34.3748 32.5Z" stroke="black" stroke-width="1.5" stroke-linecap="round"/>
<path d="M23.1248 45.625C23.1248 47.6961 24.8037 49.375 26.8748 49.375C28.9459 49.375 30.6248 47.6961 30.6248 45.625C30.6248 43.5539 28.9459 41.875 26.8748 41.875C24.8037 41.875 23.1248 43.5539 23.1248 45.625Z" stroke="black" stroke-width="1.5" stroke-linecap="round"/>
</svg>
