<svg width="59" height="58" viewBox="0 0 59 58" fill="none" xmlns="http://www.w3.org/2000/svg">
<rect width="58.6669" height="57.3335" rx="16" fill="#F2E401"/>
<path fill-rule="evenodd" clip-rule="evenodd" d="M34.4667 16.0002C35.308 16.0002 36.148 16.1189 36.9467 16.3869C41.868 17.9869 43.6414 23.3869 42.16 28.1069C41.32 30.5189 39.9467 32.7202 38.148 34.5189C35.5734 37.0122 32.748 39.2255 29.7067 41.1322L29.3734 41.3335L29.0267 41.1189C25.9747 39.2255 23.1334 37.0122 20.5347 34.5055C18.748 32.7069 17.3734 30.5189 16.52 28.1069C15.0134 23.3869 16.7867 17.9869 21.7614 16.3589C22.148 16.2255 22.5467 16.1322 22.9467 16.0802H23.1067C23.4814 16.0255 23.8534 16.0002 24.2267 16.0002H24.3734C25.2134 16.0255 26.0267 16.1722 26.8147 16.4402H26.8934C26.9467 16.4655 26.9867 16.4935 27.0134 16.5189C27.308 16.6135 27.5867 16.7202 27.8534 16.8669L28.36 17.0935C28.4825 17.1588 28.6199 17.2586 28.7386 17.3448C28.8139 17.3995 28.8816 17.4487 28.9334 17.4802C28.9551 17.4931 28.9772 17.506 28.9995 17.519C29.1138 17.5857 29.2329 17.6552 29.3334 17.7322C30.8147 16.6002 32.6134 15.9869 34.4667 16.0002ZM38.0133 25.6002C38.5599 25.5855 39.0266 25.1469 39.0666 24.5855V24.4269C39.1066 22.5589 37.9746 20.8669 36.2533 20.2135C35.7066 20.0255 35.1066 20.3202 34.9066 20.8802C34.7199 21.4402 35.0133 22.0535 35.5733 22.2522C36.4279 22.5722 36.9999 23.4135 36.9999 24.3455V24.3869C36.9746 24.6922 37.0666 24.9869 37.2533 25.2135C37.4399 25.4402 37.7199 25.5722 38.0133 25.6002Z" fill="black"/>
</svg>
