<svg width="82" height="82" viewBox="0 0 82 82" fill="none" xmlns="http://www.w3.org/2000/svg">
<rect width="81.3333" height="81.3333" rx="16" fill="#F2E401"/>
<path fill-rule="evenodd" clip-rule="evenodd" d="M32.8833 24H48.4483C54.1167 24 57.3167 27.215 57.3333 32.8833V48.45C57.3333 54.1167 54.1167 57.3333 48.4483 57.3333H32.8833C27.215 57.3333 24 54.1167 24 48.45V32.8833C24 27.215 27.215 24 32.8833 24ZM40.7483 50.4333C41.4666 50.4333 42.0649 49.9 42.1316 49.1833V32.2C42.1983 31.6833 41.9499 31.165 41.4999 30.8833C41.0316 30.6 40.4649 30.6 40.0166 30.8833C39.5649 31.165 39.3166 31.6833 39.3649 32.2V49.1833C39.4499 49.9 40.0483 50.4333 40.7483 50.4333ZM48.4166 50.4333C49.1166 50.4333 49.7149 49.9 49.7999 49.1833V43.7167C49.8483 43.1817 49.5999 42.6833 49.1483 42.4C48.6999 42.1167 48.1333 42.1167 47.6666 42.4C47.2149 42.6833 46.9666 43.1817 47.0333 43.7167V49.1833C47.0999 49.9 47.6983 50.4333 48.4166 50.4333ZM34.365 49.1833C34.2983 49.9 33.7 50.4333 32.9816 50.4333C32.265 50.4333 31.665 49.9 31.6 49.1833V37.6666C31.55 37.1483 31.7983 36.6333 32.25 36.35C32.6983 36.0666 33.2666 36.0666 33.7166 36.35C34.165 36.6333 34.4166 37.1483 34.365 37.6666V49.1833Z" fill="black"/>
</svg>
