<svg width="775" height="583" viewBox="0 0 775 583" fill="none" xmlns="http://www.w3.org/2000/svg">
<circle cx="601.398" cy="309.004" r="3" transform="rotate(89.8864 601.398 309.004)" fill="#24FF00"/>
<circle cx="656.991" cy="103.893" r="7" transform="rotate(89.8864 656.991 103.893)" fill="#0047FF"/>
<circle cx="751.923" cy="573.706" r="7" transform="rotate(89.8864 751.923 573.706)" fill="#0047FF"/>
<circle cx="730.97" cy="92.7462" r="3" transform="rotate(89.8864 730.97 92.7462)" fill="#FF0000"/>
<circle cx="716.801" cy="7.77412" r="7" transform="rotate(89.8864 716.801 7.77412)" fill="#0DB760"/>
<circle cx="660.549" cy="384.886" r="7" transform="rotate(89.8864 660.549 384.886)" fill="#0DB760"/>
<circle cx="771.392" cy="305.667" r="3" transform="rotate(89.8864 771.392 305.667)" fill="#0047FF"/>
<circle cx="104.931" cy="73.9879" r="3" transform="rotate(89.8864 104.931 73.9879)" fill="#24FF00"/>
<circle cx="14.9172" cy="67.1662" r="7" transform="rotate(89.8864 14.9172 67.1662)" fill="#FF0000"/>
<circle cx="8.17112" cy="195.18" r="7" transform="rotate(89.8864 8.17112 195.18)" fill="#0DB760"/>
<circle cx="58.0582" cy="138.081" r="3" transform="rotate(89.8864 58.0582 138.081)" fill="#0047FF"/>
<circle cx="95.0783" cy="148.008" r="7" transform="rotate(89.8864 95.0783 148.008)" fill="#F9F047"/>
</svg>
