<svg width="82" height="82" viewBox="0 0 82 82" fill="none" xmlns="http://www.w3.org/2000/svg">
<rect width="81.3334" height="81.3334" rx="16" fill="#F2E401"/>
<path fill-rule="evenodd" clip-rule="evenodd" d="M41.2107 24.3494C41.4769 24.1105 41.829 23.9853 42.1893 24.0014C49.8074 24.2294 56.1741 29.7597 57.3279 37.151C57.3353 37.1952 57.3353 37.2402 57.3279 37.2843C57.3528 37.634 57.2346 37.9791 56.9995 38.2431C56.7644 38.5071 56.4318 38.6683 56.0752 38.6911L43.2761 39.5352C42.8528 39.5727 42.433 39.4334 42.1199 39.1515C41.8067 38.8697 41.6292 38.4713 41.6309 38.0543L40.7706 25.4822V25.2749C40.7862 24.9213 40.9446 24.5883 41.2107 24.3494ZM40.3328 42.8226L51.4264 42.1118L51.5018 42.1414C51.9782 42.1492 52.4319 42.3424 52.7631 42.6784C53.0943 43.0145 53.2758 43.4659 53.2677 43.9332C52.8306 50.3034 48.1603 55.6259 41.8046 56.9971C35.449 58.3683 28.9336 55.4591 25.813 49.8565C24.8954 48.2429 24.3155 46.4657 24.1074 44.6292C24.0267 44.085 23.9914 43.5353 24.0018 42.9855C24.0228 36.2118 28.8455 30.3651 35.5934 28.9325C36.4103 28.7796 37.2294 29.1875 37.5858 29.9247C37.6745 30.0584 37.7455 30.2028 37.7971 30.3541C37.9236 32.3067 38.0548 34.2408 38.1854 36.1667C38.2886 37.6878 38.3915 39.2038 38.4914 40.7199C38.4862 41.077 38.5423 41.4324 38.6574 41.7712C38.9282 42.4379 39.6023 42.8609 40.3328 42.8226Z" fill="black"/>
</svg>
