<svg width="30" height="30" viewBox="0 0 30 30" fill="none" xmlns="http://www.w3.org/2000/svg">
<path d="M12.1526 24.33H17.8476M12.1113 25.7588H17.8069M13.4507 27.1875H16.5494M23.2582 11.0813C23.2599 9.65904 22.8943 8.26047 22.1968 7.02103C21.4993 5.7816 20.4935 4.74331 19.2769 4.00674C18.0603 3.27018 16.674 2.86031 15.2525 2.81685C13.8309 2.77338 12.4222 3.09778 11.1628 3.75864C9.90348 4.41949 8.83613 5.39439 8.0642 6.58889C7.29227 7.7834 6.84191 9.15702 6.75676 10.5767C6.67161 11.9964 6.95455 13.414 7.57817 14.6922C8.2018 15.9704 9.14497 17.0659 10.3163 17.8725C10.644 18.1084 10.9097 18.42 11.0909 18.7807C11.2721 19.1415 11.3634 19.5407 11.3569 19.9444V22.9013H18.6432V19.9419C18.6396 19.5342 18.7345 19.1318 18.9198 18.7686C19.1051 18.4055 19.3754 18.0925 19.7076 17.8563C20.8034 17.0985 21.6989 16.0861 22.3174 14.9061C22.9358 13.726 23.2586 12.4135 23.2582 11.0813Z" stroke="black" stroke-linecap="round" stroke-linejoin="round"/>
<path d="M16.2568 22.9013V18.4895L17.2874 16.3032M13.743 22.9013V18.4895L12.7124 16.3032" stroke="black" stroke-linecap="round" stroke-linejoin="round"/>
</svg>
