<svg width="24" height="24" viewBox="0 0 24 24" fill="none" xmlns="http://www.w3.org/2000/svg">
<mask id="path-1-inside-1_1_27890" fill="white">
<path d="M22.9551 18.2598L21.877 22.7969C21.7422 23.4707 21.2031 23.9199 20.5293 23.9199C9.20898 23.875 0 14.666 0 3.3457C0 2.67188 0.404297 2.13281 1.07812 1.99805L5.61523 0.919922C6.24414 0.785156 6.91797 1.14453 7.1875 1.72852L9.29883 6.625C9.52344 7.20898 9.38867 7.88281 8.89453 8.24219L6.46875 10.2188C7.99609 13.3184 10.5117 15.834 13.6562 17.3613L15.6328 14.9355C15.9922 14.4863 16.666 14.3066 17.25 14.5312L22.1465 16.6426C22.7305 16.957 23.0898 17.6309 22.9551 18.2598Z"/>
</mask>
<path d="M22.9551 18.2598L23.928 18.491L23.9306 18.4802L23.9329 18.4693L22.9551 18.2598ZM21.877 22.7969L20.904 22.5657L20.8999 22.5832L20.8964 22.6008L21.877 22.7969ZM20.5293 23.9199L20.5253 24.9199H20.5293V23.9199ZM1.07812 1.99805L1.27424 2.97863L1.29185 2.97511L1.30931 2.97096L1.07812 1.99805ZM5.61523 0.919922L5.40571 -0.0578805L5.39485 -0.0555543L5.38405 -0.0529876L5.61523 0.919922ZM7.1875 1.72852L8.10577 1.33256L8.10076 1.32095L8.09546 1.30946L7.1875 1.72852ZM9.29883 6.625L10.2322 6.26602L10.225 6.24738L10.2171 6.22905L9.29883 6.625ZM8.89453 8.24219L8.30636 7.43345L8.28415 7.4496L8.26286 7.46695L8.89453 8.24219ZM6.46875 10.2188L5.83708 9.44351L5.21978 9.9465L5.57174 10.6608L6.46875 10.2188ZM13.6562 17.3613L13.2193 18.2608L13.9314 18.6067L14.4315 17.993L13.6562 17.3613ZM15.6328 14.9355L16.4081 15.5672L16.4137 15.5602L15.6328 14.9355ZM17.25 14.5312L17.646 13.613L17.6276 13.6051L17.609 13.5979L17.25 14.5312ZM22.1465 16.6426L22.6206 15.7621L22.5823 15.7415L22.5424 15.7243L22.1465 16.6426ZM21.9822 18.0286L20.904 22.5657L22.8499 23.0281L23.928 18.491L21.9822 18.0286ZM20.8964 22.6008C20.8524 22.8208 20.7127 22.9199 20.5293 22.9199V24.9199C21.6936 24.9199 22.632 24.1206 22.8575 22.993L20.8964 22.6008ZM20.5333 22.9199C9.76137 22.8772 1 14.113 1 3.3457H-1C-1 15.2191 8.6566 24.8728 20.5253 24.9199L20.5333 22.9199ZM1 3.3457C1 3.21046 1.03905 3.13037 1.0727 3.08755C1.10351 3.04833 1.15922 3.00163 1.27424 2.97863L0.882009 1.01747C-0.293847 1.25264 -1 2.23139 -1 3.3457H1ZM1.30931 2.97096L5.84642 1.89283L5.38405 -0.0529876L0.846939 1.02514L1.30931 2.97096ZM5.82476 1.89772C5.97011 1.86658 6.19454 1.9634 6.27954 2.14757L8.09546 1.30946C7.6414 0.325663 6.51817 -0.296266 5.40571 -0.0578805L5.82476 1.89772ZM6.26923 2.12447L8.38056 7.02095L10.2171 6.22905L8.10577 1.33256L6.26923 2.12447ZM8.36548 6.98398C8.40882 7.09665 8.41218 7.20638 8.39279 7.28878C8.37452 7.36644 8.34038 7.40871 8.30636 7.43345L9.4827 9.05092C10.4166 8.37169 10.5841 7.18096 10.2322 6.26602L8.36548 6.98398ZM8.26286 7.46695L5.83708 9.44351L7.10042 10.994L9.5262 9.01742L8.26286 7.46695ZM5.57174 10.6608C7.19701 13.9591 9.8742 16.6361 13.2193 18.2608L14.0932 16.4618C11.1492 15.0319 8.79517 12.6776 7.36576 9.77674L5.57174 10.6608ZM14.4315 17.993L16.408 15.5672L14.8576 14.3039L12.881 16.7297L14.4315 17.993ZM16.4137 15.5602C16.4857 15.4702 16.6905 15.3875 16.891 15.4646L17.609 13.5979C16.6415 13.2258 15.4986 13.5025 14.8519 14.3109L16.4137 15.5602ZM16.854 15.4495L21.7505 17.5609L22.5424 15.7243L17.646 13.613L16.854 15.4495ZM21.6724 17.523C21.9228 17.6579 22.0057 17.9175 21.9773 18.0502L23.9329 18.4693C24.174 17.3442 23.5381 16.2562 22.6206 15.7621L21.6724 17.523Z" fill="black" mask="url(#path-1-inside-1_1_27890)"/>
</svg>
